<svg id="Layer_1" data-name="Layer 1" xmlns="http://www.w3.org/2000/svg" viewBox="0 0 463.3 311.25"><defs><style>.cls-1{fill:#fff;}</style></defs><title>cosmo-white-logo</title><path class="cls-1" d="M247.06,169.06a8,8,0,0,0,.24-6.73c7.78-2.62,14.73-7.75,20.87-15.46a19.38,19.38,0,0,1-3.31,16.61,18.67,18.67,0,0,1-6.81,5,19.84,19.84,0,0,1-11.41,1.33c.14-.22.28-.46.42-.7m32-16.44a35.28,35.28,0,0,0,1.75-3.25,12.12,12.12,0,0,0,1.81,3.7c-1.5,2.41-3.1,4.72-4.82,7q-11.41,14.87-25.87,20.28a20.66,20.66,0,0,0-2.13-4.22,22.35,22.35,0,0,0-2.06-2.59,22.78,22.78,0,0,0,13.34-1.43,19,19,0,0,0,3.35-1.79,19.36,19.36,0,0,0,4.33-3.8,19,19,0,0,0,1.85-2.9c.52-1.08,1-2.17,1.36-3.21a30.48,30.48,0,0,0,7.08-7.79m-47.58,39.27,1.46.6a10.27,10.27,0,0,1-4.5,8.8,10.26,10.26,0,0,1,3-9.39m2.37.77h1.61a10.22,10.22,0,0,1-.8,9.88,10.41,10.41,0,0,1-.8-9.88m2.52-.18,1.5-.6a10.41,10.41,0,0,1,3,9.39,10.22,10.22,0,0,1-4.54-8.8m5.86-1.43a12.48,12.48,0,0,1-1.92-1.61l.6-1.47a9.65,9.65,0,0,1,6.52,2.17,12,12,0,0,1,2.24,2.3,10.21,10.21,0,0,1-7.43-1.39m-3.6.34,1.12-1.18a12.89,12.89,0,0,1,1.78.9,10.33,10.33,0,0,1,4.65,6.6,10.28,10.28,0,0,1-7.54-6.32m-11.52-.34a10.23,10.23,0,0,1-7.5,1.43,12.12,12.12,0,0,1,2.27-2.34,9.81,9.81,0,0,1,6.53-2.2l.62,1.54a12.25,12.25,0,0,1-1.92,1.57m-4,6.7a10.54,10.54,0,0,1,4.65-6.64,12.89,12.89,0,0,1,1.78-.9l1.15,1.15v0a10.32,10.32,0,0,1-7.58,6.36m-4.75-11.52c.32-.18.56-.32.87-.46a13.21,13.21,0,0,1,3.25-1.11,10.26,10.26,0,0,1,5.72.8V187a8.3,8.3,0,0,1-1.12.42,10.21,10.21,0,0,1-8.73-1.22m21.4-3.94-1.12-1.12a10.17,10.17,0,0,1,7.51-6.46,10.24,10.24,0,0,1-6.39,7.58m1.12,2.27-.6-1.5a10.29,10.29,0,0,1,9.39-3.08,14,14,0,0,1-1.26,1.51,10.16,10.16,0,0,1-7.54,3.07m.17,2.48,0-1.57a10.13,10.13,0,0,1,5.69-.8,11.19,11.19,0,0,1,3.28,1.11,6.94,6.94,0,0,1,.87.46,10.36,10.36,0,0,1-8.8,1.22,8.29,8.29,0,0,1-1.08-.42m-3.21-6.42-1.46-.63a9.85,9.85,0,0,1,3-7.43c.49-.45,1-.9,1.54-1.33,0,.49.1.95.1,1.4a9.93,9.93,0,0,1-3.14,8M229,183.06v0l-.62,1.46a10.11,10.11,0,0,1-7.54-3,16.52,16.52,0,0,1-1.23-1.46,10.13,10.13,0,0,1,9.39,3m2.55.24A4.48,4.48,0,0,1,235.5,182a4.39,4.39,0,0,1,2.2,1.26,4.57,4.57,0,0,1,.52.59,4.09,4.09,0,0,1,.7,2,4.43,4.43,0,0,1-.07,1.19,2.19,2.19,0,0,1-.21.73,3.8,3.8,0,0,1-1.64,2,4.08,4.08,0,0,1-3.18.63,4,4,0,0,1-2.69-1.81,3.07,3.07,0,0,1-.42-.8,3.54,3.54,0,0,1-.28-1.92,1.92,1.92,0,0,1,0-.45,3.8,3.8,0,0,1,1.12-2.13m-.87-2.17-1.15,1.15a10.29,10.29,0,0,1-6.42-7.54,10.26,10.26,0,0,1,7.58,6.39m-44.06-28.07a12.53,12.53,0,0,0,1.81-3.7c.53,1.12,1.12,2.2,1.75,3.25a29.1,29.1,0,0,0,7,7.68,23.52,23.52,0,0,0,1.29,3.32,14.6,14.6,0,0,0,1.81,2.9,19.36,19.36,0,0,0,4.33,3.8A18.31,18.31,0,0,0,208,172.1a23.66,23.66,0,0,0,13.58,1.43,17.54,17.54,0,0,0-4.15,6.81q-14.45-5.34-25.9-20.28c-1.71-2.27-3.31-4.57-4.82-7m48,17a1,1,0,0,1,.21.24,10.26,10.26,0,0,1,.6,9.53H233.9a10.11,10.11,0,0,1,.77-9.77m-6.22,1.18a.11.11,0,0,1,.07,0,18.3,18.3,0,0,1,1.43,1.25,10,10,0,0,1,3,7.47l-1.46.67a10,10,0,0,1-3.18-8,7,7,0,0,1,.14-1.4m-6.24-2.17a6.91,6.91,0,0,0,.38.7A20.37,20.37,0,0,1,211,168.43a18.66,18.66,0,0,1-6.74-5,12.45,12.45,0,0,1-1.61-2.55,21.11,21.11,0,0,1-1.57-14c6.11,7.65,13.09,12.81,20.88,15.44a8.09,8.09,0,0,0,.21,6.73m1.43-.9a7.23,7.23,0,0,1-.38-5.45,41.24,41.24,0,0,0,22.79,0,7.21,7.21,0,0,1-.42,5.45,3.88,3.88,0,0,1-.6.87,1.62,1.62,0,0,1-.35.35,3.88,3.88,0,0,1-1.11.91,18.56,18.56,0,0,0-5.34-1.92,17.69,17.69,0,0,0-12.5,2,6,6,0,0,1-1.19-.94c-.11-.11-.24-.28-.35-.39a6,6,0,0,1-.56-.87m-32.46-38.64v-.14a59.31,59.31,0,0,0,2.87,6.46c.56,1.12,1.11,2.2,1.74,3.28.8,1.36,1.64,2.65,2.55,4a4.68,4.68,0,0,0-.42.9,23.4,23.4,0,0,0-1.57,12.43,26.93,26.93,0,0,1-3.18-4,21.11,21.11,0,0,1-3.38-8.8c-.67-4.09-.18-8.8,1.39-14.14m-44.26-26.26c4.57-2.72,9.14-3.1,13.75-1.11v2.23a14.27,14.27,0,0,1-13.75-1.12m18.81,8.1c.14,2.06.32,4.15.56,6.14a15.6,15.6,0,0,1-5.34,6.77q-1.15-7.9,4.22-13.16Zm-4.85-5.69.87,2.06q-5.18,5.39-13.13,4.22,4.76-6.44,12.25-6.29m1.61,3.15,1.61,1.6c-1.85,4.65-5.34,7.61-10.5,8.94q1.94-7.81,8.9-10.54m15,10.47a3.84,3.84,0,0,1,.7-1.08,5.49,5.49,0,0,1,.6-.56,5.88,5.88,0,0,1,1.36-.8,5.81,5.81,0,0,1,2.17-.42,5,5,0,0,1,2.75.73,6.86,6.86,0,0,1,1.54,1.36,7.42,7.42,0,0,1,.77,1.08A9.77,9.77,0,0,1,188,121a9.06,9.06,0,0,1,.39,2.62,8.6,8.6,0,0,1-.45,2.76,13.38,13.38,0,0,1-.95,2.44,17.19,17.19,0,0,0-1.08,2.06l0,0a17,17,0,0,0-1.43,7,16.62,16.62,0,0,0,.14,2.27,16.1,16.1,0,0,0,.84,3.63,6.79,6.79,0,0,1,.45,1.19,9.26,9.26,0,0,1,.32,1.15,7.06,7.06,0,0,1-.6,5.06,86.48,86.48,0,0,1-9.32-23.32c-.34-1.53-.7-3.08-1-4.65.18.28.35.49.52.73a2.67,2.67,0,0,0,.52.56,3.19,3.19,0,0,0,.91.63,3.39,3.39,0,0,0,.62.32,2.92,2.92,0,0,0,.91.17h.7a3.11,3.11,0,0,0,2.62-1.4,1.15,1.15,0,0,1,.21-.38,1.2,1.2,0,0,1,.14-.35,3.17,3.17,0,0,0,.11-.66v-.07a2.25,2.25,0,0,0-.63-1.57,2.11,2.11,0,0,0-1.57-.63,2.07,2.07,0,0,0-1.57.63c-.07.07-.14.17-.24.28a2.27,2.27,0,0,0-.42,1.29.82.82,0,0,0,0,.28.82.82,0,0,1-.42-.11.91.91,0,0,1-.49-.62,1.06,1.06,0,0,1-.11-.35,2.54,2.54,0,0,1-.07-.77,3.33,3.33,0,0,1,.07-.8,2.54,2.54,0,0,1,.11-.45l.21-.63s0-.07,0-.07m6-26.81h.24a10.12,10.12,0,0,0,3.87-.73c-.11.83-.21,1.74-.32,2.65-.07.62-.14,1.25-.17,1.91a5.54,5.54,0,0,0-.14,1.68.82.82,0,0,0,0,.28c-.07.95-.07,1.89-.07,2.86a1.69,1.69,0,0,0,0,.42c0,.45,0,.9,0,1.36v.66c0,.42,0,.87,0,1.33v.52c0,.95.07,1.89.14,2.83v.21a6.44,6.44,0,0,0,.07,1.15c.07.83.17,1.71.24,2.51s.21,1.74.32,2.62a10.83,10.83,0,0,0-3.87-.7h-.24a9.92,9.92,0,0,0-5,1.4,5.29,5.29,0,0,0-.9.66,6,6,0,0,0-.52.45,7.58,7.58,0,0,0-1.19,1.15,6.94,6.94,0,0,0-.7,1.08,3.45,3.45,0,0,1-.18.39,7,7,0,0,0-.24.83c-.45-2.86-.77-5.76-1-8.76-.07-1.15-.14-2.34-.17-3.52,0-1.47-.11-3-.11-4.47s.07-3,.11-4.47c.06-1.18.1-2.37.17-3.53.21-3,.52-5.93,1-8.8a7.38,7.38,0,0,0,.24.87,1.28,1.28,0,0,1,.18.39,5.27,5.27,0,0,0,.7,1A9.5,9.5,0,0,0,177,90a5.1,5.1,0,0,0,.52.46,5.29,5.29,0,0,0,.9.66,10,10,0,0,0,5,1.4M164,96.14l-1.61,1.57c-4.6-1.81-7.57-5.31-8.86-10.5q7.74,1.94,10.47,8.93m-2.3,2.69-.87,2.06c-5,.07-9-2-12.25-6.32,5.31-.77,9.64.63,13.13,4.26M166.28,89c-.24,2.06-.42,4.08-.56,6.18l-.56.21a14.37,14.37,0,0,1-4.26-13.13A15.4,15.4,0,0,1,166.28,89m-2.52,13.09a5.53,5.53,0,0,1,1.79-3.18c-.07,1.43-.11,2.9-.11,4.32s0,2.93.11,4.33a4.38,4.38,0,0,1-.87-1,5.66,5.66,0,0,1-.91-4.43m21.82-46.82a7.18,7.18,0,0,1,.56,5c-.06.38-.21.77-.32,1.18a8.07,8.07,0,0,1-.45,1.19,15.28,15.28,0,0,0-.84,3.59,16.9,16.9,0,0,0-.14,2.27,17.53,17.53,0,0,0,1.43,7.08h0a14.35,14.35,0,0,0,1.08,2,14.3,14.3,0,0,1,.95,2.44,8.56,8.56,0,0,1,.32,1.23,7.69,7.69,0,0,1,.14,1.53,8,8,0,0,1-.42,2.65,6.27,6.27,0,0,1-.6,1.36,7.83,7.83,0,0,1-.77,1.08A6.16,6.16,0,0,1,185,89.33a5,5,0,0,1-2.75.77,5.64,5.64,0,0,1-2.13-.42,6.29,6.29,0,0,1-1.4-.84,4.81,4.81,0,0,1-.6-.55,4.43,4.43,0,0,1-.7-1.08s0,0,0-.07l-.21-.63a2.07,2.07,0,0,1-.11-.45,3.18,3.18,0,0,1-.07-.8,2.66,2.66,0,0,1,.07-.77,1.88,1.88,0,0,1,.11-.35,1.2,1.2,0,0,1,.49-.62.82.82,0,0,1,.42-.11,1.05,1.05,0,0,0,0,.32A2.38,2.38,0,0,0,178.5,85a1.56,1.56,0,0,1,.24.24,2.09,2.09,0,0,0,1.57.66,2.14,2.14,0,0,0,1.57-.66,2.23,2.23,0,0,0,.63-1.53v-.14a2.86,2.86,0,0,0-.11-.59c-.06-.14-.1-.28-.14-.35s-.18-.28-.21-.35a3.08,3.08,0,0,0-2.62-1.46h-.34a1.15,1.15,0,0,0-.35,0,2.79,2.79,0,0,0-.91.21c-.21.1-.45.17-.62.28a4.09,4.09,0,0,0-.91.62c-.17.18-.34.35-.52.56s-.34.49-.52.74c.28-1.54.63-3,1-4.54a85.82,85.82,0,0,1,9.36-23.39m12.74,8.07c-.87,1.29-1.74,2.62-2.51,4-.63,1-1.22,2.17-1.78,3.28a63.12,63.12,0,0,0-2.87,6.5V77c-1.57-5.38-2.06-10.09-1.39-14.17A21.44,21.44,0,0,1,193.16,54a25.81,25.81,0,0,1,3.21-3.94,22.69,22.69,0,0,0,1.57,12.42c.14.32.24.6.38.87M204.44,43a18,18,0,0,1,6.8-4.93,20.08,20.08,0,0,1,11.38-1.36,6.75,6.75,0,0,1-.38.7,7.83,7.83,0,0,0-.24,6.73c-7.79,2.62-14.77,7.75-20.88,15.46a20.3,20.3,0,0,1,1.68-14A22.71,22.71,0,0,1,204.44,43m25.13-18.75,1.15,1.15a10.37,10.37,0,0,1-7.58,6.39,10.28,10.28,0,0,1,6.42-7.54m9.08,1.15,1.12-1.15a10.29,10.29,0,0,1,6.42,7.51,10.26,10.26,0,0,1-7.54-6.35m-2.27,1.12,1.5-.63a10,10,0,0,1,3.14,8c0,.45-.07.9-.1,1.36v.06a.17.17,0,0,1-.11-.06A13.52,13.52,0,0,1,239.34,34a10.29,10.29,0,0,1-3-7.46m-4.89-.63,1.46.6a9.94,9.94,0,0,1-3,7.5,13,13,0,0,1-1.47,1.26s0,0-.07.06v-.06a9.76,9.76,0,0,1-.1-1.36,9.86,9.86,0,0,1,3.14-8m2.37.8h1.61a10.28,10.28,0,0,1-.66,9.67c-.07,0-.07.06-.14.14s0,0,0-.07a10.21,10.21,0,0,1-.77-9.74m4.37-8.8c.17.28.28.52.42.77a4.25,4.25,0,0,1,.28,2,2.42,2.42,0,0,1-.07.45,4.14,4.14,0,0,1-1.15,2.13,3.27,3.27,0,0,1-.7.6,4.09,4.09,0,0,1-3.18.59,4,4,0,0,1-2.23-1.18,3,3,0,0,1-.46-.63,3.81,3.81,0,0,1-.7-2,4.64,4.64,0,0,1,0-1.23,6.32,6.32,0,0,1,.24-.77,3.92,3.92,0,0,1,1.61-2,4,4,0,0,1,3.18-.62,4.32,4.32,0,0,1,2.72,1.81M219.62,26.5a15.87,15.87,0,0,1,1.25-1.43A10.09,10.09,0,0,1,228.42,22l.62,1.5a10.24,10.24,0,0,1-9.42,3m-.14,3.91A27.1,27.1,0,0,0,221.57,33a23,23,0,0,0-13.37,1.43,18.17,18.17,0,0,0-3.35,1.78A18.89,18.89,0,0,0,200.52,40a17.76,17.76,0,0,0-1.85,2.9,29.13,29.13,0,0,0-1.36,3.21,30.22,30.22,0,0,0-7.08,7.75c-.63,1.08-1.22,2.13-1.75,3.25a13.74,13.74,0,0,0-1.78-3.67,79.91,79.91,0,0,1,4.78-6.94c7.61-10,16.27-16.69,25.9-20.32a19,19,0,0,0,2.09,4.22m-3-8.73a11.77,11.77,0,0,0,.22,1.92q-15.24,5.59-27.27,21.26a76.2,76.2,0,0,0-4.57,6.6,14.08,14.08,0,0,0-1,1.68,87.31,87.31,0,0,0-10.12,25c-.73,3-1.29,6-1.74,9.18-.24,1.78-.49,3.6-.63,5.48-.14,1.5-.24,3.07-.32,4.64-.07,1.92-.14,3.84-.14,5.79s.06,3.91.14,5.8c.07,1.61.18,3.18.35,4.71.14,1.85.35,3.66.6,5.44.45,3.15,1,6.25,1.74,9.26a88.11,88.11,0,0,0,10.09,24.92l1.08,1.71c1.4,2.23,2.93,4.43,4.57,6.56q12,15.71,27.33,21.33a11.77,11.77,0,0,0-.28,1.85q-15.7-5.6-28.13-21.54c-1.78-2.3-3.46-4.68-5-7.08-.39-.6-.73-1.19-1.08-1.75a91.16,91.16,0,0,1-10.47-25.8c-.35-1.61-.7-3.28-1-4.93a102.42,102.42,0,0,1-1.47-11.51c-.06-1-.14-2-.17-3-.11-2-.14-4-.14-6s0-4,.14-5.93c0-1,.11-2,.17-3a102.55,102.55,0,0,1,1.47-11.52c.32-1.64.66-3.28,1-4.88A92.26,92.26,0,0,1,182.27,52c.35-.56.7-1.15,1.08-1.68,1.53-2.44,3.21-4.82,5-7.12Q200.7,27.3,216.48,21.68m11.77-2.2V21a10.14,10.14,0,0,1-5.69.8,10.88,10.88,0,0,1-3.32-1.12c-.28-.14-.56-.32-.84-.45a10.33,10.33,0,0,1,8.73-1.19,7.38,7.38,0,0,1,1.12.39m-.45-4.05a10.37,10.37,0,0,1-4.65-6.63,10.25,10.25,0,0,1,7.58,6.35l-1.15,1.15a14.17,14.17,0,0,1-1.78-.87m-8.14-1.36a10.39,10.39,0,0,1,7.47,1.43A12.68,12.68,0,0,1,229,17.11l-.62,1.46a9.78,9.78,0,0,1-6.57-2.19,10.77,10.77,0,0,1-2.2-2.31m18.23.56-1.46-.6a10.1,10.1,0,0,1,4.5-8.76,10.25,10.25,0,0,1-3,9.36M233,14l-1.46.63a10.16,10.16,0,0,1-3-9.43A10.29,10.29,0,0,1,233,14m2.52-.17H233.9A10.32,10.32,0,0,1,234.67,4a10.33,10.33,0,0,1,.8,9.88m3.21,1.33v0a10.14,10.14,0,0,1,7.51-6.35,10.47,10.47,0,0,1-4.57,6.63,14.78,14.78,0,0,1-1.81.91Zm83.78,88c-4.6,2.76-9.18,3.15-13.79,1.15v-2.2c4.61-2,9.18-1.63,13.79,1m-14.87,4.51.84-2.06A14.14,14.14,0,0,1,320.68,112c-5.23.77-9.64-.63-13.09-4.22m-2.34,2.65,1.57-1.57a14.27,14.27,0,0,1,9,10.5c-5.2-1.29-8.69-4.26-10.54-8.93m-2.2,7.08c.21-2,.39-4.05.56-6.11l.56-.21c3.63,3.46,5,7.81,4.22,13.12a15.23,15.23,0,0,1-5.34-6.8m3.84-19.76-1.57-1.57c1.78-4.67,5.27-7.64,10.47-9-1.29,5.2-4.26,8.73-8.9,10.54m-3.11,1.19a6.77,6.77,0,0,1,.87,1.08,5.59,5.59,0,0,1,.87,4.47,5.41,5.41,0,0,1-1.75,3.14c0-1.4.07-2.86.07-4.33s0-2.93-.07-4.36m4.65,2-.84-2.06q5.18-5.39,13.13-4.22c-3.18,4.26-7.26,6.39-12.29,6.28m-4.82-5.69c-.17-2.06-.35-4.09-.56-6.07a15.25,15.25,0,0,1,5.34-6.81q1.2,8-4.22,13.09Zm-28.34,40.7a70.25,70.25,0,0,0,2.86-6.53v.18a32.86,32.86,0,0,1,1.4,14.14,21.22,21.22,0,0,1-3.39,8.8,28.15,28.15,0,0,1-3.18,4A23.24,23.24,0,0,0,271.32,144c-.1-.28-.24-.56-.34-.87.87-1.3,1.71-2.62,2.51-4,.6-1.08,1.23-2.17,1.79-3.28m15.25-18.23a3.1,3.1,0,0,1,.67.63,3.38,3.38,0,0,1,.66,1s0,.07,0,.07a1.92,1.92,0,0,1,.21.63,2.54,2.54,0,0,1,.11.45,3.33,3.33,0,0,1,.07.8,2.54,2.54,0,0,1-.07.77,1.06,1.06,0,0,1-.11.35,1,1,0,0,1-.49.62.8.8,0,0,1-.42.11.66.66,0,0,0,0-.28,2.53,2.53,0,0,0-.35-1.23,3.21,3.21,0,0,0-.35-.34,1.86,1.86,0,0,0-1.5-.63,2,2,0,0,0-1.57.63,2,2,0,0,0-.67,1.57v.07a3,3,0,0,0,.14.66,2.65,2.65,0,0,1,.1.35c.07.1.14.24.24.38a3,3,0,0,0,2.59,1.4h.66a3.14,3.14,0,0,0,.95-.17,2.54,2.54,0,0,0,.62-.32,4.64,4.64,0,0,0,.91-.63,1.44,1.44,0,0,0,.49-.56,5.55,5.55,0,0,0,.6-.77c-.32,1.57-.63,3.11-1,4.61a86.93,86.93,0,0,1-9.36,23.39,6.92,6.92,0,0,1-.6-5.06,10.73,10.73,0,0,1,.28-1.15,6.91,6.91,0,0,1,.49-1.19,20,20,0,0,0,.84-3.63c.07-.74.14-1.47.14-2.27a16.41,16.41,0,0,0-1.46-7v0a11,11,0,0,0-1.12-2.06,16.43,16.43,0,0,1-.91-2.44,6.82,6.82,0,0,1-.31-1.23,7,7,0,0,1-.11-1.53,8.25,8.25,0,0,1,.39-2.65,6.52,6.52,0,0,1,.59-1.36,11.82,11.82,0,0,1,.77-1.08,6.82,6.82,0,0,1,1.63-1.4,5,5,0,0,1,2.65-.7,6.18,6.18,0,0,1,2.24.42,7.58,7.58,0,0,1,1.25.8m-8.24-20.91c-.07-.77-.14-1.57-.21-2.34s-.21-1.79-.32-2.69a9.51,9.51,0,0,0,3.88.77h.31a10.11,10.11,0,0,0,4.93-1.4,6.23,6.23,0,0,0,.94-.66,5.1,5.1,0,0,0,.52-.46,12.26,12.26,0,0,0,1.15-1.22,8.37,8.37,0,0,0,.7-1,1.08,1.08,0,0,1,.14-.39,8.24,8.24,0,0,0,.28-.87c.45,2.87.77,5.84,1,8.8.07,1.19.14,2.37.18,3.53.06,1.47.06,3,.06,4.47s0,3-.06,4.47c0,1.15-.11,2.37-.18,3.52-.21,3-.52,5.9-1,8.8a6.46,6.46,0,0,0-.28-.87,2,2,0,0,1-.14-.39,12.75,12.75,0,0,0-.7-1.08,9.24,9.24,0,0,0-1.15-1.15c-.17-.14-.34-.31-.49-.42a9.09,9.09,0,0,0-.94-.7,10.27,10.27,0,0,0-5-1.4h-.31a10.84,10.84,0,0,0-3.88.7c.11-.84.21-1.71.32-2.58.07-.63.14-1.19.17-1.81a8.84,8.84,0,0,0,.14-1.92v-.14c.07-1,.1-1.91.1-2.9v-.45c0-.42,0-.91,0-1.36v-.62c0-.42,0-.87,0-1.33v-.49c0-1-.06-1.91-.1-2.86v0a6.87,6.87,0,0,0-.11-1.5M276.13,54a21.56,21.56,0,0,1,3.39,8.83A33.07,33.07,0,0,1,278.13,77v.14a69.15,69.15,0,0,0-2.86-6.49c-.56-1.08-1.15-2.17-1.75-3.21q-1.2-2.1-2.51-4c.14-.32.28-.67.38-1A24,24,0,0,0,273,50.06,26.87,26.87,0,0,1,276.13,54m7,6.32a7,7,0,0,1,.56-5,85.82,85.82,0,0,1,9.36,23.32c.38,1.53.7,3.07,1,4.64a4.24,4.24,0,0,0-.6-.77,2.53,2.53,0,0,0-.49-.56,6.87,6.87,0,0,0-.91-.62,4.33,4.33,0,0,0-.62-.28,3,3,0,0,0-.95-.21.93.93,0,0,0-.32,0h-.34a3,3,0,0,0-2.59,1.46,1,1,0,0,0-.24.35,3.41,3.41,0,0,0-.1.35,2.82,2.82,0,0,0-.14.59v.14A2.27,2.27,0,0,0,289,85.91a1.88,1.88,0,0,0,1.5-.66,2.21,2.21,0,0,0,.32-.28,2.15,2.15,0,0,0,.39-1.25.85.85,0,0,0,0-.32.8.8,0,0,1,.42.11,1.41,1.41,0,0,1,.49.62,1.88,1.88,0,0,1,.11.35,2.66,2.66,0,0,1,.07.77,3.18,3.18,0,0,1-.07.8,2.07,2.07,0,0,1-.11.45,2,2,0,0,1-.21.63s0,0,0,.07a5,5,0,0,1-.66,1.08c-.21.17-.42.38-.67.55a5.45,5.45,0,0,1-1.33.8,5.31,5.31,0,0,1-4.85-.27,7.31,7.31,0,0,1-1.61-1.4,12.9,12.9,0,0,1-.77-1.08,6.4,6.4,0,0,1-.59-1.33,8.35,8.35,0,0,1-.39-2.69,7.2,7.2,0,0,1,.11-1.53,7.68,7.68,0,0,1,.31-1.23,17.8,17.8,0,0,1,.91-2.44,9.64,9.64,0,0,0,1.12-2,17,17,0,0,0,1.46-7.08c0-.77-.06-1.54-.14-2.27a18.78,18.78,0,0,0-.84-3.59,8.32,8.32,0,0,1-.49-1.19c-.11-.42-.21-.8-.28-1.18M245,46c.35.11.77.24,1.15.35q11.46,3.76,20.49,15.29c.21.28.42.56.62.8.87,1.19,1.71,2.34,2.44,3.53.56.8,1.08,1.68,1.57,2.55.6,1,1.19,2.09,1.75,3.14a65,65,0,0,1,3.74,9.18,70.71,70.71,0,0,1,2,7.79A8.31,8.31,0,0,1,279,90c.17.8.28,1.68.42,2.52.07.62.14,1.29.24,2,0,.42.07.91.11,1.4a.85.85,0,0,0,0,.28c.06.52.06,1.12.14,1.68.07,1.29.11,2.58.14,3.94v2.93c0,1.4-.06,2.79-.17,4.15,0,.56-.07,1.19-.14,1.79v.06c0,.42-.07.87-.11,1.36-.11.73-.17,1.43-.32,2.2s-.21,1.46-.34,2.2c0,.42-.11.84-.18,1.25-.56,2.69-1.22,5.34-2,7.92a64.91,64.91,0,0,1-3.77,9.22c-.6,1.08-1.15,2.13-1.74,3.18-.49.87-1.05,1.71-1.61,2.58-.74,1.12-1.54,2.27-2.38,3.38-.21.28-.42.52-.62.8-6,7.71-12.85,12.78-20.53,15.26-.42.14-.8.24-1.19.35a38.12,38.12,0,0,1-20.66,0c-.39-.11-.8-.22-1.19-.35-7.68-2.48-14.48-7.58-20.52-15.26a6.33,6.33,0,0,1-.6-.84c-.87-1.15-1.71-2.3-2.44-3.48-.56-.84-1.08-1.71-1.61-2.59a32.56,32.56,0,0,1-1.71-3.1,63,63,0,0,1-3.74-9.15,70.3,70.3,0,0,1-2-7.79c-.07-.45-.17-.94-.24-1.39-.14-.84-.28-1.68-.39-2.55-.1-.6-.14-1.22-.24-1.89,0-.45-.07-1-.1-1.43,0-.14,0-.24-.07-.35,0-.52,0-1-.07-1.53-.11-1.33-.14-2.65-.17-4v-3c0-1.43.06-2.82.17-4.19,0-.56.07-1.12.14-1.68v-.07c0-.45.06-.9.1-1.39.11-.74.17-1.47.32-2.2s.17-1.47.32-2.2c.07-.42.17-.87.24-1.29a62.89,62.89,0,0,1,5.76-17.11c.56-1.08,1.15-2.17,1.75-3.21.49-.84,1-1.68,1.57-2.55.77-1.15,1.53-2.27,2.41-3.42.17-.24.38-.52.6-.77,6-7.68,12.84-12.8,20.56-15.29.42-.14.8-.24,1.19-.35A38.25,38.25,0,0,1,245,46m.63-7.68a7.28,7.28,0,0,1,.38,5.41,41.24,41.24,0,0,0-22.79,0,7,7,0,0,1,.42-5.41,8.27,8.27,0,0,1,.56-.87,3.15,3.15,0,0,1,.35-.34,4.18,4.18,0,0,1,1.15-.95,17,17,0,0,0,5.37,1.92,17.53,17.53,0,0,0,12.47-1.92,5,5,0,0,1,1.18.95l.35.34a8.28,8.28,0,0,1,.56.87m12.57-.28A18.3,18.3,0,0,1,265,43a10.72,10.72,0,0,1,1.61,2.58,20.78,20.78,0,0,1,1.61,14.07c-6.11-7.71-13.09-12.88-20.87-15.46a8.19,8.19,0,0,0-.22-6.77,7.21,7.21,0,0,0-.42-.7,21.31,21.31,0,0,1,11.56,1.36M249.71,14a12.28,12.28,0,0,1-2.24,2.38,10,10,0,0,1-6.56,2.16l-.6-1.5a11.49,11.49,0,0,1,1.92-1.57A10.36,10.36,0,0,1,249.71,14m2.9,9.57c.1-.63.21-1.3.24-1.92,10.44,3.74,19.82,10.93,28.06,21.54a79.92,79.92,0,0,1,5,7.12c.35.52.7,1.12,1.08,1.68A91.6,91.6,0,0,1,297.5,77.85c.35,1.67.7,3.31,1,5,.67,3.7,1.15,7.51,1.47,11.45.06,1,.1,2,.17,3,.07,2,.11,3.91.11,5.93s0,4-.11,6c-.07,1-.11,2-.17,3q-.47,5.86-1.47,11.41c-.35,1.68-.7,3.35-1,5A89.74,89.74,0,0,1,287,154.47c-.34.56-.7,1.15-1,1.75-1.57,2.4-3.24,4.78-5.06,7.08q-12.36,15.92-28,21.54c-.07-.63-.14-1.29-.24-1.89q15.19-5.66,27.22-21.29c1.64-2.13,3.18-4.33,4.61-6.56.35-.6.7-1.15,1-1.71a88.63,88.63,0,0,0,10.12-25c.7-3.07,1.29-6.18,1.74-9.36.25-1.68.42-3.38.6-5.1s.21-3.25.32-4.88c.07-1.92.14-3.84.14-5.8s-.07-3.87-.14-5.79c-.07-1.68-.17-3.28-.32-4.89s-.34-3.42-.6-5.06c-.45-3.24-1-6.39-1.78-9.42a87.91,87.91,0,0,0-10.09-25c-.35-.6-.7-1.15-1.08-1.71-1.43-2.24-2.93-4.43-4.57-6.56q-12-15.71-27.26-21.26m-4.16,1.46a12.23,12.23,0,0,1,1.23,1.43,10.23,10.23,0,0,1-9.36-3l.6-1.5a10,10,0,0,1,7.54,3.07M251,20.25c-.32.17-.6.35-.91.49a10.7,10.7,0,0,1-3.28,1.12,10.17,10.17,0,0,1-5.69-.77l0-1.57a6.54,6.54,0,0,1,1.12-.42A10.34,10.34,0,0,1,251,20.25M247.76,33a16.34,16.34,0,0,0,4.15-6.77c9.64,3.63,18.3,10.37,25.9,20.32,1.71,2.23,3.32,4.53,4.82,6.94a12.81,12.81,0,0,0-1.81,3.67c-.52-1.12-1.12-2.17-1.75-3.25a30.59,30.59,0,0,0-7-7.71,30.31,30.31,0,0,0-1.26-3.25,15.12,15.12,0,0,0-1.81-2.9,21.4,21.4,0,0,0-4.36-3.81,18.24,18.24,0,0,0-3.25-1.78A24,24,0,0,0,247.76,33m5-15.08a18.47,18.47,0,0,0-3-7.75,17.7,17.7,0,0,0-11.59-7.75,17.9,17.9,0,0,0-13.72,2.76,17.7,17.7,0,0,0-7.71,11.55c-.07.39-.14.77-.17,1.15q-17.44,5.71-31,23.18a85,85,0,0,0-5.48,7.86c-.45.66-.84,1.33-1.22,2a83.87,83.87,0,0,0-4.51,8.59c-.24.52-.49,1-.7,1.61a92.4,92.4,0,0,0-5.48,16.76,24.21,24.21,0,0,0-12.75,4.29,25.52,25.52,0,0,0-7,35.29,24.51,24.51,0,0,0,16.2,10.83,26.47,26.47,0,0,0,3.56.45,91.86,91.86,0,0,0,5.48,16.79c.21.52.45,1,.7,1.61a87.08,87.08,0,0,0,4.47,8.59c.42.66.8,1.33,1.22,2a82.68,82.68,0,0,0,5.51,7.86q13.56,17.49,31,23.18a17.66,17.66,0,0,0,2.93,7.71,17.88,17.88,0,0,0,11.62,7.75,18.16,18.16,0,0,0,21.44-14.32,11,11,0,0,0,.17-1.15c11.63-3.81,21.92-11.52,31-23.18a82.68,82.68,0,0,0,5.51-7.86c.42-.62.8-1.29,1.19-2a89.19,89.19,0,0,0,4.54-8.59c.21-.56.45-1.08.7-1.61a94.25,94.25,0,0,0,5.45-16.76,25.3,25.3,0,0,0,23.52-20.49,25.26,25.26,0,0,0-20-29.88,26.17,26.17,0,0,0-3.53-.49,98.1,98.1,0,0,0-5.48-16.79c-.24-.56-.49-1.08-.73-1.61a93.28,93.28,0,0,0-4.5-8.59c-.42-.66-.8-1.33-1.23-2A90.9,90.9,0,0,0,283.71,41Q270.1,23.64,252.78,17.87" transform="translate(-3 -2.01)"/><path class="cls-1" d="M264.51,63.95a21.41,21.41,0,0,1,1.33,1.82c.77,1,1.47,2.13,2.17,3.24.24.39.45.77.7,1.12.56,1,1.12,2,1.61,3s1,2.13,1.51,3.21c.38.9.8,1.89,1.15,2.82a63.41,63.41,0,0,1,3.36,13.72s0,.1,0,.17a10,10,0,0,1,.1,1.12,60.8,60.8,0,0,1,.52,7.29c0,.56,0,1.15,0,1.71v0c0,.66,0,1.36,0,2-.06,2.48-.24,4.93-.52,7.3,0,.32-.06.6-.1.84s-.07.28-.07.45a61.86,61.86,0,0,1-3.38,13.62c-.39,1-.84,2.09-1.26,3.1s-.87,1.89-1.36,2.82-1.08,2.06-1.68,3.08c-.21.35-.42.7-.67,1.08-.66,1.12-1.39,2.24-2.13,3.28-.42.55-.87,1.11-1.29,1.71-5.94,7.75-12.81,12.74-20.56,14.87a11.4,11.4,0,0,1-1.18.35,34.37,34.37,0,0,1-8.1.94,34.74,34.74,0,0,1-8.17-.94c-.42-.14-.8-.21-1.19-.35-7.74-2.13-14.59-7.12-20.56-14.87-.46-.62-.87-1.18-1.3-1.81-.77-1-1.5-2.17-2.16-3.25-.24-.38-.49-.73-.7-1.12-.56-1-1.08-2-1.61-3s-1-2.13-1.53-3.25c-.39-.91-.77-1.81-1.08-2.76A63.72,63.72,0,0,1,193,113.59a.18.18,0,0,0,0-.11c0-.38-.07-.77-.14-1.18-.24-2.37-.42-4.82-.46-7.33,0-.52,0-1.11,0-1.67v-.07c0-.7,0-1.33,0-2a63.92,63.92,0,0,1,.52-7.3,6.64,6.64,0,0,0,.07-.87c0-.14,0-.28.07-.38A62.5,62.5,0,0,1,196.41,79c.39-1.08.8-2.09,1.25-3.11s.87-2,1.36-2.86,1-2,1.64-3c.21-.42.45-.77.66-1.15.7-1.12,1.4-2.17,2.17-3.25.42-.6.84-1.15,1.26-1.71Q213.7,52.28,225.31,49c.42-.1.8-.21,1.23-.28a34.59,34.59,0,0,1,8.13-1,35.07,35.07,0,0,1,8.14,1c.42.07.77.18,1.18.28,7.71,2.17,14.59,7.13,20.53,14.91m-19.13-16.4c-.39-.14-.77-.24-1.15-.35a38.14,38.14,0,0,0-19.13,0c-.42.11-.77.22-1.15.35-7.72,2.34-14.63,7.43-20.6,15.26-.28.34-.52.7-.77,1-.8,1.08-1.57,2.2-2.31,3.31-.38.63-.77,1.26-1.15,1.92a32.27,32.27,0,0,0-1.68,3.1,58.08,58.08,0,0,0-4.37,11.21A41.75,41.75,0,0,0,192,88c-.18.77-.32,1.5-.46,2.27-.06.52-.17,1.08-.24,1.64s-.17,1.33-.28,2c-.21,2.06-.38,4.12-.45,6.28,0,.67-.07,1.33-.07,2v2c0,.56,0,1.15,0,1.75.07,2.13.24,4.22.45,6.24.07.67.22,1.36.28,2.06s.22,1.33.32,2,.24,1.46.39,2.2c.32,1.57.7,3.14,1.15,4.64a54.76,54.76,0,0,0,4.29,11.11c.56,1,1.12,2.09,1.68,3.1.35.62.77,1.25,1.19,1.92.7,1.11,1.5,2.27,2.3,3.38.28.35.52.7.8,1,6,7.86,12.81,12.95,20.56,15.36l1.15.32a37.92,37.92,0,0,0,19.13,0c.39-.1.77-.21,1.12-.32,7.75-2.41,14.63-7.5,20.63-15.36.24-.32.49-.63.77-1q1.15-1.62,2.3-3.36c.39-.59.77-1.25,1.15-1.91.6-1,1.15-2.06,1.68-3.08a59.31,59.31,0,0,0,4.36-11.24c.42-1.5.8-3,1.12-4.57.17-.81.32-1.58.45-2.38.07-.52.14-1,.24-1.57s.18-1.33.25-2c.24-2.06.38-4.15.49-6.29,0-.7,0-1.36.06-2.06v-1.85c0-.62,0-1.22,0-1.81-.07-2.13-.25-4.22-.49-6.25-.1-.73-.17-1.39-.24-2.06s-.21-1.33-.28-2c-.17-.77-.28-1.54-.45-2.24-.32-1.57-.7-3.14-1.12-4.65a60.71,60.71,0,0,0-4.29-11.1c-.52-1.08-1.11-2.09-1.67-3.1-.39-.63-.77-1.29-1.19-1.92-.7-1.15-1.5-2.27-2.3-3.38a11.14,11.14,0,0,0-.8-1.08C260,55,253.1,49.92,245.38,47.54" transform="translate(-3 -2.01)"/><path class="cls-1" d="M269.29,78c-6.82-15.69-19.77-26.31-34.64-26.31-22,0-39.76,23.09-39.76,51.56s17.8,51.56,39.76,51.56c14.88,0,27.83-10.62,34.64-26.31H258.47c-5.64,8.94-14.22,14.65-23.82,14.65-17,0-30.77-17.87-30.77-39.91s13.78-39.91,30.77-39.91c9.61,0,18.18,5.71,23.82,14.65Z" transform="translate(-3 -2.01)"/><path class="cls-1" d="M354.4,303.4c-.09,0-.14-.06-.09-.2l2.52-7.73q.22-.63.43,0L360,303.2c0,.11,0,.2-.11.2Zm-4,6.32c-.51,1.43-1.08,2.52-2.4,2.7-.23,0-.63.05-.82.05s-.26.06-.26.17.17.23.54.23c1.35,0,2.92-.09,3.23-.09s1.55.09,2.23.09c.26,0,.43-.06.43-.23s-.09-.17-.29-.17h-.29c-.48,0-1.08-.25-1.08-.82a6.06,6.06,0,0,1,.4-1.92l1.71-5.06a.3.3,0,0,1,.29-.23h6.15a.25.25,0,0,1,.26.17l2.66,7c.16.46,0,.72-.17.77s-.2.08-.2.19.32.17.85.2c2,.06,4.07.06,4.5.06s.57-.06.57-.23-.11-.17-.28-.17a3.89,3.89,0,0,1-1.15-.16c-.6-.17-1.43-.63-2.46-3.18-1.74-4.34-6.24-16.16-6.67-17.24-.34-.89-.45-1-.62-1s-.29.17-.63,1.12Zm-11,3.55a16.56,16.56,0,0,0,5.15-.66c.51-.23.57-.29.74-.82a29.68,29.68,0,0,0,.63-3.66c0-.23-.06-.43-.2-.43s-.23.11-.29.43a5.5,5.5,0,0,1-1.05,2.4c-1.15,1.18-2.84,1.43-5,1.43A10.34,10.34,0,0,1,329,301.48c0-2.92.49-5.46,2.58-7.46,1-1,2.77-2.09,6.58-2.09a9.52,9.52,0,0,1,5.72,1.63,4,4,0,0,1,1.2,2.92c0,.4,0,.6.23.6s.23-.17.26-.6,0-2,.09-2.95.14-1.38.14-1.61-.06-.29-.37-.32a23.28,23.28,0,0,1-2.92-.42,24.44,24.44,0,0,0-4.15-.34c-4.4,0-7,1.34-8.73,3.06a11.41,11.41,0,0,0-3.2,7.81,11,11,0,0,0,3.46,8.47c2.26,2,5.15,3.09,9.44,3.09m-27.09-8.7c0,2.75,0,5-.14,6.21-.11.82-.26,1.46-.83,1.57a3.93,3.93,0,0,1-.85.11c-.17,0-.23.09-.23.17s.14.23.45.23,1.09-.06,1.66-.06,1.08,0,1.14,0c.43,0,1.12,0,2.23.09s2.7.09,4.84.09c1.11,0,1.34,0,1.54-.75a27.69,27.69,0,0,0,.37-2.77c0-.2,0-.43-.17-.43s-.2.12-.26.43c-.2,1.18-.54,1.75-1.28,2.06a8.2,8.2,0,0,1-2.75.32c-2.81,0-3.23-.37-3.32-2.35,0-.6,0-3.91,0-4.89v-2.52a.18.18,0,0,1,.19-.2c.49,0,3.33.06,4.09.14,1.12.11,1.38.6,1.49,1a2.93,2.93,0,0,1,.11.95c0,.14.06.26.2.26s.19-.32.19-.54.06-1.25.11-1.83c.09-.94.23-1.43.23-1.6s-.06-.23-.14-.23-.23.14-.42.37-.66.34-1.35.4-4.18.06-4.55.06c-.14,0-.16-.09-.16-.29v-7.9c0-.2.06-.29.16-.29.32,0,3.44,0,3.92.09,1.55.17,1.84.52,2,1a3.22,3.22,0,0,1,.16,1c0,.23.06.37.23.37s.17-.17.2-.32c.06-.34.11-1.6.14-1.89.09-.8.23-1.14.23-1.34s0-.26-.11-.26-.26.11-.4.14a7.53,7.53,0,0,1-1.23.14c-.66,0-6.35,0-6.55,0l-1.17-.06c-.63,0-1.41,0-2.06,0-.32,0-.46.06-.46.23s.11.16.23.16a5.28,5.28,0,0,1,1,.09c.95.2,1.18.66,1.23,1.63s.06,1.71.06,6.18Zm-16.94-3c0-.14.06-.2.17-.2.43,0,1.86,0,2.24.06a4.74,4.74,0,0,1,2.37.83,6.85,6.85,0,0,1,2.77,5.72,3.82,3.82,0,0,1-4,4.07,6.71,6.71,0,0,1-2.52-.43c-.89-.43-.89-.83-1-2.24,0-.42,0-4,0-6.18Zm0-9.07c0-.17.09-.26.34-.32a6.41,6.41,0,0,1,1.38-.14c2.8,0,3.86,2.55,3.86,4.93a4.43,4.43,0,0,1-1,2.89c-.6.69-1,.75-2.6.75a10.13,10.13,0,0,1-1.75-.11c-.14-.06-.2-.11-.2-.32Zm-2.28,12.07c0,2.75,0,5-.14,6.21-.11.82-.26,1.46-.83,1.57a3.94,3.94,0,0,1-.86.11c-.17,0-.23.09-.23.17s.14.23.46.23,1.09-.06,1.66-.06,1.08,0,1.14,0,.91,0,1.74.09,1.75.09,2.06.09c4.89,0,7.29-3.18,7.29-6.24,0-3.35-2.83-5.38-4.95-6,1.34-1.41,2.69-2.81,2.69-5.15,0-1.43-1-4.29-5.72-4.29-1.32,0-2.43.08-3.12.08-.14,0-1.94-.08-3.23-.08-.32,0-.45.06-.45.23s.11.17.22.17a4.8,4.8,0,0,1,1,.08c.95.2,1.18.66,1.23,1.63s.06,1.71.06,6.18Zm-10.19-5c0-4.47,0-5.27.06-6.18s.29-1.49,1.05-1.63a4.26,4.26,0,0,1,.72-.09c.11,0,.23-.06.23-.16s-.14-.23-.46-.23c-.85,0-2.66.08-2.8.08s-1.94-.08-2.88-.08c-.32,0-.46.06-.46.23s.11.16.23.16a3.67,3.67,0,0,1,.88.11c.63.14.92.63,1,1.61s.06,1.71.06,6.18v5c0,2.75,0,5-.14,6.21-.11.83-.26,1.46-.83,1.58a4.27,4.27,0,0,1-.85.11c-.17,0-.23.09-.23.17s.14.23.46.23c.85,0,2.66-.09,2.8-.09s2,.09,3.52.09c.32,0,.46-.09.46-.23s-.06-.17-.23-.17a12.27,12.27,0,0,1-1.29-.11c-.85-.11-1-.75-1.11-1.58-.14-1.2-.14-3.46-.14-6.21Zm-21.69-6.87a.35.35,0,0,1,.23-.34,8.66,8.66,0,0,1,1.92-.17c3.06,0,4.95,2.14,4.95,5.72,0,2.18-.74,3.72-1.74,4.41a3.71,3.71,0,0,1-2.15.54,7.89,7.89,0,0,1-3-.46.37.37,0,0,1-.2-.34Zm-2.28,11.9c0,2.75,0,5-.14,6.21-.11.83-.26,1.46-.83,1.58a4.41,4.41,0,0,1-.86.11c-.17,0-.23.09-.23.17s.14.23.46.23c.86,0,2.66-.09,2.69-.09s1.94.09,3.52.09c.32,0,.46-.09.46-.23s-.06-.17-.23-.17a12.27,12.27,0,0,1-1.29-.11c-.86-.11-1-.75-1.12-1.58-.14-1.2-.14-3.46-.14-6.21v-.69c0-.14.06-.23.2-.23l3.52.06a.46.46,0,0,1,.37.17c.57.75,1.92,2.66,3.12,4.24,1.63,2.14,2.63,3.55,3.86,4.21a5.86,5.86,0,0,0,3.05.54h2c.52,0,.68-.06.68-.23s-.11-.17-.25-.17a7.49,7.49,0,0,1-1.12-.08,5.92,5.92,0,0,1-3.49-2.06c-1.66-1.77-3.6-4.32-5.94-7.32,2.57-2.37,3.46-4.5,3.46-6.61a5,5,0,0,0-2-3.89,8.83,8.83,0,0,0-5.23-1.25c-.89,0-3.06.08-3.38.08-.14,0-1.94-.08-3.23-.08-.31,0-.45.06-.45.23s.11.16.22.16a5.36,5.36,0,0,1,1,.09c.95.2,1.18.66,1.23,1.63s.06,1.71.06,6.18Zm-13.68-12.1,3.6.06c2.75.06,3.43.72,3.51,1.57l0,.32c0,.4.09.49.24.49s.2-.11.2-.37.09-2.28.09-3.14c0-.17,0-.34-.14-.34s-.38.09-.8.14a11.43,11.43,0,0,1-2,.14H239.2c-.34,0-1.43-.06-2.27-.14a5.37,5.37,0,0,1-1.25-.34c-.11,0-.23.37-.29.54s-.63,2.68-.63,3,.06.26.14.26.2-.06.29-.29a5.07,5.07,0,0,1,.49-.88c.46-.69,1.14-.89,2.92-.92l4.23-.06v12.1c0,2.75,0,5-.14,6.21-.11.83-.25,1.46-.82,1.58a4.41,4.41,0,0,1-.86.11c-.17,0-.23.09-.23.17s.14.23.46.23c.86,0,2.66-.09,2.8-.09s1.94.09,3.51.09c.32,0,.46-.09.46-.23s-.06-.17-.23-.17a12.27,12.27,0,0,1-1.29-.11c-.85-.11-1-.75-1.11-1.58-.14-1.2-.14-3.46-.14-6.21Zm-29.55,8.59c-.46,0-.57,0-.63.22l-.43,1.6c-.06.26,0,.44.14.44s.63-.29,1.18-.44c1-.25,6-.94,6.8-1.05.46-.09,1-.14,1-.49s-.37-.28-.86-.28Zm-20.83-1.52c0-4.47,0-5.27.06-6.18s.29-1.49,1.11-1.63a6.74,6.74,0,0,1,.95-.09c.11,0,.23-.06.23-.16s-.14-.23-.46-.23c-.86,0-2.95.08-3.09.08s-1.94-.08-3.23-.08c-.32,0-.46.06-.46.23s.11.16.23.16a5.36,5.36,0,0,1,1,.09c.94.2,1.17.66,1.23,1.63s.06,1.71.06,6.18v5c0,2.75,0,5-.14,6.21-.11.82-.26,1.46-.83,1.57a3.82,3.82,0,0,1-.85.11c-.17,0-.23.09-.23.17s.14.23.46.23,1.05,0,1.63-.06,1.05,0,1.17,0c.83,0,1.72,0,2.92.09s2.69.09,4.75.09c1.52,0,1.61-.11,1.81-.77a18.17,18.17,0,0,0,.43-2.85c0-.32,0-.43-.17-.43s-.23.14-.26.37a4,4,0,0,1-.75,1.71c-.69.83-1.94.86-3.46.86-2.23,0-3-.2-3.43-.66s-.63-2.34-.63-6.55Zm-19.85,5c0,2.75,0,5-.14,6.21-.11.82-.26,1.46-.82,1.57a3.94,3.94,0,0,1-.86.11c-.17,0-.23.09-.23.17s.14.23.46.23,1.08-.06,1.66-.06,1.09,0,1.15,0c.42,0,1.11,0,2.23.09s2.69.09,4.83.09c1.11,0,1.34,0,1.54-.75a27.69,27.69,0,0,0,.37-2.77c0-.2,0-.43-.17-.43s-.2.12-.26.43c-.2,1.18-.54,1.75-1.28,2.06a8.16,8.16,0,0,1-2.75.32c-2.8,0-3.23-.37-3.32-2.35,0-.6,0-3.91,0-4.89v-2.52a.18.18,0,0,1,.2-.2c.49,0,3.32.06,4.09.14,1.12.11,1.37.6,1.48,1a2.93,2.93,0,0,1,.11.95c0,.14.06.26.2.26s.2-.32.2-.54.06-1.25.11-1.83c.09-.94.23-1.43.23-1.6s-.06-.23-.14-.23-.23.14-.43.37-.65.34-1.34.4-4.18.06-4.55.06c-.14,0-.17-.09-.17-.29v-7.9c0-.2.06-.29.17-.29.32,0,3.43,0,3.92.09,1.54.17,1.83.52,2,1a3.07,3.07,0,0,1,.17,1c0,.23.06.37.23.37s.17-.17.2-.32c.06-.34.11-1.6.14-1.89.09-.8.22-1.14.22-1.34s0-.26-.11-.26-.25.11-.39.14a7.64,7.64,0,0,1-1.23.14c-.66,0-6.36,0-6.55,0l-1.18-.06c-.62,0-1.4,0-2.06,0-.32,0-.46.06-.46.23s.11.16.23.16a5.36,5.36,0,0,1,1,.09c.94.2,1.17.66,1.23,1.63s.06,1.71.06,6.18Zm-13.67-12.1,3.6.06c2.74.06,3.43.72,3.51,1.57l0,.32c0,.4.09.49.23.49s.2-.11.2-.37.09-2.28.09-3.14c0-.17,0-.34-.15-.34s-.37.09-.8.14a11.37,11.37,0,0,1-2,.14H155.3c-.34,0-1.43-.06-2.26-.14a5.35,5.35,0,0,1-1.26-.34c-.11,0-.22.37-.28.54s-.63,2.68-.63,3,.06.26.14.26.2-.06.29-.29a5.39,5.39,0,0,1,.48-.88c.46-.69,1.15-.89,2.92-.92l4.24-.06v12.1c0,2.75,0,5-.14,6.21-.11.83-.26,1.46-.83,1.58a4.34,4.34,0,0,1-.85.11c-.17,0-.23.09-.23.17s.14.23.46.23c.85,0,2.65-.09,2.8-.09s1.94.09,3.51.09c.32,0,.46-.09.46-.23s-.06-.17-.23-.17a12.15,12.15,0,0,1-1.28-.11c-.86-.11-1-.75-1.11-1.58-.14-1.2-.14-3.46-.14-6.21Zm-32,8.75c0-6.27,3.58-9.41,8.35-9.41,4.52,0,8.7,3.69,8.7,10.56,0,8.32-5.32,9.82-7.89,9.82-5.15,0-9.16-4.29-9.16-11m-2.72.8c0,5.15,3.26,11.24,11.1,11.24,6.9,0,11.41-5.29,11.41-11.7,0-6.67-4.8-10.73-11.24-10.73A11.07,11.07,0,0,0,126.58,302m-6.21-2.49c0-4.47,0-5.26.06-6.18s.29-1.49,1.06-1.63a4.12,4.12,0,0,1,.71-.09c.11,0,.23-.06.23-.16s-.14-.23-.46-.23c-.85,0-2.65.08-2.8.08s-1.94-.08-3.23-.08c-.32,0-.46.06-.46.23s.11.16.23.16a5.36,5.36,0,0,1,1,.09c.94.2,1.17.66,1.23,1.63s.06,1.71.06,6.18v.6a.15.15,0,0,1-.17.17H105.66a.15.15,0,0,1-.17-.17v-.6c0-4.47,0-5.26.06-6.18s.29-1.49,1.06-1.63a4.26,4.26,0,0,1,.72-.09c.11,0,.23-.06.23-.16s-.14-.23-.46-.23c-.86,0-2.66.08-2.8.08s-1.94-.08-3.23-.08c-.32,0-.46.06-.46.23s.11.16.23.16a5.36,5.36,0,0,1,1,.09c.95.2,1.18.66,1.23,1.63s.06,1.71.06,6.18v5c0,2.75,0,5-.14,6.21-.11.83-.26,1.46-.83,1.58a4.41,4.41,0,0,1-.86.11c-.17,0-.23.09-.23.17s.14.23.46.23c.86,0,2.66-.09,2.8-.09s1.94.09,3.52.09c.31,0,.45-.09.45-.23s-.06-.17-.23-.17a12.31,12.31,0,0,1-1.28-.11c-.86-.11-1-.75-1.12-1.58-.14-1.2-.14-3.46-.14-6.21v-3a.15.15,0,0,1,.17-.17h12.13a.17.17,0,0,1,.17.17v3c0,2.75,0,5-.14,6.21-.11.83-.26,1.46-.82,1.58a4.41,4.41,0,0,1-.86.11c-.17,0-.23.09-.23.17s.14.23.46.23c.86,0,2.66-.09,2.8-.09s1.94.09,3.51.09c.32,0,.46-.09.46-.23s-.06-.17-.23-.17a12,12,0,0,1-1.28-.11c-.86-.11-1-.75-1.12-1.58-.14-1.2-.14-3.46-.14-6.21Z" transform="translate(-3 -2.01)"/><path class="cls-1" d="M431.1,238.35c1.66,1.87,7.52,8.42,13.54,14.91,5.5,5.92,13,13.56,13.54,14.08,2.75,2.75,3.38,3.32,3.8,3.32s.47-.26.47-3.69l.11-30.45c0-3.11.21-4.26,1.92-4.62a4.51,4.51,0,0,1,1.25-.16c.36,0,.57-.16.57-.36s-.36-.37-.93-.37c-2.13,0-3.85.15-4.42.15s-3.07-.15-5.4-.15c-.62,0-1,.05-1,.37s.05.36.42.36a13.71,13.71,0,0,1,2.54.26c1.61.42,2,1.56,2,4.93l.57,26.4c-1.66-1.72-7.31-8.06-12.45-13.56-8-8.56-15.72-16.93-16.5-17.81-.52-.52-1.41-1.66-1.83-1.66s-.57.57-.57,2.6l-.05,29.77c0,4.73-.26,6.24-1.56,6.6a7.52,7.52,0,0,1-2.13.31c-.27,0-.42.1-.42.31,0,.36.31.42.82.42,2.34,0,4.53-.15,5-.15s2.55.15,5.51.15c.62,0,.93-.11.93-.42s-.16-.31-.42-.31a11.45,11.45,0,0,1-2.6-.31c-1.4-.42-1.91-1.77-2-6ZM397,253.11c-.16,0-.26-.11-.16-.37l4.57-14q.39-1.17.77,0l4.94,14c.05.21.05.37-.21.37Zm-7.28,11.48c-.93,2.6-2,4.57-4.36,4.89-.42.05-1.14.1-1.51.1s-.47.1-.47.31.31.42,1,.42c2.44,0,5.3-.15,5.87-.15s2.8.15,4.05.15c.47,0,.78-.11.78-.42s-.16-.31-.52-.31H394c-.88,0-2-.47-2-1.51a11,11,0,0,1,.72-3.48l3.12-9.2a.54.54,0,0,1,.52-.42h11.17a.45.45,0,0,1,.47.31l4.83,12.79c.31.83,0,1.3-.32,1.41s-.36.15-.36.36.57.31,1.56.36c3.58.11,7.38.11,8.15.11.57,0,1-.11,1-.42s-.21-.31-.52-.31a6.74,6.74,0,0,1-2.08-.31c-1.09-.32-2.6-1.15-4.47-5.77-3.17-7.9-11.32-29.35-12.1-31.32-.62-1.61-.83-1.87-1.14-1.87s-.52.31-1.15,2Zm-18.18-31.33,6.54.1c5,.11,6.22,1.3,6.38,2.86l.05.57c.05.72.16.88.42.88s.37-.21.37-.67.16-4.15.16-5.71c0-.32,0-.62-.27-.62s-.68.15-1.46.26a20.63,20.63,0,0,1-3.69.26H360.54c-.62,0-2.6-.1-4.11-.26a9.9,9.9,0,0,1-2.29-.62c-.21,0-.42.67-.52,1s-1.15,4.88-1.15,5.39c0,.32.11.47.27.47s.36-.11.52-.52a9.75,9.75,0,0,1,.88-1.61c.83-1.25,2.08-1.61,5.3-1.66l7.69-.1v22c0,5,0,9.09-.26,11.27-.21,1.51-.47,2.65-1.51,2.86a7.72,7.72,0,0,1-1.56.21c-.31,0-.42.16-.42.31,0,.31.26.42.83.42,1.56,0,4.83-.15,5.09-.15s3.53.15,6.38.15c.57,0,.83-.16.83-.42s-.11-.31-.42-.31a21.64,21.64,0,0,1-2.34-.21c-1.56-.21-1.87-1.35-2-2.86-.26-2.18-.26-6.29-.26-11.27Zm-29.56,12.83c0-8.1,0-9.56.1-11.22.11-1.82.52-2.7,1.92-3a7.44,7.44,0,0,1,1.3-.16c.21,0,.42-.11.42-.31s-.26-.42-.83-.42c-1.56,0-4.83.15-5.08.15s-3.53-.15-5.25-.15c-.57,0-.83.11-.83.42s.21.31.42.31a6.74,6.74,0,0,1,1.61.21c1.14.26,1.66,1.14,1.76,2.91s.11,3.12.11,11.22v9.15c0,5,0,9.09-.26,11.27-.21,1.51-.47,2.65-1.51,2.86a7.72,7.72,0,0,1-1.56.21c-.31,0-.42.16-.42.31,0,.31.26.42.83.42,1.56,0,4.83-.15,5.09-.15s3.53.15,6.39.15c.57,0,.82-.16.82-.42s-.1-.31-.42-.31a21.8,21.8,0,0,1-2.34-.21c-1.56-.21-1.86-1.35-2-2.86-.26-2.18-.26-6.29-.26-11.27Zm-30.76,0c0-8.1,0-9.56.1-11.22.11-1.82.52-2.7,2-3a11.69,11.69,0,0,1,1.71-.16c.21,0,.42-.11.42-.31s-.26-.42-.83-.42c-1.56,0-5.35.15-5.61.15s-3.53-.15-5.86-.15c-.57,0-.83.11-.83.42s.21.31.42.31a9.38,9.38,0,0,1,1.76.16c1.71.36,2.13,1.19,2.24,3s.1,3.12.1,11.22v9.15c0,5,0,9.08-.26,11.27-.21,1.51-.47,2.65-1.51,2.85a7.32,7.32,0,0,1-1.56.22c-.31,0-.42.16-.42.31,0,.31.27.42.83.42.78,0,1.92-.06,3-.11s1.92-.05,2.13-.05c1.51,0,3.11.05,5.3.16s4.88.15,8.62.15c2.76,0,2.91-.21,3.28-1.4a33.1,33.1,0,0,0,.78-5.19c0-.57-.06-.78-.32-.78s-.42.26-.47.67a7.27,7.27,0,0,1-1.35,3.12c-1.25,1.51-3.53,1.56-6.29,1.56-4.05,0-5.41-.37-6.24-1.2s-1.14-4.26-1.14-11.9Zm-51.33,3.07c0-11.38,6.5-17.1,15.17-17.1,8.21,0,15.79,6.7,15.79,19.18,0,15.12-9.66,17.82-14.34,17.82-9.36,0-16.63-7.8-16.63-19.9m-4.93,1.46c0,9.35,5.91,20.41,20.15,20.41,12.53,0,20.73-9.61,20.73-21.24,0-12.11-8.73-19.48-20.41-19.48-14.35,0-20.47,11.89-20.47,20.31m-27.43,4.62c0,5,0,9.1-.26,11.28-.21,1.51-.47,2.65-1.51,2.86a7.79,7.79,0,0,1-1.56.21c-.31,0-.42.16-.42.31,0,.31.27.42.83.42,1.56,0,4.83-.15,5-.15s3.53.15,6.4.15c.57,0,.83-.16.83-.42s-.11-.31-.42-.31a21.76,21.76,0,0,1-2.34-.21c-1.56-.21-1.87-1.35-2-2.86-.27-2.18-.27-6.29-.27-11.28V233.88c0-.52.11-.88.42-1a6.44,6.44,0,0,1,2.24-.31,9,9,0,0,1,7.12,2.6,11,11,0,0,1,2.91,8c0,4.77-4,8.47-9,8.47-1.09,0-1.41.05-1.41.47,0,.26.32.36.57.36a7.92,7.92,0,0,0,1.09.05c7.38,0,12.78-5,12.78-12.36a9,9,0,0,0-2.6-6.18c-.83-.78-3.17-3-9.66-3-2.39,0-5.41.15-6.55.15-.42,0-3.53-.15-5.86-.15-.57,0-.83.11-.83.42s.21.31.42.31a9.38,9.38,0,0,1,1.76.16c1.71.36,2.13,1.19,2.24,3s.1,3.12.1,11.22Zm-47-6.07c0-11.38,6.5-17.1,15.17-17.1,8.21,0,15.79,6.7,15.79,19.18,0,15.12-9.66,17.82-14.34,17.82-9.36,0-16.63-7.8-16.63-19.9m-4.93,1.46c0,9.35,5.91,20.41,20.15,20.41,12.53,0,20.73-9.61,20.73-21.24,0-12.11-8.73-19.48-20.41-19.48-14.35,0-20.47,11.89-20.47,20.31M162.13,231.7c-.11-1-.27-1.4-.62-1.4s-.57.37-.78.83l-15.27,32.62-15.89-32.67c-.26-.57-.47-.78-.78-.78s-.52.37-.57.93l-3.74,33.88c-.21,2-.37,4-2.08,4.31a6.59,6.59,0,0,1-1.56.16c-.27,0-.52.1-.52.26,0,.36.37.47.88.47,1.41,0,3.9-.15,4.37-.15s2.91.15,4.83.15c.62,0,.93-.11.93-.47,0-.16-.21-.26-.42-.26a9.53,9.53,0,0,1-2-.26,1.66,1.66,0,0,1-1.35-1.61c0-.88,0-1.81.05-2.65L129.72,241h.21c.57,1.41,6.39,13.87,6.85,14.81.26.52,4.72,9.51,6.08,12.05,1,1.86,1.25,2.38,1.61,2.38s.62-.46,1.71-2.75l12.73-27h.16l2.5,26.81c.1.93.05,1.82-.21,1.87s-.37.16-.37.37.27.41,1.46.51c1.92.16,7.54.32,8.68.32.62,0,1.09-.16,1.09-.47s-.15-.26-.42-.26a11.33,11.33,0,0,1-3.38-.47c-2.23-.73-2.6-3.63-2.8-5.51ZM101.4,271a13.75,13.75,0,0,0,7.85-2.17,10.79,10.79,0,0,0,4.41-8.63c0-4.15-1.46-7.38-7.58-12.21l-1.46-1.14c-5-3.9-6.35-5.77-6.35-8.73,0-3.79,2.8-6,6.4-6,4.78,0,6.18,2.18,6.5,2.75a9.36,9.36,0,0,1,.67,2.6c.05.42.1.67.41.67s.37-.36.37-1.19c0-3.53.21-5.25.21-5.51s-.1-.36-.52-.36a8.55,8.55,0,0,1-1.81-.27,20.44,20.44,0,0,0-4.84-.52c-6.6,0-10.75,3.79-10.75,9.34,0,3.53,1.24,6.76,6.75,11.28l2.34,1.92c4.47,3.69,6,5.77,6,9.36,0,3.33-2.44,6.91-7.43,6.91-3.48,0-6.91-1.46-7.69-5.3a9.09,9.09,0,0,1-.16-1.93c0-.42-.05-.57-.36-.57s-.37.26-.42.83c-.05.83-.26,2.9-.26,5.51,0,1.41.05,1.61.77,2a15.84,15.84,0,0,0,7,1.4M49.23,249.16c0-11.38,6.5-17.1,15.18-17.1,8.21,0,15.79,6.7,15.79,19.18,0,15.12-9.66,17.82-14.34,17.82-9.36,0-16.63-7.8-16.63-19.9m-4.93,1.46C44.3,260,50.22,271,64.46,271c12.53,0,20.73-9.61,20.73-21.24,0-12.11-8.73-19.48-20.41-19.48-14.35,0-20.47,11.89-20.47,20.31M26.43,271c3.33,0,7.28-.37,9.36-1.19.93-.42,1-.52,1.35-1.51a54.28,54.28,0,0,0,1.14-6.65c0-.42-.11-.78-.37-.78s-.42.22-.52.78A9.89,9.89,0,0,1,35.47,266c-2.08,2.13-5.14,2.6-9,2.6a18.77,18.77,0,0,1-18.76-19c0-5.3.88-9.92,4.67-13.56,1.82-1.76,5-3.79,12-3.79,4.57,0,8.57,1.41,10.39,3a7.2,7.2,0,0,1,2.19,5.31c0,.72.05,1.09.41,1.09s.42-.32.47-1.09.05-3.64.16-5.36c.1-1.87.26-2.5.26-2.91s-.1-.52-.67-.57a47,47,0,0,1-5.29-.77,44.82,44.82,0,0,0-7.54-.62c-8,0-12.73,2.44-15.85,5.55A20.77,20.77,0,0,0,3,250c0,4.93,1.25,10.86,6.28,15.38,4.11,3.69,9.36,5.61,17.15,5.61" transform="translate(-3 -2.01)"/></svg>