<?xml version="1.0" encoding="utf-8"?>
<!-- Generator: Adobe Illustrator 21.0.0, SVG Export Plug-In . SVG Version: 6.00 Build 0)  -->
<svg version="1.1" id="Layer_1" xmlns="http://www.w3.org/2000/svg" xmlns:xlink="http://www.w3.org/1999/xlink" x="0px" y="0px"
	 viewBox="0 0 587 394.3" style="enable-background:new 0 0 587 394.3;" xml:space="preserve">
<style type="text/css">
	.st0{fill:#3D4E57;}
</style>
<title>Cosmo Logo</title>
<path class="st0" d="M309.2,211.6c1.4-2.7,1.5-5.8,0.3-8.5c9.9-3.3,18.7-9.8,26.4-19.6c1.9,7.3,0.3,15-4.2,21
	c-2.4,2.7-5.3,4.9-8.6,6.3c-4.5,2-9.6,2.6-14.5,1.7C308.8,212.2,309,211.9,309.2,211.6 M349.7,190.8c0.8-1.3,1.6-2.7,2.2-4.1
	c0.5,1.7,1.3,3.3,2.3,4.7c-1.9,3.1-3.9,6-6.1,8.9c-9.6,12.6-20.6,21.1-32.8,25.7c-0.7-1.9-1.6-3.7-2.7-5.4c-0.8-1.2-1.7-2.3-2.6-3.3
	c5.7,1.1,11.6,0.5,16.9-1.8c1.5-0.6,2.9-1.4,4.2-2.3c2.1-1.3,3.9-2.9,5.5-4.8c0.9-1.2,1.7-2.4,2.3-3.7c0.7-1.4,1.2-2.7,1.7-4.1
	C344.3,197.9,347.4,194.6,349.7,190.8 M289.5,240.5l1.9,0.8c0.1,4.4-2,8.7-5.7,11.1C284.8,248.1,286.3,243.6,289.5,240.5
	 M292.5,241.5h2c1.8,4.1,1.5,8.8-1,12.5C291.1,250.3,290.7,245.6,292.5,241.5 M295.7,241.3l1.9-0.8c3.2,3.1,4.6,7.5,3.9,11.9
	C297.8,250,295.6,245.8,295.7,241.3 M303.1,239.5c-0.9-0.6-1.7-1.3-2.4-2l0.8-1.9c3-0.1,5.9,0.8,8.3,2.7c1.1,0.8,2,1.8,2.8,2.9
	C309.3,242,305.9,241.3,303.1,239.5 M298.6,240l1.4-1.5c0.8,0.3,1.5,0.7,2.3,1.1c3,1.9,5.1,4.9,5.9,8.4
	C303.8,247.1,300.2,244.1,298.6,240 M284,239.6c-2.8,1.8-6.2,2.5-9.5,1.8c0.8-1.1,1.8-2.1,2.9-3c2.3-1.9,5.3-2.9,8.3-2.8l0.8,2
	C285.7,238.3,284.9,239,284,239.6 M279,248.1c0.8-3.5,2.9-6.5,5.9-8.4c0.7-0.4,1.5-0.8,2.3-1.1l1.5,1.4l0,0
	C287,244.1,283.3,247.2,279,248.1 M273,233.4c0.4-0.2,0.7-0.4,1.1-0.6c1.3-0.6,2.7-1.1,4.1-1.4c2.5-0.4,5,0,7.3,1v2
	c-0.5,0.2-0.9,0.4-1.4,0.5C280.3,236.2,276.7,235.6,273,233.4 M300.1,228.4l-1.5-1.4c1.5-4.2,5.1-7.3,9.5-8.2
	C307.2,223.2,304.2,226.8,300.1,228.4 M301.4,231.3l-0.8-1.9c3.1-3.3,7.1-4.6,11.9-3.9c-0.5,0.7-1,1.3-1.6,1.9
	C308.5,230,305,231.4,301.4,231.3 M301.7,234.4v-2c2.3-1,4.8-1.4,7.2-1c1.5,0.3,2.9,0.7,4.2,1.4c0.4,0.2,0.8,0.4,1.1,0.6
	c-3.3,2.2-7.4,2.7-11.1,1.5C302.5,234.8,302,234.6,301.7,234.4 M297.5,226.3l-1.9-0.8c-0.1-3.5,1.2-7,3.8-9.4c0.6-0.6,1.2-1.1,2-1.7
	c0,0.6,0.1,1.2,0.1,1.8C301.8,219.9,300.4,223.7,297.5,226.3 M286.4,229.4L286.4,229.4l-0.8,1.9c-3.6,0.1-7.1-1.3-9.6-3.9
	c-0.6-0.6-1.1-1.2-1.5-1.9C278.8,224.6,283.3,226.1,286.4,229.4 M289.6,229.6c1.3-1.3,3.2-1.9,5-1.6c1.1,0.2,2,0.8,2.8,1.6
	c0.2,0.2,0.5,0.5,0.7,0.7c0.5,0.8,0.8,1.6,0.9,2.5c0,0.5,0,1-0.1,1.5c0,0.3-0.1,0.6-0.3,0.9c-0.4,1.1-1.1,1.9-2.1,2.5
	c-1.2,0.8-2.6,1.1-4,0.8c-1.4-0.2-2.7-1.1-3.4-2.3c-0.2-0.3-0.4-0.6-0.5-1c-0.3-0.8-0.5-1.6-0.4-2.4c0-0.2,0-0.4,0-0.6
	C288.4,231.3,288.9,230.4,289.6,229.6 M288.5,226.9l-1.5,1.5c-4.2-1.6-7.2-5.2-8.1-9.6C283.6,220,286.8,222.7,288.5,226.9
	 M232.7,191.4c1-1.4,1.8-3,2.3-4.7c0.7,1.4,1.4,2.8,2.2,4.1c2.4,3.8,5.4,7,8.9,9.7c0.4,1.4,1,2.8,1.6,4.2c0.6,1.3,1.4,2.5,2.3,3.7
	c1.6,1.9,3.4,3.5,5.5,4.8c1.3,0.9,2.7,1.6,4.1,2.3c5.4,2.3,11.4,2.9,17.2,1.8c-2.4,2.4-4.2,5.4-5.3,8.6
	c-12.2-4.5-23.1-13.1-32.8-25.7C236.6,197.3,234.6,194.4,232.7,191.4 M293.5,212.9c0.1,0.1,0.2,0.2,0.3,0.3
	c2.2,3.7,2.5,8.2,0.8,12.1h-2C290.7,221.2,291.1,216.6,293.5,212.9 M285.6,214.4C285.7,214.4,285.7,214.4,285.6,214.4
	c0.7,0.5,1.3,1,1.9,1.6c2.5,2.5,3.9,5.9,3.8,9.5l-1.9,0.8c-2.8-2.6-4.3-6.3-4-10.2C285.5,215.5,285.5,214.9,285.6,214.4
	 M277.7,211.6c0.1,0.3,0.3,0.6,0.5,0.9c-5,0.9-10.1,0.3-14.7-1.7c-3.3-1.4-6.2-3.6-8.5-6.3c-0.8-1-1.5-2.1-2-3.2
	c-2.7-5.5-3.4-11.8-2-17.8c7.7,9.7,16.6,16.2,26.4,19.6C276.3,205.9,276.4,209,277.7,211.6 M279.5,210.5c-1.1-2.1-1.2-4.6-0.5-6.9
	c9.4,2.7,19.4,2.7,28.9,0c0.7,2.3,0.5,4.8-0.5,6.9c-0.2,0.4-0.5,0.8-0.8,1.1c-0.1,0.2-0.3,0.3-0.5,0.4c-0.4,0.5-0.9,0.9-1.4,1.1
	c-2.1-1.2-4.4-2-6.8-2.4c-5.4-1.1-11-0.2-15.8,2.5c-0.6-0.3-1.1-0.7-1.5-1.2c-0.1-0.1-0.3-0.4-0.5-0.5
	C279.9,211.3,279.7,210.9,279.5,210.5 M238.4,161.5v-0.2c1,2.8,2.3,5.5,3.6,8.2c0.7,1.4,1.4,2.8,2.2,4.2c1,1.7,2.1,3.4,3.2,5
	c-0.2,0.4-0.4,0.7-0.5,1.1c-2.1,5-2.8,10.4-2,15.8c-1.5-1.5-2.8-3.2-4-5c-2.3-3.3-3.7-7.2-4.3-11.1
	C235.8,174.2,236.4,168.3,238.4,161.5 M182.3,128.3c5.8-3.4,11.6-3.9,17.4-1.4v2.8C193.9,132.2,188.1,131.8,182.3,128.3
	 M206.2,138.5c0.2,2.6,0.4,5.3,0.7,7.8c-1.4,3.4-3.8,6.4-6.8,8.6c-1-6.7,0.8-12.2,5.4-16.7L206.2,138.5z M200,131.3l1.1,2.6
	c-4.4,4.6-9.9,6.3-16.6,5.4C188.5,133.8,193.7,131.2,200,131.3 M202,135.3l2,2c-2.3,5.9-6.8,9.6-13.3,11.3
	C192.4,142,196.1,137.6,202,135.3 M221,148.5c0.2-0.5,0.5-1,0.9-1.4c0.2-0.3,0.5-0.5,0.8-0.7c0.5-0.4,1.1-0.7,1.7-1
	c0.9-0.3,1.8-0.5,2.7-0.5c1.2,0,2.4,0.3,3.5,0.9c0.8,0.5,1.4,1.1,2,1.7c0.4,0.4,0.7,0.9,1,1.4c0.3,0.6,0.6,1.2,0.8,1.8
	c0.3,1.1,0.5,2.2,0.5,3.3c0,1.2-0.2,2.4-0.6,3.5c-0.3,1.1-0.7,2.1-1.2,3.1c-0.5,0.8-1,1.7-1.4,2.6l0,0c-1.2,2.8-1.8,5.8-1.8,8.9
	c0,1,0,1.9,0.2,2.9c0.2,1.6,0.5,3.1,1.1,4.6c0.2,0.5,0.4,1,0.6,1.5c0.2,0.5,0.3,1,0.4,1.4c0.6,2.2,0.3,4.4-0.8,6.4
	c-5.4-9.2-9.3-19.2-11.8-29.5c-0.4-1.9-0.9-3.9-1.2-5.9c0.2,0.4,0.4,0.6,0.7,0.9c0.2,0.3,0.4,0.5,0.7,0.7c0.3,0.3,0.7,0.6,1.1,0.8
	c0.2,0.2,0.5,0.3,0.8,0.4c0.4,0.1,0.8,0.2,1.1,0.2h0.8c1.3,0,2.6-0.7,3.3-1.8c0.1-0.2,0.1-0.3,0.3-0.5c0-0.2,0.1-0.3,0.2-0.4
	c0.1-0.3,0.1-0.6,0.1-0.8V153c0-0.7-0.3-1.5-0.8-2c-0.5-0.5-1.3-0.8-2-0.8c-0.8,0-1.5,0.3-2,0.8c-0.1,0.1-0.2,0.2-0.3,0.4
	c-0.3,0.5-0.5,1-0.5,1.6c0,0.1,0,0.2,0,0.4c-0.2,0-0.4,0-0.5-0.1c-0.3-0.2-0.5-0.4-0.6-0.8c-0.1-0.1-0.1-0.3-0.1-0.4
	c-0.1-0.3-0.1-0.7-0.1-1c0-0.3,0-0.7,0.1-1c0-0.2,0.1-0.4,0.1-0.6c0.1-0.3,0.2-0.5,0.3-0.8v-0.1 M228.5,114.5h0.3
	c1.7,0,3.3-0.3,4.9-0.9c-0.1,1.1-0.3,2.2-0.4,3.4c-0.1,0.8-0.2,1.6-0.2,2.4c-0.2,0.7-0.2,1.4-0.2,2.1c0,0.1,0,0.2,0,0.3
	c-0.1,1.2-0.1,2.4-0.1,3.6c0,0.2,0,0.4,0,0.5c0,0.6,0,1.1,0,1.7v0.8c0,0.5,0,1.1,0,1.7v0.8c0,1.2,0.1,2.4,0.2,3.6v0.3
	c0,0.5,0,1,0.1,1.5c0.1,1.1,0.2,2.2,0.3,3.2s0.3,2.2,0.4,3.3c-1.6-0.6-3.2-0.9-4.9-0.9h-0.3c-2.2,0-4.4,0.6-6.3,1.8
	c-0.4,0.2-0.8,0.5-1.1,0.8c-0.2,0.2-0.5,0.4-0.7,0.6c-0.6,0.4-1.1,0.9-1.5,1.5c-0.3,0.4-0.6,0.9-0.9,1.4c-0.1,0.2-0.1,0.3-0.2,0.5
	c-0.1,0.3-0.2,0.7-0.3,1.1c-0.6-3.6-1-7.3-1.2-11.1c-0.1-1.4-0.2-3-0.2-4.5c0-1.9-0.1-3.8-0.1-5.7s0.1-3.8,0.1-5.7
	c0.1-1.5,0.1-3,0.2-4.5c0.3-3.8,0.7-7.5,1.2-11.2c0.1,0.4,0.2,0.7,0.3,1.1c0.1,0.1,0.2,0.3,0.2,0.5c0.2,0.5,0.5,0.9,0.9,1.3
	c0.5,0.6,1,1.1,1.5,1.5c0.2,0.2,0.4,0.4,0.7,0.6c0.3,0.3,0.7,0.6,1.1,0.8C224.1,113.9,226.3,114.6,228.5,114.5 M204,119.2l-2,2
	c-5.8-2.3-9.6-6.7-11.2-13.3C197.3,109.5,201.7,113.3,204,119.2 M201.1,122.6l-1.1,2.6c-6.3,0.1-11.4-2.6-15.5-8
	C191.2,116.2,196.7,118,201.1,122.6 M206.8,110.2c-0.3,2.6-0.5,5.2-0.7,7.8l-0.7,0.3c-4.6-4.4-6.4-10-5.4-16.6
	C203.1,103.8,205.4,106.8,206.8,110.2 M203.6,126.8c0.3-1.5,1.1-3,2.3-4c-0.1,1.8-0.1,3.7-0.1,5.5s0,3.7,0.1,5.5
	c-0.4-0.4-0.8-0.8-1.1-1.3C203.6,130.8,203.2,128.8,203.6,126.8 M231.3,67.5c1,2,1.3,4.2,0.7,6.4c-0.1,0.5-0.3,1-0.4,1.5
	c-0.1,0.5-0.3,1-0.6,1.5c-0.5,1.5-0.9,3-1.1,4.6c-0.1,1-0.2,1.9-0.2,2.9c0,3.1,0.6,6.2,1.8,9l0,0c0.4,0.9,0.8,1.7,1.4,2.6
	c0.5,1,0.9,2,1.2,3.1c0.2,0.5,0.3,1,0.4,1.6c0.1,0.6,0.2,1.3,0.2,1.9c0,1.1-0.2,2.3-0.5,3.4c-0.2,0.6-0.4,1.2-0.8,1.7
	c-0.3,0.5-0.6,0.9-1,1.4c-0.6,0.7-1.2,1.3-2,1.7c-1,0.7-2.3,1-3.5,1c-0.9,0-1.8-0.2-2.7-0.5c-0.6-0.3-1.2-0.6-1.8-1.1
	c-0.3-0.2-0.5-0.4-0.8-0.7c-0.4-0.4-0.7-0.9-0.9-1.4c0,0,0,0,0-0.1c-0.1-0.3-0.2-0.5-0.3-0.8c-0.1-0.2-0.1-0.4-0.1-0.6
	c-0.1-0.3-0.1-0.7-0.1-1c0-0.3,0-0.7,0.1-1c0-0.2,0.1-0.3,0.1-0.4c0.1-0.3,0.3-0.6,0.6-0.8c0.2-0.1,0.3-0.1,0.5-0.1
	c0,0.1,0,0.3,0,0.4c0,0.6,0.2,1.1,0.5,1.6c0.1,0.1,0.2,0.2,0.3,0.3c0.5,0.6,1.2,0.9,2,0.8c0.8,0,1.5-0.3,2-0.8
	c0.5-0.5,0.8-1.2,0.8-1.9v-0.2c0-0.3-0.1-0.5-0.1-0.7c-0.1-0.2-0.1-0.3-0.2-0.4s-0.2-0.3-0.3-0.4c-0.7-1.2-2-1.9-3.3-1.9h-0.4
	c-0.1,0-0.3,0-0.4,0c-0.4,0-0.8,0.1-1.1,0.3c-0.3,0.1-0.6,0.2-0.8,0.3c-0.4,0.2-0.8,0.5-1.1,0.8c-0.2,0.2-0.4,0.4-0.7,0.7
	s-0.4,0.6-0.7,0.9c0.4-2,0.8-3.8,1.2-5.8C221.9,86.7,225.9,76.7,231.3,67.5 M247.5,77.7c-1.1,1.6-2.2,3.3-3.2,5
	c-0.8,1.3-1.5,2.7-2.3,4.2c-1.4,2.7-2.6,5.4-3.6,8.2V95c-2-6.8-2.6-12.8-1.8-18c0.6-4,2-7.8,4.3-11.2c1.2-1.8,2.6-3.5,4.1-5
	c-0.8,5.3-0.1,10.8,2,15.7C247.2,76.9,247.3,77.3,247.5,77.7 M255.2,51.9c2.3-2.7,5.3-4.9,8.6-6.2c4.5-1.9,9.5-2.5,14.4-1.6
	c-0.1,0.3-0.3,0.6-0.5,0.9c-1.4,2.7-1.5,5.8-0.3,8.5c-9.9,3.3-18.7,9.8-26.4,19.6c-1.4-6-0.7-12.3,2.1-17.8
	C253.7,54.1,254.4,53,255.2,51.9 M287,28.2l1.5,1.4c-1.6,4.2-5.2,7.2-9.6,8.1C279.8,33.4,282.9,29.8,287,28.2 M298.5,29.6l1.4-1.5
	c4.2,1.6,7.2,5.2,8.1,9.5C303.7,36.8,300.1,33.8,298.5,29.6 M295.7,31.1l1.9-0.8c2.8,2.6,4.3,6.3,4,10.1c0,0.6-0.1,1.1-0.1,1.7v0.1
	c-0.1,0-0.1,0-0.1-0.1c-0.7-0.5-1.3-1-1.9-1.6C296.9,38.1,295.6,34.7,295.7,31.1 M289.5,30.3l1.9,0.8c0.1,3.6-1.2,7-3.8,9.5
	c-0.6,0.6-1.2,1.1-1.9,1.6c0,0,0,0-0.1,0.1v-0.1c-0.1-0.6-0.1-1.2-0.1-1.8C285.2,36.6,286.7,32.9,289.5,30.3 M292.5,31.3h2
	c1.8,4,1.5,8.6-0.8,12.3c-0.1,0-0.1,0.1-0.2,0.2s0,0,0-0.1C291.1,39.9,290.7,35.3,292.5,31.3 M298,20.1c0.2,0.4,0.4,0.7,0.5,1
	c0.3,0.8,0.4,1.7,0.4,2.5c0,0.2,0,0.4-0.1,0.6c-0.2,1-0.7,2-1.5,2.7c-0.3,0.3-0.6,0.5-0.9,0.8c-1.2,0.8-2.6,1-4,0.7
	c-1.1-0.2-2.1-0.7-2.8-1.5c-0.2-0.2-0.4-0.5-0.6-0.8c-0.5-0.7-0.8-1.6-0.9-2.5c-0.1-0.5-0.1-1,0-1.5c0.1-0.3,0.2-0.7,0.3-1
	c0.4-1,1.1-1.9,2-2.5c1.2-0.8,2.6-1.1,4-0.8C295.9,18.1,297.2,18.9,298,20.1 M274.4,31c0.5-0.6,1-1.2,1.6-1.8c2.5-2.6,6-4,9.6-3.9
	l0.8,1.9C283.2,30.5,279.3,31.7,274.4,31 M274.3,36c0.8,1.1,1.7,2.2,2.6,3.3c-5.7-1.1-11.6-0.5-16.9,1.8c-1.5,0.6-2.9,1.4-4.2,2.3
	c-2.1,1.3-3.9,2.9-5.5,4.8c-0.9,1.1-1.7,2.4-2.3,3.7c-0.7,1.3-1.2,2.7-1.7,4.1c-3.6,2.7-6.6,6-9,9.8c-0.8,1.4-1.5,2.7-2.2,4.1
	c-0.5-1.7-1.3-3.2-2.3-4.7c1.9-3,3.9-6,6.1-8.8c9.6-12.6,20.6-21.2,32.8-25.7C272.2,32.5,273.1,34.3,274.3,36 M270.4,24.9
	c0,0.8,0.1,1.6,0.3,2.4c-12.9,4.7-24.4,13.7-34.5,26.9c-2.1,2.7-4,5.5-5.8,8.4c-0.5,0.7-0.9,1.4-1.3,2.1
	c-5.9,9.8-10.2,20.5-12.8,31.7c-0.9,3.8-1.6,7.7-2.2,11.6c-0.3,2.3-0.6,4.6-0.8,6.9c-0.2,1.9-0.3,3.9-0.4,5.9
	c-0.1,2.4-0.2,4.9-0.2,7.3s0.1,5,0.2,7.4c0.1,2,0.2,4,0.4,6c0.2,2.3,0.4,4.6,0.8,6.9c0.6,4,1.3,7.9,2.2,11.7
	c2.6,11.1,6.9,21.8,12.8,31.6l1.4,2.2c1.8,2.8,3.7,5.6,5.8,8.3c10.2,13.3,21.7,22.3,34.6,27c-0.2,0.8-0.3,1.6-0.4,2.3
	c-13.3-4.7-25.1-13.8-35.6-27.3c-2.3-2.9-4.4-5.9-6.3-9c-0.5-0.8-0.9-1.5-1.4-2.2c-6.1-10.1-10.5-21.2-13.3-32.7
	c-0.4-2-0.9-4.2-1.3-6.2c-0.9-4.8-1.5-9.7-1.9-14.6c-0.1-1.2-0.2-2.6-0.2-3.8c-0.1-2.5-0.2-5-0.2-7.6s0-5,0.2-7.5
	c0-1.3,0.1-2.6,0.2-3.8c0.3-4.9,1-9.8,1.9-14.6c0.4-2.1,0.8-4.2,1.3-6.2c2.7-11.5,7.2-22.6,13.3-32.8c0.4-0.7,0.9-1.5,1.4-2.1
	c1.9-3.1,4.1-6.1,6.3-9C245.3,38.7,257.1,29.6,270.4,24.9 M285.4,22.1v2c-2.3,1-4.8,1.4-7.2,1c-1.5-0.2-2.9-0.7-4.2-1.4
	c-0.4-0.2-0.7-0.4-1.1-0.6c3.3-2.1,7.3-2.7,11-1.5C284.4,21.8,284.9,21.9,285.4,22.1 M284.8,17c-3-1.9-5.1-4.9-5.9-8.4
	c4.4,0.9,8,3.9,9.6,8l-1.5,1.5C286.3,17.8,285.5,17.4,284.8,17 M274.5,15.3c3.3-0.6,6.7,0,9.5,1.8c0.9,0.6,1.7,1.3,2.4,2l-0.8,1.9
	c-3,0.1-6-0.9-8.3-2.8C276.2,17.4,275.3,16.4,274.5,15.3 M297.5,16l-1.9-0.8c-0.2-4.4,2-8.6,5.7-11.1C302.2,8.5,300.7,13,297.5,16
	 M291.3,15.2l-1.8,0.8c-3.3-3-4.8-7.5-3.9-11.9C289.3,6.6,291.5,10.8,291.3,15.2 M294.5,15h-2c-1.8-4.1-1.4-8.8,1-12.5
	C296,6.7,296.3,10.8,294.5,15 M298.6,16.7L298.6,16.7c1.6-4.1,5.2-7.1,9.5-8c-0.7,3.5-2.8,6.5-5.8,8.4c-0.7,0.4-1.5,0.8-2.3,1.1
	L298.6,16.7z M404.7,128.2c-5.8,3.5-11.6,4-17.5,1.5v-2.8C393.1,124.3,398.9,124.8,404.7,128.2 M385.9,133.9l1.1-2.6
	c6.4-0.1,11.5,2.5,15.5,8C395.8,140.3,390.3,138.5,385.9,133.9 M382.9,137.3l2-2c5.9,2.3,9.7,6.8,11.4,13.3
	C389.6,147,385.2,143.2,382.9,137.3 M380.1,146.3c0.3-2.6,0.5-5.1,0.7-7.7l0.7-0.3c4.6,4.4,6.4,9.9,5.4,16.6
	C383.8,152.8,381.5,149.8,380.1,146.3 M385,121.3l-2-2c2.3-5.9,6.7-9.7,13.3-11.4C394.6,114.5,390.8,119,385,121.3 M381,122.8
	c0.4,0.4,0.8,0.9,1.1,1.4c1.2,1.6,1.6,3.7,1.1,5.7c-0.3,1.5-1,3-2.2,4c0-1.8,0.1-3.6,0.1-5.5S381.1,124.6,381,122.8 M386.9,125.3
	l-1.1-2.6c4.4-4.6,9.9-6.3,16.6-5.3C398.5,122.7,393.3,125.4,386.9,125.3 M380.8,118.1c-0.2-2.6-0.5-5.2-0.7-7.7
	c1.4-3.5,3.7-6.5,6.8-8.6c1,6.7-0.8,12.3-5.4,16.6L380.8,118.1z M344.9,169.7c1.4-2.7,2.6-5.6,3.6-8.4v0.2c2,6.8,2.6,12.7,1.8,17.9
	c-0.6,4-2,7.8-4.3,11.1c-1.2,1.8-2.5,3.5-4,5.1c0.8-5.4,0.1-10.8-2.1-15.8c-0.1-0.4-0.3-0.7-0.4-1.1c1.1-1.6,2.2-3.3,3.2-5
	c0.8-1.4,1.5-2.7,2.3-4.2 M364.2,146.5c0.3,0.2,0.6,0.5,0.8,0.8c0.4,0.4,0.6,0.8,0.8,1.3v0.1c0.1,0.2,0.2,0.5,0.3,0.8
	c0.1,0.2,0.1,0.4,0.1,0.6c0.1,0.3,0.1,0.7,0.1,1c0,0.3,0,0.7-0.1,1c0,0.2-0.1,0.3-0.1,0.4c-0.1,0.3-0.3,0.6-0.6,0.8
	c-0.2,0.1-0.3,0.1-0.5,0.1c0-0.1,0-0.2,0-0.4c0-0.5-0.2-1.1-0.5-1.6c-0.1-0.2-0.3-0.3-0.5-0.4c-0.5-0.5-1.2-0.8-1.9-0.8
	c-0.8,0-1.5,0.2-2,0.8c-0.6,0.5-0.9,1.2-0.8,2v0.1c0,0.3,0.1,0.6,0.2,0.8c0.1,0.1,0.1,0.3,0.1,0.4c0.1,0.1,0.2,0.3,0.3,0.5
	c0.7,1.1,2,1.8,3.3,1.8h0.8c0.4,0,0.8-0.1,1.2-0.2c0.3-0.1,0.5-0.2,0.8-0.4c0.4-0.2,0.8-0.5,1.1-0.8c0.3-0.2,0.5-0.4,0.6-0.7
	c0.3-0.3,0.5-0.6,0.8-1c-0.4,2-0.8,3.9-1.2,5.8c-2.5,10.4-6.4,20.3-11.7,29.6c-1.1-2-1.3-4.3-0.8-6.4c0.1-0.5,0.2-1,0.4-1.4
	c0.2-0.5,0.4-1,0.6-1.5c0.5-1.5,0.9-3,1.1-4.6c0.1-0.9,0.2-1.9,0.2-2.9c0-3.1-0.6-6.1-1.9-8.9l0,0c-0.4-0.9-0.9-1.8-1.4-2.6
	c-0.5-1-0.8-2-1.1-3.1c-0.2-0.5-0.3-1-0.4-1.6c-0.1-0.6-0.2-1.3-0.1-1.9c0-1.1,0.1-2.3,0.5-3.4c0.2-0.6,0.4-1.2,0.7-1.7
	c0.3-0.5,0.6-0.9,1-1.4c0.6-0.7,1.3-1.3,2.1-1.8c1-0.6,2.2-0.9,3.4-0.9c1,0,1.9,0.2,2.8,0.5C363.2,145.8,363.8,146.1,364.2,146.5
	 M353.8,120c-0.1-1-0.2-2-0.3-3s-0.3-2.3-0.4-3.4c1.5,0.7,3.2,1,4.9,1h0.4c2.2,0,4.3-0.7,6.2-1.8c0.4-0.2,0.8-0.5,1.2-0.8
	c0.2-0.2,0.5-0.4,0.7-0.6c0.5-0.5,1-1,1.5-1.5c0.3-0.4,0.6-0.8,0.9-1.3c0-0.2,0.1-0.3,0.2-0.5c0.1-0.4,0.3-0.7,0.4-1.1
	c0.6,3.6,1,7.4,1.2,11.2c0.1,1.5,0.2,3,0.2,4.5c0.1,1.9,0.1,3.8,0.1,5.7c0,1.9,0,3.8-0.1,5.7c0,1.4-0.1,3-0.2,4.5
	c-0.3,3.8-0.7,7.5-1.2,11.1c-0.1-0.4-0.2-0.7-0.4-1.1c-0.1-0.2-0.1-0.3-0.2-0.5c-0.3-0.5-0.6-0.9-0.9-1.4c-0.4-0.5-0.9-1-1.5-1.5
	c-0.2-0.2-0.4-0.4-0.6-0.5c-0.4-0.3-0.8-0.6-1.2-0.9c-1.9-1.1-4.1-1.7-6.3-1.8h-0.4c-1.7,0-3.3,0.3-4.9,0.9c0.1-1.1,0.3-2.2,0.4-3.3
	c0.1-0.8,0.2-1.5,0.2-2.3c0.1-0.8,0.2-1.6,0.2-2.4v-0.2c0.1-1.2,0.1-2.4,0.1-3.7v-0.6c0-0.5,0-1.1,0-1.7v-0.8c0-0.5,0-1.1,0-1.7
	v-0.6c0-1.2-0.1-2.4-0.1-3.6l0,0C354,121.3,353.9,120.7,353.8,120 M346,65.9c2.2,3.4,3.7,7.2,4.3,11.2c0.8,5.2,0.2,11.2-1.8,18v0.2
	c-1.1-2.8-2.3-5.6-3.6-8.3c-0.7-1.4-1.5-2.7-2.2-4.1c-1-1.8-2.1-3.4-3.2-5c0.2-0.4,0.4-0.8,0.5-1.2c2-5,2.7-10.4,2-15.7
	C343.5,62.5,344.8,64.2,346,65.9 M354.9,73.9c-0.6-2.1-0.3-4.4,0.7-6.4c5.4,9.2,9.4,19.1,11.9,29.4c0.5,1.9,0.9,3.9,1.3,5.9
	c-0.2-0.4-0.5-0.7-0.8-1c-0.2-0.3-0.4-0.5-0.6-0.7c-0.4-0.3-0.7-0.6-1.1-0.8c-0.3-0.1-0.5-0.3-0.8-0.3c-0.4-0.2-0.8-0.2-1.2-0.3
	c-0.1,0-0.3,0-0.4,0h-0.4c-1.3,0-2.6,0.7-3.3,1.8c-0.1,0.1-0.2,0.3-0.3,0.4c-0.1,0.1-0.1,0.3-0.1,0.4c-0.1,0.2-0.1,0.5-0.2,0.7v0.2
	c0,1.5,1.3,2.8,2.8,2.8c0.7,0,1.4-0.3,1.9-0.8c0.1-0.1,0.3-0.2,0.4-0.3c0.3-0.5,0.5-1,0.5-1.6c0-0.1,0-0.3,0-0.4
	c0.2,0,0.4,0,0.5,0.1c0.3,0.2,0.5,0.5,0.6,0.8c0.1,0.1,0.1,0.3,0.1,0.4c0.1,0.3,0.1,0.7,0.1,1c0,0.3,0,0.7-0.1,1
	c0,0.2-0.1,0.4-0.1,0.6c0,0.3-0.1,0.5-0.3,0.8c0,0,0,0,0,0.1c-0.2,0.5-0.5,1-0.8,1.4c-0.3,0.2-0.5,0.5-0.8,0.7
	c-0.5,0.4-1.1,0.7-1.7,1c-2,0.9-4.3,0.8-6.1-0.3c-0.7-0.5-1.4-1.1-2-1.8c-0.4-0.4-0.7-0.9-1-1.4c-0.3-0.5-0.6-1.1-0.7-1.7
	c-0.3-1.1-0.5-2.3-0.5-3.4c0-0.6,0-1.3,0.1-1.9c0.1-0.5,0.2-1,0.4-1.6c0.3-1.1,0.7-2.1,1.1-3.1c0.6-0.8,1.1-1.7,1.4-2.6
	c1.3-2.8,1.9-5.9,1.9-9c0-1-0.1-2-0.2-2.9c-0.2-1.5-0.6-3.1-1.1-4.6c-0.2-0.5-0.5-1-0.6-1.5c-0.1-0.5-0.3-1-0.4-1.5 M306.8,55.7
	c0.5,0.1,1,0.3,1.5,0.5c9.7,3.2,18.3,9.6,26,19.4c0.3,0.3,0.5,0.7,0.8,1c1.1,1.5,2.2,3,3.1,4.5c0.7,1,1.4,2.1,2,3.2
	c0.8,1.3,1.5,2.7,2.2,4c1.9,3.8,3.5,7.6,4.7,11.6c1,3.2,1.9,6.5,2.5,9.9c0.1,0.6,0.2,1.1,0.3,1.7c0.2,1,0.4,2.1,0.5,3.2
	c0.1,0.8,0.2,1.6,0.3,2.5c0,0.5,0.1,1.2,0.1,1.8c0,0.1,0,0.2,0,0.3c0.1,0.7,0.1,1.4,0.2,2.1c0.1,1.6,0.1,3.3,0.2,5v3.7
	c0,1.8-0.1,3.5-0.2,5.3c0,0.7-0.1,1.5-0.2,2.3v0.1c0,0.5-0.1,1.1-0.1,1.7c-0.1,0.9-0.2,1.8-0.4,2.8s-0.3,1.9-0.4,2.8
	c0,0.5-0.1,1.1-0.2,1.6c-0.7,3.4-1.5,6.8-2.6,10c-1.3,4-2.9,7.9-4.8,11.7c-0.8,1.4-1.5,2.7-2.2,4c-0.6,1.1-1.3,2.2-2,3.3
	c-0.9,1.4-2,2.9-3,4.3c-0.3,0.4-0.5,0.7-0.8,1c-7.6,9.8-16.3,16.2-26,19.3c-0.5,0.2-1,0.3-1.5,0.4c-8.6,2.4-17.6,2.4-26.2,0
	c-0.5-0.1-1-0.3-1.5-0.4c-9.7-3.1-18.4-9.6-26-19.3c-0.3-0.3-0.5-0.7-0.8-1.1c-1.1-1.4-2.2-2.9-3.1-4.4c-0.7-1.1-1.4-2.2-2-3.3
	c-0.8-1.3-1.5-2.6-2.2-3.9c-1.9-3.7-3.5-7.6-4.7-11.6c-1.1-3.2-2-6.4-2.8-9.7c-0.1-0.6-0.2-1.2-0.3-1.8c-0.2-1.1-0.4-2.1-0.5-3.2
	c-0.1-0.8-0.2-1.5-0.3-2.4c0-0.6-0.1-1.2-0.1-1.8c0-0.2,0-0.3-0.1-0.4c0-0.7,0-1.3-0.1-1.9c-0.1-1.7-0.2-3.4-0.2-5v-3.8
	c0-1.8,0.1-3.6,0.2-5.3c0-0.7,0.1-1.4,0.2-2.1v-0.1c0-0.6,0.1-1.1,0.1-1.8c0.1-0.9,0.2-1.9,0.4-2.8s0.2-1.9,0.4-2.8
	c0.1-0.5,0.2-1.1,0.3-1.6c1.4-7.5,3.8-14.8,7.3-21.7c0.7-1.4,1.5-2.7,2.2-4.1c0.6-1.1,1.3-2.1,2-3.2c1-1.5,1.9-2.9,3-4.3
	c0.2-0.3,0.5-0.7,0.8-1c7.6-9.7,16.3-16.2,26-19.4c0.5-0.2,1-0.3,1.5-0.5c8.6-2.4,17.6-2.4,26.2,0 M307.4,46.1
	c1,2.1,1.2,4.6,0.5,6.9c-9.4-2.7-19.4-2.7-28.9,0c-0.8-2.3-0.6-4.7,0.5-6.9c0.2-0.4,0.5-0.8,0.7-1.1c0.1-0.2,0.3-0.3,0.5-0.4
	c0.4-0.5,0.9-0.9,1.5-1.2c2.1,1.2,4.4,2,6.8,2.4c5.4,1.2,11,0.3,15.8-2.4c0.6,0.3,1.1,0.7,1.5,1.2l0.5,0.4
	C306.9,45.3,307.2,45.7,307.4,46.1 M323.3,45.7c3.3,1.4,6.2,3.5,8.5,6.2c0.8,1,1.5,2.1,2,3.3c2.7,5.5,3.4,11.8,2,17.8
	c-7.6-9.8-16.4-16.4-26.3-19.6c1.1-2.8,1.1-5.9-0.3-8.6c-0.2-0.3-0.3-0.6-0.5-0.9C313.7,43.2,318.7,43.8,323.3,45.7 M312.5,15.2
	c-0.8,1.1-1.8,2.1-2.8,3c-2.3,1.9-5.3,2.9-8.3,2.8l-0.8-1.9c0.7-0.8,1.6-1.4,2.4-2C305.9,15.3,309.3,14.6,312.5,15.2 M316.2,27.4
	c0.1-0.8,0.3-1.6,0.3-2.4c13.2,4.7,25.1,13.8,35.5,27.3c2.3,2.9,4.4,5.9,6.4,9c0.5,0.7,0.9,1.4,1.4,2.1
	c6.1,10.2,10.5,21.2,13.3,32.7c0.5,2.1,0.9,4.2,1.3,6.4c0.8,4.7,1.5,9.5,1.9,14.5c0.1,1.2,0.1,2.5,0.2,3.8c0.1,2.5,0.1,5,0.1,7.5
	s0,5-0.1,7.6c-0.1,1.2-0.1,2.6-0.2,3.8c-0.4,5-1,9.8-1.9,14.5c-0.5,2.1-0.9,4.2-1.3,6.3c-2.7,11.5-7.2,22.6-13.3,32.7
	c-0.4,0.7-0.9,1.5-1.3,2.2c-2,3-4.1,6.1-6.4,9c-10.4,13.4-22.3,22.5-35.5,27.3c-0.1-0.8-0.2-1.6-0.3-2.4c12.8-4.8,24.3-13.8,34.5-27
	c2.1-2.7,4-5.5,5.8-8.3c0.5-0.8,0.9-1.5,1.3-2.2c5.9-9.8,10.2-20.5,12.8-31.7c0.9-3.9,1.6-7.8,2.2-11.9c0.3-2.1,0.5-4.3,0.8-6.5
	s0.3-4.1,0.4-6.2c0.1-2.4,0.2-4.9,0.2-7.4s-0.1-4.9-0.2-7.3c-0.1-2.1-0.2-4.2-0.4-6.2c-0.2-2.2-0.4-4.3-0.8-6.4
	c-0.6-4.1-1.3-8.1-2.3-11.9c-2.6-11.1-6.9-21.8-12.8-31.6c-0.4-0.8-0.8-1.5-1.4-2.2c-1.8-2.8-3.7-5.6-5.8-8.3
	C340.6,41,329.1,32,316.2,27.4 M311,29.2c0.6,0.6,1.1,1.2,1.6,1.8c-4.3,0.8-8.8-0.6-11.9-3.8l0.8-1.9C305,25.2,308.5,26.6,311,29.2
	 M314.2,23.1c-0.4,0.2-0.8,0.5-1.1,0.6c-1.3,0.7-2.7,1.2-4.1,1.4c-2.4,0.4-5,0-7.2-1v-2c0.5-0.2,0.9-0.4,1.4-0.5
	C306.8,20.4,310.8,20.9,314.2,23.1 M310,39.1c2.4-2.4,4.2-5.3,5.3-8.6c12.2,4.7,23.2,13.2,32.9,25.8c2.2,2.8,4.2,5.7,6.1,8.8
	c-1,1.4-1.8,3-2.3,4.7c-0.7-1.4-1.4-2.7-2.2-4.1c-2.4-3.7-5.4-7-8.9-9.8c-0.5-1.4-1-2.8-1.6-4.1c-0.6-1.3-1.4-2.5-2.3-3.7
	c-1.6-1.8-3.5-3.5-5.5-4.8c-1.3-0.9-2.7-1.6-4.1-2.3C321.8,38.8,315.9,38.2,310,39.1 M316.5,20.1c-0.5-3.5-1.8-6.9-3.8-9.8
	c-3.3-5.1-8.6-8.7-14.7-9.8c-6-1.2-12.3,0-17.4,3.5c-5.1,3.3-8.6,8.6-9.8,14.6c-0.1,0.5-0.2,1-0.2,1.5
	c-14.7,4.8-27.9,14.6-39.3,29.3c-2.5,3.2-4.8,6.5-6.9,10c-0.6,0.8-1.1,1.7-1.5,2.5c-2.1,3.5-4,7.1-5.7,10.9c-0.3,0.7-0.6,1.3-0.9,2
	c-3,6.8-5.3,13.9-6.9,21.2c-5.8,0.3-11.4,2.1-16.1,5.4c-14.8,9.9-18.7,29.9-8.9,44.7c4.7,7.2,12.1,12.2,20.5,13.7
	c1.5,0.3,3,0.5,4.5,0.6c1.6,7.3,3.9,14.4,6.9,21.3c0.3,0.7,0.6,1.3,0.9,2c1.7,3.7,3.6,7.4,5.7,10.9c0.5,0.8,1,1.7,1.5,2.5
	c2.1,3.5,4.5,6.8,7,10c11.5,14.8,24.5,24.6,39.2,29.4c0.5,3.5,1.7,6.9,3.7,9.8c3.4,5.1,8.7,8.7,14.8,9.8c12.4,2.5,24.6-5.5,27.1-18
	c0-0.1,0-0.1,0-0.2c0.1-0.5,0.2-1,0.2-1.4c14.7-4.8,27.8-14.6,39.3-29.4c2.5-3.2,4.9-6.5,7-10c0.5-0.8,1-1.6,1.5-2.5
	c2.1-3.5,4-7.2,5.8-10.9c0.3-0.7,0.6-1.4,0.9-2c3-6.8,5.3-14,6.9-21.2c14.7-0.8,27-11.5,29.8-26c3.6-17.3-7.6-34.2-24.9-37.8
	c-0.1,0-0.3-0.1-0.4-0.1c-1.5-0.3-3-0.5-4.5-0.6c-1.7-7.3-4-14.4-6.9-21.3c-0.3-0.7-0.6-1.4-0.9-2c-1.7-3.7-3.6-7.4-5.7-10.9
	c-0.5-0.8-1-1.7-1.5-2.5c-2.1-3.5-4.5-6.8-6.9-10c-11.5-14.7-24.6-24.4-39.2-29.3"/>
<path class="st0" d="M331.3,78.5c0.6,0.7,1.2,1.5,1.7,2.3c1,1.3,1.9,2.7,2.7,4.1c0.3,0.5,0.6,1,0.9,1.4c0.7,1.2,1.4,2.6,2,3.8
	s1.3,2.7,1.9,4.1c0.5,1.1,1,2.4,1.5,3.6c2.1,5.6,3.5,11.5,4.3,17.4c0,0,0,0.1,0,0.2c0.1,0.5,0.1,0.9,0.1,1.4
	c0.4,3.1,0.6,6.1,0.7,9.2c0,0.7,0,1.5,0,2.2l0,0c0,0.8,0,1.7,0,2.6c-0.1,3.1-0.3,6.2-0.7,9.3c0,0.4-0.1,0.8-0.1,1.1
	s-0.1,0.4-0.1,0.6c-0.7,5.9-2.1,11.7-4.2,17.3c-0.5,1.3-1.1,2.6-1.6,3.9s-1.1,2.4-1.7,3.6s-1.4,2.6-2.1,3.9
	c-0.3,0.4-0.5,0.9-0.8,1.4c-0.8,1.4-1.8,2.8-2.7,4.2c-0.5,0.7-1.1,1.4-1.6,2.2c-7.5,9.8-16.2,16.1-26,18.8c-0.5,0.2-1,0.3-1.5,0.4
	c-3.4,0.8-6.8,1.2-10.2,1.2c-3.5,0-7-0.4-10.4-1.2c-0.5-0.2-1-0.3-1.5-0.4c-9.8-2.7-18.5-9-26-18.8c-0.6-0.8-1.1-1.5-1.6-2.3
	c-1-1.3-1.9-2.7-2.7-4.1c-0.3-0.5-0.6-0.9-0.9-1.4c-0.7-1.2-1.4-2.5-2-3.8s-1.3-2.7-1.9-4.1c-0.5-1.1-1-2.3-1.4-3.5
	c-2.1-5.6-3.5-11.5-4.3-17.4c0,0,0-0.1,0-0.1c0-0.5-0.1-1-0.2-1.5c-0.3-3-0.5-6.1-0.6-9.3c0-0.7,0-1.4,0-2.1v-0.1c0-0.9,0-1.7,0-2.6
	c0-3.1,0.3-6.2,0.7-9.3c0.1-0.4,0.1-0.7,0.1-1.1c0-0.2,0-0.3,0.1-0.5c0.8-5.9,2.2-11.7,4.3-17.3c0.5-1.4,1-2.7,1.6-3.9
	s1.1-2.5,1.7-3.6s1.3-2.6,2.1-3.8c0.3-0.5,0.6-1,0.8-1.4c0.9-1.4,1.8-2.7,2.7-4.1c0.5-0.8,1.1-1.5,1.6-2.2
	c7.6-9.9,16.2-16.1,26-18.9c0.5-0.1,1-0.3,1.5-0.3c3.3-0.8,6.8-1.2,10.2-1.2c3.5,0,6.9,0.4,10.3,1.2c0.5,0.1,1,0.2,1.5,0.3
	C315.1,62.3,323.8,68.6,331.3,78.5 M307.1,57.7c-0.5-0.2-1-0.3-1.5-0.5c-7.9-2.1-16.3-2.1-24.2,0c-0.5,0.1-1,0.3-1.5,0.5
	c-9.8,3-18.5,9.4-26.1,19.3c-0.4,0.4-0.7,0.9-1,1.3c-1,1.4-2,2.8-2.9,4.2c-0.5,0.8-1,1.6-1.4,2.4c-0.8,1.3-1.5,2.6-2.1,3.9
	c-2.3,4.5-4.2,9.3-5.5,14.2c-0.6,1.9-1,3.9-1.4,5.9c-0.2,1-0.4,1.9-0.6,2.9c-0.1,0.7-0.2,1.4-0.3,2.1s-0.2,1.7-0.4,2.6
	c-0.3,2.6-0.5,5.2-0.6,8c0,0.8-0.1,1.7-0.1,2.6v2.5c0,0.7,0,1.5,0,2.2c0.1,2.7,0.3,5.4,0.6,7.9c0.1,0.8,0.3,1.7,0.4,2.6
	s0.3,1.7,0.4,2.5s0.3,1.9,0.5,2.8c0.4,2,0.9,4,1.4,5.9c1.3,4.9,3.1,9.6,5.4,14.1c0.7,1.3,1.4,2.6,2.1,3.9c0.4,0.8,1,1.6,1.5,2.4
	c0.9,1.4,1.9,2.9,2.9,4.3c0.4,0.4,0.7,0.9,1,1.3c7.6,10,16.2,16.4,26,19.5l1.5,0.4c7.9,2.1,16.3,2.1,24.2,0c0.5-0.1,1-0.3,1.4-0.4
	c9.8-3.1,18.5-9.5,26.1-19.5c0.3-0.4,0.6-0.8,1-1.2c1-1.4,1.9-2.8,2.9-4.3c0.5-0.7,1-1.6,1.5-2.4c0.8-1.3,1.5-2.6,2.1-3.9
	c2.3-4.5,4.2-9.3,5.5-14.2c0.5-1.9,1-3.8,1.4-5.8c0.2-1,0.4-2,0.6-3c0.1-0.7,0.2-1.3,0.3-2c0.1-0.8,0.2-1.7,0.3-2.6
	c0.3-2.6,0.5-5.3,0.6-8c0-0.9,0-1.7,0.1-2.6v-2.3c0-0.8,0-1.5,0-2.3c-0.1-2.7-0.3-5.3-0.6-7.9c-0.1-0.9-0.2-1.8-0.3-2.6
	s-0.3-1.7-0.4-2.5c-0.2-1-0.4-2-0.6-2.8c-0.4-2-0.9-4-1.4-5.9c-1.4-4.9-3.2-9.6-5.5-14.1c-0.7-1.4-1.4-2.7-2.1-3.9
	c-0.5-0.8-1-1.6-1.5-2.4c-0.9-1.5-1.9-2.9-2.9-4.3c-0.3-0.5-0.6-0.9-1-1.4C325.6,67.1,316.8,60.7,307.1,57.7"/>
<path class="st0" d="M337.4,96.3c-8.6-19.9-25-33.3-43.9-33.3c-27.8,0-50.4,29.3-50.4,65.3s22.5,65.3,50.4,65.3
	c18.9,0,35.3-13.4,43.9-33.3h-13.7c-7.1,11.3-18,18.6-30.2,18.6c-21.5,0-39-22.6-39-50.6s17.5-50.6,39-50.6c12.2,0,23,7.2,30.2,18.6
	L337.4,96.3z"/>
<path class="st0" d="M445.2,381.8c-0.1,0-0.2-0.1-0.1-0.3l3.2-9.8c0.2-0.5,0.4-0.5,0.5,0l3.4,9.8c0,0.1,0,0.3-0.1,0.3H445.2z
	 M440.1,389.8c-0.6,1.8-1.4,3.2-3,3.4c-0.3,0-0.8,0.1-1,0.1s-0.3,0.1-0.3,0.2s0.2,0.3,0.7,0.3c1.7,0,3.7-0.1,4.1-0.1s2,0.1,2.8,0.1
	c0.3,0,0.5-0.1,0.5-0.3s-0.1-0.2-0.4-0.2h-0.4c-0.6,0-1.4-0.3-1.4-1c0-0.8,0.2-1.7,0.5-2.4l2.2-6.4c0-0.2,0.2-0.3,0.4-0.3h7.8
	c0.1,0,0.3,0.1,0.3,0.2l3.4,8.9c0.2,0.6,0,0.9-0.2,1s-0.3,0.1-0.3,0.3s0.4,0.2,1.1,0.3c2.5,0.1,5.1,0.1,5.7,0.1s0.7-0.1,0.7-0.3
	s-0.1-0.2-0.4-0.2c-0.5,0-1-0.1-1.5-0.2c-0.8-0.2-1.8-0.8-3.1-4c-2.2-5.5-7.9-20.5-8.5-21.8c-0.4-1.1-0.6-1.3-0.8-1.3
	s-0.4,0.2-0.8,1.4L440.1,389.8z M426.1,394.3c2.2,0.1,4.4-0.2,6.5-0.8c0.6-0.3,0.7-0.4,0.9-1c0.4-1.5,0.6-3.1,0.8-4.6
	c0-0.3-0.1-0.5-0.3-0.5s-0.3,0.1-0.4,0.5c-0.2,1.1-0.7,2.1-1.3,3c-1.5,1.5-3.6,1.8-6.3,1.8c-7.2,0-13.1-5.9-13.1-13.1
	c0-0.1,0-0.1,0-0.2c0-3.7,0.6-6.9,3.3-9.5c1.3-1.2,3.5-2.6,8.3-2.6c3.2,0,6,1,7.3,2.1c1,1,1.6,2.3,1.5,3.7c0,0.5,0,0.8,0.3,0.8
	s0.3-0.2,0.3-0.8s0-2.5,0.1-3.7s0.2-1.7,0.2-2s-0.1-0.4-0.5-0.4c-1.2-0.1-2.5-0.3-3.7-0.5c-1.7-0.3-3.5-0.4-5.3-0.4
	c-5.6,0-8.9,1.7-11,3.9c-2.6,2.7-4,6.2-4,9.9c-0.2,4,1.4,8,4.4,10.7C417,393,420.7,394.4,426.1,394.3 M391.8,383.4
	c0,3.5,0,6.3-0.2,7.9c-0.1,1-0.3,1.8-1,2c-0.4,0.1-0.7,0.1-1.1,0.1c-0.2,0-0.3,0.1-0.3,0.2s0.2,0.3,0.6,0.3c0.5,0,1.4-0.1,2.1-0.1
	s1.4,0,1.4,0c0.5,0,1.4,0,2.8,0.1s3.4,0.1,6.1,0.1c1.4,0,1.7,0,2-0.9c0.2-1.2,0.4-2.3,0.5-3.5c0-0.3,0-0.5-0.2-0.5s-0.3,0.1-0.3,0.5
	c-0.3,1.5-0.7,2.2-1.6,2.6c-1.1,0.3-2.3,0.5-3.5,0.4c-3.6,0-4.1-0.5-4.2-3c0-0.8,0-5,0-6.2v-3.2c0-0.1,0.1-0.2,0.2-0.3c0,0,0,0,0,0
	c0.6,0,4.2,0.1,5.2,0.2c1.4,0.1,1.7,0.8,1.9,1.3c0.1,0.4,0.2,0.8,0.1,1.2c0,0.2,0.1,0.3,0.3,0.3s0.3-0.4,0.3-0.7s0.1-1.6,0.1-2.3
	c0.1-1.2,0.3-1.8,0.3-2s-0.1-0.3-0.2-0.3s-0.3,0.2-0.5,0.5s-0.8,0.4-1.7,0.5s-5.3,0.1-5.8,0.1c-0.2,0-0.2-0.1-0.2-0.4v-10
	c0-0.3,0.1-0.4,0.2-0.4c0.4,0,4.4,0,5,0.1c2,0.2,2.3,0.6,2.6,1.2c0.1,0.4,0.2,0.9,0.2,1.3c0,0.3,0.1,0.5,0.3,0.5s0.2-0.2,0.3-0.4
	c0.1-0.4,0.1-2,0.2-2.4c0.1-1,0.3-1.4,0.3-1.7s0-0.3-0.1-0.3s-0.3,0.1-0.5,0.2c-0.5,0.1-1,0.2-1.5,0.2c-0.8,0-8,0-8.3,0l-1.5-0.1
	c-0.8,0-1.8,0-2.6,0c-0.4,0-0.6,0.1-0.6,0.3s0.1,0.2,0.3,0.2c0.4,0,0.8,0,1.2,0.1c1.2,0.3,1.5,0.8,1.6,2.1s0.1,2.2,0.1,7.8
	L391.8,383.4z M370.4,379.6c0-0.2,0.1-0.3,0.2-0.3c0.5,0,2.4,0,2.8,0.1c1.1,0.1,2.1,0.4,3,1c2.3,1.7,3.6,4.4,3.5,7.3
	c0.2,2.7-1.8,5-4.5,5.1c-0.2,0-0.4,0-0.6,0c-1.1,0-2.2-0.2-3.2-0.5c-1.1-0.5-1.1-1-1.2-2.8c0-0.5,0-5,0-7.8L370.4,379.6z
	 M370.4,368.1c0-0.2,0.1-0.3,0.4-0.4c0.6-0.1,1.2-0.2,1.7-0.2c3.5,0,4.9,3.2,4.9,6.2c0,1.3-0.5,2.6-1.3,3.7
	c-0.8,0.9-1.3,0.9-3.3,0.9c-0.7,0-1.5,0-2.2-0.1c-0.2-0.1-0.3-0.1-0.3-0.4V368.1z M367.5,383.3c0,3.5,0,6.3-0.2,7.9
	c-0.1,1-0.3,1.8-1,2c-0.4,0.1-0.7,0.1-1.1,0.1c-0.2,0-0.3,0.1-0.3,0.2s0.2,0.3,0.6,0.3s1.4-0.1,2.1-0.1s1.4,0,1.4,0s1.1,0,2.2,0.1
	s2.2,0.1,2.6,0.1c6.2,0,9.2-4,9.2-7.9c0-4.2-3.6-6.8-6.3-7.6c1.7-1.8,3.4-3.6,3.4-6.5c0-1.8-1.3-5.4-7.3-5.4c-1.7,0-3.1,0.1-4,0.1
	c-0.2,0-2.5-0.1-4.1-0.1c-0.4,0-0.6,0.1-0.6,0.3s0.1,0.2,0.3,0.2c0.4,0,0.8,0,1.2,0.1c1.2,0.3,1.5,0.8,1.6,2.1s0.1,2.2,0.1,7.8
	L367.5,383.3z M354.6,376.9c0-5.7,0-6.7,0.1-7.8s0.4-1.9,1.3-2.1c0.3-0.1,0.6-0.1,0.9-0.1c0.1,0,0.3-0.1,0.3-0.2s-0.2-0.3-0.6-0.3
	c-1.1,0-3.4,0.1-3.5,0.1s-2.5-0.1-3.6-0.1c-0.4,0-0.6,0.1-0.6,0.3s0.1,0.2,0.3,0.2c0.4,0,0.8,0.1,1.1,0.1c0.8,0.2,1.2,0.8,1.2,2
	s0.1,2.2,0.1,7.8v6.4c0,3.5,0,6.3-0.2,7.9c-0.1,1-0.3,1.9-1,2c-0.4,0.1-0.7,0.1-1.1,0.1c-0.2,0-0.3,0.1-0.3,0.2s0.2,0.3,0.6,0.3
	c1.1,0,3.4-0.1,3.5-0.1s2.5,0.1,4.5,0.1c0.4,0,0.6-0.1,0.6-0.3s-0.1-0.2-0.3-0.2c-0.5,0-1.1-0.1-1.6-0.1c-1.1-0.1-1.3-0.9-1.4-2
	c-0.2-1.5-0.2-4.4-0.2-7.9L354.6,376.9z M327.1,368.2c0-0.2,0.1-0.4,0.3-0.4c0.8-0.2,1.6-0.2,2.4-0.2c3.9,0,6.3,2.7,6.3,7.3
	c0,2.8-0.9,4.7-2.2,5.6c-0.8,0.5-1.8,0.7-2.7,0.7c-1.3,0.1-2.6-0.1-3.8-0.6c-0.2-0.1-0.3-0.3-0.3-0.4V368.2z M324.2,383.3
	c0,3.5,0,6.3-0.2,7.9c-0.1,1-0.3,1.9-1,2c-0.4,0.1-0.7,0.1-1.1,0.1c-0.2,0-0.3,0.1-0.3,0.2s0.2,0.3,0.6,0.3c1.1,0,3.4-0.1,3.4-0.1
	s2.5,0.1,4.5,0.1c0.4,0,0.6-0.1,0.6-0.3s-0.1-0.2-0.3-0.2c-0.5,0-1.1-0.1-1.6-0.1c-1.1-0.1-1.3-0.9-1.4-2c-0.2-1.5-0.2-4.4-0.2-7.9
	v-0.9c0-0.2,0.1-0.3,0.3-0.3l4.5,0.1c0.2,0,0.4,0.1,0.5,0.2c0.7,0.9,2.4,3.4,4,5.4c2.1,2.7,3.3,4.5,4.9,5.3c1.2,0.6,2.5,0.8,3.9,0.7
	h2.6c0.6,0,0.9-0.1,0.9-0.3s-0.1-0.2-0.3-0.2c-0.5,0-0.9,0-1.4-0.1c-1.7-0.3-3.3-1.3-4.4-2.6c-2.1-2.2-4.6-5.5-7.5-9.3
	c3.3-3,4.4-5.7,4.4-8.4c0-1.9-1-3.8-2.5-4.9c-1.9-1.4-4.4-1.6-6.6-1.6c-1.1,0-3.9,0.1-4.3,0.1c-0.2,0-2.5-0.1-4.1-0.1
	c-0.4,0-0.6,0.1-0.6,0.3s0.1,0.2,0.3,0.2c0.4,0,0.8,0,1.2,0.1c1.2,0.3,1.5,0.8,1.6,2.1s0.1,2.2,0.1,7.8L324.2,383.3z M306.9,368
	l4.6,0.1c3.5,0.1,4.3,0.9,4.5,2v0.4c0,0.5,0.1,0.6,0.3,0.6s0.3-0.1,0.3-0.5s0.1-2.9,0.1-4c0-0.2,0-0.4-0.2-0.4s-0.5,0.1-1,0.2
	c-0.8,0.1-1.7,0.2-2.6,0.2h-13.6c-0.4,0-1.8-0.1-2.9-0.2c-0.5-0.1-1.1-0.2-1.6-0.4c-0.1,0-0.3,0.5-0.4,0.7s-0.8,3.4-0.8,3.8
	s0.1,0.3,0.2,0.3s0.3-0.1,0.4-0.4c0.2-0.4,0.4-0.8,0.6-1.1c0.6-0.9,1.4-1.1,3.7-1.2l5.4-0.1v15.3c0,3.5,0,6.3-0.2,7.9
	c-0.1,1-0.3,1.9-1,2c-0.4,0.1-0.7,0.1-1.1,0.1c-0.2,0-0.3,0.1-0.3,0.2s0.2,0.3,0.6,0.3c1.1,0,3.4-0.1,3.5-0.1s2.5,0.1,4.5,0.1
	c0.4,0,0.6-0.1,0.6-0.3s-0.1-0.2-0.3-0.2c-0.5,0-1.1-0.1-1.6-0.1c-1.1-0.1-1.3-0.9-1.4-2c-0.2-1.5-0.2-4.4-0.2-7.9L306.9,368z
	 M269.5,378.9c-0.6,0-0.7,0-0.8,0.3l-0.5,2c-0.1,0.3,0,0.5,0.2,0.5s0.8-0.4,1.5-0.5c1.2-0.3,7.6-1.2,8.6-1.3
	c0.6-0.1,1.3-0.2,1.3-0.6s-0.5-0.4-1.1-0.4L269.5,378.9z M243.1,377c0-5.7,0-6.7,0.1-7.8s0.4-1.9,1.4-2.1c0.4-0.1,0.8-0.1,1.2-0.1
	c0.1,0,0.3-0.1,0.3-0.2s-0.2-0.3-0.6-0.3c-1.1,0-3.7,0.1-3.9,0.1s-2.5-0.1-4.1-0.1c-0.4,0-0.6,0.1-0.6,0.3s0.1,0.2,0.3,0.2
	c0.4,0,0.8,0,1.2,0.1c1.2,0.3,1.5,0.8,1.6,2.1s0.1,2.2,0.1,7.8v6.4c0,3.5,0,6.3-0.2,7.9c-0.1,1-0.3,1.8-1.1,2
	c-0.4,0.1-0.7,0.1-1.1,0.1c-0.2,0-0.3,0.1-0.3,0.2s0.2,0.3,0.6,0.3s1.3,0,2.1-0.1s1.3,0,1.5,0c1.1,0,2.2,0,3.7,0.1s3.4,0.1,6,0.1
	c1.9,0,2-0.1,2.3-1c0.3-1.2,0.5-2.4,0.5-3.6c0-0.4,0-0.5-0.2-0.5s-0.3,0.2-0.3,0.5c-0.1,0.8-0.5,1.5-0.9,2.2c-0.9,1-2.5,1.1-4.4,1.1
	c-2.8,0-3.8-0.3-4.3-0.8s-0.8-3-0.8-8.3L243.1,377z M217.9,383.3c0,3.5,0,6.3-0.2,7.9c-0.1,1-0.3,1.8-1,2c-0.4,0.1-0.7,0.1-1.1,0.1
	c-0.2,0-0.3,0.1-0.3,0.2s0.2,0.3,0.6,0.3s1.4-0.1,2.1-0.1s1.4,0,1.4,0c0.5,0,1.4,0,2.8,0.1s3.4,0.1,6.1,0.1c1.4,0,1.7,0,2-0.9
	c0.2-1.2,0.4-2.3,0.5-3.5c0-0.3,0-0.5-0.2-0.5s-0.3,0.1-0.3,0.5c-0.3,1.5-0.7,2.2-1.6,2.6c-1.1,0.3-2.3,0.5-3.5,0.4
	c-3.6,0-4.1-0.5-4.2-3c0-0.8,0-5,0-6.2v-3.2c0-0.1,0.1-0.2,0.2-0.3c0,0,0,0,0,0c0.6,0,4.2,0.1,5.2,0.2c1.4,0.1,1.7,0.8,1.9,1.3
	c0.1,0.4,0.2,0.8,0.1,1.2c0,0.2,0.1,0.3,0.3,0.3s0.3-0.4,0.3-0.7s0.1-1.6,0.1-2.3c0.1-1.2,0.3-1.8,0.3-2s-0.1-0.3-0.2-0.3
	s-0.3,0.2-0.5,0.5s-0.8,0.4-1.7,0.5s-5.3,0.1-5.8,0.1c-0.2,0-0.2-0.1-0.2-0.4v-10c0-0.3,0.1-0.4,0.2-0.4c0.4,0,4.4,0,5,0.1
	c2,0.2,2.3,0.6,2.6,1.2c0.1,0.4,0.2,0.9,0.2,1.3c0,0.3,0.1,0.5,0.3,0.5s0.2-0.2,0.3-0.4c0.1-0.4,0.1-2,0.2-2.4
	c0.1-1,0.3-1.4,0.3-1.7s0-0.3-0.1-0.3s-0.3,0.1-0.5,0.2c-0.5,0.1-1,0.2-1.6,0.2c-0.8,0-8.1,0-8.3,0l-1.5-0.1c-0.8,0-1.8,0-2.6,0
	c-0.4,0-0.6,0.1-0.6,0.3s0.1,0.2,0.3,0.2c0.4,0,0.8,0,1.2,0.1c1.2,0.3,1.5,0.8,1.6,2.1s0.1,2.2,0.1,7.8L217.9,383.3z M200.6,368
	l4.6,0.1c3.5,0.1,4.3,0.9,4.4,2v0.4c0,0.5,0.1,0.6,0.3,0.6s0.3-0.1,0.3-0.5s0.1-2.9,0.1-4c0-0.2,0-0.4-0.2-0.4s-0.5,0.1-1,0.2
	c-0.8,0.1-1.7,0.2-2.6,0.2h-13.6c-0.4,0-1.8-0.1-2.9-0.2c-0.5-0.1-1.1-0.2-1.6-0.4c-0.1,0-0.3,0.5-0.4,0.7s-0.8,3.4-0.8,3.8
	s0.1,0.3,0.2,0.3s0.3-0.1,0.4-0.4c0.2-0.4,0.4-0.8,0.6-1.1c0.6-0.9,1.4-1.1,3.7-1.2l5.3-0.1v15.3c0,3.5,0,6.3-0.2,7.9
	c-0.1,1-0.3,1.9-1.1,2c-0.4,0.1-0.7,0.1-1.1,0.1c-0.2,0-0.3,0.1-0.3,0.2s0.2,0.3,0.6,0.3c1.1,0,3.4-0.1,3.5-0.1s2.5,0.1,4.4,0.1
	c0.4,0,0.6-0.1,0.6-0.3s-0.1-0.2-0.3-0.2c-0.5,0-1.1-0.1-1.6-0.1c-1.1-0.1-1.3-0.9-1.4-2c-0.2-1.5-0.2-4.4-0.2-7.9L200.6,368z
	 M160,379.1c0-7.9,4.5-11.9,10.6-11.9c5.7,0,11,4.7,11,13.4c0,10.5-6.7,12.4-10,12.4C165.1,393,160,387.5,160,379.1 M156.6,380.1
	c0,6.5,4.1,14.2,14.1,14.2c8.7,0,14.5-6.7,14.5-14.8c0-8.5-6.1-13.6-14.2-13.6C160.8,365.9,156.6,374.2,156.6,380.1 M148.7,376.9
	c0-5.7,0-6.7,0.1-7.8s0.4-1.9,1.3-2.1c0.3-0.1,0.6-0.1,0.9-0.1c0.1,0,0.3-0.1,0.3-0.2s-0.2-0.3-0.6-0.3c-1.1,0-3.4,0.1-3.5,0.1
	s-2.5-0.1-4.1-0.1c-0.4,0-0.6,0.1-0.6,0.3s0.1,0.2,0.3,0.2c0.4,0,0.8,0,1.2,0.1c1.2,0.3,1.5,0.8,1.6,2.1s0.1,2.2,0.1,7.8v0.8
	c0,0.1-0.1,0.2-0.2,0.2c0,0,0,0-0.1,0h-15.3c-0.1,0-0.2-0.1-0.2-0.2c0,0,0,0,0-0.1v-0.8c0-5.7,0-6.7,0.1-7.8s0.4-1.9,1.3-2.1
	c0.3-0.1,0.6-0.1,0.9-0.1c0.1,0,0.3-0.1,0.3-0.2s-0.2-0.3-0.6-0.3c-1.1,0-3.4,0.1-3.6,0.1s-2.5-0.1-4.1-0.1c-0.4,0-0.6,0.1-0.6,0.3
	s0.1,0.2,0.3,0.2c0.4,0,0.8,0,1.2,0.1c1.2,0.3,1.5,0.8,1.6,2.1s0.1,2.2,0.1,7.8v6.4c0,3.5,0,6.3-0.2,7.9c-0.1,1-0.3,1.9-1.1,2
	c-0.4,0.1-0.7,0.1-1.1,0.1c-0.2,0-0.3,0.1-0.3,0.2s0.2,0.3,0.6,0.3c1.1,0,3.4-0.1,3.6-0.1s2.5,0.1,4.5,0.1c0.4,0,0.6-0.1,0.6-0.3
	s-0.1-0.2-0.3-0.2c-0.5,0-1.1-0.1-1.6-0.1c-1.1-0.1-1.3-0.9-1.4-2c-0.2-1.5-0.2-4.4-0.2-7.9v-3.8c0-0.1,0.1-0.2,0.2-0.2
	c0,0,0,0,0.1,0h15.4c0.1,0,0.2,0.1,0.2,0.2c0,0,0,0,0,0v3.8c0,3.5,0,6.3-0.2,7.9c-0.1,1-0.3,1.9-1,2c-0.4,0.1-0.7,0.1-1.1,0.1
	c-0.2,0-0.3,0.1-0.3,0.2s0.2,0.3,0.6,0.3c1.1,0,3.4-0.1,3.6-0.1s2.5,0.1,4.4,0.1c0.4,0,0.6-0.1,0.6-0.3s-0.1-0.2-0.3-0.2
	c-0.5,0-1.1-0.1-1.6-0.1c-1.1-0.1-1.3-0.9-1.4-2c-0.2-1.5-0.2-4.4-0.2-7.9L148.7,376.9z"/>
<path class="st0" d="M542.4,299.4c2.1,2.4,9.5,10.7,17.2,18.9c7,7.5,16.4,17.2,17.2,17.8c3.5,3.5,4.3,4.2,4.8,4.2s0.6-0.3,0.6-4.7
	l0.1-38.6c0-3.9,0.3-5.4,2.4-5.9c0.5-0.1,1-0.2,1.6-0.2c0.5,0,0.7-0.2,0.7-0.5s-0.5-0.5-1.2-0.5c-2.7,0-4.9,0.2-5.6,0.2
	s-3.9-0.2-6.8-0.2c-0.8,0-1.3,0.1-1.3,0.5s0.1,0.5,0.5,0.5c1.1,0,2.2,0.1,3.2,0.3c2,0.5,2.5,2,2.6,6.3l0.7,33.4
	c-2.1-2.2-9.3-10.2-15.8-17.2c-10.1-10.9-19.9-21.5-20.9-22.6c-0.7-0.7-1.8-2.1-2.3-2.1s-0.7,0.7-0.7,3.3l-0.1,37.7
	c0,6-0.3,7.9-2,8.4c-0.9,0.3-1.8,0.4-2.7,0.4c-0.3,0-0.5,0.1-0.5,0.4c0,0.5,0.4,0.5,1,0.5c3,0,5.7-0.2,6.3-0.2s3.2,0.2,7,0.2
	c0.8,0,1.2-0.1,1.2-0.5s-0.2-0.4-0.5-0.4c-1.1,0-2.2-0.1-3.3-0.4c-1.8-0.5-2.4-2.2-2.6-7.6L542.4,299.4z M499.1,318.1
	c-0.2,0-0.3-0.1-0.2-0.5l5.8-17.8c0.3-1,0.7-1,1,0l6.3,17.8c0.1,0.3,0.1,0.5-0.3,0.5H499.1z M489.9,332.7c-1.2,3.3-2.5,5.8-5.5,6.2
	c-0.5,0.1-1.4,0.1-1.9,0.1s-0.6,0.1-0.6,0.4s0.4,0.5,1.2,0.5c3.1,0,6.7-0.2,7.4-0.2s3.5,0.2,5.1,0.2c0.6,0,1-0.1,1-0.5
	s-0.2-0.4-0.7-0.4h-0.6c-1.1,0-2.5-0.6-2.5-1.9c0.1-1.5,0.4-3,0.9-4.4l4-11.6c0.1-0.3,0.3-0.5,0.6-0.5h14.1c0.3,0,0.5,0.1,0.6,0.4
	l6.1,16.2c0.4,1,0,1.6-0.4,1.8s-0.5,0.2-0.5,0.5s0.7,0.4,2,0.5c4.5,0.1,9.3,0.1,10.3,0.1c0.7,0,1.3-0.1,1.3-0.5s-0.3-0.4-0.7-0.4
	c-0.9,0-1.8-0.1-2.6-0.4c-1.4-0.4-3.3-1.5-5.7-7.3c-4-10-14.3-37.2-15.3-39.7c-0.8-2-1-2.4-1.4-2.4s-0.7,0.4-1.5,2.6L489.9,332.7z
	 M466.9,293l8.3,0.1c6.3,0.1,7.9,1.6,8.1,3.6l0.1,0.7c0.1,0.9,0.2,1.1,0.5,1.1s0.5-0.3,0.5-0.9s0.2-5.3,0.2-7.2c0-0.4,0-0.8-0.3-0.8
	s-0.9,0.2-1.8,0.3c-1.5,0.2-3.1,0.4-4.7,0.3H453c-0.8,0-3.3-0.1-5.2-0.3c-1-0.1-2-0.4-2.9-0.8c-0.3,0-0.5,0.9-0.6,1.3
	s-1.5,6.2-1.5,6.8c0,0.4,0.1,0.6,0.3,0.6s0.5-0.1,0.6-0.7c0.3-0.7,0.7-1.4,1.1-2c1-1.6,2.6-2,6.7-2.1l9.8-0.1v27.9
	c0,6.3,0,11.5-0.3,14.3c-0.3,1.9-0.6,3.4-1.9,3.6c-0.7,0.2-1.3,0.2-2,0.3c-0.4,0-0.5,0.2-0.5,0.4c0,0.4,0.3,0.5,1,0.5
	c2,0,6.1-0.2,6.5-0.2s4.5,0.2,8.1,0.2c0.7,0,1-0.2,1-0.5s-0.1-0.4-0.5-0.4c-1,0-2-0.1-3-0.3c-2-0.3-2.4-1.7-2.6-3.6
	c-0.3-2.8-0.3-8-0.3-14.3L466.9,293z M429.4,309.2c0-10.3,0-12.1,0.1-14.2c0.1-2.3,0.7-3.4,2.4-3.8c0.5-0.1,1.1-0.2,1.6-0.2
	c0.3,0,0.5-0.1,0.5-0.4s-0.3-0.5-1-0.5c-2,0-6.1,0.2-6.4,0.2s-4.5-0.2-6.6-0.2c-0.7,0-1,0.1-1,0.5s0.3,0.4,0.5,0.4
	c0.7,0,1.3,0.1,2,0.3c1.4,0.3,2.1,1.4,2.2,3.7s0.1,4,0.1,14.2v11.6c0,6.3,0,11.5-0.3,14.3c-0.3,1.9-0.6,3.4-1.9,3.6
	c-0.7,0.2-1.3,0.2-2,0.3c-0.4,0-0.5,0.2-0.5,0.4c0,0.4,0.3,0.5,1,0.5c2,0,6.1-0.2,6.5-0.2s4.5,0.2,8.1,0.2c0.7,0,1-0.2,1-0.5
	s-0.1-0.4-0.5-0.4c-1,0-2-0.1-3-0.3c-2-0.3-2.4-1.7-2.6-3.6c-0.3-2.8-0.3-8-0.3-14.3L429.4,309.2z M390.4,309.2
	c0-10.3,0-12.1,0.1-14.2c0.1-2.3,0.7-3.4,2.6-3.8c0.7-0.1,1.4-0.2,2.2-0.2c0.3,0,0.5-0.1,0.5-0.4s-0.3-0.5-1-0.5
	c-2,0-6.8,0.2-7.1,0.2s-4.5-0.2-7.4-0.2c-0.7,0-1,0.1-1,0.5s0.3,0.4,0.5,0.4c0.7,0,1.5,0.1,2.2,0.2c2.2,0.5,2.7,1.5,2.8,3.8
	s0.1,4,0.1,14.2v11.6c0,6.3,0,11.5-0.3,14.3c-0.3,1.9-0.6,3.4-1.9,3.6c-0.7,0.2-1.3,0.3-2,0.3c-0.4,0-0.5,0.2-0.5,0.4
	c0,0.4,0.3,0.5,1,0.5c1,0,2.4-0.1,3.8-0.1s2.4-0.1,2.7-0.1c1.9,0,3.9,0.1,6.7,0.2s6.2,0.2,10.9,0.2c3.5,0,3.7-0.3,4.1-1.8
	c0.5-2.2,0.8-4.4,1-6.6c0-0.7-0.1-1-0.4-1s-0.5,0.3-0.6,0.9c-0.2,1.5-0.8,2.8-1.7,4c-1.6,1.9-4.5,2-8,2c-5.1,0-6.9-0.5-7.9-1.5
	s-1.4-5.4-1.4-15.1L390.4,309.2z M325.4,313.1c0-14.4,8.2-21.7,19.2-21.7c10.4,0,20,8.5,20,24.3c0,19.2-12.2,22.6-18.2,22.6
	C334.6,338.3,325.4,328.5,325.4,313.1 M319.2,315c0,11.8,7.5,25.9,25.5,25.9c15.9,0,26.3-12.2,26.3-26.9c0-15.3-11-24.7-25.9-24.7
	C326.9,289.3,319.2,304.3,319.2,315 M284.4,320.9c0,6.3,0,11.5-0.3,14.3c-0.3,1.9-0.6,3.4-1.9,3.6c-0.7,0.2-1.3,0.2-2,0.3
	c-0.4,0-0.5,0.2-0.5,0.4c0,0.4,0.3,0.5,1,0.5c2,0,6.1-0.2,6.3-0.2s4.5,0.2,8.1,0.2c0.7,0,1-0.2,1-0.5s-0.1-0.4-0.5-0.4
	c-1,0-2-0.1-3-0.3c-2-0.3-2.4-1.7-2.6-3.6c-0.3-2.8-0.3-8-0.3-14.3v-27c0-0.6,0.1-1.1,0.5-1.3c0.9-0.3,1.9-0.4,2.8-0.4
	c3.3-0.3,6.6,0.9,9,3.3c2.5,2.8,3.9,6.4,3.7,10.1c0,6-5,10.7-11.4,10.7c-1.4,0-1.8,0.1-1.8,0.6c0,0.3,0.4,0.5,0.7,0.5
	c0.5,0.1,0.9,0.1,1.4,0.1c9.4,0,16.2-6.3,16.2-15.7c-0.1-2.9-1.2-5.7-3.3-7.8c-1-1-4-3.8-12.2-3.8c-3,0-6.9,0.2-8.3,0.2
	c-0.5,0-4.5-0.2-7.4-0.2c-0.7,0-1,0.1-1,0.5s0.3,0.4,0.5,0.4c0.7,0,1.5,0.1,2.2,0.2c2.2,0.5,2.7,1.5,2.8,3.8s0.1,4,0.1,14.2
	L284.4,320.9z M224.9,313.2c0-14.4,8.2-21.7,19.2-21.7c10.4,0,20,8.5,20,24.3c0,19.2-12.2,22.6-18.2,22.6
	C234.1,338.4,224.9,328.5,224.9,313.2 M218.7,315c0,11.8,7.5,25.9,25.5,25.9c15.9,0,26.3-12.2,26.3-26.9c0-15.3-11-24.7-25.9-24.7
	C226.4,289.3,218.7,304.3,218.7,315 M201.7,291c-0.1-1.2-0.3-1.8-0.8-1.8s-0.7,0.5-1,1l-19.3,41.3l-20.1-41.4c-0.3-0.7-0.6-1-1-1
	s-0.6,0.5-0.7,1.2l-4.7,42.9c-0.3,2.5-0.5,5.1-2.6,5.5c-0.7,0.1-1.3,0.2-2,0.2c-0.3,0-0.7,0.1-0.7,0.3c0,0.5,0.5,0.6,1.1,0.6
	c1.8,0,4.9-0.2,5.5-0.2s3.7,0.2,6.1,0.2c0.8,0,1.2-0.1,1.2-0.6c0-0.2-0.3-0.3-0.5-0.3c-0.8,0-1.7-0.1-2.5-0.3c-1-0.2-1.7-1-1.7-2
	c0-1.1,0-2.3,0.1-3.4l2.6-30.6h0.3c0.7,1.8,8.1,17.6,8.7,18.8c0.3,0.6,6,12,7.7,15.3c1.2,2.4,1.6,3,2,3s0.8-0.6,2.2-3.5l16.2-34.2
	h0.2l3.2,34c0.1,1.2,0.1,2.3-0.3,2.4s-0.5,0.2-0.5,0.5s0.3,0.5,1.8,0.6c2.4,0.2,9.6,0.4,11,0.4c0.8,0,1.4-0.2,1.4-0.6
	s-0.2-0.3-0.5-0.3c-1.4,0-2.9-0.2-4.3-0.6c-2.8-0.9-3.3-4.6-3.6-7L201.7,291z M124.7,340.8c3.5,0.1,7-0.8,10-2.8
	c3.5-2.6,5.6-6.6,5.6-10.9c0-5.3-1.8-9.4-9.6-15.5l-1.8-1.4c-6.3-4.9-8-7.3-8-11.1c0-4.8,3.6-7.6,8.1-7.6c6.1,0,7.8,2.8,8.2,3.5
	c0.4,1.1,0.7,2.2,0.9,3.3c0.1,0.5,0.1,0.9,0.5,0.9s0.5-0.5,0.5-1.5c0-4.5,0.3-6.6,0.3-7s-0.1-0.5-0.6-0.5c-0.8,0-1.5-0.1-2.3-0.3
	c-2-0.5-4.1-0.7-6.1-0.6c-8.4,0-13.6,4.8-13.6,11.8c0,4.5,1.6,8.6,8.5,14.3l3,2.4c5.7,4.7,7.6,7.3,7.6,11.9c0,4.2-3.1,8.8-9.4,8.8
	c-4.4,0-8.8-1.8-9.7-6.7c-0.2-0.8-0.2-1.6-0.2-2.4c0-0.5-0.1-0.7-0.4-0.7s-0.5,0.3-0.5,1c-0.1,1-0.3,3.7-0.3,7c0,1.8,0.1,2,1,2.5
	c2.8,1.2,5.8,1.9,8.8,1.8 M58.7,313.1c0-14.4,8.2-21.7,19.2-21.7c10.4,0,20,8.5,20,24.3c0,19.2-12.2,22.6-18.2,22.6
	C67.9,338.3,58.7,328.5,58.7,313.1 M52.3,315c0,11.8,7.5,25.9,25.5,25.9c15.9,0,26.3-12.2,26.3-26.9c0-15.3-11.1-24.7-25.9-24.7
	C60.1,289.3,52.3,304.3,52.3,315 M29.7,340.8c4.2,0,9.2-0.5,11.8-1.5c1.2-0.5,1.3-0.6,1.7-1.9c0.7-2.8,1.1-5.6,1.4-8.4
	c0-0.5-0.1-1-0.5-1s-0.5,0.3-0.7,1c-0.3,2-1.2,3.9-2.4,5.5c-2.6,2.7-6.5,3.3-11.5,3.3c-14.1,0-23.8-11.5-23.8-24.1
	c0-6.7,1.1-12.6,5.9-17.2c2.3-2.2,6.4-4.8,15.1-4.8c5.8,0,10.9,1.8,13.2,3.8c1.8,1.8,2.8,4.2,2.8,6.7c0,0.9,0.1,1.4,0.5,1.4
	s0.5-0.4,0.6-1.4s0.1-4.6,0.2-6.8c0.1-2.4,0.3-3.2,0.3-3.7s-0.1-0.6-0.8-0.7c-2.3-0.2-4.5-0.5-6.7-1c-3.2-0.5-6.4-0.8-9.5-0.8
	c-10.1,0-16.1,3.1-20.1,7c-4.7,4.8-7.3,11.3-7.4,18c0,6.3,1.6,13.8,8,19.5C13.2,338.4,19.9,340.8,29.7,340.8"/>
</svg>
