<svg id="Layer_2" data-name="Layer 2" xmlns="http://www.w3.org/2000/svg" xmlns:xlink="http://www.w3.org/1999/xlink" viewBox="0 0 291.72 182.38"><defs><style>.cls-1{fill:none;}.cls-2{clip-path:url(#clip-path);}.cls-3{fill:#fff;}.cls-4{fill:#b4b6b6;}</style><clipPath id="clip-path" transform="translate(-151 -331)"><rect class="cls-1" x="151" y="331" width="291.72" height="182.38"/></clipPath></defs><title>Edison_logo-white</title><g class="cls-2"><path class="cls-3" d="M434.58,509.32a4.07,4.07,0,1,0,4.06-4.08,4.07,4.07,0,0,0-4.06,4.08h0m.68,0a3.39,3.39,0,1,1,3.39,3.39,3.39,3.39,0,0,1-3.39-3.39s0,0,0,0m2,1.85a.22.22,0,0,0,.22.21h.29a.22.22,0,0,0,.22-.21v-1.36h.84l.64,1.42a.27.27,0,0,0,.2.16H440a.21.21,0,0,0,.19-.3l-.68-1.34a1.2,1.2,0,0,0,.92-1.23,1.28,1.28,0,0,0-1.28-1.28h-1.75a.22.22,0,0,0-.22.22h0Zm.71-2v-1.29H439a.62.62,0,0,1,.68.65.64.64,0,0,1-.64.64H438Z" transform="translate(-151 -331)"/><path class="cls-3" d="M292.4,331c12.49-.27,29.41.64,46.29,2.13,12.35,1.08,24.68,2.42,36.53,6.42a16.28,16.28,0,0,1,4.27,2.12c2.31,1.66,2.38,3.55,0,5.24-2.85,2-6.21,2.85-9.51,3.71a172,172,0,0,1-23.48,4c-27.08,3.18-54.26,3.43-81.44,2.6-19.21-.59-38.42-1.86-57.29-6.13a37.29,37.29,0,0,1-10.13-3.46c-1.33-.74-2.79-1.55-2.86-3.32s1.43-2.68,2.77-3.34c5.42-2.7,11.27-4,17.14-5,24.25-3.95,48.7-5,77.7-5" transform="translate(-151 -331)"/><path class="cls-3" d="M166.23,476.13v21.81l2.09-.2V476.13Zm-11.07-54.94c0,12.41,0,25.9.06,38.21h1.91c0-5-.06-10.32-.06-15.36,0-6.39.07-16.54.07-22.94m1.49,38.29h2.59V409.2h-2.58Zm14.47-72H170V435.6h3.08Zm-8.5,110.47V474.11c1.46,0,2.55,0,3.65-.08v-4.92h-8.64v28.75Zm5.5-58.72c-.22-.89,0,.93-.08,1.92v56.67h3.07a7.57,7.57,0,0,0,.11-.86c0-16.84.08-33.68-.09-50.52,0-1.88-2.24-5.33-3-7.21m-12,58.68V467.39h10.23V461H152.45v36.82Zm4.82-38.53h4.87V394.91h-4.86Zm32.74-23.52h18.25v13.16H195.33c.22,2.44.33,4.6.65,6.72.22,1.46,1.27,1.95,2.75,1.93,5-.07,10,0,15.12,0v14.23H199.46c-10.68,0-16-5.25-16.26-16v-6.57h-8.54v50H151V459.6l2.57-.22V419.51c1.06-.11,1.87.06,2.86,0V407.34h4.79V393h7.08v-7h6.13V435.6h8.59V360.38h30.82v14h-18.2Z" transform="translate(-151 -331)"/><path class="cls-3" d="M340,415.89h0v-36a18.57,18.57,0,0,0-.48-4.46,4.69,4.69,0,0,0-5.2-3.54,4,4,0,0,0-4.07,3.86,27.82,27.82,0,0,0-.39,4v73a13,13,0,0,0,.37,3.27,4.54,4.54,0,0,0,4.85,3.66,4.2,4.2,0,0,0,4.47-3.74,30.23,30.23,0,0,0,.44-5.66V415.84M317,415.52c0-13-.07-25.95,0-38.92a20.09,20.09,0,0,1,6.32-15,17,17,0,0,1,27.28,6.72,25.05,25.05,0,0,1,1.86,8.7q.21,38.92,0,77.85c0,6.71-2.15,12.88-8,16.85a17.39,17.39,0,0,1-27-12.28,47.38,47.38,0,0,1-.48-6.6V415.53" transform="translate(-151 -331)"/><path class="cls-3" d="M397.12,471.72H385V425.78a11.06,11.06,0,0,0-1.07-4.5c-2.12-4.49-4.43-8.9-6.67-13.33a4.41,4.41,0,0,0-1.64-1.88v65.58H363.14V358.09c0-1.32-.31-3,1.88-2.55.58.11,1.19.88,1.48,1.5q8.54,17.65,17.08,35.33a2.8,2.8,0,0,0,1.35,1.37V360.36h12.2Z" transform="translate(-151 -331)"/><path class="cls-3" d="M234.65,448.25l.64.13c8.85-11.78,12.12-25.17,10.48-39.78-1.23-11-7.13-23.37-11.13-26.35ZM222,473.6v-119l4.08,2.2c17.81,9.61,28.16,24.59,31.59,44.39,3,17.31,1,33.91-7.57,49.47A53.42,53.42,0,0,1,229,471.5a13.72,13.72,0,0,1-2.49,1.43" transform="translate(-151 -331)"/></g><rect class="cls-3" y="175.11" width="277.51" height="7.27"/><g class="cls-2"><path class="cls-3" d="M311.89,360.19c-2,2.78-3.92,5.16-5.55,7.73-9.74,15.36-11.38,31.49-4.81,48.54a130.27,130.27,0,0,1,6,19.08c2.35,10.86.22,21.46-3.53,31.75-1.65,4.53-1.76,4.49-6.58,4.49H286.19c1.42-2.5,2.74-4.78,4-7.09,6.75-12.31,7.09-24.84,1.56-37.72-4.52-10.51-7.52-21.39-6.9-33a72.1,72.1,0,0,1,8.77-31.83,3.24,3.24,0,0,1,3.3-2c4.87.12,9.75,0,15,0" transform="translate(-151 -331)"/></g><rect class="cls-3" x="114.45" y="29.31" width="12.04" height="111.34"/><g class="cls-2"><path class="cls-3" d="M424.29,421.43c0,11.37.08,25.42.08,36.79v2.07a12,12,0,0,0,1.47,0c0-.56,0-1,0-2.12V421.42M415.21,477.1h-2.59v21.66h2.59Zm6.21-6.61h-8.78v4.73h4.24v23.53h4.54Zm1.45-60.33h-3.13v50.1h3.13ZM412.61,468.5H423v30.19h6V462H412.61Zm-4.28,30.24H411v-110h-2.62Zm4.81-38.53H418v-64.3h-4.9ZM407,386.92h5.43v7.4H420V408.6h4.23v11.8c1.06.08,2,0,2.91,0v39.93c1.16,0,2.11-.07,3.24,0v39.81H407Z" transform="translate(-151 -331)"/><path class="cls-3" d="M188.71,500.6h-2.93c-.22-4.82.08-9.17-.58-14.11h-1.38v14h-3.29v-27.9l.57-.28,3.94,7.94.52-.13v-6.31h3.17Z" transform="translate(-151 -331)"/><path class="cls-3" d="M318,495.17h-2.4v5.43h-3.25v-5.42c0-.28-1.25,0-1.78-.39-.74-.6-1.43-2.13-2.31-3,1.68-.05,2.67,0,4-.07V473.86h3.28V490.6a4.67,4.67,0,0,0,2.86-4.67c.1-3.94,0-7.89,0-12h2.86c-.55,5.64,1.22,11.44-1.56,16.92-.22.42-.34,1.26-.1,1.5,2.37,2.37,1.46,5.31,1.61,8.26H318Z" transform="translate(-151 -331)"/><path class="cls-3" d="M274.61,497.88a1.23,1.23,0,0,0,1,.11c.69-.68.61-1.87.61-2.71.06-5.37.07-10.74,0-16.11a4.55,4.55,0,0,0-.8-2.62h-.8a3.37,3.37,0,0,0-.73,2.48q-.1,8.17,0,16.34a4.45,4.45,0,0,0,.73,2.48M279.56,487c0,2.92.2,5.86-.08,8.75-.15,1.52-.68,3.4-1.88,4.32-.8.79-3.06,1.26-3.78.71a6.4,6.4,0,0,1-3.1-4.55c-.36-6-.23-12-.1-18a6,6,0,0,1,3.74-5.25,2.25,2.25,0,0,1,1.68.19,5.71,5.71,0,0,1,3.55,5.77c-.1,2.68,0,5.36,0,8" transform="translate(-151 -331)"/><path class="cls-3" d="M295.41,479.22v11.51c2.84-3.08,2.83-8.69,0-11.51m2.26,15.91H294.8v5.47H292v-5.47c-.67-.64-1.68,0-2.1-.44a10.86,10.86,0,0,1-1.19-1.72c-.15-.28-1.18-1.09-.71-1,.88-.09,2.8.18,3.87.07V472.4a12.93,12.93,0,0,1,7.79,16.54q-.2.55-.44,1.08c-.47,1-.2,1.74.24,2.86.91,2.31.91,5,1.31,7.71h-3.12Z" transform="translate(-151 -331)"/><path class="cls-3" d="M394.93,500.69h-2.8a12,12,0,0,1,0-1.6c0-2.08.49-4.44-1.67-5.74-1-.58-1.11-2.41-1.14-3.67-.12-5.27-.05-10.54-.05-15.9h3.3c0,4.91-.06,9.78,0,14.65,0,1.08.57,1.38.91,2.45.3-1,.9-1.31.92-2.35.09-4.88,0-9.75,0-14.74h3.3v13.88c0,2.69,0,5.07-2.65,6.84-.44.29-.17,1.85-.2,2.69v3.46" transform="translate(-151 -331)"/><path class="cls-3" d="M374.57,477.43h-2.7v-3.56h8.23v3.54c-.84.09-1.65,0-2.73.1v23.16h-2.79V477.46" transform="translate(-151 -331)"/></g><rect class="cls-3" x="207.99" y="142.8" width="3.02" height="26.83"/><g class="cls-2"><path class="cls-3" d="M349.22,474.09c-7.13,8.82-7.16,17.51-.09,26.23-2.33.81-4,.21-5-1.7-4.09-7.6-4.28-15.23.08-22.8,1.31-2.28,1.59-2.31,5-1.73" transform="translate(-151 -331)"/><path class="cls-3" d="M267.83,339.8a5.17,5.17,0,0,0-5.34,5.54c0,3.9,2.33,5,5.89,5.27,2.79.18,5-2.39,5-5.34,0-3.5-2-5.48-5.55-5.47m.5-1.61c3.88.06,7.38,3,7.43,6.4.07,4.49-3.14,7.49-8,7.51" transform="translate(-151 -331)"/><path class="cls-3" d="M166.23,476.14h2.09v21.61l-2.09.2" transform="translate(-151 -331)"/></g><polyline class="cls-3" points="69.85 142.53 74.57 170.79 75.33 170.72 77.12 159.14 77.72 159.06 79.43 170.83 80.27 170.82 85.59 142.49 82.5 142.49 79.89 152.18 78.31 142.49 76.81 142.49 75.7 152.18 73.72 142.49"/><g class="cls-2"><path class="cls-3" d="M292.23,333.38c12-.23,28.22.55,44.42,1.82,11.83.93,23.68,2,35,5.53a16.34,16.34,0,0,1,4.1,1.82c2.21,1.42,2.28,3,0,4.48-2.73,1.74-6,2.44-9.13,3.18a183.12,183.12,0,0,1-22.47,3.39c-26,2.73-52.11,3-78.11,2.24-18.44-.5-36.87-1.59-55-5.24a38.84,38.84,0,0,1-9.72-3c-1.27-.64-2.68-1.33-2.74-2.84s1.37-2.29,2.66-2.86a62.25,62.25,0,0,1,16.45-4.24c23.27-3.38,46.73-4.29,74.55-4.31" transform="translate(-151 -331)"/><path class="cls-3" d="M338.85,349.76V337.83c-.91.1-1.55,0-2.19.07v13.67h9.68c.13-.2-.06-1.53.07-1.74m-46.94-10v-1.94c-3.45,0-8.36.06-11.62,0v2h5.06V351.6h2.4V339.9M322.64,338c-3-.11-6.8-.07-9.71-.07V351.6h9.59c.13-.2,0-1.51.18-1.71a5.34,5.34,0,0,0-1.34,0c-2-.14-4-.06-6-.06v-4.4h6.85v-1.84c-2.31-.12-4.6,0-6.91-.21V339.8h7.33m-62.76,5c.24,4.55,3.21,6.85,7.86,6.83,4.9,0,8.11-3,8-7.51-.05-3.42-3.55-6.34-7.43-6.4-4.65-.07-8.41,3-8.47,7.08m-24,.87h8.09v5.88h2.22V337.91c-.8,0-1.53,0-2.43,0,0,1.93.07,3.82.07,5.56h-8v-5.61c-.92.07-1.61,0-2.23,0,0,4.65.06,9.06.06,13.65.84-.1,1.48,0,2.21-.07ZM287,356.89c-8.86,0-17.73.35-26.57-.09-11-.54-22.08-1.4-33-2.75-8.18-1-16.25-2.89-24.32-4.61a16.63,16.63,0,0,1-5.45-2.7c-2.17-1.45-2.15-3.53.25-4.54a90.85,90.85,0,0,1,12.68-4.39c10.07-2.59,20.48-3.31,30.85-4.21a491.79,491.79,0,0,1,56.4-1.78c15.55.49,31.08,1.67,46.62,2.63a129.24,129.24,0,0,1,28.59,5,30.71,30.71,0,0,1,6.06,2.6c2.67,1.47,2.85,3.54.21,5a33.66,33.66,0,0,1-9.17,3.54,231.46,231.46,0,0,1-23.58,3.83c-13.74,1.29-27.52,2.09-41.3,2.85" transform="translate(-151 -331)"/><path class="cls-3" d="M267.76,339.5c3.54,0,5.27,2.23,5.27,5.73,0,3.19-1.88,4.75-5.27,4.87-2.84-.4-5.27-.9-5.27-4.8,0-3.31,2.09-5.78,5.27-5.79" transform="translate(-151 -331)"/></g><polyline class="cls-3" points="29.34 141.41 30.29 141.41 34.53 149.51 34.56 142.85 37.9 142.85 37.9 169.91 34.59 169.87 34.5 157.32 32.66 155.42 32.67 169.91 29.34 169.9"/><polyline class="cls-4" points="51.47 164.65 53.21 169.15 57.91 169.88 57.91 166.56 53.34 166.76 53.13 163.55 57.56 164.07 57.91 161.28"/><polyline class="cls-3" points="54.08 161.89 54.11 146.12 57.91 146.12 57.91 142.81 50.79 142.81 50.79 161.32 46.81 161.32 49.38 164.65 50.79 164.65"/><polyline class="cls-3" points="141.15 160.91 136.36 160.91 139.45 164.23 141.15 164.24"/><polyline class="cls-3" points="161.57 160.61 156.78 160.61 159.87 163.93 161.57 163.94"/><g class="cls-2"><path class="cls-3" d="M204.69,492.32h4.22v3.12h-3.8c0,.57,0,1.09.09,1.59,0,.33.14.44.49.44h3.21v3.35h-4a2.85,2.85,0,0,1-.7-.08,3.09,3.09,0,0,1-2.24-2.81c-.13-.78-.12-1.59-.18-2.44" transform="translate(-151 -331)"/><path class="cls-3" d="M257,500.43h-2.8a12,12,0,0,1,0-1.6,30.27,30.27,0,0,0,0-3.19c-.09-.83,0-1.42-1-2.07s-1.79-2.89-1.82-4.15c-.12-5.27-.05-10.54-.05-15.9h3.3c0,4.91-.06,9.78,0,14.65,0,1.08.57,1.38.91,2.45.3-1,.9-1.31.92-2.35.09-4.87,0-9.75,0-14.74h3.3v13.88c0,2.69.37,4.51-2.33,6.28-.44.29-.49,2.41-.52,3.25v3.46" transform="translate(-151 -331)"/></g></svg>