<svg xmlns:dc="http://purl.org/dc/elements/1.1/" xmlns:cc="http://creativecommons.org/ns#" xmlns:rdf="http://www.w3.org/1999/02/22-rdf-syntax-ns#" xmlns:svg="http://www.w3.org/2000/svg" xmlns="http://www.w3.org/2000/svg" xmlns:sodipodi="http://sodipodi.sourceforge.net/DTD/sodipodi-0.dtd" xmlns:inkscape="http://www.inkscape.org/namespaces/inkscape" version="1.1" x="0px" y="0px" viewBox="0 0 100 100"><g transform="translate(0,-952.36218)"><path style="text-indent:0;text-transform:none;direction:ltr;block-progression:tb;baseline-shift:baseline;color:#000000;enable-background:accumulate;" d="m 9.999998,973.36215 c -2.1641,0 -4,1.8359 -4,4 l 0,50.00005 c 0,2.1641 1.8359,4 4,4 l 80.000004,0 c 2.1641,0 4,-1.8359 4,-4 l 0,-50.00005 c 0,-2.1641 -1.8359,-4 -4,-4 l -80.000004,0 z m 2.59375,6 74.812504,0 -37.406254,29.18745 -37.40625,-29.18745 z m -0.59375,7.125 20.28125,15.84375 -20.28125,19.0001 0,-34.84385 z m 76.000004,0 0,34.84385 -20.281254,-19.0001 20.281254,-15.84375 z m -50.937504,19.56245 11.09375,8.6563 a 3.0003,3.0003 0 0 0 3.6875,0 l 11.09375,-8.6563 20.59375,19.3126 -67.0625,0 20.59375,-19.3126 z" fill="#000000" fill-opacity="1" stroke="none" marker="none" visibility="visible" display="inline" overflow="visible"></path></g></svg>