<svg id="Layer_1" data-name="Layer 1" xmlns="http://www.w3.org/2000/svg" viewBox="0 0 293.44 124.86"><defs><style>.cls-1{fill:#fff;}</style></defs><title>evelyn-white-logo</title><path class="cls-1" d="M118.19,8.48c0,2.12-2.3,3.32-6.24,3.32-6.35,0-20.35-2.65-29.55-5.57a37.6,37.6,0,0,1,17.76-4.11c9.49,0,18,3,18,6.37m-73.3,66.3c0-16,22.36-35.14,41.34-35.14,7.73,0,13.28,4.51,13.28,10.74,0,14.72-24.53,32.23-45.4,32.23a39.59,39.59,0,0,1-7-.66,13.32,13.32,0,0,1-2.17-7.16M119.59,8.63c0-4.51-9.76-8.09-21.69-8.09A49.93,49.93,0,0,0,76.6,4.88C61.28,1.17,53.42,0,44.21,0c-14.5,0-26,3.85-34,11.4C3.66,17.5,0,25.06,0,32.49,0,42.7,6.6,50.88,14.77,50.88c4.61,0,8.27-2.78,8.27-6.37a3.86,3.86,0,0,0-4.2-4c-3,0-5.29,2-5.29,4.38,0,2,1.49,3.18,3.52,3.18.81-.13,1.22.13,1.22.4,0,.53-1.63,1.06-3.52,1.06C8,49.59,2.44,43,2.44,34.88c0-18.17,21-32.76,47.16-32.76,7.72,0,13.42.8,25.35,3.58C67.5,9.68,64.24,14,64.24,19.88c0,4.64,2.3,7.56,7.32,9.68a92.11,92.11,0,0,0-18.3,3.71c-17.62,5.7-29.14,17.51-29.14,30,0,9.42,8.13,16.84,21.55,19.76C50.16,89.09,56,92,64,92.6v-1c-6.94-.59-12.32-3.25-16-8.15a45.28,45.28,0,0,0,6.64.4c23.72,0,46.08-16,46.08-32.89,0-7.82-6.23-12.86-15.86-12.86-21.14,0-42.42,17.24-42.42,34.21a16.82,16.82,0,0,0,2.44,9.15C36.2,79.34,31.32,73.77,31.32,66c0-11.94,8.67-22.54,24.8-30.1,6.51-3,11.38-4.77,17.08-5.57a45.44,45.44,0,0,0,10,1.33c2.58,0,3.66-.27,3.66-1.06S84.3,28.88,80,28.88a69.85,69.85,0,0,0-7,.4c-2.17-1.19-3.25-3.45-3.25-6.36,0-6,4.34-11.94,11.25-15.78C96.83,11,107,13,111.47,13c5,0,8.13-1.72,8.13-4.38" transform="translate(0 0.03)"/><path class="cls-1" d="M136.35,33.43h7.25V32.35h-6V29.47h5.16V28.4H137.6V23h5.79V21.88h-7Zm-10.73,0h1.22V29.52H133v3.91h1.22V21.88H133v6.48h-6.16V21.88H125.6Zm-6.55,0h1.22V23h3.54V21.88h-8.3V23h3.54Z" transform="translate(0 0.03)"/><rect class="cls-1" x="103.16" y="28.39" width="12.45" height="1.06"/><rect class="cls-1" x="145.59" y="28.39" width="12.45" height="1.06"/><path class="cls-1" d="M236.6,82.28a27,27,0,0,1,4.34-.26c1.36,0,2.3.13,3.93.26,12.43-21.75,23.73-35.14,29.78-35.14a2.57,2.57,0,0,1,2.85,2.65c0,1.72-1,3.58-5.42,9.95-6.91,9.95-7.59,11.4-7.59,15.25,0,4.38,3,7.82,7,7.82,3.25,0,6.64-2.52,12.33-9.15,3.39-4,9.62-12.2,9.62-12.6a.36.36,0,0,0-.31-.4H293c-.13,0-.41.13-.68.66-8.48,12.21-16.75,20.56-20.27,20.56a2.41,2.41,0,0,1-2.71-2.65c0-2.25.68-3.45,6.24-11.67,5-7.29,6.1-9.68,6.1-13.26,0-4.64-3-8.09-6.91-8.09-4.74,0-9.35,4.24-19.79,18.3,3.8-5.57,5-8.36,5-11.54,0-3.71-2.44-6.76-5.42-6.76s-6.64,3.58-13.69,13.26l-1.22,1.59a1,1,0,0,0-.27.53.43.43,0,0,0,.41.4c.14,0,.41-.26.95-.93C246.46,53,252,47.14,254,47.14c1,0,1.63.8,1.63,2,0,2.25-2.85,7.69-8.81,17.11Zm-34.43,6.9c-.41.66-.68,1.33-.81,1.33-13.69,24.8-21.82,33.55-31.17,33.55-3.25,0-5.56-2-5.56-4.91,0-7.56,10.44-16.71,30.09-26.26,5.15-2.52,5.83-2.78,7.45-3.71M214.6,46.74a32.53,32.53,0,0,1-4.74.4,17,17,0,0,1-3.52-.27L196.17,63.71c-3.8,6.1-4.74,8.62-4.74,11.54,0,4.11,3.12,7.56,6.78,7.56,4.2,0,7-2.52,16.27-15L202.82,88.1l-.95.53c-2.57,1.06-5,2.25-7.59,3.45-20.47,9.28-30.63,18.17-30.63,26.92,0,3.32,2.71,5.83,6.37,5.83,5,0,11.79-3,18.7-8.49,8.27-6.5,13-12.6,20.06-25.06l3.25-5.7c10.57-5.7,14.64-8.75,21-15.65,3.25-3.45,7.32-8.49,7.32-8.88a.36.36,0,0,0-.31-.4h-.1q-.4,0-1.22,1.19c-9.22,11.54-15.32,16.84-26,22.28,12.33-21.75,14.5-25.46,22.23-37.4a24.27,24.27,0,0,1-4.47.4,17,17,0,0,1-3.66-.27l-6.1,10.21c-9.22,15.25-17.62,24.8-22,24.8A2.68,2.68,0,0,1,196,78.94c0-1.86,1.63-5.17,5.56-11.54ZM198.07,62.12a1.93,1.93,0,0,0,.68-1.06c0-.27-.14-.4-.27-.4a1.09,1.09,0,0,0-.81.66C187.91,74.88,181,81.88,177.34,81.88c-1.63,0-2.58-1.06-2.58-2.92,0-3.45,0-3.45,37-63.79a12.9,12.9,0,0,1-8.13.27c-5,8.75-14,23.6-20.19,33.82-13,21.09-13.15,21.35-13.15,26.12,0,4.38,2.71,7.43,6.51,7.43,4.07,0,10-5.44,18.43-16.84Zm-49.33,2C156.06,54,164.46,47,169.2,47a2.08,2.08,0,0,1,2.3,2.12c0,5.17-10,11.8-22.77,15m27.11-1.33c.95-1.19,1.22-1.46,1.22-1.72s-.14-.4-.27-.4c-.41,0-.68.27-1.36,1.06-9.35,12.47-19.11,20-25.62,20-3.66,0-6.1-2.25-6.1-5.57,0-2.79,1.9-7.29,4.47-11.14,19.52-3.85,27-7.82,27-14.06,0-2.65-2.58-4.78-5.69-4.78-3.66,0-8.4,1.59-14.23,4.64-11.11,6-16.67,12.73-16.67,20.56,0,6.5,4.74,11.41,11,11.41s14.91-6,23.45-16.58ZM104,63.88c-3.66,6-4.47,8-4.47,11.14a7.84,7.84,0,0,0,7.86,7.82h.14c5,0,9.22-3.45,17.08-14.06,1.36,2.12,2.71,3.05,4.88,3.05,2.85,0,6-1.86,10-5.84,3-3.18,4.2-4.51,4.2-5a.29.29,0,0,0-.27-.27c-.41,0-.68.27-1.76,1.59-4.61,5.57-9.08,8.75-12.2,8.75a4.58,4.58,0,0,1-4.34-2.92c7.86-10.87,11-16.58,11-20,0-1.19-.54-1.86-1.63-1.86-4.61,0-10.84,10.48-10.84,18.3a11.92,11.92,0,0,0,.54,3.45c-8.4,10.74-12.06,13.92-16.4,13.92-2.17,0-3.52-1.19-3.52-3,0-2.26,1.08-4.64,4.61-10.21l13.82-21.88a18.22,18.22,0,0,1-3.93.27c-1.63,0-2.71-.13-4.34-.27Z" transform="translate(0 0.03)"/><path class="cls-1" d="M282.28,80.62a2.93,2.93,0,1,0,2.93-2.94,2.93,2.93,0,0,0-2.93,2.94h0m.49,0a2.44,2.44,0,1,1,2.44,2.44,2.44,2.44,0,0,1-2.44-2.44h0M284.19,82a.16.16,0,0,0,.16.15h.25a.16.16,0,0,0,.16-.15V81h.6l.46,1a.19.19,0,0,0,.15.11h.28a.15.15,0,0,0,.14-.22l-.49-1a.87.87,0,0,0,.66-.89.92.92,0,0,0-.93-.91H284.4a.15.15,0,0,0-.16.14.15.15,0,0,0,0,0Zm.51-1.45v-.93h.8A.45.45,0,0,1,286,80a.46.46,0,0,1-.46.46h-.83Z" transform="translate(0 0.03)"/></svg>