<svg id="Layer_1" data-name="Layer 1" xmlns="http://www.w3.org/2000/svg" viewBox="0 0 293.49 124.85"><defs><style>.cls-1{fill:#5f3c31;}</style></defs><title>Evelyn_logo</title><path class="cls-1" d="M122.59,46.6c0,2.12-2.3,3.32-6.24,3.32C110,49.92,96,47.27,86.8,44.35a37.6,37.6,0,0,1,17.76-4.11c9.49,0,18,3.05,18,6.37M49.26,112.91c0-16,22.36-35.14,41.34-35.14,7.73,0,13.28,4.51,13.28,10.74,0,14.72-24.53,32.23-45.4,32.23a39.59,39.59,0,0,1-7-.66,13.32,13.32,0,0,1-2.17-7.16m74.68-66.17c0-4.51-9.76-8.09-21.69-8.09A49.93,49.93,0,0,0,81,43c-15.32-3.71-23.18-4.91-32.39-4.91-14.5,0-26,3.85-34,11.4C8.06,55.62,4.4,63.18,4.4,70.61,4.4,80.82,11,89,19.17,89c4.61,0,8.27-2.78,8.27-6.37,0-2.39-1.63-4-4.2-4-3,0-5.29,2-5.29,4.38,0,2,1.49,3.18,3.52,3.18.81-.13,1.22.13,1.22.4,0,.53-1.63,1.06-3.52,1.06C12.4,87.71,6.84,81.08,6.84,73c0-18.17,21-32.76,47.16-32.76,7.72,0,13.42.8,25.35,3.58C71.9,47.8,68.64,52.17,68.64,58c0,4.64,2.3,7.56,7.32,9.68a92.11,92.11,0,0,0-18.3,3.71c-17.62,5.7-29.14,17.51-29.14,30,0,9.42,8.13,16.84,21.55,19.76,4.49,6.06,10.33,9,18.32,9.57v-1c-6.94-.59-12.32-3.25-16-8.15a45.28,45.28,0,0,0,6.64.4c23.72,0,46.08-16,46.08-32.89,0-7.82-6.23-12.86-15.86-12.86-21.14,0-42.42,17.24-42.42,34.21a16.82,16.82,0,0,0,2.44,9.15c-8.67-2.12-13.55-7.69-13.55-15.51,0-11.94,8.67-22.54,24.8-30.1,6.51-3,11.38-4.77,17.08-5.57a45.44,45.44,0,0,0,10,1.33c2.58,0,3.66-.27,3.66-1.06S88.7,67,84.37,67c-2.44,0-3.93.13-7,.4-2.17-1.19-3.25-3.45-3.25-6.36,0-6,4.34-11.94,11.25-15.78,15.86,3.85,26,5.84,30.5,5.84,5,0,8.13-1.72,8.13-4.38" transform="translate(-4.4 -38.12)"/><path class="cls-1" d="M140.75,71.55H148V70.47h-6V67.59h5.16V66.52H142v-5.4h5.79V60h-7Zm-10.73,0h1.22V67.64h6.16v3.91h1.22V60H137.4v6.48h-6.16V60H130Zm-6.55,0h1.22V61.12h3.54V60h-8.3v1.08h3.54Z" transform="translate(-4.4 -38.12)"/><rect class="cls-1" x="103.16" y="28.36" width="12.45" height="1.06"/><rect class="cls-1" x="145.59" y="28.36" width="12.45" height="1.06"/><path class="cls-1" d="M241,120.4a27,27,0,0,1,4.34-.26c1.36,0,2.3.13,3.93.26C261.7,98.65,273,85.26,279.05,85.26a2.57,2.57,0,0,1,2.85,2.65c0,1.72-.95,3.58-5.42,9.95-6.91,9.95-7.59,11.4-7.59,15.25,0,4.38,3,7.82,7,7.82,3.25,0,6.64-2.52,12.33-9.15,3.39-4,9.62-12.2,9.62-12.6a.36.36,0,0,0-.41-.4c-.13,0-.41.13-.68.66C288.27,111.65,280,120,276.48,120a2.41,2.41,0,0,1-2.71-2.65c0-2.25.68-3.45,6.24-11.67,5-7.29,6.1-9.68,6.1-13.26,0-4.64-3-8.09-6.91-8.09-4.74,0-9.35,4.24-19.79,18.3,3.8-5.57,5-8.36,5-11.54,0-3.71-2.44-6.76-5.42-6.76s-6.64,3.58-13.69,13.26l-1.22,1.59a1,1,0,0,0-.27.53.43.43,0,0,0,.41.4c.14,0,.41-.26.95-.93,5.69-8.09,11.25-13.92,13.28-13.92.95,0,1.63.8,1.63,2,0,2.25-2.85,7.69-8.81,17.11Zm-34.43,6.9c-.41.66-.68,1.33-.81,1.33-13.69,24.8-21.82,33.55-31.17,33.55-3.25,0-5.56-2-5.56-4.91,0-7.56,10.44-16.71,30.09-26.26,5.15-2.52,5.83-2.78,7.45-3.71M219,84.86a32.53,32.53,0,0,1-4.74.4,17,17,0,0,1-3.52-.27l-10.17,16.84c-3.8,6.1-4.74,8.62-4.74,11.54,0,4.11,3.12,7.56,6.78,7.56,4.2,0,7-2.52,16.27-15l-11.66,20.29-.95.53c-2.57,1.06-5,2.25-7.59,3.45-20.47,9.28-30.63,18.17-30.63,26.92,0,3.32,2.71,5.83,6.37,5.83,5,0,11.79-3,18.7-8.49,8.27-6.5,13-12.6,20.06-25.06l3.25-5.7c10.57-5.7,14.64-8.75,21-15.65,3.25-3.45,7.32-8.49,7.32-8.88a.36.36,0,0,0-.41-.4q-.4,0-1.22,1.19c-9.22,11.54-15.32,16.84-26,22.28,12.33-21.75,14.5-25.46,22.23-37.4a24.27,24.27,0,0,1-4.47.4,17,17,0,0,1-3.66-.27l-6.1,10.21c-9.22,15.25-17.62,24.8-22,24.8a2.68,2.68,0,0,1-2.71-2.92c0-1.86,1.63-5.17,5.56-11.54Zm-16.53,15.38a1.93,1.93,0,0,0,.68-1.06c0-.27-.14-.4-.27-.4s-.54.13-.81.66C192.31,113,185.4,120,181.74,120c-1.63,0-2.58-1.06-2.58-2.92,0-3.45,0-3.45,37-63.79a12.9,12.9,0,0,1-8.13.27c-5,8.75-14,23.6-20.19,33.82-13,21.09-13.15,21.35-13.15,26.12,0,4.38,2.71,7.43,6.51,7.43,4.07,0,10-5.44,18.43-16.84Zm-49.33,2c7.32-10.08,15.72-17.11,20.46-17.11a2.08,2.08,0,0,1,2.3,2.12c0,5.17-10,11.8-22.77,15m27.11-1.33c.95-1.19,1.22-1.46,1.22-1.72s-.14-.4-.27-.4c-.41,0-.68.27-1.36,1.06-9.35,12.47-19.11,20-25.62,20-3.66,0-6.1-2.25-6.1-5.57,0-2.79,1.9-7.29,4.47-11.14,19.52-3.85,27-7.82,27-14.06,0-2.65-2.58-4.78-5.69-4.78-3.66,0-8.4,1.59-14.23,4.64-11.11,6-16.67,12.73-16.67,20.56,0,6.5,4.74,11.41,11,11.41s14.91-6,23.45-16.58ZM108.42,102c-3.66,6-4.47,8-4.47,11.14a7.84,7.84,0,0,0,8,7.82c5,0,9.22-3.45,17.08-14.06,1.36,2.12,2.71,3.05,4.88,3.05,2.85,0,6-1.86,10-5.84,3-3.18,4.2-4.51,4.2-5a.29.29,0,0,0-.27-.27c-.41,0-.68.27-1.76,1.59-4.61,5.57-9.08,8.75-12.2,8.75a4.58,4.58,0,0,1-4.34-2.92c7.86-10.87,11-16.58,11-20,0-1.19-.54-1.86-1.63-1.86-4.61,0-10.84,10.48-10.84,18.3a11.92,11.92,0,0,0,.54,3.45c-8.4,10.74-12.06,13.92-16.4,13.92-2.17,0-3.52-1.19-3.52-3,0-2.26,1.08-4.64,4.61-10.21l13.82-21.88a18.22,18.22,0,0,1-3.93.27c-1.63,0-2.71-.13-4.34-.27Z" transform="translate(-4.4 -38.12)"/><path class="cls-1" d="M286.68,118.74a2.93,2.93,0,1,0,2.93-2.94,2.93,2.93,0,0,0-2.93,2.94m.49,0a2.44,2.44,0,1,1,2.44,2.44,2.44,2.44,0,0,1-2.44-2.44m1.42,1.33a.16.16,0,0,0,.16.15H289a.16.16,0,0,0,.16-.15v-1h.6l.46,1a.19.19,0,0,0,.15.11h.28a.15.15,0,0,0,.14-.22l-.49-1a.87.87,0,0,0,.66-.89.92.92,0,0,0-1-.91h-1.16a.15.15,0,0,0-.16.16Zm.51-1.45v-.93h.8a.45.45,0,0,1,.49.47.46.46,0,0,1-.49.46Z" transform="translate(-4.4 -38.12)"/></svg>