<svg id="Layer_1" data-name="Layer 1" xmlns="http://www.w3.org/2000/svg" viewBox="0 0 155.1 133.64"><defs><style>.cls-1{fill:#54301a;}.cls-2{fill:none;stroke:#54301a;}</style></defs><title>Chandler-logo</title><path class="cls-1" d="M143.48,94.56V9.65H10.14V94.56ZM82.56,81h-26V79.87h9V52.15H38.6V79.87h9V81h-26V79.87h9V24.59h-9V23.46h26v1.13h-9V51H65.51V24.59h-9V23.46h26v1.13h-9V79.87h9V81Zm48.57,0h-1.21a7.74,7.74,0,0,0-1.29-1.17,3.9,3.9,0,0,0-2.26-.53,8.82,8.82,0,0,0-2.63.44l-3.23,1a39.79,39.79,0,0,1-4.08,1,26.15,26.15,0,0,1-5,.44,27.24,27.24,0,0,1-9.9-1.86,26.86,26.86,0,0,1-9.09-6.06,35,35,0,0,1-6.63-9.37,28,28,0,0,1-2.67-12.53,31.36,31.36,0,0,1,8.24-21.25,29.17,29.17,0,0,1,9.13-6.67A26.68,26.68,0,0,1,112,22a18.41,18.41,0,0,1,4.44.48,28,28,0,0,1,3.47,1.09l2.83,1.09a7.11,7.11,0,0,0,2.5.48,3.86,3.86,0,0,0,2.3-.53,8.64,8.64,0,0,0,1.25-1.17H130V39.62h-.89a49.16,49.16,0,0,0-1.86-6.06,17.19,17.19,0,0,0-3.15-5.29A14.94,14.94,0,0,0,119,24.55a18.64,18.64,0,0,0-7.72-1.41,18.39,18.39,0,0,0-7.35,1.33A15.51,15.51,0,0,0,98.72,28a17.26,17.26,0,0,0-3.35,5.17,31.43,31.43,0,0,0-1.9,6.22A49.26,49.26,0,0,0,92.62,46q-.2,3.35-.2,6.34a60,60,0,0,0,1.37,14.06,23.88,23.88,0,0,0,3.84,8.81,13.18,13.18,0,0,0,5.94,4.53,21.85,21.85,0,0,0,7.68,1.29A20.94,20.94,0,0,0,120,79.54a14.8,14.8,0,0,0,5.33-4A17.63,17.63,0,0,0,128.38,70q1-3.11,1.86-6.18h.89V81Z" transform="translate(-2.67 -2.33)"/><polygon class="cls-2" points="147.98 133.14 0.5 133.14 0.5 0.5 147.98 0.5 147.98 133.14 147.98 133.14"/><path class="cls-1" d="M144.2,114c0-.06-.11-.17-.22-.19a2.18,2.18,0,0,1-1.35-.81,19.54,19.54,0,0,1-2.13-3.13.22.22,0,0,1,.06-.21c.1-.07.36-.19.43-.23a2.25,2.25,0,0,0,.33-3.65,3.4,3.4,0,0,0-2.25-.58c-.74,0-1.72.07-2.23.07h-.77c-.3,0-.37.07-.37.17s.12.18.33.23c.62.15.74.18.8.69s.08,1.79.08,3.91c0,.83-.06,2.29-.08,2.71s-.29.61-.89.8c-.18.07-.3.1-.3.21s.18.19.36.19.87-.05,1.12-.05c.94,0,1.2.08,1.78.08.07,0,.33,0,.33-.18s-.1-.17-.33-.23c-.65-.15-.8-.34-.83-.92,0-.8-.07-2.55-.06-2.78,0,0,.07-.17.16-.17a2.62,2.62,0,0,1,1,.18,4.15,4.15,0,0,1,.55.69c.55.87,1.25,1.93,1.74,2.59a2.55,2.55,0,0,0,1.83.9,2.32,2.32,0,0,0,.76-.1c.08,0,.19-.1.19-.18ZM140,109.23a4,4,0,0,1-1.72.36.28.28,0,0,1-.22-.21c0-.23,0-2.89,0-3.37a.52.52,0,0,1,.17-.29,2.62,2.62,0,0,1,.66-.1,2.18,2.18,0,0,1,1.36.52,2.3,2.3,0,0,1,.62,1.38,2.07,2.07,0,0,1-.91,1.71Zm-5.9,3.36c0-.15,0-.37-.11-.37s-.17.08-.32.38a1.71,1.71,0,0,1-1.14,1,7.94,7.94,0,0,1-1.31.1,7.82,7.82,0,0,1-1.25-.1.46.46,0,0,1-.26-.3,4.27,4.27,0,0,1-.14-1.14c0-.59,0-1.87,0-2.16,0,0,.07-.12.12-.12.37,0,.92,0,1.36,0,.84,0,.89.08,1.09.72,0,.15.14.3.23.3s.17-.15.15-.4,0-.47,0-.84,0-.61,0-1c0-.11,0-.3-.11-.3s-.17.08-.25.29c-.25.63-.3.69-1.6.69h-.9c-.07,0-.08-.08-.1-.14,0-.21,0-2.8,0-3.14s.18-.39.21-.39a14.08,14.08,0,0,1,2,.05c.44.07.74.21.92.94,0,.14.1.33.22.33s.21-.17.21-.36,0-.67,0-1.31c0-.07-.08-.17-.12-.15-.21,0-.81,0-1.27,0h-2c-.92,0-1.46-.05-2.11-.05-.19,0-.39.07-.39.19s.11.17.4.23c.61.14.74.3.77.91,0,.4,0,.69,0,2.33s-.07,3.33-.11,3.91c-.06.74-.32.84-1,1-.22.06-.39.12-.39.22s.15.18.41.18c.52,0,.83-.07,1.56-.07,2.25,0,4.33.11,4.48.11s.19-.11.24-.16a11.06,11.06,0,0,0,.5-1.47Zm-8.5-.11c.06-.22,0-.37-.06-.37s-.19.06-.34.3a6.12,6.12,0,0,1-.79.92.83.83,0,0,1-.55.26,8.85,8.85,0,0,1-1,0,9.73,9.73,0,0,1-1.32-.07.94.94,0,0,1-.47-.52c-.05-.45-.1-1.78-.1-2.85,0-2,0-3.43.08-4,0-.21.12-.36.92-.54.21-.05.32-.14.32-.23s-.1-.15-.34-.15-1.27,0-1.8,0-.65,0-1,0-.41.07-.41.17.11.21.38.26c.65.12.72.39.73.69,0,.45,0,1.41,0,2,0,2,0,4.19-.07,4.53-.07.54-.26.8-1,.95-.22,0-.33.15-.33.25s.14.15.4.15.84-.07,1.78-.07c2.8,0,4,.08,4.21.08s.32-.08.33-.23a12.44,12.44,0,0,1,.43-1.49Zm-9-3a4.52,4.52,0,0,0-1.25-3,5.76,5.76,0,0,0-3.82-1.34c-1.18,0-2.74.12-3.43.12h-.39c-.21,0-.33.07-.33.18s.16.19.32.22c.84.12.86.32.88,1.2,0,1.13.07,2.76.07,3.54s0,1.24,0,1.89c0,1.09-.11,1.35-1.06,1.46-.16,0-.3.08-.3.19s.12.21.44.21h.73c.91.07,2.13.11,2.7.11a6.66,6.66,0,0,0,3.28-.77,4.67,4.67,0,0,0,2.2-4Zm-1.34,0a3.94,3.94,0,0,1-4,4.34,2.43,2.43,0,0,1-1.13-.36.91.91,0,0,1-.3-.65c0-.6-.06-1.42-.06-2.38v-2c0-1.23,0-2.45.06-2.62s0-.11.14-.18a2.55,2.55,0,0,1,.95-.11,5.2,5.2,0,0,1,2.86.81,4.12,4.12,0,0,1,1.47,3.14Zm-9.52-4.16c0-.11-.08-.15-.32-.15s-.8.05-1.29.05h-1.18c-.17,0-.36,0-.36.12s.1.22.37.3c.76.22.85.55.87.84s.07.91.07,1.38c0,2,0,3.47,0,3.91,0,0-.05.18-.14.1-.92-1-4-4.31-4.57-5.1s-.88-1.12-1.09-1.36a.55.55,0,0,0-.29-.18c-.7,0-1.38,0-1.68,0s-.46.05-.46.17.15.18.3.22c.62.17.77.18,1.16.63,0,0,.1.17.1.66,0,1.14-.19,4.45-.26,5.56s-.32,1.07-1,1.3c-.14,0-.28.12-.28.23s.16.15.36.15l.89,0c.5,0,1.07.07,1.47.07s.44,0,.44-.18-.06-.18-.34-.25c-.66-.19-.81-.4-.87-1,0-.43,0-2.55,0-3.79,0-1.07.05-1.46.07-1.83,0-.07.1-.1.15,0,1.24,1.49,3.62,4.17,4.92,5.72.37.45.62.81.85,1.1s.43.44.62.44.19-.15.19-.29-.1-1.25-.1-1.83c0-2.37.13-5.08.15-5.58,0-.74.29-.87.88-1,.25-.07.33-.19.33-.27ZM94.58,114c0-.1-.11-.17-.33-.23-.62-.15-.84-.26-1.29-1.39-.24-.56-1.27-3.29-2-5.3-.26-.72-.5-1.34-.61-1.71s-.16-.36-.22-.36-.12.05-.22.16-.29.51-.41.68a.16.16,0,0,0,0,.11.72.72,0,0,1-.08.29c-.61,1.49-2.18,5.65-2.49,6.35-.4.9-.58.94-1.27,1.17-.21.07-.3.19-.3.28s.07.14.32.14.92-.07,1.43-.07.85,0,1.09,0,.39,0,.39-.18-.14-.18-.37-.25c-.62-.19-.68-.43-.68-.59a11,11,0,0,1,.72-2.41s.1-.11.15-.11c.29,0,1.5-.05,2.26-.05.4,0,.45.08.47.14a20.63,20.63,0,0,1,.77,2.35c.06.29.11.57-.55.7-.25,0-.33.15-.33.22s.08.17.43.17.54,0,1,0c.6,0,1.28.07,1.74.07s.44-.08.44-.18Zm-3.77-4.17a.12.12,0,0,1,0,.11c-.46,0-1.6,0-2.15,0a.07.07,0,0,1-.07-.1c.11-.43.83-2.36,1.07-3,0-.1.07-.08.11,0s.84,2.26,1.07,3ZM84,105.38c0-.11-.17-.17-.39-.17s-.79,0-1.25,0l-1.4,0c-.29,0-.43.05-.43.15s.15.21.34.26c.62.17.72.28.76.79s0,2.34,0,2.52-.07.36-.15.36c-2.44,0-4.31,0-5.12,0-.1,0-.14,0-.15-.27s0-2.05,0-2.51.08-.79.73-.91c.29-.05.4-.12.4-.26s-.15-.15-.44-.15-.73,0-1.31,0l-1.25,0c-.22,0-.4.05-.4.15s.1.21.38.26c.58.12.66.32.69.79s0,1.87,0,2.12c0,2.24-.08,3.8-.12,4.37s-.17.67-.87.85c-.15,0-.32.12-.32.26s.11.14.41.14c.47,0,1-.05,1.36-.05.5,0,1.34.05,1.43.05s.41,0,.4-.14-.11-.19-.41-.27c-.58-.18-.73-.43-.74-1.08,0-.4,0-2.16,0-2.52a.28.28,0,0,1,.15-.23c.28,0,3,0,5.12,0,.11,0,.17,0,.17.29,0,.69,0,1.64-.06,2.22,0,1-.11,1.13-.85,1.35-.15,0-.3.13-.3.25s.14.15.35.15,1.31-.08,1.61-.08.92,0,1.14,0,.39,0,.39-.15-.12-.19-.32-.26c-.62-.18-.76-.23-.79-.77,0-.21-.05-1.43-.05-2,0-2.34,0-3.84.11-4.55,0-.4.14-.65.72-.79.29-.07.4-.16.4-.23Zm-12.13,6.86c0-.15,0-.46-.12-.46s-.11.07-.29.36a3.08,3.08,0,0,1-1.28,1.34,3.17,3.17,0,0,1-1.5.37,4,4,0,0,1-3.49-2.2,5,5,0,0,1-.48-2.27,3.7,3.7,0,0,1,3.64-3.91,3.45,3.45,0,0,1,2.2.72,2.13,2.13,0,0,1,.56,1c.07.21.15.36.22.36s.22-.17.21-.45-.1-.91-.1-1.2-.14-.41-.21-.41-.69-.21-1-.26a7.67,7.67,0,0,0-1.63-.22,5.68,5.68,0,0,0-3.73,1.27,4.58,4.58,0,0,0-1.51,3.3,4.65,4.65,0,0,0,1.16,3.17,5.33,5.33,0,0,0,3.91,1.61,8.34,8.34,0,0,0,2.51-.38,1.1,1.1,0,0,0,.43-.36,5,5,0,0,0,.55-1.39Zm-13.61.25c.06-.22,0-.37-.05-.37s-.19.06-.34.3a6.12,6.12,0,0,1-.79.92.84.84,0,0,1-.55.26,8.85,8.85,0,0,1-1,0,9.73,9.73,0,0,1-1.32-.07.94.94,0,0,1-.47-.52c-.06-.45-.1-1.78-.1-2.85,0-2,0-3.43.08-4,0-.21.12-.36.92-.54.21-.05.32-.14.32-.23s-.1-.15-.34-.15-1.27,0-1.8,0-.65,0-1,0-.41.07-.41.17.11.21.39.26c.65.12.72.39.73.69,0,.45,0,1.41,0,2,0,2,0,4.19-.07,4.53-.07.54-.26.8-1,.95-.22,0-.33.15-.33.25s.14.15.4.15.84-.07,1.78-.07c2.8,0,4,.08,4.21.08s.32-.08.33-.23a12.45,12.45,0,0,1,.43-1.49Zm-8.55.11c0-.15,0-.37-.11-.37s-.17.08-.32.38a1.71,1.71,0,0,1-1.14,1,8,8,0,0,1-1.31.1,7.83,7.83,0,0,1-1.25-.1.46.46,0,0,1-.26-.3,4.25,4.25,0,0,1-.14-1.14c0-.59,0-1.87,0-2.16,0,0,.07-.12.12-.12.37,0,.92,0,1.36,0,.84,0,.9.08,1.09.72,0,.15.14.3.23.3s.17-.15.15-.4,0-.47,0-.84,0-.61,0-1c0-.11,0-.3-.11-.3s-.17.08-.25.29c-.25.63-.3.69-1.6.69h-.9c-.07,0-.08-.08-.1-.14,0-.21,0-2.8,0-3.14s.18-.39.21-.39a14.09,14.09,0,0,1,2,.05c.44.07.74.21.92.94,0,.14.1.33.22.33s.21-.17.21-.36,0-.67,0-1.31c0-.07-.08-.17-.12-.15-.21,0-.81,0-1.27,0h-2c-.92,0-1.46-.05-2.11-.05-.19,0-.39.07-.39.19s.11.17.4.23c.61.14.74.3.77.91,0,.4,0,.69,0,2.33s-.07,3.33-.11,3.91c-.05.74-.32.84-1,1-.22.06-.39.12-.39.22s.15.18.41.18c.52,0,.83-.07,1.56-.07,2.25,0,4.32.11,4.48.11s.19-.11.23-.16a11,11,0,0,0,.5-1.47Zm-8.5-7.36c.07-.19,0-.32-.05-.32s-.1,0-.19.08a1.68,1.68,0,0,1-.94.25l-3.15,0c-1.76,0-2.86,0-3.22-.08a.91.91,0,0,1-.47-.26c-.15-.12-.15-.22-.22-.22a.27.27,0,0,0-.21.22,13.63,13.63,0,0,1-.26,1.82c0,.14.06.32.14.32s.14,0,.26-.28a2.91,2.91,0,0,1,.45-.72,1.23,1.23,0,0,1,1-.32c.22,0,1.43,0,1.71.07,0,0,.11.07.11.18v1.64c0,1.06-.07,3.87-.1,4.68,0,1-.07,1.27-1,1.49-.12,0-.26.14-.26.23s.14.16.41.16.88-.1,1.57-.1,1.46.07,1.57.07.39,0,.39-.17-.19-.21-.37-.25c-.85-.19-.92-.36-1-1s-.06-1.82-.06-3.42V106s.06-.17.12-.18,1.69,0,1.93,0c.85,0,1,.11,1.12.83,0,.35.1.44.19.44s.22-.14.23-.26a7.74,7.74,0,0,1,.3-1.57Zm-10.1,4.34A4.61,4.61,0,0,0,26.29,105a4.94,4.94,0,0,0-2.82,1,4.53,4.53,0,0,0-1.79,3.71,4.66,4.66,0,0,0,1.14,3.11,4.8,4.8,0,0,0,3.58,1.57,5,5,0,0,0,2.71-.8,4.81,4.81,0,0,0,2-4Zm-1.35.41a4.41,4.41,0,0,1-1.17,3.25,2.35,2.35,0,0,1-1.82.66c-2.2,0-3.72-2.35-3.72-4.41a4.38,4.38,0,0,1,1.07-3.24,3,3,0,0,1,1.9-.79,3.65,3.65,0,0,1,2.07.74A4.93,4.93,0,0,1,29.72,110Zm-10.11-4.61c0-.11-.17-.17-.39-.17s-.79,0-1.25,0l-1.4,0c-.29,0-.43.05-.43.15s.15.21.34.26c.62.17.72.28.76.79s0,2.34,0,2.52-.07.36-.15.36c-2.44,0-4.31,0-5.12,0-.1,0-.14,0-.15-.27s0-2.05,0-2.51.08-.79.73-.91c.29-.05.4-.12.4-.26s-.15-.15-.44-.15-.73,0-1.31,0l-1.25,0c-.22,0-.4.05-.4.15s.1.21.39.26c.58.12.66.32.69.79s0,1.87,0,2.12c0,2.24-.08,3.8-.12,4.37s-.17.67-.87.85c-.15,0-.32.12-.32.26s.11.14.41.14c.47,0,1-.05,1.36-.05.5,0,1.34.05,1.43.05s.41,0,.4-.14-.11-.19-.41-.27c-.58-.18-.73-.43-.74-1.08,0-.4,0-2.16,0-2.52a.28.28,0,0,1,.15-.23c.28,0,3,0,5.12,0,.11,0,.17,0,.17.29,0,.69,0,1.64-.06,2.22,0,1-.11,1.13-.85,1.35-.15,0-.3.13-.3.25s.14.15.34.15,1.31-.08,1.61-.08.92,0,1.14,0,.39,0,.39-.15-.12-.19-.32-.26c-.62-.18-.76-.23-.79-.77,0-.21-.06-1.43-.06-2,0-2.34,0-3.84.11-4.55,0-.4.14-.65.72-.79.29-.07.4-.16.4-.23Z" transform="translate(-2.67 -2.33)"/><path class="cls-1" d="M135.48,125.16a1.13,1.13,0,1,0-1.13,1.13,1.13,1.13,0,0,0,1.13-1.13Zm-8.22-.17,2.3-2.93h-1.07l-1.68,2.14-1.66-2.14h-1.07l2.3,2.92v3.28h.89V125Zm-8.67-2.13h2.15v-.8h-5.18v.8h2.15v5.4h.89v-5.4Zm-8,5.4h.89v-6.2h-.89v6.2Zm-6.53.08a4.55,4.55,0,0,0,2.25-.54v-1a4.06,4.06,0,0,1-2.16.7,2.32,2.32,0,0,1-2.51-2.35,2.36,2.36,0,0,1,2.47-2.37,4.08,4.08,0,0,1,2.14.65v-1a5.38,5.38,0,0,0-2.13-.51,3.23,3.23,0,0,0-3.4,3.27,3.17,3.17,0,0,0,3.35,3.09Zm-12.68-.08L88.06,125l2.7-2.94H89.65L87,124.9v-2.84h-.89v6.2H87V125.2l3.15,3.06Zm-10.2,0h1.06c-.43-.59-.58-.8-.85-1.23a5.05,5.05,0,0,0-1.38-1.72,1.55,1.55,0,0,0,1-1.52c0-1.07-.78-1.74-2-1.74H77.5v6.2h.89v-2.69h.37c.46,0,.83.15,1.65,1.42l.82,1.27ZM79,124.77h-.57v-1.95H79c.86,0,1.21.35,1.22.94s-.26,1-1.22,1Zm-5.75.39a3.34,3.34,0,1,0-3.35,3.18,3.16,3.16,0,0,0,3.35-3.18Zm-.92,0a2.41,2.41,0,1,1-2.42-2.37,2.33,2.33,0,0,1,2.42,2.37ZM61.38,125l2.3-2.93H62.6l-1.68,2.14-1.66-2.14H58.18l2.3,2.92v3.28h.89V125Zm-13.25,3.33,2.52-6.26h-.88l-1.69,4.27-1.73-4.27H45.5l-1.72,4.27-1.71-4.27h-.89l2.51,6.26h.17l2.06-5.07,2,5.07Zm-14-.05h3.6v-.8H35v-1.93h2.54v-.8H35v-1.87h2.63v-.8H34.14v6.2Zm-5.31,0h.76v-6.2h-.84v4.8l-4.2-4.8h-.71v6.2h.84v-4.77l4.15,4.77Zm-9.32-3.1a1.13,1.13,0,1,0-1.13,1.13,1.13,1.13,0,0,0,1.13-1.13Z" transform="translate(-2.67 -2.33)"/><path class="cls-1" d="M154.57,133.15v-.86h.74a.42.42,0,0,1,.46.43.43.43,0,0,1-.46.43Zm-.48,1.35a.14.14,0,0,0,.15.14h.2a.14.14,0,0,0,.15-.14v-.91h.56l.43.95a.18.18,0,0,0,.13.11H156a.14.14,0,0,0,.13-.2l-.45-.89a.8.8,0,0,0,.61-.82.86.86,0,0,0-.93-.85h-1.07a.14.14,0,0,0-.15.14v2.48Zm-1.31-1.23a2.26,2.26,0,1,1,2.26,2.26,2.26,2.26,0,0,1-2.26-2.26m-.45,0a2.72,2.72,0,1,0,2.71-2.72,2.72,2.72,0,0,0-2.71,2.72" transform="translate(-2.67 -2.33)"/></svg>