<svg xmlns="http://www.w3.org/2000/svg" width="23" height="19" viewBox="0 0 23 19">
  <metadata><?xpacket begin="﻿" id="W5M0MpCehiHzreSzNTczkc9d"?>
<x:xmpmeta xmlns:x="adobe:ns:meta/" x:xmptk="Adobe XMP Core 5.6-c138 79.159824, 2016/09/14-01:09:01        ">
   <rdf:RDF xmlns:rdf="http://www.w3.org/1999/02/22-rdf-syntax-ns#">
      <rdf:Description rdf:about=""/>
   </rdf:RDF>
</x:xmpmeta>
                                                                                                    
                                                                                                    
                                                                                                    
                                                                                                    
                                                                                                    
                                                                                                    
                                                                                                    
                                                                                                    
                                                                                                    
                                                                                                    
                                                                                                    
                                                                                                    
                                                                                                    
                                                                                                    
                                                                                                    
                                                                                                    
                                                                                                    
                                                                                                    
                                                                                                    
                                                                                                    
                           
<?xpacket end="w"?></metadata>
<defs>
    <style>
      .cls-1 {
        fill-rule: evenodd;
      }
    </style>
  </defs>
  <path id="Pinterest" class="cls-1" d="M60.784,7.648a4.781,4.781,0,0,0-5.065-4.582c-3.8,0-5.717,2.724-5.717,5a3.08,3.08,0,0,0,1.638,3.055,0.275,0.275,0,0,0,.4-0.2c0.037-.14.124-0.494,0.163-0.642a0.388,0.388,0,0,0-.115-0.446,2.3,2.3,0,0,1-.528-1.568A3.788,3.788,0,0,1,55.5,4.431,2.994,2.994,0,0,1,58.828,7.5c0,2.306-1.021,4.252-2.536,4.252a1.238,1.238,0,0,1-1.263-1.54,17.157,17.157,0,0,0,.706-2.838,1.071,1.071,0,0,0-1.079-1.2,1.836,1.836,0,0,0-1.543,2.07,3.077,3.077,0,0,0,.255,1.266L52.34,13.863a8.975,8.975,0,0,0-.024,3.039,0.106,0.106,0,0,0,.19.046,8.537,8.537,0,0,0,1.444-2.617c0.1-.356.563-2.2,0.563-2.2a2.293,2.293,0,0,0,1.954,1c2.572,0,4.317-2.344,4.317-5.481"/>
  <path id="Instagram" class="cls-1" d="M16.34,2.716H5.407A1.365,1.365,0,0,0,4.041,4.072V14.919a1.365,1.365,0,0,0,1.367,1.356H16.34a1.365,1.365,0,0,0,1.367-1.356V4.072A1.365,1.365,0,0,0,16.34,2.716ZM10.874,6.784A2.712,2.712,0,1,1,8.141,9.5,2.731,2.731,0,0,1,10.874,6.784ZM5.749,14.919a0.322,0.322,0,0,1-.342-0.339V8.818H6.842a2.291,2.291,0,0,0-.068.678,4.1,4.1,0,0,0,8.2,0,2.291,2.291,0,0,0-.068-0.678H16.34v5.763a0.321,0.321,0,0,1-.342.339H5.749ZM16.34,5.767A0.322,0.322,0,0,1,16,6.106H14.632a0.322,0.322,0,0,1-.342-0.339V4.411a0.322,0.322,0,0,1,.342-0.339H16a0.322,0.322,0,0,1,.342.339V5.767Z"/>
  <path id="Google_Plus" data-name="Google Plus" class="cls-1" d="M-43.924,9.708A5.948,5.948,0,0,1-38,4.026,5.993,5.993,0,0,1-34.03,5.5a21.249,21.249,0,0,1-1.506,1.572,3.9,3.9,0,0,0-4.62-.123,3.852,3.852,0,0,0-.162,5.974c1.807,1.652,5.222.832,5.721-1.7-1.132-.017-2.266,0-3.4-0.037,0-.68-0.006-1.361,0-2.041,1.892-.006,3.784-0.009,5.679.006a6.9,6.9,0,0,1-1.072,4.628,5.834,5.834,0,0,1-6.759,1.81A5.993,5.993,0,0,1-43.924,9.708ZM-28.63,7.433h1.688c0,0.569.006,1.141,0.011,1.709,0.564,0.006,1.132.006,1.7,0.012v1.7l-1.7.014c-0.006.572-.008,1.141-0.011,1.709h-1.69c-0.006-.569-0.006-1.138-0.011-1.707l-1.7-.017v-1.7c0.564-.006,1.129-0.009,1.7-0.012C-28.641,8.571-28.636,8-28.63,7.433Z"/>
  <path id="Twitter" class="cls-1" d="M-73.488,4.945a6.764,6.764,0,0,1-1.906.511,3.267,3.267,0,0,0,1.459-1.794,6.729,6.729,0,0,1-2.108.787,3.35,3.35,0,0,0-2.423-1.024,3.282,3.282,0,0,0-3.319,3.244,3.188,3.188,0,0,0,.086.739A9.5,9.5,0,0,1-88.54,4.018a3.171,3.171,0,0,0-.449,1.63,3.224,3.224,0,0,0,1.476,2.7,3.365,3.365,0,0,1-1.5-.406V7.984a3.266,3.266,0,0,0,2.663,3.181,3.407,3.407,0,0,1-.874.114,3.353,3.353,0,0,1-.624-0.059,3.314,3.314,0,0,0,3.1,2.253,6.759,6.759,0,0,1-4.123,1.388,6.98,6.98,0,0,1-.792-0.045,9.555,9.555,0,0,0,5.088,1.457,9.268,9.268,0,0,0,9.443-9.23c0-.141,0-0.28-0.009-0.419a6.661,6.661,0,0,0,1.656-1.679h0Z"/>
  <path id="Facebook" class="cls-1" d="M-127.4,6.822h-2.008V5.447c0.146-1.3,2.232-1.053,2.232-1.053V2.16h0c-0.072-.017-4.148-1.014-4.958,2.181a0,0,0,0,1,0,0,0.159,0.159,0,0,1,0,.021,16.823,16.823,0,0,0-.117,2.458H-134V9.267h1.848v6.652h2.692V9.267h2.058l0.232-2.445H-127.4Z"/>
</svg>
