<svg id="Layer_1" data-name="Layer 1" xmlns="http://www.w3.org/2000/svg" viewBox="0 0 162 122.9"><defs><style>.cls-1{fill:#a8996e;}.cls-2{fill:#231f20;}</style></defs><title>Iroquois_logo</title><path class="cls-1" d="M139.93,32.65c-2.05,1.1-3,4.21-2.68,6.89.11,1,.68,1.83.77,2.68.29,2.76-.52,3.72-1.53,5.17,2-1.32,4.47-3.18,5.36-5.36,1.27-3.12-1.89-6.08-1.91-9.38ZM137.25,24h-.38c-3.53,1.06-6,3.38-5.55,6.7.25,2,2.32,3.53,2.11,6.13,1.94-.94,2.68-2.74,2.3-5-.09-.55-.5-.94-.57-1.53-.44-3.47,1-4.64,2.11-6.32Zm-5.36-1.34c-.21-1.62-1.34-3-1.53-4.21-.24-1.58.37-1.89.77-2.68.11-.22.82-1,.19-1.15-6.17.7-3.39,10.34-1.91,14.17,2.66-1,2.84-3.46,2.49-6.13Zm-6.51-8.62A21,21,0,0,1,127.1,7h-.57c-3.57,1.63-5.2,6.12-4.4,11.49-3.07-1.34-4.43-4.38-6.13-7.08-.5,2.07-1,4.36,0,6.13.71,1.27,2.68,1.74,3.83,2.68,3.54,2.89,6.52,8.68,8.81,13.59.83,1.78,2.24,3.5,2.68,5.17,2.75,10.36-1.08,23.12-6.7,29.48a39.89,39.89,0,0,1-4.21,3.64,12.3,12.3,0,0,1-4.79,3.06c-.23-7.42,10.41-7.53,8.61-15.89-2,1.81-6.54,2.78-6.89,6.89-2.75-.87-5.17,1.45-7.85,1.72-1,.1-1.93-.25-2.87-.19a10.47,10.47,0,0,0-5.36,1.91c-2.79,2.33-2.11,6.81-5.17,9,4.21-.12,7.09-1.35,9-3.83.64-.82,1.12-2,1.72-2.87s1-2,2.1-2.11c-.52,2.87-1.07,5.69-3.06,7.08,3-.45,5.21-1,6.51-3.25.69-1.22.85-3,1.72-4.21.76-1.09,1.77-2.22,3.64-1.91.77,1.28-.72,1.71-1.34,2.3-1.83,1.71-2.76,4-3.83,6.7a30.8,30.8,0,0,1-9,2.87c-3.63.62-7.49.49-10.72,1.15-1.17.24-2.36,1.13-3.45,1.15s-2.56-.81-3.83-1.15c-3.79-1-8.26-1.46-12.25-2.11C62.36,76.64,54.38,71.48,49,64.05A24.16,24.16,0,0,1,44.4,49.31a37.43,37.43,0,0,1,4.79-18.57,20.71,20.71,0,0,0,1.34-1.91,24.14,24.14,0,0,1,.77-2.68c1.08-2,3.35-3.76,5.36-5.36,1.38-1.1,3-2,3.64-3.45.83-1.82.72-4.27.19-6.89-1.73,2.48-2.17,6.26-5.17,7.47-.4-4.83-1.46-9-5.17-10.53C53.79,17.24,49.21,28,45.35,35c-.36.64-.44,1.83-1.34,1.91-1.15-2,1.08-3.62,1.34-5.36a7.6,7.6,0,0,0-1.53-5.17,5.38,5.38,0,0,0-4.4-2.3c-.14.78.66,1.05,1,1.53a7.19,7.19,0,0,1,1.15,3.06c.17,1.56-.74,3.07-.57,4.79.23,2.33,3,3.29,3.25,5.17.19,1.37-.94,4.19-1.15,5.74-.84,6.22-.37,12.85,2.11,17.8,3.21,6.42,9.8,11.4,16.27,14.74a63.55,63.55,0,0,0,11.1,4.4c4,1.18,8.3,1.66,12.64,2.87-.12,1.1-1.27,2-2.11,2.87s-1.94,1.71-2.3,2.87c1.71,0,3.13-.32,4.79-.38.66-1.62,1.52-4,3.06-3.83s1.73,3.05,3.26,3.83a11.35,11.35,0,0,1,4.4-.19c-.34-2-3.44-2.94-3.83-5.55,10.93-1.46,20.58-3.82,28.34-9,7.11-4.75,13.68-12.56,13.78-23.36a42.3,42.3,0,0,0-4-17.8c-2.48-5.66-5.7-11-5.17-19.53ZM121.93,30c1.38.64,2.56,1.54,3.64,1.53.1-6.16-5.15-7-8.42-9.76-.14-.63-.09-1.44-.77-1.53-3.12,5.15,2.1,8.16,5.55,9.76Zm-1,1.72c-.08,6.85,6.26,7.82,9.38,11.1-.07-.08.31,1.2.57.38-.27-2.73-.61-4.93-1.72-6.51-1.88-2.66-5.94-2.74-8.23-5Zm3.25,15.7c1.13,1.48,3.12,2.16,4.4,3.45.78.78.86,2,1.91,2.49.77-2.69,1-5.82-.38-7.47-1.19-1.44-3.66-2-5.17-3.25-.91-.78-1.13-1.61-1.91-2.49-.49,3.58-.16,5.56,1.15,7.28ZM126,60.61c.07.69-.35,1.75.38,2.3,1.4-2.34,3.35-5.86,1.91-9-1-2.11-3.61-2.57-5.17-4A36.13,36.13,0,0,1,126,60.61ZM92.26,21.74c2.88-.31,6.19-.19,8-1.53H68.71c-.21,0-.3.21-.38.38a20.66,20.66,0,0,0,8,1c1.34,1.72,1,4.19,1.15,6.51.36,6.76.23,13.36.19,20.1,0,4.47.13,8.88-1,12.64-2.38.16-10.14,1.64-10,4,.09,1.24,2.06,1.71,3.83,1.15.86-.63-.22-1.89,0-2.3,6.75-1.81,14.72-2.24,22.78-1.91s16.12,1.29,23,1.91c-7.25-2.13-16-2.76-24.12-4-1.33-11.28-1.51-26.68,0-37.91ZM90,59.84c-2.18-.14-3.77.31-5.94.19,0-13,0-25.87,0-38.1h5.55c-.22,11.82-.63,26.16.38,37.91Zm-22,8.81c-1.6-1.44-4.46-3.31-7.47-2.11,1,1.2,1.9,1.61,2.87,2.87,1.21,1.57,1.29,3.62,2.3,5.17s3.48,2.55,6.13,2.3c-.88-2.7-2.93-5.23-3.26-7.85,1.25.23,1.56,1.37,2.11,2.3,2.07,3.48,4.95,8.2,10.15,6.89a11.55,11.55,0,0,1-2.11-2.3c-1-1.66-1.33-4.16-2.49-5.55-1.62-1.95-4.87-2.4-8.23-1.72ZM51.29,31.12c5-.75,12.11-4.28,9-11.3,0-.15-.16-.22-.38-.19-1.43,5.27-8.69,4.71-8.62,11.49ZM46.69,41.84c1.25-.05,1.73-1,2.87-1.72,2-1.17,4.76-1.68,6.32-3.06,1.73-1.54,2.22-4,2.49-6.51-4.74,2.92-11.59,3.73-11.68,11.3Zm-.77,9.57c1.15-.23,1.45-1.16,2.49-1.72.84-.46,1.76-.37,2.68-.77a13.81,13.81,0,0,0,3.64-2.87A8.79,8.79,0,0,0,57,41.84c-7.12.11-12.13,1.45-11.1,9.57ZM49,60.8c.37-4.74,2.26-8,4-11.3-3.69-.06-5.71,2.93-5.74,6.32,0,1.78.43,4.13,1.72,5Zm3.25-5.74c.4,2.85-1,4.21-.77,6.32.46,3.46,6,5.65,6.7,9.19.69-2.31,2.11-5.78.77-8-.76-1.27-3.62-1.3-4.59-2.87-1.13-1.83.11-2.91-1.53-4.4a.9.9,0,0,1-.57-.19Zm-4.59-27a18.09,18.09,0,0,0,1.72-8.42c-.13-1.45-.57-3.56-1.34-4.4s-3-1.3-3.64-1.34c2.57,1.22,1.16,3.91,1,7.27s.25,5.65,2.3,6.89ZM40.18,35c-.52-1.53-2.84-4.06-3.83-5-.46,7-1.15,15.77,3.06,19.14-1-4.81,2.2-9.92.77-14.17ZM33.87,47c-.14,3.58,1.18,5.71,2.49,7.85.91.56,2,1,3.06,1.53s2,1.3,2.87,1.34c-.42-6-5-7.76-8.42-10.72ZM35.21,58.5c-.12,2.23.21,4.27,1.34,5.55A15.12,15.12,0,0,0,39.23,66c2.15.74,5.39-.28,7.28.57-1.37-1.15-1.43-3.26-3.06-4.4A18,18,0,0,0,40.57,61c-2-.75-3.19-1.1-4.4-2.11-.09-.07-.7-1-1-.38Zm7.28,12.64c-.1,2.22.9,3.23,1.91,4.4a12.77,12.77,0,0,0,2.11,2.11c2.68,1.65,7,.17,10.15,1.34,1.11.41,1.36,1.33,2.68,1.34a5.22,5.22,0,0,0-2.11-4.59c-3.74-2.82-12.47,0-14.55-4.4,0-.12,0-.23-.19-.19ZM54.73,81.66c1.12,1.81,2.3,3.67,4.4,3.83,3.2.24,6.83-3.14,10.53-1.91-1.56-1.5-3.09-3.47-5.36-3.64S60.09,82.12,57.41,82c-1,0-1.46-.53-2.68-.38ZM61.44,87c1.18,1.69,4.16,3,6.89,3.25,1.65.17,4.22.08,5.55-.77.73-.46,1-1.52,1.72-2.11,1.38-1.18,3-1.45,4.79-2.11-1.06-1.57-3-1.84-4.4-1.91-5-.26-8.63,5.38-14.55,3.64Zm41-3.45a5.59,5.59,0,0,0-4.79,1.72c.84.59,1.92.77,2.68,1.34s1.14,1.79,2.11,2.3c3.34,1.46,9.43.84,11.87-1-4.71.29-7.75-4-11.87-4.4Zm15.12,2.11c2.83-.08,4.8-2.2,6.13-4.59-2.13.56-4.61,1.24-7.08.38-1.53-.53-2.14-1.84-4.21-1.34-1.5.36-4.1,1.94-4.21,3.45,3.28-1.41,6.08,2.2,9.38,2.11Zm7.66-5.93a10.57,10.57,0,0,0,3.25-1.15c2.79-1.41,4.07-2.84,4.6-5.74-3.16,2.71-7.41,1.51-11.1,2.49-2.24.6-2.34,3.11-3.64,5,2.17-1.27,4.65-.36,6.89-.57ZM132.08,69c2.42-.77,4.78-.63,6.51-1.91,2.21-1.64,3.12-4,3.45-7.85h-.57c-1.63,3-6.94,2.38-9.19,4.79-.45,2.26-3.17,3.17-2.68,5.74.92.24,1.66-.5,2.49-.77Zm10-23.74c-.25,0-.27-.25-.57-.19-2.91,3.94-7.12,8.34-6.51,14.55.63.41,1.1-.44,1.53-.77,1.57-1.16,3.74-2.48,4.79-3.83,1.78-2.29.13-6.12.77-9.76Z" transform="translate(-7 -7)"/><path class="cls-2" d="M9.4,113.3h5.25v-.41c-1.23,0-1.54-.18-1.54-1.31v-8.35h1.34c1.26,0,1.76.51,2.11,2H17l-.26-2.78H7.26L7,105.2h.48c.35-1.47.85-2,2.11-2h1.34v8.35c0,1.14-.3,1.26-1.54,1.31v.41Zm11.25-6a3,3,0,0,1,1.73-.64c.54,0,1,.26,1,1.28v3.94c0,.85-.11.95-.93,1v.41h3.78v-.41c-.82,0-.93-.14-.93-1v-3.81c0-1.7-.7-2.49-2.32-2.49a4.1,4.1,0,0,0-2.29,1v-4.43c0-.13,0-.18-.11-.18s-1.84.54-2.73.67v.41c.69,0,.93.11.93.82v8c0,.87-.11,1-.93,1v.41h3.78v-.41c-.82,0-.93-.14-.93-1v-4.58ZM33.34,109c-.1-1.89-1.15-3.42-3.1-3.42s-3.33,1.7-3.33,4.21a3.42,3.42,0,0,0,3.34,3.7,3.56,3.56,0,0,0,3.25-2.42l-.3-.27A2.64,2.64,0,0,1,31,112.09c-1.43,0-2.16-1.12-2.16-3.07Zm-4.51-.64c0-.91.19-2,1.3-2s1.3,1.14,1.3,2Zm13.38-4.23c0-1.14.3-1.26,1.6-1.31v-.41H38.43v.41c1.3,0,1.6.18,1.6,1.31v7.43c0,1.14-.3,1.26-1.6,1.31v.41H43.8v-.41c-1.3,0-1.6-.18-1.6-1.31v-7.43Zm6.48,9.15v-.41c-.75,0-1.15-.21-1.15-1V107.7c.24-.37.53-.64.83-.64a.76.76,0,0,1,.42.16,1.09,1.09,0,0,0,.78.32.85.85,0,0,0,.85-.88,1,1,0,0,0-1.07-1.07A2.1,2.1,0,0,0,47.56,107h0v-1.14c0-.13,0-.24-.08-.24s-1.9.49-2.73.64v.41c.7,0,.9.16.9.94V112c0,.67-.26.83-.9.93v.41Zm9.71-3.76a3.63,3.63,0,1,0-3.62,4,3.64,3.64,0,0,0,3.62-4Zm-2,0c0,2.32-.46,3.31-1.6,3.31s-1.6-1-1.6-3.31.46-3.31,1.6-3.31,1.6,1,1.6,3.31ZM64,111.75a1.33,1.33,0,0,1-1,.4c-1.2,0-1.81-1.12-1.81-2.79,0-1.92.67-3.14,1.83-3.14a.9.9,0,0,1,1,.93v4.6Zm2.75,5v-.41c-.53,0-.83-.16-.83-.7v-10h-.35l-.83.54a3.86,3.86,0,0,0-1.9-.54c-2.51,0-3.6,2.35-3.6,4.56,0,1.92,1.12,3.34,2.78,3.34a2.63,2.63,0,0,0,2-.93v3.07c0,.54-.26.7-1,.7v.41Zm.55-11v.41c.82,0,.93.14.93,1V111c0,1.7.7,2.5,2.32,2.5a4.09,4.09,0,0,0,2.29-1v.83c0,.08,0,.16.11.16s2.3-.49,2.74-.58v-.42c-.74,0-.93-.16-.93-.94v-5.78H71.9v.41c.82,0,.93.14.93,1v4.58a3,3,0,0,1-1.73.64c-.55,0-1-.26-1-1.28v-5.34Zm16.48,3.76a3.63,3.63,0,1,0-3.62,4,3.64,3.64,0,0,0,3.62-4Zm-2,0c0,2.32-.46,3.31-1.6,3.31s-1.6-1-1.6-3.31.46-3.31,1.6-3.31,1.6,1,1.6,3.31Zm6.7,3.76v-.41c-.66,0-.94-.35-.94-1v-6c0-.18,0-.29-.14-.29a24.56,24.56,0,0,1-2.75.61v.41c.69,0,1,.18,1,1.25v4c0,.67-.14,1-1,1v.41Zm-1.9-8.9a1.14,1.14,0,0,0,1.12-1.12,1.12,1.12,0,1,0-2.24,0,1.14,1.14,0,0,0,1.12,1.12Zm2.88,9.09h.41c0-.24.13-.42.29-.42a5,5,0,0,1,.86.27,4.8,4.8,0,0,0,1.26.14,2.22,2.22,0,0,0,2.51-2.26c0-1.26-.69-1.78-1.76-2.3l-1.35-.67c-.66-.34-.83-.59-.83-1a.89.89,0,0,1,1-1c1.18,0,1.83.93,2.15,2h.51v-2.56h-.41c-.06.22-.11.38-.38.38s-.59-.42-1.75-.42a2.17,2.17,0,0,0-2.38,2.08,2.2,2.2,0,0,0,1.37,2.23l1.18.66c.74.4,1.22.64,1.22,1.34s-.51,1-1.1,1a2.64,2.64,0,0,1-2.35-2.11h-.41v2.75Zm19.8-3.58-6.48-7.49h-3v.41a2.1,2.1,0,0,1,1.47,1.1v7.33c0,1.06-.29,1.49-1.47,1.62v.41h3.84v-.41c-1.18-.13-1.47-.56-1.47-1.62V105l7.43,8.58h.54v-9.1c0-1.06.29-1.49,1.47-1.62v-.41h-3.84v.41c1.19.13,1.47.56,1.47,1.62v5.46Zm9.6-.9c-.1-1.89-1.15-3.42-3.1-3.42s-3.33,1.7-3.33,4.21a3.42,3.42,0,0,0,3.34,3.7,3.56,3.56,0,0,0,3.25-2.42l-.3-.27a2.64,2.64,0,0,1-2.21,1.28c-1.43,0-2.16-1.12-2.16-3.07Zm-4.51-.64c0-.91.19-2,1.3-2s1.3,1.14,1.3,2Zm8.87,5.12,2-4.64,1.63,4.64h.53l2.34-6.19a1.57,1.57,0,0,1,1-1.1v-.41h-2.33v.41c.46,0,.69.21.69.54a2.81,2.81,0,0,1-.18.85l-1.18,3.07h0l-1-3.07a3.77,3.77,0,0,1-.24-.9c0-.29.3-.51.8-.5v-.41h-3.68v.41a.92.92,0,0,1,.94.72l.34,1-1.28,2.95-1.22-3.57a2.79,2.79,0,0,1-.19-.72c0-.29.3-.37.67-.35v-.41h-3.29v.41c.26,0,.54.21.74.74l2.35,6.56Zm16.63-9c-.34-.51-.62-.85-.62-1.07,0-.38.29-.53,1.28-.56v-.41h-5.06v.41a1.71,1.71,0,0,1,1.26.85l3.22,4.56v3.33c0,1.14-.3,1.26-1.54,1.31v.41h5.25v-.41c-1.23,0-1.54-.18-1.54-1.31v-3.33l2.9-4.1c.64-.9.91-1.15,1.61-1.31v-.41H142.9v.41c1.09,0,1.35.18,1.35.46a2.25,2.25,0,0,1-.51,1.22l-2,2.83-1.92-2.88Zm13.55,5.07a3.63,3.63,0,1,0-3.62,4,3.64,3.64,0,0,0,3.62-4Zm-2,0c0,2.32-.46,3.31-1.6,3.31s-1.6-1-1.6-3.31.46-3.31,1.6-3.31,1.6,1,1.6,3.31Zm6.85,3.76v-.41c-.75,0-1.15-.21-1.15-1V107.7c.24-.37.53-.64.83-.64a.76.76,0,0,1,.42.16,1.09,1.09,0,0,0,.78.32.85.85,0,0,0,.85-.88,1,1,0,0,0-1.07-1.07,2.1,2.1,0,0,0-1.78,1.38h0v-1.14c0-.13,0-.24-.08-.24s-1.9.49-2.73.64v.41c.7,0,.9.16.9.94V112c0,.67-.26.83-.9.93v.41Zm6.18,0v-.41c-.71,0-.95-.14-.95-.85V109.3h0l1.92,2.45a1.75,1.75,0,0,1,.45.82c0,.26-.29.35-.74.32v.41H169v-.41c-.22,0-.61-.26-1.58-1.52l-2.25-2.86c2.48-2,2.75-2.23,3.45-2.3v-.41H165v.41c.61,0,.83.16.83.46a1.68,1.68,0,0,1-.7,1l-1.67,1.41v-6.85c0-.16,0-.26-.13-.26s-2.19.61-2.72.67v.41c.7,0,.93.1.93.83V112c0,.71-.16.79-.93.85v.41Z" transform="translate(-7 -7)"/><polygon class="cls-2" points="61.32 114.25 60.25 117.56 56.77 117.55 59.59 119.59 58.5 122.9 61.32 120.85 64.13 122.9 63.05 119.59 65.87 117.55 62.39 117.56 61.32 114.25 61.32 114.25"/><polygon class="cls-2" points="74.44 114.25 73.37 117.56 69.89 117.55 72.71 119.59 71.63 122.9 74.44 120.85 77.25 122.9 76.17 119.59 78.99 117.55 75.51 117.56 74.44 114.25 74.44 114.25"/><polygon class="cls-2" points="87.56 114.25 86.49 117.56 83.01 117.55 85.83 119.59 84.75 122.9 87.56 120.85 90.37 122.9 89.29 119.59 92.11 117.55 88.63 117.56 87.56 114.25 87.56 114.25"/><polygon class="cls-2" points="100.68 114.25 99.61 117.56 96.13 117.55 98.95 119.59 97.87 122.9 100.68 120.85 103.5 122.9 102.41 119.59 105.23 117.55 101.75 117.56 100.68 114.25 100.68 114.25"/><path class="cls-2" d="M96.22,113.86v-.52h.44a.25.25,0,0,1,.27.26.25.25,0,0,1-.27.26Zm-.28.8a.09.09,0,0,0,.09.08h.12a.09.09,0,0,0,.09-.08v-.54h.33l.25.56a.11.11,0,0,0,.08.06H97a.08.08,0,0,0,.08-.12l-.27-.53a.48.48,0,0,0,.36-.49.51.51,0,0,0-.55-.51H96a.09.09,0,0,0-.09.09v1.48Zm-.78-.73a1.35,1.35,0,1,1,1.35,1.35,1.35,1.35,0,0,1-1.35-1.35m-.27,0a1.62,1.62,0,1,0,1.62-1.62,1.62,1.62,0,0,0-1.62,1.62" transform="translate(-7 -7)"/></svg>