<?xml version="1.0" encoding="UTF-8"?>
<svg width="208px" height="128px" viewBox="0 0 208 128" version="1.1" xmlns="http://www.w3.org/2000/svg" xmlns:xlink="http://www.w3.org/1999/xlink">
    <!-- Generator: Sketch 43.1 (39012) - http://www.bohemiancoding.com/sketch -->
    <title>triumph-logo</title>
    <desc>Created with Sketch.</desc>
    <defs></defs>
    <g id="Page-1" stroke="none" stroke-width="1" fill="none" fill-rule="evenodd">
        <g id="triumph-logo" fill-rule="nonzero" fill="#857650">
            <path d="M7.6,82.3 L0.5,82.3 C0.2,82.3 0,82.1 0,81.8 L0,81.8 L0,79.4 C0,79.1 0.2,78.9 0.5,78.9 L0.5,78.9 L18.4,78.9 C18.7,78.9 18.9,79.1 18.9,79.4 L18.9,79.4 L18.9,81.7 C18.9,82 18.7,82.2 18.4,82.2 L18.4,82.2 L11.3,82.2 L11.3,100.1 C11.3,100.4 11.1,100.6 10.8,100.6 L8.1,100.6 C7.8,100.6 7.6,100.4 7.6,100.1 L7.6,82.3 Z" id="Shape"></path>
            <path d="M33.9,79.4 C33.9,79.1 34.1,78.9 34.4,78.9 L34.4,78.9 L43.8,78.9 C47.9,79 51.1,82.2 51.1,86.3 C51.1,90.7 48.7,92.5 46.3,93.5 C47,93.9 47.6,94.4 48,95.1 C49.1,96.7 50,98.3 50.9,99.9 C51.1,100.2 51,100.5 50.7,100.6 C50.6,100.7 50.5,100.7 50.4,100.7 L47.4,100.7 C47.2,100.7 47,100.6 46.9,100.4 C46.4,99.1 45.7,97.9 44.8,96.7 C43.8,95.5 42.6,94.5 41.2,93.8 L37.4,93.8 L37.4,100 C37.4,100.3 37.2,100.5 36.9,100.5 L34.3,100.5 C34,100.5 33.8,100.3 33.8,100 L33.8,100 L33.8,79.4 L33.9,79.4 Z M43.5,90.9 C47,90.9 47.9,87.8 47.9,86.2 C47.9,83.2 45,82.2 43.5,82.2 L37.6,82.2 L37.6,90.8 L43.5,90.9 Z" id="Shape"></path>
            <path d="M167.6,94 L163.8,94 L163.8,100.2 C163.8,100.5 163.6,100.7 163.3,100.7 L160.7,100.7 C160.4,100.7 160.2,100.5 160.2,100.2 L160.2,79.4 C160.2,79.1 160.4,78.9 160.7,78.9 L170.1,78.9 C174.2,78.9 177.4,82.2 177.5,86.3 C177.5,91.1 174.6,93.1 172.1,93.8 C170.6,93.9 169.1,94 167.6,94 L167.6,94 Z M169.8,90.7 C172.1,90.8 174.1,89.1 174.2,86.8 L174.2,86.3 C174.2,83.3 171.3,82.3 169.8,82.3 L163.9,82.3 L163.9,90.7 L169.8,90.7 Z" id="Shape"></path>
            <path d="M67.5,79.4 C67.5,79.1 67.7,78.9 68,78.9 L70.7,78.9 C71,78.9 71.2,79.1 71.2,79.4 L71.2,100.2 C71.2,100.5 71,100.7 70.7,100.7 L68,100.7 C67.7,100.7 67.5,100.5 67.5,100.2 L67.5,79.4 L67.5,79.4 Z" id="Shape"></path>
            <path d="M191.1,79.4 C191.1,79.1 191.3,78.9 191.6,78.9 L194.3,78.9 C194.6,78.9 194.8,79.1 194.8,79.4 L194.8,88.2 L204.1,88.2 L204.1,79.4 C204.1,79.1 204.3,78.9 204.6,78.9 L207.2,78.9 C207.5,78.9 207.7,79.1 207.7,79.4 L207.7,100.2 C207.7,100.5 207.5,100.7 207.2,100.7 L204.6,100.7 C204.3,100.7 204.1,100.5 204.1,100.2 L204.1,91.7 L194.8,91.7 L194.8,100.2 C194.8,100.5 194.6,100.7 194.3,100.7 L191.6,100.7 C191.3,100.7 191.1,100.5 191.1,100.2 L191.1,79.4 Z" id="Shape"></path>
            <path d="M58,114.1 C58,113.9 58.2,113.7 58.4,113.7 L60.2,113.7 C60.4,113.7 60.6,113.9 60.6,114.1 L60.6,114.1 L60.6,119.1 L66.7,119.1 L66.7,114.1 C66.7,113.9 66.9,113.7 67.1,113.7 L67.1,113.7 L68.8,113.7 C69,113.7 69.1,113.9 69.1,114.1 L69.1,126.6 C69.1,126.8 68.9,126.9 68.8,127 L67,127 C66.8,127 66.6,126.8 66.6,126.6 L66.6,126.6 L66.6,121.4 L60.5,121.4 L60.5,126.6 C60.5,126.8 60.3,127 60.1,127 L60.1,127 L58.3,127 C58.1,127 57.9,126.8 57.9,126.6 L57.9,114.1 L58,114.1 Z" id="Shape"></path>
            <path d="M84,113.6 C87.7,113.6 90.8,116.6 90.8,120.4 C90.8,124.2 87.8,127.2 84,127.2 C80.3,127.2 77.2,124.2 77.2,120.4 C77.2,120.4 77.2,120.4 77.2,120.3 C77.2,116.6 80.2,113.6 84,113.6 C84,113.6 84,113.5 84,113.6 L84,113.6 Z M84,124.7 C86.4,124.7 88.4,122.8 88.4,120.4 C88.4,118 86.5,116 84.1,116 C81.7,116 79.7,117.9 79.7,120.3 C79.7,122.7 81.6,124.6 84,124.7 L84,124.7 Z" id="Shape"></path>
            <path d="M100.5,116 L96.4,116 C96.2,116 96,115.8 96,115.7 L96,115.7 L96,114.2 C96,114 96.1,113.8 96.3,113.8 L96.3,113.8 L107.1,113.8 C107.3,113.8 107.5,114 107.5,114.2 L107.5,114.2 L107.5,115.7 C107.5,115.9 107.4,116.1 107.2,116.1 L107.2,116.1 L103,116.1 L103,126.7 C103,126.9 102.8,127.1 102.6,127.1 L100.8,127.1 C100.6,127.1 100.4,126.9 100.4,126.7 L100.4,116 L100.5,116 Z" id="Shape"></path>
            <path d="M113.8,114.1 C113.8,113.9 114,113.7 114.2,113.7 L114.2,113.7 L122.5,113.7 C122.7,113.7 122.9,113.9 122.9,114.1 L122.9,114.1 L122.9,115.6 C122.9,115.8 122.7,116 122.5,116 L122.5,116 L116.3,116 L116.3,119.1 L121,119.1 C121.2,119.1 121.4,119.3 121.4,119.5 L121.4,121.1 C121.4,121.3 121.2,121.5 121,121.5 L121,121.5 L116.3,121.5 L116.3,124.8 L122.5,124.8 C122.7,124.8 122.9,125 122.9,125.2 L122.9,125.2 L122.9,126.7 C122.9,126.9 122.7,127.1 122.5,127.1 L114.2,127.1 C114,127.1 113.8,126.9 113.8,126.7 L113.8,114.1 L113.8,114.1 Z" id="Shape"></path>
            <path d="M130.6,114.1 C130.6,113.9 130.8,113.7 131,113.7 L131,113.7 L132.7,113.7 C132.9,113.7 133,113.9 133.1,114.1 L133.1,124.7 L139.2,124.7 C139.4,124.7 139.6,124.9 139.6,125.1 L139.6,125.1 L139.6,126.6 C139.6,126.8 139.4,127 139.2,127 L131,127 C130.8,127 130.6,126.8 130.6,126.6 L130.6,126.6 L130.6,114.1 L130.6,114.1 Z" id="Shape"></path>
            <path d="M145,125.1 L145.7,123.9 C145.8,123.7 146.1,123.6 146.3,123.7 L146.4,123.7 C147.2,124.3 148.1,124.6 149,124.7 C149.9,124.8 150.6,124.1 150.7,123.3 L150.7,123.3 C150.7,122.3 150.1,121.8 148.5,121.2 C146.7,120.5 144.9,119.4 144.9,117.1 C144.9,115.4 146.2,113.5 149.1,113.5 C150.5,113.5 151.8,114 152.9,114.8 C153.1,114.9 153.2,115.2 153,115.4 L152.3,116.5 C152.2,116.7 151.9,116.8 151.6,116.7 L151.6,116.7 C150.9,116.2 150.1,115.9 149.2,115.8 C148.4,115.7 147.6,116.3 147.5,117.1 C147.5,118 147.9,118.4 149.5,119.1 C151.3,119.8 153.4,120.9 153.4,123.4 C153.4,125.3 151.7,127.1 149.1,127.1 C147.6,127.2 146.1,126.6 145,125.6 C145,125.5 144.9,125.5 145,125.1 L145,125.1 Z" id="Shape"></path>
            <path d="M143.2,78.9 L140.6,78.9 L140.5,78.9 L140.4,78.9 L139.9,78.9 C139.7,78.9 139.5,79 139.4,79.2 L133,89.5 L133,89.5 L126.7,79.2 C126.6,79 126.4,78.9 126.2,78.9 L123,78.9 C122.7,78.9 122.5,79.1 122.5,79.4 L122.5,100.2 C122.5,100.5 122.7,100.7 123,100.7 L125.6,100.7 C125.9,100.7 126.1,100.5 126.1,100.2 L126.1,85.3 L132.1,94.9 C132.2,95.1 132.4,95.2 132.6,95.2 L133.1,95.2 C133.3,95.2 133.5,95.1 133.6,94.9 C133.6,94.9 137.3,89.2 139.9,85.3 L139.9,100.3 C139.9,100.6 140.1,100.8 140.4,100.8 L143,100.8 C143.3,100.8 143.5,100.6 143.5,100.3 L143.5,79.4 C143.7,79.1 143.4,78.9 143.2,78.9 L143.2,78.9 Z" id="Shape"></path>
            <path d="M88.7,79.5 C88.7,79.2 89,79 89.3,79 L92,79 C92.3,79 92.5,79.2 92.5,79.5 L92.5,79.5 L92.5,92.4 C92.5,94.8 94.2,97.4 96.6,97.4 L98.6,97.4 C101,97.3 102.6,94.8 102.6,92.5 L102.6,79.5 C102.6,79.2 102.8,79 103.1,79 L103.1,79 L105.8,79 C106.1,79 106.3,79.2 106.3,79.5 L106.3,92.6 C106.3,96.9 102.9,101 98.4,101.1 L96.4,101.1 C91.9,101.1 88.5,96.9 88.5,92.6 L88.7,79.5 L88.7,79.5 Z" id="Shape"></path>
            <path d="M114.3,11.8 C114.3,8.3 111.1,5.4 106.8,4.6 C107.1,4.1 107.2,3.6 107.2,3.1 C107.2,1.4 105.8,0.1 104.2,0.1 C102.6,0.1 101.2,1.5 101.2,3.1 C101.2,3.6 101.3,4.2 101.6,4.6 C97.4,5.5 94.3,8.4 94.3,11.8 C94.3,15.6 98.1,18.7 103,19.2 L103,20.6 C102.5,20.7 102.1,21.3 102.3,21.8 C102.4,22.2 102.7,22.4 103,22.5 L103,23.3 C102.5,23.4 102.1,24 102.3,24.5 C102.4,24.9 102.7,25.1 103,25.2 L103,42.7 C102.5,42.8 102.1,43.4 102.3,43.9 C102.4,44.3 102.7,44.5 103,44.6 L103,46.4 L98.7,46.4 C98.4,46.4 98.2,46.6 98.2,46.9 L98.2,46.9 L98.2,47.9 C98.2,48.2 98.4,48.4 98.7,48.4 L103,48.4 L103,49.8 L102,49.8 C101.7,49.8 101.5,50 101.5,50.3 L101.5,50.3 L101.5,54 L99.7,54 L99.7,50.4 C99.7,50.1 99.5,49.9 99.2,49.9 L99.2,49.9 L98.7,49.9 C98.4,49.9 98.2,50.1 98.2,50.4 L98.2,50.4 L98.2,55.6 C98.2,55.9 98.4,56.1 98.7,56.1 L98.7,56.1 L103,56.1 L103,58.2 C103,59 103.6,59.6 104.4,59.6 C105.2,59.6 105.8,59 105.8,58.2 L105.8,58.2 L105.8,56.1 L110.1,56.1 C110.4,56.1 110.6,55.9 110.6,55.6 L110.6,54.6 C110.6,54.3 110.4,54.1 110.1,54.1 L108.9,54.1 L108.9,52.5 C108.9,52.2 108.7,52 108.4,52 L108.4,52 L107.9,52 C107.6,52 107.4,52.2 107.4,52.5 L107.4,52.5 L107.4,52.5 L107.4,54 L105.8,54 L105.8,48.5 L107.4,48.5 L107.4,50 L107.4,50 C107.4,50.3 107.6,50.5 107.9,50.5 L107.9,50.5 L108.4,50.5 C108.7,50.5 108.9,50.3 108.9,50 L108.9,50 L108.9,48.5 L110.1,48.5 C110.4,48.5 110.6,48.3 110.6,48 L110.6,47 C110.6,46.7 110.4,46.5 110.1,46.5 L105.8,46.5 L105.8,44.7 C106.3,44.8 106.9,44.5 107,44 C107.1,43.5 106.8,42.9 106.3,42.8 L105.8,42.8 L105.8,25.2 C106.3,25.3 106.9,25 107,24.5 C107.1,24 106.8,23.4 106.3,23.3 L105.8,23.3 L105.8,22.5 C106.3,22.6 106.9,22.3 107,21.8 C107.1,21.3 106.8,20.7 106.3,20.6 L105.8,20.6 L105.8,19.2 C110.5,18.6 114.2,15.5 114.3,11.8 L114.3,11.8 Z M104.1,1.8 C104.8,1.8 105.3,2.4 105.3,3 C105.3,3.6 104.7,4.2 104.1,4.2 C103.4,4.2 102.9,3.6 102.9,3 C102.9,2.3 103.5,1.8 104.1,1.8 L104.1,1.8 Z M96.8,11.8 C96.8,9.5 98.7,7.5 101.4,6.7 C102.4,6.5 103.4,6.7 104.2,7.3 L104.2,7.3 C105.1,6.7 106.1,6.5 107.1,6.7 C109.8,7.5 111.7,9.5 111.7,11.8 C111.7,14.1 109.8,16.1 107.1,16.9 C106.1,17.1 105,16.9 104.2,16.3 L104.2,16.3 C103.4,16.9 102.4,17.1 101.4,16.9 C98.7,16 96.8,14.1 96.8,11.8 L96.8,11.8 Z" id="Shape"></path>
            <path d="M164,121.95 L164,120.9 L164.9,120.9 C165.2,120.85 165.45,121.1 165.45,121.35 L165.45,121.45 C165.45,121.75 165.2,121.95 164.95,121.95 C164.95,121.95 164.95,121.95 164.9,121.95 L164,121.95 L164,121.95 Z M163.45,123.55 C163.45,123.65 163.55,123.7 163.6,123.7 L163.6,123.7 L163.85,123.7 C163.95,123.7 164,123.6 164,123.55 L164,123.55 L164,122.4 L164.7,122.4 L165.2,123.55 C165.25,123.6 165.3,123.65 165.35,123.7 L165.65,123.7 C165.75,123.7 165.85,123.65 165.85,123.55 L165.85,123.45 L165.3,122.35 C165.75,122.25 166.1,121.8 166.05,121.35 C166.05,120.75 165.6,120.3 165,120.3 L164.9,120.3 L163.65,120.3 C163.55,120.3 163.5,120.4 163.5,120.45 L163.5,120.45 L163.45,123.55 L163.45,123.55 Z M161.85,121.95 C161.85,120.4 163.1,119.15 164.65,119.15 C166.2,119.15 167.45,120.4 167.45,121.95 C167.45,123.5 166.2,124.75 164.65,124.75 L164.65,124.75 C163.1,124.75 161.85,123.55 161.85,121.95 C161.85,122 161.85,122 161.85,121.95 L161.85,121.95 Z M161.3,121.95 C161.3,123.8 162.8,125.3 164.65,125.3 C166.5,125.3 168,123.8 168,121.95 C168,120.1 166.5,118.6 164.65,118.6 C162.8,118.6 161.3,120.15 161.3,121.95 L161.3,121.95 L161.3,121.95 Z" id="Shape"></path>
        </g>
    </g>
</svg>