<svg id="Layer_1" data-name="Layer 1" xmlns="http://www.w3.org/2000/svg" viewBox="0 0 204.3 80.29"><defs><style>.cls-1{fill:#231f20;}.cls-2{fill:#8bd4ee;}</style></defs><title>WJ_logo</title><path class="cls-1" d="M12.71,58.43v-.27H9.86v.27c.9,0,1.09.27.89,1L9.37,63.75,7.6,58.17H7.41L5.64,63.76,4.26,59.4c-.21-.71-.06-1,1-1v-.27H1.7v.27c1.06,0,1.21.16,1.52,1.1l2,6.44h.18l1.78-5.61L9,66h.17l2.05-6.44c.26-.85.44-1.1,1.51-1.1m4,4.23H14.08l1.32-3Zm-.16,3.1h3.5V65.5c-1,0-1.11-.22-1.5-1.1L15.76,58H15.6l-2.78,6.44c-.39.89-.46,1.1-1.52,1.1v.26h3V65.5c-1,0-1.29-.28-1-1l.61-1.4h3.06l.61,1.4c.3.7.06,1-1,1Zm4.69-6.17a1.15,1.15,0,0,1,1.23-1.13c1.47,0,1.85,1.2,1.94,2.21h.27V57.89h-.25a1.08,1.08,0,0,1-.37.58A2.36,2.36,0,0,0,22.52,58a2,2,0,0,0-2.1,1.89,2.43,2.43,0,0,0,1.41,2.09l1.21.62c.87.46,1.45.95,1.45,1.53a1.46,1.46,0,0,1-1.58,1.39,2.27,2.27,0,0,1-2.34-2.28h-.25V66h.25a1.06,1.06,0,0,1,.37-.59,5.65,5.65,0,0,0,2,.59,2.28,2.28,0,0,0,2.4-2.28A2.12,2.12,0,0,0,24,61.78l-1.21-.62c-1.09-.57-1.53-.91-1.53-1.57m10.41,6.17H35.1V65.5c-1.06,0-1.21-.22-1.21-1.48V59.9c0-1.27.15-1.47,1.21-1.47v-.27H31.67v.27c1,0,1.21.2,1.21,1.47V61.5h-4.3V59.9c0-1.27.15-1.47,1.2-1.47v-.27H26.36v.27c1.05,0,1.2.2,1.2,1.47V64c0,1.26-.15,1.48-1.2,1.48v.26h3.42V65.5c-1,0-1.2-.22-1.2-1.48V62h4.3V64c0,1.26-.16,1.48-1.21,1.48Zm4.38,0h3.42V65.5c-1.05,0-1.2-.22-1.2-1.48V59.9c0-1.27.15-1.47,1.2-1.47v-.27H36v.27c1,0,1.2.2,1.2,1.47V64c0,1.26-.15,1.48-1.2,1.48Zm12.7-7.33v-.27H45.86v.27c1.05,0,1.2.2,1.2,1.47v4.29l-4.86-6H40.42v.27c1.05,0,1.2.2,1.2,1.47V64c0,1.26-.15,1.48-1.2,1.48v.26h2.89V65.5c-1,0-1.22-.22-1.22-1.48V59.61L47.24,66h.29V59.9c0-1.27.16-1.47,1.22-1.47m7.65,2.66h.25V58.31H56.4A1.3,1.3,0,0,1,56,59,3.23,3.23,0,0,0,53.62,58a4,4,0,0,0,0,8c1.32,0,1.89-.66,3.29-.66v-1c0-1.26.15-1.48,1.2-1.48v-.25H54.79v.25c.87,0,1.19.28,1.19.82,0,1.14-1,1.73-2.09,1.73-2.34,0-3-1.9-3-3.47s.73-3.52,2.76-3.52c1.42,0,2.4,1,2.75,2.64m9.35-1.21H66l-.11-1.71H58.22l-.11,1.71h.27l.06-.25c.18-.67.3-1,1.47-1h1.66V64c0,1.26-.16,1.48-1.22,1.48v.26h3.43V65.5c-1,0-1.21-.22-1.21-1.48V58.66h1.66c1.16,0,1.29.29,1.47,1ZM74,62c0,1.57-.83,3.51-3,3.51s-3-1.94-3-3.51.84-3.52,3-3.52S74,60.4,74,62m1.2,0A4.23,4.23,0,1,0,71,66a4.14,4.14,0,0,0,4.23-4m9.69-3.53v-.27H82v.27c1.05,0,1.2.2,1.2,1.47v4.29l-4.86-6H76.55v.27c1.05,0,1.2.2,1.2,1.47V64c0,1.26-.15,1.48-1.2,1.48v.26h2.89V65.5c-1.05,0-1.22-.22-1.22-1.48V59.61L83.37,66h.29V59.9c0-1.27.16-1.47,1.22-1.47m7.21,0v-.27H88.67v.27c1,0,1.2.2,1.2,1.47v6.55c0,1.21-.46,1.75-1.2,1.75a.89.89,0,0,1-1-.82.44.44,0,0,0-.87,0c0,.78,1.11,1.2,1.86,1.2a2,2,0,0,0,2.21-2.27V59.9c0-1.27.15-1.47,1.2-1.47m7.16,7.33.1-1.68h-.27l-.06.25c-.17.67-.3,1-1.47,1H96.46c-1,0-1.2-.2-1.2-1.47V62h.63c1.27,0,1.47.15,1.47,1.21h.27v-2.9h-.27c0,1.06-.2,1.21-1.47,1.21h-.63V58.64h1.87c1.16,0,1.29.29,1.47.95l.06.25h.27l-.11-1.67H93v.27c1.05,0,1.2.2,1.2,1.47V64c0,1.26-.15,1.48-1.2,1.48v.26Zm7-5.92h.26l-.1-1.67h-6v.27c1,0,1.2.2,1.2,1.47V64c0,1.26-.15,1.48-1.2,1.48v.26h3.42V65.5c-1.05,0-1.2-.22-1.2-1.48V62h.63c1.27,0,1.47.15,1.47,1.21H105v-2.9h-.27c0,1.06-.2,1.21-1.47,1.21h-.63V58.64h2.09c1.15,0,1.29.29,1.46.95Zm6.78,0h.27l-.1-1.67h-6v.27c1,0,1.2.2,1.2,1.47V64c0,1.26-.15,1.48-1.2,1.48v.26h3.42V65.5c-1.05,0-1.2-.22-1.2-1.48V62h.63c1.27,0,1.47.15,1.47,1.21h.27v-2.9h-.27c0,1.06-.2,1.21-1.47,1.21h-.63V58.64h2.09c1.15,0,1.29.29,1.46.95Zm7.16,5.92.1-1.68H120l-.06.25c-.16.67-.3,1-1.47,1h-1.09c-1,0-1.2-.2-1.2-1.47V62h.63c1.27,0,1.47.15,1.47,1.21h.27v-2.9h-.27c0,1.06-.2,1.21-1.47,1.21h-.63V58.64h1.87c1.16,0,1.29.29,1.47.95l.06.25h.27l-.11-1.67H114v.27c1,0,1.2.2,1.2,1.47V64c0,1.26-.15,1.48-1.2,1.48v.26ZM124.7,62h-1.11V58.64h1.11a1.67,1.67,0,0,1,0,3.34m2,3.78h2.09V65.5a4.14,4.14,0,0,1-2.35-1.61l-1.24-1.46a2.21,2.21,0,0,0,2.25-2.13c0-1.18-1-2.14-2.72-2.14h-3.34v.27c1,0,1.2.2,1.2,1.47V64c0,1.26-.15,1.48-1.2,1.48v.26h3.42V65.5c-1,0-1.2-.22-1.2-1.48V62.43h.6Zm3.72-6.17a1.15,1.15,0,0,1,1.23-1.13c1.47,0,1.85,1.2,1.94,2.21h.26V57.89h-.25a1.09,1.09,0,0,1-.37.58,2.36,2.36,0,0,0-1.54-.52,2,2,0,0,0-2.1,1.89,2.43,2.43,0,0,0,1.4,2.09l1.21.62c.87.46,1.46.95,1.46,1.53a1.45,1.45,0,0,1-1.58,1.39,2.27,2.27,0,0,1-2.34-2.28h-.25V66h.25a1.08,1.08,0,0,1,.37-.59,5.64,5.64,0,0,0,2,.59,2.28,2.28,0,0,0,2.4-2.28,2.12,2.12,0,0,0-1.32-1.92l-1.22-.62c-1.09-.57-1.53-.91-1.53-1.57M143.17,62c0,1.57-.84,3.51-3,3.51s-3-1.94-3-3.51.84-3.52,3-3.52,3,1.95,3,3.52m1.2,0a4.23,4.23,0,1,0-4.23,4,4.14,4.14,0,0,0,4.23-4m9.69-3.53v-.27h-2.88v.27c1.05,0,1.2.2,1.2,1.47v4.29l-4.86-6h-1.79v.27c1,0,1.2.2,1.2,1.47V64c0,1.26-.15,1.48-1.2,1.48v.26h2.88V65.5c-1,0-1.21-.22-1.21-1.48V59.61L152.56,66h.29V59.9c0-1.27.17-1.47,1.21-1.47m9.1,7.33h3.43V65.5c-1.06,0-1.21-.22-1.21-1.48V59.9c0-1.27.15-1.47,1.21-1.47v-.27h-3.43v.27c1,0,1.21.2,1.21,1.47V61.5h-4.3V59.9c0-1.27.15-1.47,1.2-1.47v-.27h-3.42v.27c1,0,1.2.2,1.2,1.47V64c0,1.26-.15,1.48-1.2,1.48v.26h3.42V65.5c-1.05,0-1.2-.22-1.2-1.48V62h4.3V64c0,1.26-.16,1.48-1.21,1.48Zm12-3.8c0,1.57-.83,3.51-3,3.51s-3-1.94-3-3.51.84-3.52,3-3.52,3,1.95,3,3.52m1.2,0a4.23,4.23,0,1,0-4.23,4,4.14,4.14,0,0,0,4.23-4m8.35-2.09H185l-.11-1.71h-7.68l-.11,1.71h.27l.06-.25c.18-.67.3-1,1.47-1h1.66V64c0,1.26-.16,1.48-1.22,1.48v.26h3.43V65.5c-1.05,0-1.21-.22-1.21-1.48V58.66h1.66c1.16,0,1.29.29,1.47,1Zm7,5.88.1-1.68h-.27l-.06.25c-.16.67-.3,1-1.47,1H189c-1,0-1.2-.2-1.2-1.47V62h.63c1.26,0,1.47.15,1.47,1.21h.26v-2.9h-.26c0,1.06-.2,1.21-1.47,1.21h-.63V58.64h1.87c1.16,0,1.29.29,1.47.95l.06.25h.27l-.11-1.67H185.6v.27c1.05,0,1.2.2,1.2,1.47V64c0,1.26-.15,1.48-1.2,1.48v.26Zm7.9-1.68h-.27l-.06.25c-.16.67-.3,1-1.45,1H196.4c-1.05,0-1.2-.2-1.2-1.47V59.9c0-1.27.15-1.47,1.2-1.47v-.27H193v.27c1.05,0,1.2.2,1.2,1.47V64c0,1.26-.15,1.48-1.2,1.48v.26h6.62Z" transform="translate(-1.7 -1.52)"/><path class="cls-1" d="M69.49,75.88v-.21H67.22v.21c.83,0,.94.16.94,1.15v3.37l-3.82-4.74h-1.4v.21c.83,0,.94.16.94,1.15v3.23c0,1-.12,1.16-.94,1.16v.21h2.27v-.21c-.83,0-1-.17-1-1.16V76.81l4,5h.23V77c0-1,.13-1.15,1-1.15M75,81.64l.08-1.32h-.21l0,.2c-.13.53-.24.76-1.15.76h-.86c-.83,0-.95-.16-.95-1.16V78.67h.5c1,0,1.15.12,1.15,1h.21V77.34h-.21c0,.84-.16,1-1.15,1h-.5V76h1.47c.92,0,1,.23,1.16.75l0,.2h.21l-.09-1.31H70.15v.21c.83,0,.94.16.94,1.15v3.23c0,1-.12,1.16-.94,1.16v.21Zm8.77-5.76v-.21H81.56v.21c.71,0,.86.21.7.75l-1.08,3.42-1.39-4.39h-.15l-1.39,4.4-1.08-3.43c-.17-.56,0-.75.79-.75v-.21h-2.8v.21c.84,0,1,.13,1.19.87l1.6,5.06h.14l1.4-4.41,1.39,4.41H81l1.61-5.06c.21-.67.35-.87,1.18-.87m8.57,0v-.21H90v.21c.83,0,.88.22.54.75l-1.45,2.19-1.43-2.19c-.3-.46-.3-.75.54-.75v-.21H85.39v.21a1.46,1.46,0,0,1,1.44.87l1.65,2.56v1c0,1-.12,1.16-.95,1.16v.21h2.69v-.21c-.83,0-.95-.17-.95-1.16v-1l1.64-2.49c.4-.59.61-.87,1.44-.87m5.35,2.78a2.4,2.4,0,1,1-2.38-2.77,2.49,2.49,0,0,1,2.38,2.77m.95,0a3.32,3.32,0,1,0-3.32,3.15,3.25,3.25,0,0,0,3.32-3.15m3.69,0h-.88V76h.88a1.31,1.31,0,0,1,0,2.63m1.56,3h1.64v-.21a3.24,3.24,0,0,1-1.85-1.26l-1-1.14a1.74,1.74,0,0,0,1.77-1.67c0-.93-.76-1.68-2.14-1.68H99.73v.21c.82,0,.94.16.94,1.15v3.23c0,1-.12,1.16-.94,1.16v.21h2.69v-.21c-.83,0-.95-.17-.95-1.16V79h.47Zm6.12,0h2.8v-.21a2.66,2.66,0,0,1-1.28-.58l-3.08-2.68,1.74-1.49a2.39,2.39,0,0,1,1.82-.81v-.21h-2.31v.21c.63,0,.59.27,0,.81l-2,1.74V77c0-1,.12-1.15.95-1.15v-.21h-2.69v.21c.83,0,.95.16.95,1.15v3.23c0,1-.12,1.16-.95,1.16v.21h2.69v-.21c-.83,0-.95-.17-.95-1.16V78.88l.26-.21,2.52,2.18c.4.34.28.58-.38.58Zm11-.11h.2V79.34H121c-.28,1.27-1,2.07-2.15,2.07-1.59,0-2.17-1.52-2.17-2.75s.58-2.77,2.17-2.77c1.1,0,1.87.79,2.15,2.08h.2V75.78H121a1,1,0,0,1-.34.57,2.54,2.54,0,0,0-1.85-.84,3.15,3.15,0,0,0,0,6.31A2.57,2.57,0,0,0,120.7,81a1,1,0,0,1,.34.57m1.31.11H125v-.21c-.83,0-.94-.17-.94-1.16V77c0-1,.12-1.15.94-1.15v-.21h-2.68v.21c.83,0,.94.16.94,1.15v3.23c0,1-.12,1.16-.94,1.16Zm16.11-5.76v-.21h-2.33v.21c.84,0,.88.22.54.75l-1.45,2.19-1.43-2.19c-.3-.46-.3-.75.54-.75v-.21h-8.74L125.49,77h.21l0-.2c.14-.53.24-.76,1.15-.76h1.3v4.21c0,1-.13,1.16-1,1.16v.21h2.7v-.21c-.83,0-1-.17-1-1.16V76.06h1.3c.92,0,1,.23,1.15.76l0,.2h.21l-.08-1.12a1.46,1.46,0,0,1,1.3.85l1.65,2.56v1c0,1-.12,1.16-.95,1.16v.21h2.69v-.21c-.83,0-.95-.17-.95-1.16v-1L137,76.75c.4-.59.61-.87,1.44-.87" transform="translate(-1.7 -1.52)"/><path class="cls-2" d="M93.33,37.66l9.55-36.14H99.63L92.58,29l-.13,1.34L92.35,29l-7-27.47H83.58L76.62,29l-.1,1.34L76.42,29,69.34,1.52H66.09l9.6,36.14h1.69l7-27.2.15-1.41.1,1.41,7,27.2Zm14.75,9.67a8.67,8.67,0,0,0,.69-3.45V16.11h-3.25V43.88a5.61,5.61,0,0,1-.45,2.25A6,6,0,0,1,103.83,48,5.69,5.69,0,0,1,102,49.23a5.63,5.63,0,0,1-2.24.45H99a5.6,5.6,0,0,1-2.26-.45,5.89,5.89,0,0,1-3.09-3.09,5.61,5.61,0,0,1-.45-2.25v-2L90,42.45v1.44a8.65,8.65,0,0,0,.69,3.45,8.87,8.87,0,0,0,4.74,4.73,8.74,8.74,0,0,0,3.46.69h1a8.66,8.66,0,0,0,3.45-.69,8.91,8.91,0,0,0,4.73-4.73m27.24-9.67V1.52h-3.25V18.05H118.23V1.52H115V37.66h3.25V21.15h13.84V37.66Zm1.69,0a2.25,2.25,0,1,0,2.25-2.25A2.25,2.25,0,0,0,137,37.65m.38,0a1.87,1.87,0,1,1,1.87,1.87,1.87,1.87,0,0,1-1.87-1.87m1.09,1a.12.12,0,0,0,.12.12h.16a.12.12,0,0,0,.12-.12v-.75h.46l.35.78a.15.15,0,0,0,.11.09H140a.11.11,0,0,0,.11-.17l-.37-.74a.66.66,0,0,0,.51-.68.71.71,0,0,0-.77-.7h-.89a.12.12,0,0,0-.12.12Zm.39-1.12v-.71h.61a.35.35,0,0,1,.38.36.35.35,0,0,1-.38.36Z" transform="translate(-1.7 -1.52)"/><path class="cls-1" d="M201.5,66.34a2.25,2.25,0,1,0,2.25-2.25,2.25,2.25,0,0,0-2.25,2.25m.38,0a1.87,1.87,0,1,1,1.87,1.87,1.87,1.87,0,0,1-1.87-1.87m1.09,1a.12.12,0,0,0,.12.12h.16a.12.12,0,0,0,.12-.12v-.75h.46l.35.78a.15.15,0,0,0,.11.09h.21a.11.11,0,0,0,.11-.17l-.37-.74a.66.66,0,0,0,.51-.68.71.71,0,0,0-.77-.7h-.89a.12.12,0,0,0-.12.12Zm.39-1.12v-.71H204a.35.35,0,0,1,.38.36.35.35,0,0,1-.38.36Z" transform="translate(-1.7 -1.52)"/></svg>