<svg id="Layer_1" data-name="Layer 1" xmlns="http://www.w3.org/2000/svg" viewBox="0 0 204.3 80.36"><defs><style>.cls-1{fill:#fff;}</style></defs><title>wj-logo-white</title><path class="cls-1" d="M11,56.91v-.27H8.16v.27c.9,0,1.09.27.89,1L7.67,62.23,5.9,56.65H5.71L3.94,62.24,2.56,57.88c-.21-.71-.06-1,1-1v-.27H0v.27c1.06,0,1.21.16,1.52,1.1l2,6.44H3.7l1.78-5.61L7.3,64.48h.17L9.52,58c.26-.85.44-1.1,1.51-1.1m4,4.23H12.38l1.32-3Zm-.16,3.1h3.5V64c-1,0-1.11-.22-1.5-1.1l-2.81-6.4H13.9l-2.78,6.44c-.39.89-.46,1.1-1.52,1.1v.26h3V64c-1,0-1.29-.28-1-1l.61-1.4h3.06l.61,1.4c.3.7.06,1-1,1Zm4.69-6.17A1.15,1.15,0,0,1,20.73,57h.06c1.47,0,1.85,1.2,1.94,2.21H23V56.37h-.25a1.08,1.08,0,0,1-.37.58,2.36,2.36,0,0,0-1.56-.47,2,2,0,0,0-2.1,1.89,2.43,2.43,0,0,0,1.41,2.09l1.21.62c.87.46,1.45,1,1.45,1.53A1.46,1.46,0,0,1,21.27,64h-.06a2.27,2.27,0,0,1-2.34-2.2s0-.05,0-.08h-.25v2.76h.25a1.06,1.06,0,0,1,.37-.59,5.65,5.65,0,0,0,2,.59,2.28,2.28,0,0,0,2.4-2.16s0-.08,0-.12a2.12,2.12,0,0,0-1.34-1.94l-1.21-.62c-1.09-.57-1.53-.91-1.53-1.57M30,64.24H33.4V64c-1.06,0-1.21-.22-1.21-1.48V58.38c0-1.27.15-1.47,1.21-1.47v-.27H30v.27c1,0,1.21.2,1.21,1.47V60h-4.3v-1.6c0-1.27.15-1.47,1.2-1.47v-.27H24.66v.27c1,0,1.2.2,1.2,1.47v4.1c0,1.26-.15,1.48-1.2,1.48v.26h3.42V64c-1,0-1.2-.22-1.2-1.48v-2h4.3v2C31.18,63.74,31,64,30,64Zm4.38,0h3.42V64c-1,0-1.2-.22-1.2-1.48V58.38c0-1.27.15-1.47,1.2-1.47v-.27H34.3v.27c1,0,1.2.2,1.2,1.47v4.1c0,1.26-.15,1.48-1.2,1.48ZM47,56.91v-.27H44.16v.27c1,0,1.2.2,1.2,1.47v4.29l-4.86-6H38.72v.27c1,0,1.2.2,1.2,1.47v4.07c0,1.26-.15,1.48-1.2,1.48v.26h2.89V64c-1,0-1.22-.22-1.22-1.48V58.09l5.15,6.39h.29v-6.1c0-1.27.16-1.47,1.22-1.47m7.65,2.66H55V56.79H54.7a1.3,1.3,0,0,1-.4.69,3.23,3.23,0,0,0-2.38-1,4,4,0,1,0,0,8c1.32,0,1.89-.66,3.29-.66v-1c0-1.26.15-1.48,1.2-1.48v-.25H53.09v.25c.87,0,1.19.28,1.19.82,0,1.14-1,1.73-2.09,1.73-2.34,0-3-1.9-3-3.47s.73-3.52,2.76-3.52c1.42,0,2.4,1,2.75,2.64M64,58.33h.25l-.11-1.71H56.52l-.11,1.71h.27l.06-.25c.18-.67.3-1,1.47-1h1.66v5.4c0,1.26-.16,1.48-1.22,1.48v.26h3.43V64c-1,0-1.21-.22-1.21-1.48V57.14h1.66c1.16,0,1.29.29,1.47,1Zm8.25,2.15c0,1.57-.83,3.51-3,3.51s-3-1.94-3-3.51.84-3.52,3-3.52,3,1.92,3,3.52m1.2,0a4.23,4.23,0,1,0-4.45,4h.25a4.14,4.14,0,0,0,4.23-4M83.22,57v-.27H80.3V57c1.05,0,1.2.2,1.2,1.47v4.29l-4.86-6H74.85V57c1.05,0,1.2.2,1.2,1.47v4c0,1.26-.15,1.48-1.2,1.48v.26h2.89V64c-1.05,0-1.22-.22-1.22-1.48V58.09l5.15,6.39H82v-6.1c0-1.27.16-1.47,1.22-1.47m7.21,0v-.27H87v.27c1,0,1.2.2,1.2,1.47v6.55c0,1.21-.46,1.75-1.2,1.75a.89.89,0,0,1-1-.77v0a.44.44,0,0,0-.87,0c0,.78,1.11,1.2,1.86,1.2a2,2,0,0,0,2.21-2.27V58.38c0-1.27.15-1.47,1.2-1.47m7.16,7.33.1-1.68h-.27l-.06.25c-.17.67-.3,1-1.47,1H94.76c-1,0-1.2-.2-1.2-1.47V60.48h.63c1.27,0,1.47.15,1.47,1.21h.27v-2.9h-.27c0,1.06-.2,1.21-1.47,1.21h-.63V57.12h1.87c1.16,0,1.29.29,1.47,1l.06.25h.27l-.11-1.67H91.3v.27c1.05,0,1.2.2,1.2,1.47v4.09c0,1.26-.15,1.48-1.2,1.48v.26Zm7-5.92h.26l-.1-1.67h-6v.27c1,0,1.2.2,1.2,1.47v4.09c0,1.26-.15,1.48-1.2,1.48v.26h3.42V64c-1.05,0-1.2-.22-1.2-1.48v-2h.63c1.27,0,1.47.15,1.47,1.21h.29v-2.9H103c0,1.06-.2,1.21-1.47,1.21h-.63V57.12H103c1.15,0,1.29.29,1.46,1Zm6.78,0h.27l-.1-1.67h-6v.27c1,0,1.2.2,1.2,1.47v4.09c0,1.26-.15,1.48-1.2,1.48v.26h3.42V64c-1.05,0-1.2-.22-1.2-1.48v-2h.63c1.27,0,1.47.15,1.47,1.21h.27v-2.9h-.27c0,1.06-.2,1.21-1.47,1.21h-.63V57.12h2.09c1.15,0,1.29.29,1.46,1Zm7.16,5.92.1-1.68h-.27l-.06.25c-.16.67-.3,1-1.47,1h-1.09c-1,0-1.2-.2-1.2-1.47V60.48h.63c1.27,0,1.47.15,1.47,1.21h.27v-2.9h-.27c0,1.06-.2,1.21-1.47,1.21h-.63V57.12h1.87c1.16,0,1.29.29,1.47,1l.06.25h.27L118,56.65H112.3v.27c1,0,1.2.2,1.2,1.47v4.09c0,1.26-.15,1.48-1.2,1.48v.26ZM123,60.48h-1.11V57.12H123a1.67,1.67,0,0,1,0,3.34m2,3.78h2.09V64a4.14,4.14,0,0,1-2.35-1.61l-1.24-1.46a2.21,2.21,0,0,0,2.25-2.13c0-1.18-1-2.14-2.72-2.14h-3.34v.27c1,0,1.2.2,1.2,1.47v4.1c0,1.26-.15,1.48-1.2,1.48v.26h3.42V64c-1,0-1.2-.22-1.2-1.48V60.91h.6Zm3.72-6.17a1.15,1.15,0,0,1,1.17-1.13h.06c1.47,0,1.85,1.2,1.94,2.21h.26V56.37h-.25a1.09,1.09,0,0,1-.37.58,2.36,2.36,0,0,0-1.54-.52,2,2,0,0,0-2.1,1.89,2.43,2.43,0,0,0,1.4,2.09l1.21.62c.87.46,1.46,1,1.46,1.53a1.45,1.45,0,0,1-1.5,1.39h-.08a2.27,2.27,0,0,1-2.34-2.2s0-.05,0-.08h-.25v2.81H128a1.08,1.08,0,0,1,.37-.59,5.64,5.64,0,0,0,2,.59,2.28,2.28,0,0,0,2.4-2.16s0-.08,0-.12a2.12,2.12,0,0,0-1.32-1.92l-1.22-.62c-1.09-.57-1.53-.91-1.53-1.57m12.73,2.39c0,1.57-.84,3.51-3,3.51s-3-1.94-3-3.51.84-3.52,3-3.52,3,2,3,3.52m1.2,0a4.23,4.23,0,1,0-4.45,4h.22a4.14,4.14,0,0,0,4.23-4M152.36,57v-.27h-2.88V57c1.05,0,1.2.2,1.2,1.47v4.29l-4.86-6H144V57c1,0,1.2.2,1.2,1.47v4c0,1.26-.15,1.48-1.2,1.48v.26h2.88V64c-1,0-1.21-.22-1.21-1.48V58.09l5.16,6.39h.29v-6.1c0-1.27.17-1.47,1.21-1.47m9.1,7.33h3.43V64c-1.06,0-1.21-.22-1.21-1.48V58.38c0-1.27.15-1.47,1.21-1.47v-.27h-3.43v.27c1,0,1.21.2,1.21,1.47V60h-4.3v-1.6c0-1.27.15-1.47,1.2-1.47v-.27h-3.42v.27c1,0,1.2.2,1.2,1.47v4.1c0,1.26-.15,1.48-1.2,1.48v.26h3.42V64c-1.05,0-1.2-.22-1.2-1.48v-2h4.3v2c0,1.26-.16,1.48-1.21,1.48Zm12-3.8c0,1.57-.83,3.51-3,3.51s-3-1.94-3-3.51.84-3.52,3-3.52,3,2,3,3.52m1.2,0a4.23,4.23,0,1,0-4.45,4h.22a4.14,4.14,0,0,0,4.23-4M183,58.35h.29l-.11-1.71h-7.68l-.11,1.71h.27l.06-.25c.18-.67.3-1,1.47-1h1.66v5.38c0,1.26-.16,1.48-1.22,1.48v.26h3.43V64c-1.05,0-1.21-.22-1.21-1.48V57.14h1.66c1.16,0,1.29.29,1.47,1Zm7,5.88.1-1.68h-.27l-.06.25c-.16.67-.3,1-1.47,1h-1c-1,0-1.2-.2-1.2-1.47V60.48h.63c1.26,0,1.47.15,1.47,1.21h.26v-2.9h-.26c0,1.06-.2,1.21-1.47,1.21h-.63V57.12H188c1.16,0,1.29.29,1.47,1l.06.25h.27l-.11-1.67H183.9v.27c1.05,0,1.2.2,1.2,1.47v4.09c0,1.26-.15,1.48-1.2,1.48v.26Zm7.9-1.68h-.27l-.06.25c-.16.67-.3,1-1.45,1H194.7c-1.05,0-1.2-.2-1.2-1.47v-4c0-1.27.15-1.47,1.2-1.47v-.27h-3.4v.27c1.05,0,1.2.2,1.2,1.47v4.1c0,1.26-.15,1.48-1.2,1.48v.26h6.62Z"/><path class="cls-1" d="M67.79,74.36v-.21H65.52v.21c.83,0,.94.16.94,1.15v3.37l-3.82-4.74h-1.4v.21c.83,0,.94.16.94,1.15v3.23c0,1-.12,1.16-.94,1.16v.21h2.27v-.21c-.83,0-1-.17-1-1.16V75.29l4,5h.23V75.48c0-1,.13-1.15,1-1.15m5.56,5.79.08-1.32h-.21V79c-.13.53-.24.76-1.15.76h-.86c-.83,0-.95-.16-.95-1.16V77.15h.5c1,0,1.15.12,1.15,1h.21V75.82h-.21c0,.84-.16,1-1.15,1h-.5V74.48h1.47c.92,0,1,.23,1.16.75v.2h.21L73,74.12H68.45v.21c.83,0,.94.16.94,1.15v3.23c0,1-.12,1.16-.94,1.16v.21Zm8.77-5.76v-.21H79.86v.21c.71,0,.86.21.7.75l-1.08,3.42-1.39-4.39h-.15l-1.39,4.4-1.08-3.43c-.17-.56,0-.75.79-.75v-.21h-2.8v.21c.84,0,1,.13,1.19.87l1.6,5.06h.14l1.4-4.41,1.39,4.41h.12l1.61-5.06c.21-.67.35-.87,1.18-.87m8.57,0v-.21H88.3v.21c.83,0,.88.22.54.75L87.39,77.3,86,75.11c-.3-.46-.3-.75.54-.75v-.21H83.69v.21a1.46,1.46,0,0,1,1.44.87l1.65,2.56v1c0,1-.12,1.16-.95,1.16v.21h2.69V80c-.83,0-.95-.17-.95-1.16v-1l1.64-2.49c.4-.59.61-.87,1.44-.87M96,77.21a2.4,2.4,0,1,1-2.38-2.77A2.49,2.49,0,0,1,96,77q0,.09,0,.19m.95,0a3.32,3.32,0,1,0-3.49,3.15h.17A3.25,3.25,0,0,0,97,77.21m3.69,0h-.88V74.48h.88a1.31,1.31,0,1,1,0,2.63m1.56,3h1.64V79.9A3.24,3.24,0,0,1,102,78.64l-1-1.14a1.74,1.74,0,0,0,1.77-1.67c0-.93-.76-1.68-2.14-1.68H98v.21c.82,0,.94.16.94,1.15v3.23c0,1-.12,1.16-.94,1.16v.21h2.69V79.9c-.83,0-.95-.17-.95-1.16V77.48h.47Zm6.12,0h2.8V79.9a2.66,2.66,0,0,1-1.28-.58l-3.08-2.68,1.74-1.49a2.39,2.39,0,0,1,1.82-.81v-.21H108v.21c.63,0,.59.27,0,.81l-2,1.74V75.48c0-1,.12-1.15.95-1.15v-.21h-2.69v.21c.83,0,.95.16.95,1.15v3.23c0,1-.12,1.16-.95,1.16v.21H107v-.21c-.83,0-.95-.17-.95-1.16V77.36l.26-.21,2.52,2.18c.4.34.28.58-.38.58Zm11-.11h.2V77.82h-.22c-.28,1.27-1,2.07-2.15,2.07-1.59,0-2.17-1.52-2.17-2.75s.58-2.77,2.17-2.77c1.1,0,1.87.79,2.15,2.08h.2V74.26h-.2a1,1,0,0,1-.34.57,2.54,2.54,0,0,0-1.85-.84,3.15,3.15,0,0,0,0,6.31h0a2.57,2.57,0,0,0,1.89-.82,1,1,0,0,1,.34.57m1.31.11h2.65V80c-.83,0-.94-.17-.94-1.16V75.48c0-1,.12-1.15.94-1.15v-.21h-2.68v.21c.83,0,.94.16.94,1.15v3.23c0,1-.12,1.16-.94,1.16Zm16.11-5.76v-.21h-2.33v.21c.84,0,.88.22.54.75l-1.45,2.19-1.43-2.19c-.3-.46-.3-.75.54-.75v-.21h-8.74l-.1,1.29H124v-.2c.14-.53.24-.76,1.15-.76h1.3v4.21c0,1-.13,1.16-1,1.16v.21h2.7v-.21c-.83,0-1-.17-1-1.16V74.54h1.3c.92,0,1,.23,1.15.76v.2h.21l-.08-1.12a1.46,1.46,0,0,1,1.3.85l1.65,2.56v1c0,1-.12,1.16-.95,1.16v.21h2.69v-.21c-.83,0-.95-.17-.95-1.16v-1l1.83-2.56c.4-.59.61-.87,1.44-.87"/><path class="cls-1" d="M91.63,36.14,101.18,0H97.93l-7,27.48-.13,1.34-.1-1.34L83.65,0H81.88l-7,27.47-.1,1.34-.1-1.34L67.64,0H64.39L74,36.14h1.69l7-27.2.15-1.41.1,1.41,7,27.2Zm14.75,9.67a8.67,8.67,0,0,0,.69-3.45V14.59h-3.25V42.36a5.61,5.61,0,0,1-.45,2.25,6,6,0,0,1-1.24,1.87,5.69,5.69,0,0,1-1.83,1.23,5.63,5.63,0,0,1-2.24.45H97.3A5.6,5.6,0,0,1,95,47.71,5.89,5.89,0,0,1,92,44.62a5.61,5.61,0,0,1-.45-2.25v-2l-3.2.56v1.44A8.65,8.65,0,0,0,89,45.82a8.87,8.87,0,0,0,4.74,4.73,8.74,8.74,0,0,0,3.46.69h1a8.66,8.66,0,0,0,3.45-.69,8.91,8.91,0,0,0,4.73-4.73m27.24-9.67V0h-3.25V16.53H116.53V0H113.3V36.14h3.25V19.63h13.84V36.14Zm1.69,0a2.25,2.25,0,1,0,2.25-2.25,2.25,2.25,0,0,0-2.25,2.25m.38,0A1.87,1.87,0,1,1,137.55,38h0a1.87,1.87,0,0,1-1.87-1.87m1.09,1a.12.12,0,0,0,.12.12h.16a.12.12,0,0,0,.12-.12v-.75h.46l.35.78a.15.15,0,0,0,.11.09h.21a.11.11,0,0,0,.11-.17l-.37-.74a.66.66,0,0,0,.51-.68.71.71,0,0,0-.72-.7h-.94a.12.12,0,0,0-.12.12Zm.39-1.12V35.3h.61a.36.36,0,0,1,0,.72h-.65Z"/><path class="cls-1" d="M199.8,64.82a2.25,2.25,0,1,0,2.25-2.25,2.25,2.25,0,0,0-2.25,2.25m.38,0a1.87,1.87,0,1,1,1.87,1.87h0a1.87,1.87,0,0,1-1.87-1.87m1.09,1a.12.12,0,0,0,.12.12h.16a.12.12,0,0,0,.12-.12v-.75h.46l.35.78a.15.15,0,0,0,.11.09h.21a.11.11,0,0,0,.11-.17l-.37-.74a.66.66,0,0,0,.51-.68.71.71,0,0,0-.72-.7h-.94a.12.12,0,0,0-.12.12Zm.39-1.12V64h.64a.36.36,0,0,1,0,.72h-.68Z"/></svg>