<?xml version="1.0" encoding="utf-8"?>
<!-- Generator: Adobe Illustrator 19.2.0, SVG Export Plug-In . SVG Version: 6.00 Build 0)  -->
<svg version="1.1" id="Layer_1" xmlns="http://www.w3.org/2000/svg" xmlns:xlink="http://www.w3.org/1999/xlink" x="0px" y="0px"
	 width="846" height="261" viewBox="0 0 846 261" style="enable-background:new 0 0 846 261;" xml:space="preserve">
<style type="text/css">
	.st0{fill:#BBA990;}
	.st1{fill:#FFFFFF;}
	.st2{fill:#332211;}
	.st3{display:none;fill:#00446A;}
	.st4{fill:#D42839;}
	.st5{fill:#E35266;}
	.st6{display:none;}
	.st7{display:inline;fill:#88A9B3;}
	.st8{display:inline;fill:#FFFFFF;}
	.st9{display:inline;fill:#E1E1E1;}
	.st10{display:inline;fill:#EBEBEB;}
	.st11{display:inline;}
	.st12{fill:#898989;}
	.st13{display:none;fill:#6EA8B7;}
	.st14{display:none;opacity:0.4;fill:#00446A;enable-background:new    ;}
	.st15{display:inline;fill:#A9CBD3;}
	.st16{opacity:0.2;fill:#332211;}
	.st17{fill:#211F1F;}
</style>
<g id="Guides">
</g>
<g id="Elements">
	<polygon class="st0" points="245.5,7.5 238,0 237,1 244.5,8.5 237,16 238,17 245.5,9.5 253,17 254,16 246.5,8.5 254,1 253,0 	"/>
	<polygon class="st1" points="208.5,7.5 201,0 200,1 207.5,8.5 200,16 201,17 208.5,9.5 216,17 217,16 209.5,8.5 217,1 216,0 	"/>
	<polygon class="st0" points="281,6.2 274.8,0 274,0.8 280.2,7 274,13.2 274.8,14 281,7.8 287.2,14 288,13.2 281.8,7 288,0.8 
		287.2,0 	"/>
	<polygon class="st0" points="282,38 281,37 251,67 251,68 281,98 282,97 252.5,67.5 	"/>
	<polygon class="st1" points="231,38 230,37 200,67 200,68 230,98 231,97 201.5,67.5 	"/>
	<polygon class="st0" points="332,39.9 331.1,39 303,67 303,68 331.1,96 332,95.1 304.4,67.5 	"/>
	<polygon class="st0" points="303,176.1 303.9,177 332,149 332,148 303.9,120 303,120.9 330.6,148.5 	"/>
	<polygon class="st0" points="251,178 252,179 282,149 282,148 252,118 251,119 280.5,148.5 	"/>
	<polygon class="st1" points="200,178 201,179 231,149 231,148 201,118 200,119 229.5,148.5 	"/>
	<polygon class="st1" points="210.5,199.5 210,199 200,209 210,219 210.5,218.5 201,209 	"/>
	<path class="st2" d="M605,16c-0.4-1.8-1-3.3-1.8-4.7c-0.6-1-1.3-2-1.9-3c-0.2-0.3-0.4-0.7-0.6-1c-0.4-0.7-0.7-1.5-0.7-2.5
		s0.3-1.8,0.7-2.5c0.7-1.1,1.9-2,3.5-2.2c1.3-0.2,2.5,0.1,3.4,0.6c0.7,0.4,1.2,0.9,1.7,1.6c0.4,0.7,0.7,1.5,0.8,2.5
		c0,0.5-0.1,1-0.2,1.4c-0.1,0.4-0.3,0.8-0.5,1.1c-0.3,0.7-0.8,1.4-1.2,2C606.8,11.3,605.5,13.3,605,16"/>
	<path class="st2" d="M400,0h4v4h-4V0z M405,4h4V0h-4V4z M410,4h4V0h-4V4z M415,4h4V0h-4V4z M400,11h4V7h-4V11z M405,11h4V7h-4V11z
		 M410,11h4V7h-4V11z M415,11h4V7h-4V11z M400,18h4v-4h-4V18z M405,18h4v-4h-4V18z M410,18h4v-4h-4V18z M415,18h4v-4h-4V18z"/>
	<path class="st2" d="M400,38h4v4h-4V38z M400,49h4v-4h-4V49z M400,56h4v-4h-4V56z M406,42h14v-4h-14V42z M406,49h14v-4h-14V49z
		 M406,56h14v-4h-14V56z"/>
	<path class="st0" d="M440,38h4v4h-4V38z M440,49h4v-4h-4V49z M440,56h4v-4h-4V56z M446,42h14v-4h-14V42z M446,49h14v-4h-14V49z
		 M446,56h14v-4h-14V56z"/>
	<path class="st0" d="M440,0h4v4h-4V0z M445,4h4V0h-4V4z M450,4h4V0h-4V4z M455,4h4V0h-4V4z M440,11h4V7h-4V11z M445,11h4V7h-4V11z
		 M450,11h4V7h-4V11z M455,11h4V7h-4V11z M440,18h4v-4h-4V18z M445,18h4v-4h-4V18z M450,18h4v-4h-4V18z M455,18h4v-4h-4V18z"/>
	<path class="st2" d="M404,83h3v3h-3V83z M408,86h3v-3h-3V86z M412,86h3v-3h-3V86z M404,91h3v-3h-3V91z M408,91h3v-3h-3V91z M420,76
		v5v8v5v2h-2h-4h-12h-2v-2V81v-5h2h16H420z M414,89h4v-8h-16v13h12V89z M418.8,90H415v4.5L418.8,90z"/>
	<path class="st0" d="M444,83h3v3h-3V83z M448,86h3v-3h-3V86z M452,86h3v-3h-3V86z M444,91h3v-3h-3V91z M448,91h3v-3h-3V91z M460,76
		v5v8v5v2h-2h-4h-12h-2v-2V81v-5h2h16H460z M454,89h4v-8h-16v13h12V89z M458.8,90H455v4.5L458.8,90z"/>
	<path class="st2" d="M405,129h10v1h-10V129z M405,132h8v-1h-8V132z M420,120v10h-2v4v2h-2h-12h-2v-2v-4h-2v-10h2v-2v-2h2h12h2v2v2
		H420z M416,128h-12v2v4h12v-4V128z M416,118h-12v2h12V118z M419,122h-1v1h1V122z"/>
	<path class="st0" d="M445,129h10v1h-10V129z M445,132h8v-1h-8V132z M460,120v10h-2v4v2h-2h-12h-2v-2v-4h-2v-10h2v-2v-2h2h12h2v2v2
		H460z M456,128h-12v2v4h12v-4V128z M456,118h-12v2h12V118z M459,122h-1v1h1V122z"/>
	<g>
		<path class="st2" d="M400,176h20v-20h-20V176z M405,173c-1.1,0-2-0.9-2-2s0.9-2,2-2s2,0.9,2,2S406.1,173,405,173 M410,173
			c0-3.9-3.1-7-7-7v-2.5c5.2,0,9.5,4.3,9.5,9.5H410z M414.5,173c0-6.4-5.1-11.5-11.5-11.5V159c7.7,0,14,6.3,14,14H414.5z"/>
	</g>
	<g>
		<path class="st0" d="M440,176h20v-20h-20V176z M445,173c-1.1,0-2-0.9-2-2s0.9-2,2-2s2,0.9,2,2S446.1,173,445,173 M450,173
			c0-3.9-3.1-7-7-7v-2.5c5.2,0,9.5,4.3,9.5,9.5H450z M454.5,173c0-6.4-5.1-11.5-11.5-11.5V159c7.7,0,14,6.3,14,14H454.5z"/>
	</g>
	<polygon class="st3" points="5,0 5,10 0,5 	"/>
	<polygon class="st3" points="25,10 25,0 30,5 	"/>
	<polygon class="st1" points="841.6,1.6 841.6,4.9 844.9,4.9 844.9,14.4 835,14.4 835,1.6 	"/>
	<polygon class="st1" points="808.6,1.6 808.6,4.9 812,4.9 812,14.4 802,14.4 802,1.6 	"/>
	<path id="pdf-file-4-icon" class="st4" d="M808.1,1.6v3.3h3.3v9.6h-9.9V1.6H808.1z M809.1,0H800v16h13V3.9L809.1,0z M804.7,11.4
		c-0.2,0.1-0.5,0.3-0.6,0.4c-0.2,0.3-0.1,0.5,0.2,0.2C804.4,11.9,804.6,11.6,804.7,11.4z M808.2,10.5c0.2,0.1,0.4,0.3,0.7,0.3
		s0.3-0.2-0.1-0.3C808.7,10.4,808.5,10.4,808.2,10.5z M805.9,10.4c0.3-0.1,0.8-0.2,1-0.2c0,0-0.4-0.4-0.5-0.7
		C806.2,9.7,805.9,10.3,805.9,10.4z M806.2,7.2c0,0.2,0,0.6,0.1,0.8c0.1-0.2,0.2-0.6,0.2-0.9C806.4,7,806.2,7,806.2,7.2z
		 M803.8,11.4c0.3-0.3,0.7-0.5,1.4-0.8c0.3-0.6,0.6-1.2,0.8-1.8c-0.2-0.4-0.3-0.8-0.4-1.3c-0.2-1.6,1.6-1.5,1.4,0
		c-0.1,0.3-0.2,0.7-0.4,1.2c0.3,0.5,0.7,0.9,1,1.2c0.4-0.1,1-0.1,1.4-0.1c1.1,0.2,1,1.4,0,1.4c-0.5,0-1.2-0.4-1.6-0.7
		c-0.6,0.1-1.3,0.3-1.8,0.5c-0.2,0.3-0.4,0.8-0.6,1.1C804,13.5,802.8,12.3,803.8,11.4z"/>
	<path id="pdf-file-4-icon_1_" class="st5" d="M841.1,1.6v3.3h3.3v9.6h-9.9V1.6H841.1z M842.1,0H833v16h13V3.9L842.1,0z M836.8,11.4
		c0.3-0.3,0.7-0.5,1.4-0.8c0.3-0.6,0.6-1.2,0.8-1.8c-0.2-0.4-0.3-0.8-0.4-1.3c-0.2-1.6,1.6-1.5,1.4,0c-0.1,0.3-0.2,0.7-0.4,1.2
		c0.3,0.5,0.7,0.9,1,1.2c0.4-0.1,1-0.1,1.4-0.1c1.1,0.2,1,1.4,0,1.4c-0.5,0-1.2-0.4-1.6-0.7c-0.6,0.1-1.3,0.3-1.8,0.5
		c-0.2,0.3-0.4,0.8-0.6,1.1C837,13.5,835.8,12.3,836.8,11.4z M837.7,11.4c-0.2,0.1-0.5,0.3-0.6,0.4c-0.2,0.3-0.1,0.5,0.2,0.2
		C837.4,11.9,837.6,11.6,837.7,11.4z M841.2,10.5c0.2,0.1,0.4,0.3,0.7,0.3s0.3-0.2-0.1-0.3C841.7,10.4,841.5,10.4,841.2,10.5z
		 M838.9,10.4c0.3-0.1,0.8-0.2,1-0.2c0,0-0.4-0.4-0.5-0.7C839.2,9.7,838.9,10.3,838.9,10.4z M839.2,7.2c0,0.2,0,0.6,0.1,0.8
		c0.1-0.2,0.2-0.6,0.2-0.9C839.4,7,839.2,7,839.2,7.2z"/>
	<polygon class="st0" points="241.5,199.5 241,199 231,209 241,219 241.5,218.5 232,209 	"/>
	<polygon class="st0" points="272,201.4 271.6,201 263,209.5 271.6,218 272,217.6 263.9,209.5 	"/>
	<polygon class="st0" points="263,258.6 263.4,259 272,250.5 263.4,242 263,242.4 271.1,250.5 	"/>
	<polygon class="st0" points="231,259.5 231.5,260 241.5,250 231.5,240 231,240.5 240.5,250 	"/>
	<polygon class="st1" points="200,259.5 200.5,260 210.5,250 200.5,240 200,240.5 209.5,250 	"/>
	<g class="st6">
		<rect x="0" y="90" class="st7" width="13" height="3"/>
		<rect x="1" y="91" class="st8" width="2" height="1"/>
		<rect x="0" y="94" class="st9" width="13" height="9"/>
		<rect x="1" y="95" class="st8" width="11" height="7"/>
		<path class="st10" d="M12,97v-1h-1v-1h-1v1H9v-1H8v1H7v-1H6v1H5v-1H4v1H3v-1H2v1H1v1h1v1H1v1h1v1H1v1h1v1h1v-1h1v1h1v-1h1v1h1v-1
			h1v1h1v-1h1v1h1v-1h1v-1h-1v-1h1v-1h-1v-1H12z M8,97v1H7v-1H8z M6,97v1H5v-1H6z M3,97h1v1H3V97z M3,100v-1h1v1H3z M5,100v-1h1v1H5
			z M7,100v-1h1v1H7z M10,100H9v-1h1V100z M10,98H9v-1h1V98z"/>
		<g class="st11">
			<rect x="2" y="96" class="st12" width="1" height="1"/>
			<rect x="4" y="96" class="st12" width="1" height="1"/>
			<rect x="6" y="96" class="st12" width="1" height="1"/>
			<rect x="8" y="96" class="st12" width="1" height="1"/>
			<rect x="10" y="96" class="st12" width="1" height="1"/>
			<rect x="10" y="98" class="st12" width="1" height="1"/>
			<rect x="10" y="100" class="st12" width="1" height="1"/>
			<rect x="8" y="100" class="st12" width="1" height="1"/>
			<rect x="8" y="98" class="st12" width="1" height="1"/>
			<rect x="6" y="98" class="st12" width="1" height="1"/>
			<rect x="6" y="100" class="st12" width="1" height="1"/>
			<rect x="4" y="100" class="st12" width="1" height="1"/>
			<rect x="4" y="98" class="st12" width="1" height="1"/>
			<rect x="2" y="98" class="st12" width="1" height="1"/>
			<rect x="2" y="100" class="st12" width="1" height="1"/>
		</g>
	</g>
	<polygon class="st13" points="5,30 5,40 0,35 	"/>
	<polygon class="st13" points="25,40 25,30 30,35 	"/>
	<polygon class="st14" points="5,60 5,70 0,65 	"/>
	<polygon class="st14" points="25,70 25,60 30,65 	"/>
	<g class="st6">
		<rect x="33" y="90" class="st15" width="13" height="3"/>
		<rect x="34" y="91" class="st8" width="2" height="1"/>
		<rect x="33" y="94" class="st9" width="13" height="9"/>
		<rect x="34" y="95" class="st8" width="11" height="7"/>
		<path class="st10" d="M45,97v-1h-1v-1h-1v1h-1v-1h-1v1h-1v-1h-1v1h-1v-1h-1v1h-1v-1h-1v1h-1v1h1v1h-1v1h1v1h-1v1h1v1h1v-1h1v1h1
			v-1h1v1h1v-1h1v1h1v-1h1v1h1v-1h1v-1h-1v-1h1v-1h-1v-1H45z M41,97v1h-1v-1H41z M39,97v1h-1v-1H39z M36,97h1v1h-1V97z M36,100v-1h1
			v1H36z M38,100v-1h1v1H38z M40,100v-1h1v1H40z M43,100h-1v-1h1V100z M43,98h-1v-1h1V98z"/>
		<g class="st11">
			<rect x="35" y="96" class="st12" width="1" height="1"/>
			<rect x="37" y="96" class="st12" width="1" height="1"/>
			<rect x="39" y="96" class="st12" width="1" height="1"/>
			<rect x="41" y="96" class="st12" width="1" height="1"/>
			<rect x="43" y="96" class="st12" width="1" height="1"/>
			<rect x="43" y="98" class="st12" width="1" height="1"/>
			<rect x="43" y="100" class="st12" width="1" height="1"/>
			<rect x="41" y="100" class="st12" width="1" height="1"/>
			<rect x="41" y="98" class="st12" width="1" height="1"/>
			<rect x="39" y="98" class="st12" width="1" height="1"/>
			<rect x="39" y="100" class="st12" width="1" height="1"/>
			<rect x="37" y="100" class="st12" width="1" height="1"/>
			<rect x="37" y="98" class="st12" width="1" height="1"/>
			<rect x="35" y="98" class="st12" width="1" height="1"/>
			<rect x="35" y="100" class="st12" width="1" height="1"/>
		</g>
	</g>
	<path class="st0" d="M635,16c-0.4-1.8-1-3.3-1.8-4.7c-0.6-1-1.3-2-1.9-3c-0.2-0.3-0.4-0.7-0.6-1c-0.4-0.7-0.7-1.5-0.7-2.5
		s0.3-1.8,0.7-2.5c0.7-1.1,1.9-2,3.5-2.2c1.3-0.2,2.5,0.1,3.4,0.6c0.7,0.4,1.2,0.9,1.7,1.6c0.4,0.7,0.7,1.5,0.8,2.5
		c0,0.5-0.1,1-0.2,1.4c-0.1,0.4-0.3,0.8-0.5,1.1c-0.3,0.7-0.8,1.4-1.2,2C636.8,11.3,635.5,13.3,635,16"/>
	<path class="st2" d="M11.8,111.6v1.6H9.3v-1.6H4.8v1.6H2.3v-1.6H1.6c-0.4,0-0.8,0.2-1.1,0.5S0,112.8,0,113.2v9.3
		c0,0.4,0.2,0.8,0.5,1.1c0.3,0.3,0.7,0.5,1.1,0.5h10.9c0.4,0,0.8-0.2,1.1-0.5s0.5-0.7,0.5-1.1v-9.3c0-0.4-0.2-0.8-0.5-1.1
		c-0.3-0.3-0.7-0.5-1.1-0.5H11.8z M12.4,122.4H1.6v-6.2h10.9L12.4,122.4L12.4,122.4z M4,110H3v2.6h1V110z M11,110h-1v2.6h1V110z"/>
	<path class="st0" d="M41.8,111.6v1.6h-2.5v-1.6h-4.5v1.6h-2.5v-1.6h-0.7c-0.4,0-0.8,0.2-1.1,0.5s-0.5,0.7-0.5,1.1v9.3
		c0,0.4,0.2,0.8,0.5,1.1c0.3,0.3,0.7,0.5,1.1,0.5h10.9c0.4,0,0.8-0.2,1.1-0.5s0.5-0.7,0.5-1.1v-9.3c0-0.4-0.1-0.8-0.5-1.1
		c-0.3-0.3-0.7-0.5-1.1-0.5H41.8z M42.4,122.4H31.6v-6.2h10.9L42.4,122.4L42.4,122.4z M34,110h-1v2.6h1V110z M41,110h-1v2.6h1V110z"
		/>
	<path class="st2" d="M24.1,8.4C24,8.5,24,8.5,24,8.6s0,0.2,0.1,0.3C24.2,9,24.3,9,24.4,9s0.2,0,0.3-0.1L29,4.8c0-0.1,0-0.2,0-0.3
		s0-0.2-0.1-0.3l-4.3-4.1C24.6,0,24.5,0,24.4,0s-0.2,0-0.3,0.1S24,0.3,24,0.4s0,0.2,0.1,0.3L28,4.5L24.1,8.4z"/>
	<path class="st2" d="M4.9,8.4C5,8.5,5,8.5,5,8.6s0,0.2-0.1,0.3C4.8,9,4.7,9,4.6,9C4.5,9,4.4,9,4.4,8.9L0.1,4.8C0,4.7,0,4.6,0,4.5
		s0-0.2,0.1-0.3l4.3-4.1C4.4,0,4.5,0,4.6,0s0.2,0,0.3,0.1S5,0.3,5,0.4s0,0.2-0.1,0.3L1,4.5L4.9,8.4z"/>
	<path class="st0" d="M24.1,38.4C24,38.5,24,38.5,24,38.6s0,0.2,0.1,0.3c0.1,0.1,0.2,0.1,0.3,0.1s0.2,0,0.3-0.1l4.3-4.1
		c0.1-0.1,0.1-0.2,0.1-0.3s0-0.2-0.1-0.3l-4.3-4.1C24.6,30,24.5,30,24.4,30s-0.2,0-0.3,0.1S24,30.3,24,30.4s0,0.2,0.1,0.3l3.9,3.9
		L24.1,38.4z"/>
	<path class="st0" d="M4.9,38.4C5,38.5,5,38.5,5,38.6s0,0.2-0.1,0.3C4.8,39,4.7,39,4.6,39c-0.1,0-0.2,0-0.3-0.1L0,34.8
		c0-0.1,0-0.2,0-0.3s0-0.2,0.1-0.3l4.3-4.1C4.4,30,4.5,30,4.6,30s0.2,0,0.3,0.1S5,30.3,5,30.4s0,0.2-0.1,0.3L1,34.5L4.9,38.4z"/>
	<path class="st16" d="M24.1,68.9C24,69,24,69,24,69.1s0,0.2,0.1,0.3c0.1,0.1,0.2,0.1,0.3,0.1s0.2,0,0.3-0.1l4.3-4.1
		c0-0.1,0-0.2,0-0.3s0-0.2-0.1-0.3l-4.3-4.1c-0.1-0.1-0.2-0.1-0.3-0.1s-0.2,0-0.3,0.1c0,0.1,0,0.2,0,0.3s0,0.2,0.1,0.3L28,65
		L24.1,68.9z"/>
	<path class="st16" d="M4.9,68.4C5,68.5,5,68.5,5,68.6s0,0.2-0.1,0.3C4.8,69,4.7,69,4.6,69c-0.1,0-0.2,0-0.3-0.1L0,64.8
		c0-0.1,0-0.2,0-0.3s0-0.2,0.1-0.3l4.3-4.1C4.4,60,4.5,60,4.6,60s0.2,0,0.3,0.1S5,60.3,5,60.4s0,0.2-0.1,0.3L1,64.5L4.9,68.4z"/>
	<polygon class="st2" points="173.5,7.5 166,0 165,1 172.5,8.5 165,16 166,17 173.5,9.5 181,17 182,16 174.5,8.5 182,1 181,0 	"/>
	<path class="st17" d="M71.8,111.6v1.6h-2.5v-1.6h-4.5v1.6h-2.5v-1.6h-0.7c-0.4,0-0.8,0.2-1.1,0.5s-0.5,0.7-0.5,1.1v9.3
		c0,0.4,0.2,0.8,0.5,1.1c0.3,0.3,0.7,0.5,1.1,0.5h10.9c0.4,0,0.8-0.2,1.1-0.5s0.5-0.7,0.5-1.1v-9.3c0-0.4-0.1-0.8-0.5-1.1
		c-0.3-0.3-0.7-0.5-1.1-0.5H71.8z M72.4,122.4H61.6v-6.2h10.9L72.4,122.4L72.4,122.4z M64,110h-1v2.6h1V110z M71,110h-1v2.6h1V110z"
		/>
</g>
</svg>
