<?xml version="1.0" encoding="utf-8"?>
<!-- Generator: Adobe Illustrator 19.2.0, SVG Export Plug-In . SVG Version: 6.00 Build 0)  -->
<svg version="1.1" id="Layer_1" xmlns="http://www.w3.org/2000/svg" xmlns:xlink="http://www.w3.org/1999/xlink" x="0px" y="0px"
	 width="283px" height="491px" viewBox="0 0 283 491" style="enable-background:new 0 0 283 491;" xml:space="preserve">
<style type="text/css">
	.st0{fill:#332211;}
	.st1{fill:#BBA990;}
	.st2{fill:#FFFFFF;}
	.st3{fill:#86754D;}
	.st4{fill:#050404;}
	.st5{fill:#A58E63;}
</style>
<circle class="st0" cx="167.6" cy="250.5" r="17.5"/>
<circle class="st0" cx="117.6" cy="250.5" r="17.5"/>
<circle class="st1" cx="67.6" cy="250.5" r="17.5"/>
<circle class="st1" cx="17.6" cy="250.5" r="17.5"/>
<path class="st2" d="M80.5,127c-0.3,0.3-0.4,0.6-0.4,1c0,0.4,0.1,0.7,0.4,1s0.6,0.4,1,0.4s0.7-0.1,1-0.4l16.7-16.7
	c0.3-0.3,0.4-0.6,0.4-1.1s-0.1-0.8-0.4-1.1L82.5,93.4c-0.3-0.3-0.6-0.4-1-0.4s-0.7,0.1-1,0.4s-0.4,0.6-0.4,1s0.1,0.7,0.4,1
	l15.2,15.8L80.5,127z"/>
<path class="st2" d="M4,111.3l15.2-15.8c0.3-0.3,0.4-0.6,0.4-1s-0.1-0.7-0.4-1s-0.6-0.4-1-0.4s-0.7,0.1-1,0.4L0.5,110.2
	c-0.3,0.3-0.4,0.6-0.4,1.1c0,0.4,0.1,0.8,0.4,1.1l16.7,16.7c0.3,0.3,0.6,0.4,1,0.4s0.7-0.1,1-0.4s0.4-0.6,0.4-1s-0.1-0.7-0.4-1
	L4,111.3z"/>
<path class="st1" d="M117.5,127c-0.3,0.3-0.4,0.6-0.4,1c0,0.4,0.1,0.7,0.4,1s0.6,0.4,1,0.4s0.7-0.1,1-0.4l16.7-16.7
	c0.3-0.3,0.4-0.6,0.4-1.1c0-0.4-0.1-0.8-0.4-1.1l-16.7-16.7c-0.3-0.3-0.6-0.4-1-0.4s-0.7,0.1-1,0.4s-0.4,0.6-0.4,1s0.1,0.7,0.4,1
	l15.2,15.8L117.5,127z"/>
<path class="st1" d="M40,111.3l15.2-15.8c0.3-0.3,0.4-0.6,0.4-1s-0.1-0.7-0.4-1s-0.6-0.4-1-0.4s-0.7,0.1-1,0.4l-16.7,16.7
	c-0.3,0.3-0.4,0.6-0.4,1.1c0,0.4,0.1,0.8,0.4,1.1l16.7,16.7c0.3,0.3,0.6,0.4,1,0.4s0.7-0.1,1-0.4s0.4-0.6,0.4-1s-0.1-0.7-0.4-1
	L40,111.3z"/>
<path class="st2" d="M20.2,257.4c0.1,0.1,0.2,0.3,0.2,0.4s-0.1,0.3-0.2,0.4s-0.3,0.2-0.4,0.2c-0.2,0-0.3-0.1-0.4-0.2l-7.1-7.1
	c-0.1-0.1-0.2-0.3-0.2-0.4s0.1-0.3,0.2-0.5l7.1-7.1c0.1-0.1,0.3-0.2,0.4-0.2c0.2,0,0.3,0.1,0.4,0.2c0.1,0.1,0.2,0.3,0.2,0.4
	c0,0.2-0.1,0.3-0.2,0.4l-6.4,6.7L20.2,257.4z"/>
<path class="st2" d="M64.3,257.4c-0.1,0.1-0.2,0.3-0.2,0.4s0.1,0.3,0.2,0.4s0.3,0.2,0.4,0.2s0.3-0.1,0.4-0.2l7.1-7.1
	c0.1-0.1,0.2-0.3,0.2-0.4s-0.1-0.3-0.2-0.5l-7.1-7.1c-0.1-0.1-0.3-0.2-0.4-0.2s-0.3,0.1-0.4,0.2s-0.2,0.3-0.2,0.4s0.1,0.3,0.2,0.4
	l6.4,6.7L64.3,257.4z"/>
<path class="st2" d="M120.2,257.4c0.1,0.1,0.2,0.3,0.2,0.4s-0.1,0.3-0.2,0.4s-0.3,0.2-0.4,0.2s-0.3-0.1-0.4-0.2l-7.1-7.1
	c-0.1-0.1-0.2-0.3-0.2-0.4s0.1-0.3,0.2-0.4l7.1-7.1c0.1-0.1,0.3-0.2,0.4-0.2s0.3,0.1,0.4,0.2s0.2,0.3,0.2,0.4s-0.1,0.3-0.2,0.4
	l-6.4,6.7L120.2,257.4z"/>
<path class="st2" d="M164.3,257.4c-0.1,0.1-0.2,0.3-0.2,0.4s0.1,0.3,0.2,0.4c0.1,0.1,0.3,0.2,0.4,0.2c0.1,0,0.3-0.1,0.4-0.2l7.1-7.1
	c0.1-0.1,0.2-0.3,0.2-0.4s-0.1-0.3-0.2-0.4l-7.1-7.1c-0.1-0.1-0.3-0.2-0.4-0.2c-0.1,0-0.3,0.1-0.4,0.2c-0.1,0.1-0.2,0.3-0.2,0.4
	s0.1,0.3,0.2,0.4l6.4,6.7L164.3,257.4z"/>
<path class="st1" d="M224.8,488.7l-2.7-2.5c-0.1-0.1-0.2-0.2-0.4-0.2s-0.3,0.1-0.4,0.2c-0.1,0.1-0.2,0.2-0.2,0.4
	c0,0.1,0.1,0.3,0.2,0.4l3.1,3.1c0.1,0.1,0.2,0.2,0.4,0.2c0.1,0,0.3-0.1,0.4-0.2l3.1-3.1c0.1-0.1,0.2-0.2,0.2-0.4s-0.1-0.3-0.2-0.4
	c-0.1-0.1-0.2-0.2-0.4-0.2c-0.1,0-0.3,0.1-0.4,0.2L224.8,488.7z"/>
<path class="st0" d="M247.8,432.7l-2.7-2.5c-0.1-0.1-0.2-0.2-0.4-0.2s-0.3,0.1-0.4,0.2c-0.1,0.1-0.2,0.2-0.2,0.4
	c0,0.1,0.1,0.3,0.2,0.4l3.1,3.1c0.1,0.1,0.2,0.2,0.4,0.2c0.1,0,0.3-0.1,0.4-0.2l3.1-3.1c0.1-0.1,0.2-0.2,0.2-0.4
	c0-0.1-0.1-0.3-0.2-0.4s-0.2-0.2-0.4-0.2c-0.1,0-0.3,0.1-0.4,0.2L247.8,432.7z"/>
<path class="st0" d="M197.8,98.7l-2.5,2.7c-0.1,0.1-0.2,0.2-0.2,0.4s0.1,0.3,0.2,0.4c0.1,0.1,0.2,0.2,0.4,0.2c0.1,0,0.3-0.1,0.4-0.2
	l3.1-3.1c0.1-0.1,0.2-0.2,0.2-0.4s-0.1-0.3-0.2-0.4l-3.1-3.1c-0.1-0.1-0.2-0.2-0.4-0.2c-0.1,0-0.3,0.1-0.4,0.2
	c-0.1,0.1-0.2,0.2-0.2,0.4c0,0.1,0.1,0.3,0.2,0.4L197.8,98.7z"/>
<path class="st1" d="M232.8,98.7l-2.5,2.7c-0.1,0.1-0.2,0.2-0.2,0.4s0.1,0.3,0.2,0.4c0.1,0.1,0.2,0.2,0.4,0.2c0.1,0,0.3-0.1,0.4-0.2
	l3.1-3.1c0.1-0.1,0.2-0.2,0.2-0.4s-0.1-0.3-0.2-0.4l-3.1-3.1c-0.1-0.1-0.2-0.2-0.4-0.2c-0.1,0-0.3,0.1-0.4,0.2s-0.2,0.2-0.2,0.4
	c0,0.1,0.1,0.3,0.2,0.4L232.8,98.7z"/>
<path class="st2" d="M7.1,312.2c-0.5,0.5-0.8,1.2-0.8,1.9s0.3,1.4,0.8,1.9s1.2,0.8,1.9,0.8c0.8,0,1.4-0.3,1.9-0.8s0.8-1.2,0.8-1.9
	c0-0.8-0.3-1.4-0.8-1.9s-1.2-0.8-1.9-0.8S7.6,311.7,7.1,312.2z M14,308.7c-0.1,0-0.3-0.1-0.4-0.2c-0.1-0.1-0.2-0.2-0.3-0.4l-0.5-1.7
	c0-0.1-0.1-0.3-0.3-0.4c-0.1-0.1-0.3-0.1-0.4-0.1H6c-0.1,0-0.3,0-0.4,0.1s-0.2,0.2-0.3,0.4l-0.5,1.7c0,0.1-0.1,0.3-0.3,0.4
	c-0.1,0.1-0.3,0.2-0.4,0.2H1.9c-0.5,0-0.9,0.2-1.3,0.5s-0.5,0.8-0.5,1.3v8.1c0,0.5,0.2,0.9,0.5,1.3c0.4,0.4,0.8,0.5,1.3,0.5h14.4
	c0.5,0,0.9-0.2,1.3-0.5c0.3-0.4,0.5-0.8,0.5-1.3v-8.1c0-0.5-0.2-0.9-0.5-1.3c-0.4-0.3-0.8-0.5-1.3-0.5H14L14,308.7z M7.3,318.2
	c-0.5-0.2-1-0.6-1.4-1s-0.7-0.9-1-1.4c-0.2-0.5-0.4-1.1-0.4-1.7s0.1-1.2,0.4-1.7c0.2-0.5,0.6-1,1-1.4s0.9-0.7,1.4-1
	c0.5-0.2,1.1-0.4,1.7-0.4c0.6,0,1.2,0.1,1.7,0.4c0.5,0.2,1,0.6,1.4,1s0.7,0.9,1,1.4c0.2,0.5,0.4,1.1,0.4,1.7s-0.1,1.2-0.4,1.7
	c-0.2,0.5-0.6,1-1,1.4s-0.9,0.7-1.4,1c-0.5,0.2-1.1,0.4-1.7,0.4S7.8,318.5,7.3,318.2z M15.1,311.6c-0.1-0.1-0.2-0.3-0.2-0.5
	s0.1-0.3,0.2-0.5c0.1-0.1,0.3-0.2,0.5-0.2s0.3,0.1,0.4,0.2c0.1,0.1,0.2,0.3,0.2,0.5s-0.1,0.3-0.2,0.5c-0.1,0.1-0.3,0.2-0.4,0.2
	C15.4,311.8,15.2,311.7,15.1,311.6z"/>
<path class="st1" d="M7.1,362.2c-0.5,0.5-0.8,1.2-0.8,1.9s0.3,1.4,0.8,1.9s1.2,0.8,1.9,0.8c0.8,0,1.4-0.3,1.9-0.8s0.8-1.2,0.8-1.9
	c0-0.8-0.3-1.4-0.8-1.9s-1.2-0.8-1.9-0.8S7.6,361.7,7.1,362.2z M14,358.7c-0.1,0-0.3-0.1-0.4-0.2c-0.1-0.1-0.2-0.2-0.3-0.4l-0.5-1.7
	c0-0.1-0.1-0.3-0.3-0.4c-0.1-0.1-0.3-0.1-0.4-0.1H6c-0.1,0-0.3,0-0.4,0.1s-0.2,0.2-0.3,0.4l-0.5,1.7c0,0.1-0.1,0.3-0.3,0.4
	c-0.1,0.1-0.3,0.2-0.4,0.2H1.9c-0.5,0-0.9,0.2-1.3,0.5s-0.5,0.8-0.5,1.3v8.1c0,0.5,0.2,0.9,0.5,1.3c0.4,0.4,0.8,0.5,1.3,0.5h14.4
	c0.5,0,0.9-0.2,1.3-0.5c0.3-0.4,0.5-0.8,0.5-1.3v-8.1c0-0.5-0.2-0.9-0.5-1.3c-0.4-0.3-0.8-0.5-1.3-0.5H14L14,358.7z M7.3,368.2
	c-0.5-0.2-1-0.6-1.4-1s-0.7-0.9-1-1.4c-0.2-0.5-0.4-1.1-0.4-1.7s0.1-1.2,0.4-1.7c0.2-0.5,0.6-1,1-1.4s0.9-0.7,1.4-1
	c0.5-0.2,1.1-0.4,1.7-0.4c0.6,0,1.2,0.1,1.7,0.4c0.5,0.2,1,0.6,1.4,1s0.7,0.9,1,1.4c0.2,0.5,0.4,1.1,0.4,1.7s-0.1,1.2-0.4,1.7
	c-0.2,0.5-0.6,1-1,1.4s-0.9,0.7-1.4,1c-0.5,0.2-1.1,0.4-1.7,0.4C8.4,368.6,7.8,368.5,7.3,368.2z M15.1,361.6
	c-0.1-0.1-0.2-0.3-0.2-0.5s0.1-0.3,0.2-0.5c0.1-0.1,0.3-0.2,0.5-0.2s0.3,0.1,0.4,0.2c0.1,0.1,0.2,0.3,0.2,0.5s-0.1,0.3-0.2,0.5
	c-0.1,0.1-0.3,0.2-0.4,0.2C15.4,361.8,15.2,361.7,15.1,361.6z"/>
<g>
	<path class="st2" d="M20.1,200.7c0-0.4,0.1-0.9,0-1.5c0-0.6-0.1-1.1-0.1-1.7c0-0.6-0.1-1-0.1-1.2c0-0.1,0-0.4,0.1-0.7
		c0-0.2,0.1-0.6,0.1-1s0.1-0.7,0.1-1c0-0.2,0.1-0.5,0.1-0.6c0.2-0.9,0.6-1.5,1.1-1.9c0.5-0.5,1-0.9,1.5-1.1c0.5-0.4,1-0.6,1.5-0.9
		s0.7-0.6,1-1.2c0.6-1.6,0.6-2.8,0.1-3.8c-0.5-0.9-1.1-1.6-2.1-2.1c-0.9-0.5-1.9-0.7-2.7-1c-0.9-0.1-1.5-0.2-1.7-0.4
		c-0.5-0.1-1.1-0.2-1.9-0.4c-0.7,0-1.2,0-1.6,0.1c-0.2,0.1-0.7,0-1.2-0.5c-0.5-0.4-0.7-0.9-0.7-1.4c0-0.2,0.1-0.5,0.4-0.9
		c0.2-0.4,0.6-0.7,1-1.1c0.4-0.4,0.7-0.7,1.1-1.1c0.4-0.4,0.7-0.7,1-1c0.4-0.6,0.9-1.1,1.2-1.2c0.4-0.1,1-0.6,1.7-1.4
		c0.4-0.2,0.7-0.6,1.2-0.7c0.9-0.2,1.2-0.5,1.5-1c-3.3,0.5-6.3,1.7-8.9,3.8s-4.4,4.6-5.6,7.7c0.4,0,0.7,0.1,1.2,0.1s1,0.1,1.5,0.1
		c0.5,0.1,1,0.2,1.4,0.4c0.4,0.1,0.7,0.4,0.7,0.6c0.1,0.2,0.1,0.6,0,0.9c-0.1,0.2-0.4,0.6-0.5,1c-0.2,0.4-0.4,0.7-0.6,1.2
		c-0.1,0.5-0.2,1-0.2,1.6s0.1,1.1,0.5,1.5s0.7,0.7,1.1,1c0.4,0.2,0.7,0.6,1.1,0.9c0.4,0.2,0.5,0.7,0.5,1.1c0,1,0.1,2,0.4,3
		c0.2,1,0.4,1.6,0.4,2c0,0.1,0.1,0.5,0.5,1c0.2,0.5,0.6,0.9,1.1,1.5c0.5,0.5,0.9,1,1.2,1.4c0.4,0.4,0.7,0.6,1.1,0.6
		C19.9,201.3,20,201,20.1,200.7z"/>
	<path class="st2" d="M32.8,201.9c-1.1-0.2-2.1-0.2-2.8-0.1c-0.9,0.1-1.9,0.4-2.7,0.7c-0.9,0.4-1.7,0.6-2.2,0.7
		c-0.6,0.1-1.2,0.2-1.7,0.5c-0.5,0.1-1.1,0.2-1.6,0.2s-0.9,0.2-1,0.5c-0.4,0.2-0.7,0.6-1.2,0.9c0.9,0.2,1.9,0.5,2.7,0.6
		c1,0.1,2,0.2,3,0.2c3.8,0,7.2-1,10-3C34.8,202.5,33.9,202.1,32.8,201.9z"/>
	<path class="st2" d="M0.1,163v50.1h50V163H0.1z M44.8,196.3c-1.1,2.6-2.6,4.8-4.6,6.8s-4.2,3.5-6.8,4.6s-5.3,1.7-8.3,1.7
		s-5.7-0.6-8.3-1.7c-2.6-1.1-4.8-2.6-6.8-4.6s-3.5-4.2-4.6-6.8S3.7,191,3.7,188s0.6-5.7,1.7-8.3s2.6-4.8,4.6-6.8s4.2-3.5,6.8-4.6
		c2.5-1.1,5.3-1.7,8.3-1.7s5.7,0.6,8.3,1.7c2.6,1.1,4.8,2.6,6.8,4.6s3.5,4.2,4.6,6.8s1.7,5.3,1.7,8.3S45.9,193.7,44.8,196.3z"/>
	<path class="st2" d="M39.7,177.4c-1.1-1.5-2.5-2.8-4-4c-1.5-1.1-3.2-2-4.9-2.6c-0.5,0.7-0.7,1.2-0.7,1.5c0.1,1.2,0.4,2,0.7,2.2
		c0.4,0.2,0.9,0.4,1.4,0.2c0.5-0.1,1-0.2,1.4-0.5c0.5-0.2,0.7-0.2,1-0.1c0.6,0.6,0.7,1.2,0.4,1.7c-0.4,0.5-0.9,1-1.4,1.6
		c-0.6,0.6-1,1.2-1.4,2c-0.4,0.7-0.2,1.7,0.4,2.8s1.2,1.9,1.9,2.2c0.6,0.4,1.5,0.6,2.3,0.6c0.5,0,0.9,0.1,1.2,0.5
		c0.4,0.4,0.6,0.7,0.7,1.2c0.2,0.5,0.4,1,0.5,1.5s0.1,0.9,0.1,1.2c0,0.4,0.1,0.7,0.1,1.4c0,0.5,0,1.1-0.1,1.7c0,0.6-0.1,1.2-0.2,1.7
		c-0.1,0.6-0.2,1.1-0.4,1.5c-0.4,0.7-0.4,1.4-0.1,2c0.2,0.6,0.5,1.1,0.7,1.4c1.2-1.5,2.1-3.2,2.8-5.2c0.9-2,1.1-4,1.1-6
		s-0.4-4-1-5.7C41.7,180.5,40.8,178.9,39.7,177.4z"/>
</g>
<path class="st2" d="M41,321v-2.8h2.8v2.8H41z M44.4,321v-2.8h3.1v2.8H44.4z M41,317.6v-3.1h2.8v3.1H41z M44.4,317.6v-3.1h3.1v3.1
	H44.4z M41,313.9v-2.8h2.8v2.8H41z M48.1,321v-2.8h3.1v2.8H48.1z M44.4,313.9v-2.8h3.1v2.8H44.4z M51.8,321v-2.8h2.8v2.8H51.8z
	 M48.1,317.6v-3.1h3.1v3.1H48.1z M44.7,309.3c0,0.2-0.1,0.3-0.3,0.3h-0.6c-0.2,0-0.3-0.1-0.3-0.3v-2.8c0-0.2,0.1-0.3,0.3-0.3h0.6
	c0.2,0,0.3,0.1,0.3,0.3V309.3z M51.8,317.6v-3.1h2.8v3.1H51.8z M48.1,313.9v-2.8h3.1v2.8H48.1z M51.8,313.9v-2.8h2.8v2.8H51.8z
	 M52.1,309.3c0,0.2-0.1,0.3-0.3,0.3h-0.6c-0.2,0-0.3-0.1-0.3-0.3v-2.8c0-0.2,0.1-0.3,0.3-0.3h0.6c0.2,0,0.3,0.1,0.3,0.3V309.3z
	 M55.8,308.7c0-0.7-0.6-1.2-1.2-1.2h-1.2v-0.9c0-0.8-0.7-1.5-1.5-1.5h-0.6c-0.8,0-1.5,0.7-1.5,1.5v0.9h-3.7v-0.9
	c0-0.8-0.7-1.5-1.5-1.5H44c-0.8,0-1.5,0.7-1.5,1.5v0.9h-1.2c-0.7,0-1.2,0.6-1.2,1.2V321c0,0.7,0.6,1.2,1.2,1.2h13.6
	c0.7,0,1.2-0.6,1.2-1.2v-12.3H55.8z"/>
<path class="st1" d="M41,371v-2.8h2.8v2.8H41z M44.4,371v-2.8h3.1v2.8H44.4z M41,367.6v-3.1h2.8v3.1H41z M44.4,367.6v-3.1h3.1v3.1
	H44.4z M41,363.9v-2.8h2.8v2.8H41z M48.1,371v-2.8h3.1v2.8H48.1z M44.4,363.9v-2.8h3.1v2.8H44.4z M51.8,371v-2.8h2.8v2.8H51.8z
	 M48.1,367.6v-3.1h3.1v3.1H48.1z M44.7,359.3c0,0.2-0.1,0.3-0.3,0.3h-0.6c-0.2,0-0.3-0.1-0.3-0.3v-2.8c0-0.2,0.1-0.3,0.3-0.3h0.6
	c0.2,0,0.3,0.1,0.3,0.3V359.3z M51.8,367.6v-3.1h2.8v3.1H51.8z M48.1,363.9v-2.8h3.1v2.8H48.1z M51.8,363.9v-2.8h2.8v2.8H51.8z
	 M52.1,359.3c0,0.2-0.1,0.3-0.3,0.3h-0.6c-0.2,0-0.3-0.1-0.3-0.3v-2.8c0-0.2,0.1-0.3,0.3-0.3h0.6c0.2,0,0.3,0.1,0.3,0.3V359.3z
	 M55.8,358.7c0-0.7-0.6-1.2-1.2-1.2h-1.2v-0.9c0-0.8-0.7-1.5-1.5-1.5h-0.6c-0.8,0-1.5,0.7-1.5,1.5v0.9h-3.7v-0.9
	c0-0.8-0.7-1.5-1.5-1.5H44c-0.8,0-1.5,0.7-1.5,1.5v0.9h-1.2c-0.7,0-1.2,0.6-1.2,1.2V371c0,0.7,0.6,1.2,1.2,1.2h13.6
	c0.7,0,1.2-0.6,1.2-1.2v-12.3H55.8z"/>
<g>
	<path class="st2" d="M154.7,182c-0.1,0-0.1,0-0.3,0c-1.1,0-2,0.5-2.7,1.1c-0.6,0.6-1.1,1.4-0.9,2.2c0.1,1.7,1.9,2.7,4.1,2.4
		c2.2-0.3,3.6-1.4,3.4-2.9C157.9,183.1,156.6,182,154.7,182z"/>
	<path class="st2" d="M157.3,173.6c-0.7-2.1-1.5-2.6-3-2.6c-0.1,0-0.3,0-0.5,0c-0.7,0.1-1.2,0.8-1.5,1.5c-0.3,0.8-0.3,1.6,0,2.6
		c0.5,1.6,1.6,3,3,3c0.1,0,0.3,0,0.5,0C157,177.4,157.9,175.4,157.3,173.6z"/>
	<path class="st2" d="M235,183c0-0.1,0-0.4,0-0.6s0-0.5,0-0.7s0-0.4,0-0.5s0-0.1,0-0.2s0-0.2,0.1-0.4c0-0.1,0-0.2,0.1-0.4
		c0-0.1,0-0.2,0.1-0.2c0.1-0.4,0.2-0.6,0.5-0.7c0.2-0.1,0.4-0.4,0.6-0.5c0.2-0.1,0.4-0.2,0.6-0.4c0.2-0.1,0.4-0.2,0.4-0.5
		c0.2-0.6,0.2-1.2,0.1-1.6c-0.2-0.4-0.5-0.6-0.9-0.9c-0.4-0.2-0.7-0.4-1.1-0.4s-0.6-0.1-0.7-0.1c-0.2-0.1-0.5-0.1-0.7-0.1
		s-0.5,0-0.7,0c-0.1,0-0.2,0-0.5-0.2c-0.2-0.1-0.4-0.4-0.4-0.6c0-0.1,0-0.2,0.1-0.4c0.1-0.1,0.2-0.2,0.4-0.5
		c0.1-0.1,0.4-0.4,0.5-0.5s0.2-0.2,0.4-0.4c0.1-0.2,0.4-0.5,0.5-0.5c0.1-0.1,0.4-0.2,0.7-0.6c0.1-0.1,0.4-0.2,0.5-0.4
		c0.2-0.1,0.4-0.2,0.5-0.4c-1.3,0.2-2.6,0.7-3.6,1.6c-1.1,0.9-1.8,1.9-2.3,3.2c0.1,0,0.4,0,0.5,0c0.2,0,0.4,0,0.6,0.1
		c0.2,0,0.4,0.1,0.6,0.1c0.1,0.1,0.2,0.1,0.4,0.2c0,0.1,0,0.2,0,0.4c-0.1,0.1-0.1,0.2-0.2,0.4s-0.1,0.4-0.2,0.5
		c-0.1,0.2-0.1,0.4-0.1,0.6s0.1,0.5,0.2,0.6c0.1,0.1,0.2,0.2,0.5,0.4c0.1,0.1,0.4,0.2,0.5,0.4c0.1,0.1,0.2,0.2,0.2,0.5
		c0,0.4,0,0.9,0.1,1.2c0.1,0.4,0.1,0.7,0.1,0.9s0,0.2,0.2,0.4c0.1,0.2,0.2,0.4,0.5,0.6c0.2,0.2,0.4,0.4,0.5,0.5s0.4,0.2,0.5,0.2
		C234.9,183.2,235,183.1,235,183z"/>
	<path class="st2" d="M95.9,163.6v28h186.7v-28H95.9z M112.2,172.9h-3.1c-0.5,0-0.7,0.5-0.7,1.2v2.1h3.9v3.2h-3.9v9.5h-3.8v-9.5
		h-3.3v-3.2h3.3v-1.9c0-2.7,1.9-4.8,4.5-4.8h3.1V172.9z M139.1,174.9c0,0.1,0,0.2,0,0.6c0,5.4-4,11.4-11.4,11.4
		c-2.2,0-4.5-0.7-6.1-1.9c0.2,0,0.6,0,1.1,0c1.9,0,3.5-0.6,5.1-1.8c-1.8,0-3.3-1.2-3.8-2.8c0.2,0.1,0.5,0.1,0.7,0.1
		c0.5,0,0.7,0,1.2-0.1c-1.9-0.5-3.2-2-3.2-4l0,0c0.6,0.2,1.2,0.5,1.9,0.6c-1.2-0.7-1.9-2-1.9-3.4c0-0.7,0.2-1.4,0.6-2
		c2,2.5,5.1,4.1,8.5,4.1c-0.1-0.2-0.1-0.6-0.1-0.8c0-2.2,1.9-4,4.1-4c1.2,0,2.1,0.5,2.8,1.3c1.1-0.1,1.9-0.6,2.6-1.1
		c-0.2,1.1-1.1,1.8-1.8,2.2c0.8-0.1,1.5-0.2,2.2-0.7C140.5,173.6,140.1,174.3,139.1,174.9z M157.8,188.5c-1.3,0.7-2.8,0.7-3.3,0.7
		c-0.1,0-0.1,0-0.1,0s0,0-0.1,0c-0.8,0-5.2-0.1-5.2-4.1c0-3.9,4.6-4.1,6.1-4.1l0,0c-0.7-1.2-0.7-2.2-0.7-2.2s-0.1,0-0.2,0
		c-0.6,0-1.5-0.1-2.3-0.7c-1.2-0.7-1.6-1.9-1.6-3.5c0-4.6,5-4.8,5.2-4.8h5v0.1c0,0.6-1.1,0.7-1.8,0.7c-0.1,0-0.7,0-0.8,0.1
		c1.3,0.7,1.5,1.8,1.5,3.4c0,1.9-0.7,2.8-1.5,3.5c-0.5,0.5-0.8,0.7-0.8,1.2s0.6,0.8,1.2,1.5c1.1,0.8,2.3,1.9,2.3,4
		C160.5,186.2,159.6,187.6,157.8,188.5z M169.1,179.4h-3.3v3.3h-2.1v-3.3h-3.3v-2.1h3.3V174h2.1v3.3h3.3V179.4z M184.8,181.9
		c-1.1-0.1-1.6-0.6-2.4-1.2c-0.5,2.6-1.1,4.9-2.8,6.2c-0.5-3.8,0.7-6.7,1.3-9.7c-1-1.7,0.1-5.4,2.3-4.4c2.7,1.1-2.3,6.6,1.1,7.2
		c3.5,0.7,5-6.2,2.8-8.4c-3.2-3.2-9.2-0.1-8.5,4.6c0.2,1.1,1.3,1.5,0.5,3c-2.1-0.5-2.7-2.1-2.6-4.3c0.1-3.5,3.2-6,6.2-6.3
		c3.9-0.5,7.4,1.5,7.9,5C191.3,177.7,188.9,182.1,184.8,181.9z M201.7,172.7c0-1.5,1.2-2.7,2.7-2.7h12.2c1.5,0,2.7,1.2,2.7,2.7v3.1
		h-4.5c-1-1.4-2.6-2.2-4.4-2.2s-3.4,0.8-4.4,2.2h-4.5v-3.1H201.7z M213.8,178.7c0,1.8-1.5,3.3-3.3,3.3s-3.3-1.5-3.3-3.3
		s1.5-3.3,3.3-3.3S213.8,177,213.8,178.7z M219.5,184.8c0,1.5-1.2,2.7-2.7,2.7h-12.3c-1.5,0-2.7-1.2-2.7-2.7v-7.1h3.6
		c0,0.2-0.1,0.7-0.1,1.1c0,2.9,2.4,5.3,5.3,5.3c2.9,0,5.3-2.5,5.3-5.3c0-0.5,0-0.7-0.1-1.1h3.6L219.5,184.8L219.5,184.8z
		 M245.1,181.1c-0.5,1.1-1.1,1.9-1.8,2.8c-0.9,0.7-1.7,1.5-2.8,1.8c-1.1,0.5-2.2,0.7-3.4,0.7s-2.3-0.2-3.4-0.7s-1.9-1.1-2.8-1.8
		c-0.9-0.7-1.5-1.7-1.8-2.8c-0.5-1.1-0.7-2.2-0.7-3.4s0.2-2.3,0.7-3.4s1.1-1.9,1.8-2.8c0.7-0.7,1.7-1.5,2.8-1.8
		c1.1-0.5,2.2-0.7,3.4-0.7s2.3,0.2,3.4,0.7s1.9,1.1,2.8,1.8c0.7,0.7,1.5,1.7,1.8,2.8c0.5,1.1,0.7,2.2,0.7,3.4S245.6,180,245.1,181.1
		z M270.3,179.2c-0.2,1.7-0.9,1.9-2.2,2.1c-1.9,0.1-6.2,0.1-8.1,0c-1.3-0.1-2.1-0.4-2.2-2.1c-0.1-1.2-0.1-3.4,0-4.7
		c0.2-1.7,0.9-1.9,2.2-2.1c1.9-0.1,6.2-0.1,8.1,0c1.3,0.1,2.1,0.4,2.2,2.1C270.4,175.8,270.4,178,270.3,179.2z"/>
	<path class="st2" d="M239.1,183.3c-0.4,0-0.7,0.1-1.1,0.4c-0.4,0.1-0.7,0.2-1,0.4c-0.2,0-0.5,0.1-0.7,0.1c-0.2,0.1-0.5,0.1-0.7,0.1
		s-0.4,0.1-0.4,0.2c-0.1,0.1-0.2,0.2-0.5,0.4c0.4,0.1,0.7,0.2,1.1,0.2c0.4,0,0.9,0.1,1.2,0.1c1.6,0,2.9-0.4,4.1-1.2
		c-0.1-0.2-0.5-0.5-1-0.6C239.8,183.3,239.3,183.3,239.1,183.3z"/>
	<path class="st2" d="M243.1,173.4c-0.5-0.6-1-1.1-1.6-1.6s-1.3-0.9-2.1-1.1c-0.2,0.2-0.4,0.5-0.2,0.6c0,0.5,0.1,0.9,0.4,1
		c0.1,0.1,0.4,0.1,0.5,0.1c0.2,0,0.4-0.1,0.6-0.2s0.4-0.1,0.4,0c0.2,0.2,0.2,0.5,0.1,0.7s-0.4,0.4-0.6,0.6c-0.2,0.2-0.4,0.5-0.6,0.9
		c-0.1,0.2-0.1,0.7,0.1,1.1c0.2,0.5,0.5,0.7,0.7,1c0.2,0.1,0.6,0.2,1,0.2c0.2,0,0.4,0.1,0.5,0.2c0.1,0.1,0.2,0.4,0.4,0.5
		c0.1,0.2,0.1,0.4,0.2,0.6c0,0.2,0.1,0.4,0.1,0.5s0,0.4,0,0.6s0,0.5,0,0.7s0,0.5-0.1,0.7c0,0.2-0.1,0.5-0.1,0.6
		c-0.1,0.2-0.1,0.6-0.1,0.9c0.1,0.2,0.2,0.5,0.4,0.6c0.5-0.6,0.9-1.3,1.1-2.1c0.2-0.7,0.4-1.6,0.4-2.4c0-0.9-0.1-1.6-0.4-2.3
		C243.9,174.7,243.6,174,243.1,173.4z"/>
	<path class="st2" d="M215.6,173.7h1.5c0.2,0,0.6-0.2,0.6-0.6v-1.5c0-0.2-0.2-0.6-0.6-0.6h-1.5c-0.2,0-0.6,0.2-0.6,0.6v1.5
		C215,173.4,215.2,173.7,215.6,173.7z"/>
	<polygon class="st2" points="262.8,178.7 266.2,176.9 262.8,175.1 	"/>
</g>
<path class="st0" d="M89.5,311.6c-0.2,0.3-0.5,0.5-0.8,0.7c-1.3,0.9-2.7,1.8-4,2.8c-0.7,0.5-1.5,1.1-2.4,1.1l0,0l0,0
	c-0.9,0-1.7-0.6-2.4-1.1c-1.3-1-2.7-1.9-4-2.8c-0.3-0.2-0.6-0.4-0.8-0.7v6.4c0,0.7,0.6,1.3,1.3,1.3h11.8c0.7,0,1.3-0.6,1.3-1.3
	V311.6z M89.5,309.3c0-0.7-0.6-1.3-1.3-1.3H76.4c-0.9,0-1.3,0.7-1.3,1.5c0,0.7,0.8,1.6,1.4,2c1.2,0.9,2.5,1.7,3.8,2.6
	c0.5,0.4,1.4,1.1,2.1,1.1l0,0l0,0c0.7,0,1.5-0.7,2.1-1.1c1.2-0.9,2.5-1.7,3.8-2.6C88.8,311,89.5,310.2,89.5,309.3z"/>
<path class="st1" d="M89.5,361.6c-0.2,0.3-0.5,0.5-0.8,0.7c-1.3,0.9-2.7,1.8-4,2.8c-0.7,0.5-1.5,1.1-2.4,1.1l0,0l0,0
	c-0.9,0-1.7-0.6-2.4-1.1c-1.3-1-2.7-1.9-4-2.8c-0.3-0.2-0.6-0.4-0.8-0.7v6.4c0,0.7,0.6,1.3,1.3,1.3h11.8c0.7,0,1.3-0.6,1.3-1.3
	V361.6z M89.5,359.3c0-0.7-0.6-1.3-1.3-1.3H76.4c-0.9,0-1.3,0.7-1.3,1.5c0,0.7,0.8,1.6,1.4,2c1.2,0.9,2.5,1.7,3.8,2.6
	c0.5,0.4,1.4,1.1,2.1,1.1l0,0l0,0c0.7,0,1.5-0.7,2.1-1.1c1.2-0.9,2.5-1.7,3.8-2.6C88.8,361,89.5,360.2,89.5,359.3z"/>
<path class="st2" d="M223.8,241.6c0-0.1-0.1-0.3-0.2-0.4l-0.9-0.9c-0.1-0.1-0.3-0.2-0.4-0.2c-0.2,0-0.3,0.1-0.4,0.2l-7.4,7.4
	l-7.4-7.4c-0.1-0.1-0.3-0.2-0.4-0.2c-0.2,0-0.3,0.1-0.4,0.2l-0.9,0.9c-0.1,0.1-0.2,0.3-0.2,0.4s0.1,0.3,0.2,0.4l8.7,8.7
	c0.1,0.1,0.3,0.2,0.4,0.2c0.1,0,0.3-0.1,0.4-0.2l8.7-8.7C223.7,241.9,223.8,241.7,223.8,241.6z"/>
<path class="st1" d="M253.8,241.6c0-0.1-0.1-0.3-0.2-0.4l-0.9-0.9c-0.1-0.1-0.3-0.2-0.4-0.2s-0.3,0.1-0.4,0.2l-7.4,7.4l-7.4-7.4
	c-0.1-0.1-0.3-0.2-0.4-0.2c-0.2,0-0.3,0.1-0.4,0.2l-0.9,0.9c-0.1,0.1-0.2,0.3-0.2,0.4s0.1,0.3,0.2,0.4l8.7,8.7
	c0.1,0.1,0.3,0.2,0.4,0.2c0.1,0,0.3-0.1,0.4-0.2l8.7-8.7C253.7,241.9,253.8,241.7,253.8,241.6z"/>
<g>
	<path class="st3" d="M3.8,40.2H0.3c-0.2,0-0.3-0.1-0.3-0.3v-1.1c0-0.1,0.1-0.3,0.3-0.3h8.8c0.2,0,0.3,0.1,0.3,0.3v1.1
		c0,0.1-0.1,0.3-0.3,0.3H5.6V49c0,0.1-0.1,0.3-0.3,0.3H4c-0.1,0-0.3-0.1-0.3-0.3L3.8,40.2L3.8,40.2z"/>
	<path class="st3" d="M16.7,38.8c0-0.1,0.1-0.3,0.3-0.3h4.6c1.7,0,3.6,1.4,3.6,3.6c0,2.2-1.2,3.1-2.4,3.6c0,0,0.3,0.1,0.8,0.8
		C24,47,25,48.9,25,48.9c0.1,0.2,0,0.4-0.2,0.4h-1.5c-0.1,0-0.2-0.1-0.2-0.1s-0.3-0.9-1-1.8c-0.7-0.9-1.8-1.4-1.8-1.4h-1.9v3
		c0,0.1-0.1,0.3-0.3,0.3h-1.3c-0.2,0-0.3-0.1-0.3-0.3V38.8H16.7z M21.5,44.4c1.7,0,2.2-1.5,2.2-2.3c0-1.5-1.4-1.9-2.2-1.9h-2.9v4.2
		H21.5L21.5,44.4z"/>
	<path class="st3" d="M82.3,45.9h-1.9v3c0,0.1-0.1,0.3-0.3,0.3h-1.3c-0.2,0-0.3-0.1-0.3-0.3V38.7c0-0.1,0.1-0.3,0.3-0.3h4.6
		c1.7,0,3.6,1.4,3.6,3.6c0,2.4-1.4,3.3-2.6,3.7C84.2,45.9,82.3,45.9,82.3,45.9L82.3,45.9z M83.4,44.3c1.7,0,2.2-1.4,2.2-2.2
		c0-1.5-1.4-1.9-2.2-1.9h-2.9v4.1L83.4,44.3L83.4,44.3z"/>
	<path class="st3" d="M33.2,38.8c0-0.1,0.1-0.3,0.3-0.3h1.3c0.1,0,0.3,0.1,0.3,0.3V49c0,0.1-0.1,0.3-0.3,0.3h-1.3
		c-0.1,0-0.3-0.1-0.3-0.3V38.8L33.2,38.8z"/>
	<path class="st3" d="M93.9,38.8c0-0.1,0.1-0.3,0.3-0.3h1.3c0.2,0,0.3,0.1,0.3,0.3v4.3h4.6v-4.3c0-0.1,0.1-0.3,0.3-0.3h1.3
		c0.1,0,0.3,0.1,0.3,0.3V49c0,0.1-0.1,0.3-0.3,0.3h-1.3c-0.2,0-0.3-0.1-0.3-0.3v-4.2h-4.6V49c0,0.1-0.1,0.3-0.3,0.3h-1.4
		c-0.1,0-0.3-0.1-0.3-0.3L93.9,38.8L93.9,38.8z"/>
	<path class="st3" d="M28.6,55.8c0-0.1,0.1-0.2,0.2-0.2h0.9c0.1,0,0.2,0.1,0.2,0.2v2.4h3v-2.4c0-0.1,0.1-0.2,0.2-0.2H34
		c0.1,0,0.2,0.1,0.2,0.2v6.1c0,0.1-0.1,0.2-0.2,0.2h-0.9c-0.1,0-0.2-0.1-0.2-0.2v-2.6h-3v2.6c0,0.1-0.1,0.2-0.2,0.2h-0.9
		c-0.1,0-0.2-0.1-0.2-0.2L28.6,55.8L28.6,55.8z"/>
	<path class="st3" d="M41.3,55.5c1.9,0,3.3,1.5,3.3,3.3c0,1.9-1.5,3.3-3.3,3.3S38,60.6,38,58.8S39.4,55.5,41.3,55.5L41.3,55.5z
		 M41.3,61c1.2,0,2.1-1,2.1-2.1c0-1.2-1-2.1-2.1-2.1c-1.2,0-2.1,1-2.1,2.1S40.1,61,41.3,61L41.3,61z"/>
	<path class="st3" d="M49.4,56.7h-2c-0.1,0-0.2-0.1-0.2-0.2v-0.8c0-0.1,0.1-0.2,0.2-0.2h5.3c0.1,0,0.2,0.1,0.2,0.2v0.8
		c0,0.1-0.1,0.2-0.2,0.2h-2v5.2c0,0.1-0.1,0.2-0.2,0.2h-0.9c-0.1,0-0.2-0.1-0.2-0.2L49.4,56.7L49.4,56.7z"/>
	<path class="st3" d="M56,55.8c0-0.1,0.1-0.2,0.2-0.2h4.1c0.1,0,0.2,0.1,0.2,0.2v0.8c0,0.1-0.1,0.2-0.2,0.2h-3v1.5h2.3
		c0.1,0,0.2,0.1,0.2,0.2v0.8c0,0.1-0.1,0.2-0.2,0.2h-2.3v1.6h3c0.1,0,0.2,0.1,0.2,0.2v0.8c0,0.1-0.1,0.2-0.2,0.2h-4.1
		c-0.1,0-0.2-0.1-0.2-0.2V55.8L56,55.8z"/>
	<path class="st3" d="M64.2,55.8c0-0.1,0.1-0.2,0.2-0.2h0.9c0.1,0,0.2,0.1,0.2,0.2V61h3c0.1,0,0.2,0.1,0.2,0.2V62
		c0,0.1-0.1,0.2-0.2,0.2h-4c-0.1,0-0.2-0.1-0.2-0.2L64.2,55.8L64.2,55.8z"/>
	<path class="st3" d="M71.2,61.2l0.3-0.6c0.1-0.1,0.2-0.1,0.3-0.1c0,0,0.7,0.5,1.3,0.5c0.5,0,0.8-0.3,0.8-0.7c0-0.5-0.3-0.7-1.1-1
		c-0.9-0.3-1.7-0.9-1.7-2c0-0.8,0.6-1.8,2.1-1.8c0.9,0,1.7,0.5,1.8,0.6c0.1,0.1,0.1,0.2,0.1,0.3l-0.4,0.5c-0.1,0.1-0.2,0.2-0.3,0.1
		c-0.1,0-0.6-0.4-1.2-0.4c-0.5,0-0.8,0.3-0.8,0.6c0,0.4,0.2,0.7,1,1c0.9,0.4,1.9,0.9,1.9,2.1c0,1-0.8,1.8-2.1,1.8
		c-1.2,0-1.9-0.5-2-0.7C71.2,61.4,71.1,61.3,71.2,61.2L71.2,61.2z"/>
	<path class="st3" d="M70.3,38.5H69l0,0c0,0,0,0-0.1,0h-0.2c-0.1,0-0.2,0.1-0.2,0.1l-3.1,5.1l0,0l-3.1-5.1c0-0.1-0.1-0.1-0.2-0.1
		h-0.2l0,0l0,0h-1.3c-0.1,0-0.3,0.1-0.3,0.3V49c0,0.1,0.1,0.3,0.3,0.3h1.3c0.2,0,0.3-0.1,0.3-0.3v-4.8v-1.7v-0.8l3,4.7
		c0,0.1,0.1,0.2,0.2,0.2h0.3c0.1,0,0.2-0.1,0.2-0.2c0,0,1.8-2.8,3.1-4.7v0.9v1.7v4.8c0,0.1,0.1,0.3,0.3,0.3h1.3
		c0.1,0,0.3-0.1,0.3-0.3V38.9C70.6,38.6,70.5,38.5,70.3,38.5L70.3,38.5z"/>
	<path class="st3" d="M43.6,38.8c0-0.1,0.1-0.3,0.3-0.3h1.3c0.2,0,0.3,0.1,0.3,0.3v6.3c0,1.2,0.8,2.4,2,2.4h1c1.2,0,2-1.3,2-2.4
		v-6.4c0-0.1,0.1-0.3,0.3-0.3h1.3c0.1,0,0.3,0.1,0.3,0.3v6.4c0,2.1-1.7,4.1-3.9,4.2h-1c-2.2,0-3.9-2-3.9-4.2L43.6,38.8L43.6,38.8z"
		/>
	<path class="st3" d="M76,61.2c0,0.6,0.4,1,1,1s1-0.4,1-1s-0.5-1-1-1S76,60.7,76,61.2L76,61.2z M76.2,61.2c0-0.5,0.4-0.8,0.8-0.8
		c0.5,0,0.8,0.4,0.8,0.8c0,0.5-0.4,0.8-0.8,0.8S76.2,61.7,76.2,61.2L76.2,61.2z M76.7,61.7L76.7,61.7L76.7,61.7
		c0.1,0.1,0.2,0.1,0.2,0v-0.3h0.2l0.2,0.3c0,0,0,0,0.1,0h0.1c0,0,0.1,0,0-0.1s-0.1-0.2-0.2-0.3c0.1,0,0.2-0.1,0.2-0.3
		s-0.2-0.3-0.3-0.3h-0.4c0,0-0.1,0-0.1,0.1L76.7,61.7L76.7,61.7z M76.8,61.2v-0.3h0.3c0.1,0,0.2,0.1,0.2,0.2c0,0.1-0.1,0.2-0.2,0.2
		L76.8,61.2L76.8,61.2z"/>
	<path class="st3" d="M56.1,5.9c0-1.8-1.6-3.2-3.8-3.6c0.1-0.2,0.2-0.5,0.2-0.8C52.5,0.7,51.8,0,51,0s-1.5,0.7-1.5,1.5
		c0,0.3,0.1,0.6,0.2,0.8c-2.1,0.4-3.6,1.9-3.6,3.6c0,1.9,1.9,3.5,4.4,3.7v0.7c-0.3,0-0.5,0.2-0.5,0.5s0.2,0.5,0.5,0.5v0.4
		c-0.3,0-0.5,0.2-0.5,0.5s0.2,0.5,0.5,0.5v8.8c-0.3,0-0.5,0.2-0.5,0.5s0.2,0.5,0.5,0.5v0.9h-2.2c-0.1,0-0.3,0.1-0.3,0.3v0.5
		c0,0.1,0.1,0.3,0.3,0.3h2.2v0.7H50c-0.1,0-0.3,0.1-0.3,0.3v1.8h-0.9v-1.8c0-0.1-0.1-0.3-0.3-0.3h-0.3c-0.1,0-0.3,0.1-0.3,0.3v2.6
		c0,0.1,0.1,0.3,0.3,0.3l0,0h2.2v1c0,0.4,0.3,0.7,0.7,0.7s0.7-0.3,0.7-0.7v-1H54l0,0c0.1,0,0.3-0.1,0.3-0.3v-0.5
		c0-0.1-0.1-0.3-0.3-0.3h-0.6v-0.8c0-0.1-0.1-0.3-0.3-0.3h-0.3c-0.1,0-0.3,0.1-0.3,0.3l0,0v0.8h-0.8v-2.8h0.8v0.8l0,0
		c0,0.1,0.1,0.3,0.3,0.3h0.3c0.1,0,0.3-0.1,0.3-0.3v-0.8H54c0.1,0,0.3-0.1,0.3-0.3v-0.5c0-0.1-0.1-0.3-0.3-0.3h-2.2v-0.9
		c0.3,0,0.5-0.2,0.5-0.5s-0.2-0.5-0.5-0.5v-8.8c0.3,0,0.5-0.2,0.5-0.5s-0.2-0.5-0.5-0.5v-0.4c0.3,0,0.5-0.2,0.5-0.5
		s-0.2-0.5-0.5-0.5V9.6C54.2,9.4,56.1,7.8,56.1,5.9L56.1,5.9z M51,0.9c0.3,0,0.6,0.3,0.6,0.6S51.3,2.1,51,2.1s-0.6-0.3-0.6-0.6
		S50.7,0.9,51,0.9L51,0.9z M47.4,5.9c0-1.2,1-2.1,2.3-2.6c0.9-0.1,1.4,0.3,1.4,0.3l0,0c0,0,0.5-0.4,1.5-0.3c1.3,0.4,2.3,1.4,2.3,2.6
		S54,8,52.6,8.5c-0.9,0.1-1.5-0.3-1.5-0.3l0,0c0,0-0.5,0.4-1.4,0.3C48.3,8.1,47.4,7.1,47.4,5.9L47.4,5.9z"/>
</g>
<path id="Vector" class="st4" d="M224.3,20.5c-4.4,0-8-3.6-8-8s3.6-8,8-8s8,3.6,8,8S228.7,20.5,224.3,20.5z M224.3,5.6
	c-3.8,0-6.9,3.1-6.9,6.9s3.1,6.9,6.9,6.9s6.9-3.1,6.9-6.9S228.1,5.6,224.3,5.6z M222,8.5h-1.4v1.4h1.4V8.5z M219.8,11.8h-1.4v1.4
	h1.4V11.8z M230.3,11.8h-1.4v1.4h1.4V11.8z M225,17.1h-1.4v1.4h1.4V17.1z M228.1,8.5h-1.4v1.4h1.4V8.5z M222,15.1h-1.4v1.4h1.4V15.1
	z M228.1,15.1h-1.4v1.4h1.4V15.1z M228,13.2v-1.4h-3V6.5h-1.3v6.7H228z"/>
<path class="st2" d="M258.1,11.6c0,5.1,7.5,6.8,13.2,6.8c0.6,0,7.2,5.2,7.2,5.2s-3.4-5.5-2-5.9c3.7-1,5.6-3.7,5.6-6.2
	c0-3.9-5.4-7.1-12-7.1C263.5,4.5,258.1,7.7,258.1,11.6z"/>
<rect x="146" y="300" class="st5" width="84.9" height="72.2"/>
<polygon class="st2" points="202.4,372.2 200,372.2 215.3,300 217.8,300 "/>
<g>
	<path class="st2" d="M161.6,305.2c1.1,0,2.2,0.1,3.1,0.3c0.9,0.2,1.7,0.6,2.4,1.1c0.7,0.5,1.2,1.2,1.5,2c0.4,0.9,0.5,1.9,0.5,3.2
		c0,1.4-0.3,2.5-0.8,3.4c-0.5,0.9-1.3,1.6-2.4,2.2c1.5,0.5,2.6,1.3,3.3,2.5c0.7,1.2,1.1,2.6,1.1,4.3c0,1.4-0.2,2.5-0.7,3.5
		c-0.5,1-1.1,1.8-1.9,2.4c-0.8,0.6-1.7,1.1-2.7,1.4c-1,0.3-2,0.5-3.1,0.5h-11.5v-26.8H161.6z M161,316.1c0.9,0,1.7-0.2,2.3-0.8
		c0.6-0.5,0.9-1.3,0.9-2.4c0-0.6-0.1-1.1-0.3-1.5c-0.2-0.4-0.5-0.7-0.8-0.9c-0.3-0.2-0.7-0.4-1.1-0.5c-0.4-0.1-0.9-0.1-1.3-0.1h-4.9
		v6.3H161z M161.2,327.5c0.5,0,1-0.1,1.5-0.2s0.9-0.3,1.2-0.6c0.4-0.3,0.6-0.6,0.8-1.1c0.2-0.5,0.3-1,0.3-1.7c0-1.4-0.3-2.4-1-2.9
		c-0.7-0.6-1.6-0.9-2.7-0.9h-5.7v7.4H161.2z"/>
	<path class="st2" d="M171.3,310.2v-5h19.5v5h-7.1V332h-5.2v-21.8H171.3z"/>
</g>
<g>
	<path class="st2" d="M153.6,337.1l3.1,8h-1.2l-0.9-2.4h-3.4l-0.9,2.4h-1.1l3.1-8H153.6z M154.3,341.8l-1.3-3.7h0l-1.3,3.7H154.3z"
		/>
	<path class="st2" d="M161.5,345.1v-0.8h0c-0.2,0.3-0.4,0.6-0.7,0.7c-0.3,0.1-0.7,0.2-1.1,0.2c-0.4,0-0.8-0.1-1.2-0.2
		c-0.3-0.2-0.6-0.4-0.8-0.7c-0.2-0.3-0.4-0.6-0.5-1c-0.1-0.4-0.2-0.8-0.2-1.2s0.1-0.8,0.2-1.2c0.1-0.4,0.3-0.7,0.5-1
		c0.2-0.3,0.5-0.5,0.8-0.6c0.3-0.2,0.7-0.2,1.2-0.2c0.1,0,0.3,0,0.5,0c0.2,0,0.3,0.1,0.5,0.2c0.2,0.1,0.3,0.2,0.5,0.3
		c0.2,0.1,0.3,0.3,0.4,0.4h0v-3h0.9v8H161.5z M158.1,343.1c0.1,0.3,0.2,0.5,0.3,0.7c0.1,0.2,0.3,0.4,0.6,0.5
		c0.2,0.1,0.5,0.2,0.8,0.2c0.3,0,0.6-0.1,0.8-0.2c0.2-0.1,0.4-0.3,0.5-0.5c0.1-0.2,0.2-0.4,0.3-0.7c0.1-0.3,0.1-0.5,0.1-0.8
		c0-0.3,0-0.6-0.1-0.8c-0.1-0.3-0.2-0.5-0.3-0.7c-0.1-0.2-0.3-0.4-0.6-0.5c-0.2-0.1-0.5-0.2-0.8-0.2c-0.3,0-0.6,0.1-0.8,0.2
		c-0.2,0.1-0.4,0.3-0.5,0.5c-0.1,0.2-0.2,0.4-0.3,0.7c-0.1,0.3-0.1,0.5-0.1,0.8C158,342.5,158.1,342.8,158.1,343.1z"/>
	<path class="st2" d="M165.5,345.1l-2.1-5.8h1.1l1.6,4.8h0l1.6-4.8h1l-2.1,5.8H165.5z"/>
	<path class="st2" d="M173.9,345.2c-0.2,0-0.4-0.1-0.6-0.2c-0.1-0.1-0.2-0.4-0.2-0.7c-0.3,0.3-0.6,0.5-0.9,0.7
		c-0.3,0.1-0.7,0.2-1.1,0.2c-0.3,0-0.5,0-0.7-0.1c-0.2-0.1-0.4-0.1-0.6-0.3c-0.2-0.1-0.3-0.3-0.4-0.5s-0.2-0.5-0.2-0.7
		c0-0.3,0.1-0.6,0.2-0.8s0.3-0.4,0.4-0.5c0.2-0.1,0.4-0.2,0.6-0.3c0.2-0.1,0.5-0.1,0.7-0.2c0.3-0.1,0.5-0.1,0.7-0.1
		c0.2,0,0.4-0.1,0.6-0.1c0.2,0,0.3-0.1,0.4-0.2c0.1-0.1,0.2-0.2,0.2-0.4c0-0.2,0-0.4-0.1-0.5s-0.2-0.2-0.3-0.3
		c-0.1-0.1-0.3-0.1-0.4-0.1c-0.2,0-0.3,0-0.5,0c-0.4,0-0.7,0.1-1,0.2c-0.3,0.2-0.4,0.4-0.4,0.9h-0.9c0-0.4,0.1-0.7,0.2-0.9
		c0.1-0.2,0.3-0.4,0.5-0.6c0.2-0.2,0.5-0.3,0.8-0.3c0.3-0.1,0.6-0.1,0.9-0.1c0.3,0,0.5,0,0.8,0.1c0.3,0,0.5,0.1,0.7,0.2
		c0.2,0.1,0.4,0.3,0.5,0.5c0.1,0.2,0.2,0.5,0.2,0.8v3c0,0.2,0,0.4,0,0.5c0,0.1,0.1,0.2,0.3,0.2c0.1,0,0.2,0,0.3-0.1v0.7
		C174.5,345.2,174.2,345.2,173.9,345.2z M172.6,342.3c-0.2,0-0.4,0.1-0.6,0.1c-0.2,0-0.4,0.1-0.6,0.1c-0.2,0-0.4,0.1-0.6,0.2
		c-0.2,0.1-0.3,0.2-0.4,0.3c-0.1,0.1-0.2,0.3-0.2,0.6c0,0.2,0,0.3,0.1,0.4c0.1,0.1,0.1,0.2,0.2,0.3c0.1,0.1,0.2,0.1,0.4,0.1
		c0.1,0,0.3,0,0.4,0c0.3,0,0.6,0,0.8-0.1c0.2-0.1,0.4-0.2,0.5-0.3c0.1-0.1,0.2-0.3,0.3-0.4c0.1-0.2,0.1-0.3,0.1-0.4v-1
		C173,342.2,172.8,342.3,172.6,342.3z"/>
	<path class="st2" d="M176.4,339.3v0.9h0c0.4-0.7,1-1,1.9-1c0.4,0,0.7,0.1,0.9,0.2c0.3,0.1,0.5,0.2,0.6,0.4c0.2,0.2,0.3,0.4,0.3,0.7
		c0.1,0.3,0.1,0.5,0.1,0.9v3.8h-0.9v-3.9c0-0.4-0.1-0.6-0.3-0.8c-0.2-0.2-0.5-0.3-0.9-0.3c-0.3,0-0.5,0-0.8,0.1
		c-0.2,0.1-0.4,0.2-0.5,0.4c-0.1,0.2-0.2,0.4-0.3,0.6c-0.1,0.2-0.1,0.5-0.1,0.7v3.3h-0.9v-5.8H176.4z"/>
	<path class="st2" d="M184.2,339.3v0.8H183v3.6c0,0.1,0,0.2,0,0.3c0,0.1,0.1,0.1,0.1,0.2c0.1,0,0.1,0.1,0.2,0.1c0.1,0,0.2,0,0.4,0
		h0.4v0.8h-0.7c-0.2,0-0.5,0-0.6-0.1c-0.2,0-0.3-0.1-0.4-0.2c-0.1-0.1-0.2-0.2-0.2-0.4c-0.1-0.2-0.1-0.4-0.1-0.6v-3.7h-1v-0.8h1
		v-1.7h0.9v1.7H184.2z"/>
	<path class="st2" d="M189.7,345.2c-0.2,0-0.4-0.1-0.6-0.2c-0.1-0.1-0.2-0.4-0.2-0.7c-0.3,0.3-0.6,0.5-0.9,0.7
		c-0.3,0.1-0.7,0.2-1.1,0.2c-0.3,0-0.5,0-0.7-0.1c-0.2-0.1-0.4-0.1-0.6-0.3c-0.2-0.1-0.3-0.3-0.4-0.5c-0.1-0.2-0.2-0.5-0.2-0.7
		c0-0.3,0.1-0.6,0.2-0.8c0.1-0.2,0.3-0.4,0.4-0.5c0.2-0.1,0.4-0.2,0.6-0.3c0.2-0.1,0.5-0.1,0.7-0.2c0.3-0.1,0.5-0.1,0.7-0.1
		c0.2,0,0.4-0.1,0.6-0.1c0.2,0,0.3-0.1,0.4-0.2c0.1-0.1,0.2-0.2,0.2-0.4c0-0.2,0-0.4-0.1-0.5s-0.2-0.2-0.3-0.3
		c-0.1-0.1-0.3-0.1-0.4-0.1c-0.2,0-0.3,0-0.5,0c-0.4,0-0.7,0.1-1,0.2s-0.4,0.4-0.4,0.9h-0.9c0-0.4,0.1-0.7,0.2-0.9
		c0.1-0.2,0.3-0.4,0.5-0.6c0.2-0.2,0.5-0.3,0.8-0.3c0.3-0.1,0.6-0.1,0.9-0.1c0.3,0,0.5,0,0.8,0.1c0.3,0,0.5,0.1,0.7,0.2
		c0.2,0.1,0.4,0.3,0.5,0.5c0.1,0.2,0.2,0.5,0.2,0.8v3c0,0.2,0,0.4,0,0.5c0,0.1,0.1,0.2,0.3,0.2c0.1,0,0.2,0,0.3-0.1v0.7
		C190.2,345.2,189.9,345.2,189.7,345.2z M188.3,342.3c-0.2,0-0.4,0.1-0.6,0.1c-0.2,0-0.4,0.1-0.6,0.1c-0.2,0-0.4,0.1-0.6,0.2
		c-0.2,0.1-0.3,0.2-0.4,0.3c-0.1,0.1-0.2,0.3-0.2,0.6c0,0.2,0,0.3,0.1,0.4c0.1,0.1,0.1,0.2,0.2,0.3c0.1,0.1,0.2,0.1,0.4,0.1
		c0.1,0,0.3,0,0.4,0c0.3,0,0.6,0,0.8-0.1c0.2-0.1,0.4-0.2,0.5-0.3c0.1-0.1,0.2-0.3,0.3-0.4c0.1-0.2,0.1-0.3,0.1-0.4v-1
		C188.7,342.2,188.5,342.3,188.3,342.3z"/>
	<path class="st2" d="M195.5,346.7c-0.4,0.5-1.1,0.7-2,0.7c-0.3,0-0.5,0-0.8-0.1c-0.3-0.1-0.5-0.2-0.8-0.3c-0.2-0.1-0.4-0.3-0.6-0.5
		c-0.1-0.2-0.2-0.5-0.2-0.8h0.9c0,0.2,0.1,0.3,0.2,0.4c0.1,0.1,0.2,0.2,0.4,0.3c0.1,0.1,0.3,0.1,0.5,0.2c0.2,0,0.3,0.1,0.5,0.1
		c0.3,0,0.6-0.1,0.8-0.2c0.2-0.1,0.4-0.3,0.5-0.4c0.1-0.2,0.2-0.4,0.3-0.7c0.1-0.3,0.1-0.6,0.1-0.9v-0.4h0c-0.2,0.4-0.4,0.6-0.7,0.8
		c-0.3,0.2-0.7,0.3-1.1,0.3c-0.4,0-0.8-0.1-1.1-0.2s-0.6-0.4-0.8-0.6c-0.2-0.3-0.4-0.6-0.5-0.9c-0.1-0.4-0.2-0.7-0.2-1.1
		c0-0.3,0-0.7,0.1-1.1c0.1-0.4,0.2-0.7,0.4-1c0.2-0.3,0.5-0.5,0.8-0.7c0.3-0.2,0.8-0.3,1.3-0.3c0.4,0,0.7,0.1,1,0.2s0.5,0.4,0.7,0.7
		h0v-0.8h0.9v5.3C196.2,345.6,196,346.3,195.5,346.7z M194.3,344.1c0.2-0.1,0.4-0.3,0.5-0.5c0.1-0.2,0.2-0.5,0.3-0.7
		c0.1-0.3,0.1-0.5,0.1-0.8c0-0.3,0-0.5-0.1-0.7s-0.2-0.5-0.3-0.7s-0.3-0.4-0.5-0.5c-0.2-0.1-0.5-0.2-0.8-0.2c-0.3,0-0.6,0.1-0.8,0.2
		c-0.2,0.1-0.4,0.3-0.5,0.5c-0.1,0.2-0.2,0.4-0.3,0.7c-0.1,0.3-0.1,0.5-0.1,0.8c0,0.3,0,0.5,0.1,0.8c0.1,0.3,0.1,0.5,0.3,0.7
		c0.1,0.2,0.3,0.4,0.5,0.5c0.2,0.1,0.5,0.2,0.8,0.2C193.8,344.3,194.1,344.3,194.3,344.1z"/>
	<path class="st2" d="M201.7,344.7c-0.4,0.3-1,0.5-1.6,0.5c-0.5,0-0.9-0.1-1.2-0.2c-0.3-0.1-0.6-0.4-0.9-0.6c-0.2-0.3-0.4-0.6-0.5-1
		c-0.1-0.4-0.2-0.8-0.2-1.2c0-0.4,0.1-0.8,0.2-1.2c0.1-0.4,0.3-0.7,0.6-0.9c0.2-0.3,0.5-0.5,0.9-0.6c0.3-0.1,0.7-0.2,1.1-0.2
		c0.5,0,0.9,0.1,1.3,0.3c0.3,0.2,0.6,0.5,0.8,0.8c0.2,0.3,0.3,0.7,0.4,1.1s0.1,0.8,0.1,1.1h-4.3c0,0.3,0,0.5,0.1,0.7
		c0.1,0.2,0.2,0.4,0.3,0.6c0.1,0.2,0.3,0.3,0.6,0.4c0.2,0.1,0.5,0.2,0.8,0.2c0.4,0,0.7-0.1,1-0.3c0.3-0.2,0.4-0.5,0.5-0.8h0.9
		C202.4,343.9,202.1,344.4,201.7,344.7z M201.5,341c-0.1-0.2-0.2-0.4-0.3-0.5c-0.1-0.1-0.3-0.3-0.5-0.3s-0.4-0.1-0.7-0.1
		c-0.2,0-0.5,0-0.7,0.1c-0.2,0.1-0.4,0.2-0.5,0.4c-0.1,0.1-0.3,0.3-0.3,0.5s-0.1,0.4-0.1,0.6h3.3C201.6,341.5,201.6,341.2,201.5,341
		z"/>
</g>
<g>
	<g>
		<path class="st2" d="M211.8,356.8c-1.3,0-2.3,1-2.3,2.3v7.2c0,1.3,1,2.3,2.3,2.3h0.3v-11.8H211.8z"/>
		<path class="st2" d="M223.3,356.8H223v11.8h0.3c1.3,0,2.3-1,2.3-2.3v-7.2C225.6,357.8,224.5,356.8,223.3,356.8z"/>
	</g>
	<g>
		<circle class="st2" cx="220.1" cy="358.8" r="0.6"/>
		<path class="st2" d="M221.6,356.8v-0.9c0-1.4-1.2-2.6-2.6-2.6h-2.9c-1.4,0-2.6,1.2-2.6,2.6v0.9h-0.6v11.8h9.2v-11.8H221.6z
			 M215.2,355.9c0-0.5,0.4-0.9,0.9-0.9h2.9c0.5,0,0.9,0.4,0.9,0.9v0.9h-4.6V355.9z M221.3,359.9c0,0.2-0.1,0.4-0.2,0.5l-2.8,2.8
			c-0.1,0.1-0.3,0.1-0.4,0l-2.2-2.2c-0.1-0.1-0.1-0.3,0-0.4l2.8-2.8c0.1-0.1,0.3-0.2,0.5-0.2h2c0.2,0,0.3,0.1,0.3,0.3V359.9z"/>
	</g>
</g>
<g>
	<g>
		<g>
			<g>
				<g>
					<path class="st2" d="M181,367c-0.3,0.9-1.1,1.4-2.5,1.4c-1.1,0-2.2-0.7-1.9-2.2c0.2-1.3,1.4-2.1,2.7-2.1c1.5,0,2.1,1,1.9,2.2
						l-0.1,0.3h-2.8c0,0,0,0.2,0,0.3c0,0.4,0.2,0.5,0.4,0.5c0.2,0,0.5-0.1,0.6-0.4H181z M179.6,365.8L179.6,365.8
						c0.1-0.4-0.1-0.6-0.4-0.6c-0.3,0-0.6,0.2-0.6,0.6H179.6"/>
					<path class="st2" d="M176.4,364.2c-0.4,0-0.8,0.2-1,0.6h0l0.1-0.5h-1.8l-0.1,0.5l1-0.1l0,0.1l-1,0.2l-0.7,3.3h1.9
						c0,0,0.2-1,0.3-1.5c0.2-0.9,0.7-1.1,1-1.1c0.3,0,0.4,0.1,0.5,0.2l0.3-1.5C176.8,364.3,176.6,364.2,176.4,364.2"/>
					<path class="st2" d="M158.7,365.9c-0.8-0.2-1.4-0.7-1.4-1.6c0-1.3,1.3-2,3-2c1.4,0,2.4,0.6,2.2,1.8l-2.1,0
						c0.1-0.3-0.1-0.5-0.5-0.5c-0.3,0-0.5,0.1-0.5,0.3c0,0.2,0.1,0.4,0.5,0.5c0.3,0.1,0.5,0.1,0.8,0.2c0.9,0.2,1.3,0.8,1.4,1.3
						l-2.6,0.3L158.7,365.9z M158.8,367.3l0.2-0.8h-2.2c-0.2,1.4,0.9,1.9,2.3,1.9c1.3,0,2.8-0.4,3.1-1.7L158.8,367.3"/>
					<path class="st2" d="M170.2,364.5c0.2-0.1,0.5-0.4,1.1-0.4c0.6,0,1,0.3,1.3,0.7l-4.5,0.5l0.6-2.8h1.9L170.2,364.5L170.2,364.5z
						 M170.1,365.5c-0.1,0.2-0.2,0.4-0.3,0.8c-0.2,0.8,0,1,0.3,1c0.3,0,0.6-0.3,0.7-1c0.1-0.4,0.1-0.8,0-0.9l1.9-0.3
						c0.1,0.3,0.1,0.7,0,1.2c-0.3,1.4-1.2,2.2-2.1,2.2c-0.4,0-0.9-0.1-1.1-0.6h0l-0.2,0.5h-1.8l0.5-2.5L170.1,365.5"/>
					<path class="st2" d="M165.2,366.8c-0.1,0.3-0.3,0.5-0.6,0.5c-0.3,0-0.4-0.2-0.3-0.5c0-0.2,0.3-0.4,0.7-0.4h0.3L165.2,366.8z
						 M164.8,365.5c0.1-0.2,0.2-0.4,0.5-0.4c0.2,0,0.3,0.2,0.3,0.4l0,0.2l1.8-0.2c-0.1-0.9-1-1.3-2-1.3c-1.5,0-2.2,0.7-2.4,1.4
						l0,0.1h1.8L164.8,365.5z M162.5,366.7c-0.1,0.2-0.1,0.3-0.1,0.5c0,0.6,0.5,1.2,1.3,1.2c0.7,0,1.1-0.3,1.3-0.5h0l0,0.4h1.8
						l0.4-2.1c0-0.1,0-0.2,0-0.3L162.5,366.7"/>
				</g>
			</g>
		</g>
		<g>
			<path class="st2" d="M181.4,367.5c0.2,0,0.4,0.2,0.4,0.4c0,0.2-0.2,0.4-0.4,0.4c-0.2,0-0.4-0.2-0.4-0.4
				C181,367.7,181.2,367.5,181.4,367.5L181.4,367.5z M181.4,367.6c-0.2,0-0.3,0.2-0.3,0.3c0,0.2,0.1,0.3,0.3,0.3
				c0.2,0,0.3-0.2,0.3-0.3C181.8,367.7,181.6,367.6,181.4,367.6L181.4,367.6z M181.4,368.2L181.4,368.2l-0.1-0.4c0,0,0.1,0,0.1,0
				c0.1,0,0.1,0,0.1,0c0,0,0,0.1,0,0.1c0,0.1,0,0.1-0.1,0.1v0c0,0,0.1,0,0.1,0.1c0,0.1,0,0.1,0,0.1h-0.1c0,0,0-0.1,0-0.1
				c0-0.1,0-0.1-0.1-0.1h0V368.2z M181.4,367.9L181.4,367.9c0.1,0,0.2,0,0.2-0.1c0,0,0-0.1-0.1-0.1c0,0,0,0-0.1,0V367.9z"/>
		</g>
	</g>
	<g>
		<path class="st2" d="M151.3,368.4c-0.4,0-0.8-0.1-1-0.2v-4.6h0.5v1.6c0.2-0.1,0.3-0.2,0.7-0.2c0.7,0,1.3,0.6,1.3,1.6
			C152.8,367.7,152.3,368.4,151.3,368.4z M151.4,365.4c-0.2,0-0.4,0-0.5,0.1v2.5c0.1,0.1,0.3,0.1,0.5,0.1c0.7,0,0.9-0.6,0.9-1.4
			C152.2,366,152,365.4,151.4,365.4z"/>
		<path class="st2" d="M154.1,369.7h-0.6l0.5-1.3l-1.1-3.2h0.6l0.7,2.3c0.1,0.2,0.1,0.4,0.1,0.4h0c0,0,0-0.2,0.1-0.4l0.7-2.3h0.5
			L154.1,369.7z"/>
	</g>
</g>
</svg>
