<?xml version="1.0" encoding="UTF-8"?>
<svg width="208px" height="128px" viewBox="0 0 208 128" version="1.1" xmlns="http://www.w3.org/2000/svg" xmlns:xlink="http://www.w3.org/1999/xlink">
    <!-- Generator: Sketch 43.1 (39012) - http://www.bohemiancoding.com/sketch -->
    <title>triumph-white-logo</title>
    <desc>Created with Sketch.</desc>
    <defs></defs>
    <g id="Page-1" stroke="none" stroke-width="1" fill="none" fill-rule="evenodd">
        <g id="triumph-white-logo" transform="translate(-1.000000, 0.000000)" fill-rule="nonzero" fill="#FFFFFF">
            <path d="M8.6,82.2 L1.5,82.2 C1.36484852,82.208941 1.23241012,82.1591407 1.1366347,82.0633653 C1.04085927,81.9675899 0.99105903,81.8351515 1,81.7 L1,81.7 L1,79.3 C0.99105903,79.1648485 1.04085927,79.0324101 1.1366347,78.9366347 C1.23241012,78.8408593 1.36484852,78.791059 1.5,78.8 L19.4,78.8 C19.5351515,78.791059 19.6675899,78.8408593 19.7633653,78.9366347 C19.8591407,79.0324101 19.908941,79.1648485 19.9,79.3 L19.9,79.3 L19.9,81.6 C19.908941,81.7351515 19.8591407,81.8675899 19.7633653,81.9633653 C19.6675899,82.0591407 19.5351515,82.108941 19.4,82.1 L12.3,82.1 L12.3,100 C12.308941,100.135151 12.2591407,100.26759 12.1633653,100.363365 C12.0675899,100.459141 11.9351515,100.508941 11.8,100.5 L9.1,100.5 C8.96484852,100.508941 8.83241012,100.459141 8.7366347,100.363365 C8.64085927,100.26759 8.59105903,100.135151 8.6,100 L8.6,82.2 Z" id="Shape"></path>
            <path d="M34.9,79.3 C34.891059,79.1648485 34.9408593,79.0324101 35.0366347,78.9366347 C35.1324101,78.8408593 35.2648485,78.791059 35.4,78.8 L44.8,78.8 C48.857011,78.8330139 52.122184,82.1429153 52.1,86.2 C52.3270795,89.4132465 50.353412,92.3737478 47.3,93.4 C48.0015706,93.7688894 48.5893071,94.3220531 49,95 C50.1,96.6 51,98.2 51.9,99.8 C51.9987106,99.9100525 52.0339659,100.063096 51.9933524,100.205244 C51.9527389,100.347391 51.8419518,100.458708 51.7,100.5 C51.6199988,100.57654 51.5099251,100.613232 51.4,100.6 L48.4,100.6 C48.1896769,100.603846 47.9955822,100.487389 47.9,100.3 C47.3762009,98.9746601 46.6693329,97.7292261 45.8,96.6 C44.8136875,95.3945498 43.587811,94.4070382 42.2,93.7 L38.4,93.7 L38.4,99.9 C38.408941,100.035151 38.3591407,100.16759 38.2633653,100.263365 C38.1675899,100.359141 38.0351515,100.408941 37.9,100.4 L35.3,100.4 C35.1648485,100.408941 35.0324101,100.359141 34.9366347,100.263365 C34.8408593,100.16759 34.791059,100.035151 34.8,99.9 L34.8,99.9 L34.8,79.3 L34.9,79.3 Z M44.5,90.8 C48,90.8 48.9,87.7 48.9,86.1 C48.9,83.1 46,82.1 44.5,82.1 L38.6,82.1 L38.6,90.7 L44.5,90.8 Z" id="Shape"></path>
            <path d="M168.6,93.9 L164.8,93.9 L164.8,100.1 C164.808941,100.235151 164.759141,100.36759 164.663365,100.463365 C164.56759,100.559141 164.435151,100.608941 164.3,100.6 L161.7,100.6 C161.564849,100.608941 161.43241,100.559141 161.336635,100.463365 C161.240859,100.36759 161.191059,100.235151 161.2,100.1 L161.2,79.3 C161.191059,79.1648485 161.240859,79.0324101 161.336635,78.9366347 C161.43241,78.8408593 161.564849,78.791059 161.7,78.8 L171.1,78.8 C175.175561,78.8272622 178.472738,82.1244386 178.5,86.2 C178.5,91 175.6,93 173.1,93.7 C171.6,93.8 170.1,93.9 168.6,93.9 L168.6,93.9 Z M170.8,90.6 C171.901139,90.6683392 172.98417,90.2954084 173.80979,89.5636091 C174.63541,88.8318098 175.135657,87.8013802 175.2,86.7 L175.2,86.2 C175.2,83.2 172.3,82.2 170.8,82.2 L164.9,82.2 L164.9,90.6 L170.8,90.6 Z" id="Shape"></path>
            <path d="M68.5,79.3 C68.491059,79.1648485 68.5408593,79.0324101 68.6366347,78.9366347 C68.7324101,78.8408593 68.8648485,78.791059 69,78.8 L71.7,78.8 C71.8351515,78.791059 71.9675899,78.8408593 72.0633653,78.9366347 C72.1591407,79.0324101 72.208941,79.1648485 72.2,79.3 L72.2,100.1 C72.208941,100.235151 72.1591407,100.36759 72.0633653,100.463365 C71.9675899,100.559141 71.8351515,100.608941 71.7,100.6 L69,100.6 C68.8648485,100.608941 68.7324101,100.559141 68.6366347,100.463365 C68.5408593,100.36759 68.491059,100.235151 68.5,100.1 L68.5,79.3 Z" id="Shape"></path>
            <path d="M192.1,79.3 C192.091059,79.1648485 192.140859,79.0324101 192.236635,78.9366347 C192.33241,78.8408593 192.464849,78.791059 192.6,78.8 L195.3,78.8 C195.435151,78.791059 195.56759,78.8408593 195.663365,78.9366347 C195.759141,79.0324101 195.808941,79.1648485 195.8,79.3 L195.8,88.1 L205.1,88.1 L205.1,79.3 C205.091059,79.1648485 205.140859,79.0324101 205.236635,78.9366347 C205.33241,78.8408593 205.464849,78.791059 205.6,78.8 L208.2,78.8 C208.335151,78.791059 208.46759,78.8408593 208.563365,78.9366347 C208.659141,79.0324101 208.708941,79.1648485 208.7,79.3 L208.7,100.1 C208.708941,100.235151 208.659141,100.36759 208.563365,100.463365 C208.46759,100.559141 208.335151,100.608941 208.2,100.6 L205.6,100.6 C205.464849,100.608941 205.33241,100.559141 205.236635,100.463365 C205.140859,100.36759 205.091059,100.235151 205.1,100.1 L205.1,91.6 L195.8,91.6 L195.8,100.1 C195.808941,100.235151 195.759141,100.36759 195.663365,100.463365 C195.56759,100.559141 195.435151,100.608941 195.3,100.6 L192.6,100.6 C192.464849,100.608941 192.33241,100.559141 192.236635,100.463365 C192.140859,100.36759 192.091059,100.235151 192.1,100.1 L192.1,79.3 Z" id="Shape"></path>
            <path d="M59,114 C59.0145168,113.785386 59.1853864,113.614517 59.4,113.6 L61.2,113.6 C61.4146136,113.614517 61.5854832,113.785386 61.6,114 L61.6,114 L61.6,119 L67.7,119 L67.7,114 C67.7145168,113.785386 67.8853864,113.614517 68.1,113.6 L69.8,113.6 C70,113.6 70.1,113.8 70.1,114 L70.1,126.5 C70.1,126.7 69.9,126.8 69.8,126.9 L68,126.9 C67.7853864,126.885483 67.6145168,126.714614 67.6,126.5 L67.6,126.5 L67.6,121.3 L61.5,121.3 L61.5,126.5 C61.4854832,126.714614 61.3146136,126.885483 61.1,126.9 L59.3,126.9 C59.0853864,126.885483 58.9145168,126.714614 58.9,126.5 L58.9,114 L59,114 Z" id="Shape"></path>
            <path d="M85,113.5 C88.7555363,113.5 91.8,116.544464 91.8,120.3 C91.8,124.055536 88.7555363,127.1 85,127.1 C81.2444637,127.1 78.2,124.055536 78.2,120.3 L78.2,120.2 C78.2052084,118.407267 78.9265276,116.690933 80.2035417,115.432699 C81.4805558,114.174465 83.2073865,113.47865 85,113.5 Z M85,124.6 C87.402207,124.627453 89.3718645,122.702391 89.3994231,120.300185 C89.4269818,117.897979 87.5020064,115.928237 85.0998018,115.900572 C82.6975973,115.872908 80.7277702,117.797797 80.7,120.2 C80.7099226,122.587223 82.6136358,124.535209 85,124.6 Z" id="Shape"></path>
            <path d="M101.5,115.9 L97.4,115.9 C97.2182677,115.890091 97.0603975,115.771689 97,115.6 L97,115.6 L97,114.1 C97,113.9 97.1,113.7 97.3,113.7 L108.1,113.7 C108.314614,113.714517 108.485483,113.885386 108.5,114.1 L108.5,114.1 L108.5,115.6 C108.5,115.8 108.4,116 108.2,116 L104,116 L104,126.6 C103.985483,126.814614 103.814614,126.985483 103.6,127 L101.8,127 C101.585386,126.985483 101.414517,126.814614 101.4,126.6 L101.4,115.9 L101.5,115.9 Z" id="Shape"></path>
            <path d="M114.8,114 C114.814517,113.785386 114.985386,113.614517 115.2,113.6 L123.5,113.6 C123.714614,113.614517 123.885483,113.785386 123.9,114 L123.9,114 L123.9,115.5 C123.885483,115.714614 123.714614,115.885483 123.5,115.9 L117.3,115.9 L117.3,119 L122,119 C122.214614,119.014517 122.385483,119.185386 122.4,119.4 L122.4,121 C122.385483,121.214614 122.214614,121.385483 122,121.4 L117.3,121.4 L117.3,124.7 L123.5,124.7 C123.714614,124.714517 123.885483,124.885386 123.9,125.1 L123.9,125.1 L123.9,126.6 C123.885483,126.814614 123.714614,126.985483 123.5,127 L115.2,127 C114.985386,126.985483 114.814517,126.814614 114.8,126.6 L114.8,114 L114.8,114 Z" id="Shape"></path>
            <path d="M131.6,114 C131.614517,113.785386 131.785386,113.614517 132,113.6 L133.7,113.6 C133.9,113.6 134,113.8 134.1,114 L134.1,124.6 L140.2,124.6 C140.414614,124.614517 140.585483,124.785386 140.6,125 L140.6,125 L140.6,126.5 C140.585483,126.714614 140.414614,126.885483 140.2,126.9 L132,126.9 C131.785386,126.885483 131.614517,126.714614 131.6,126.5 L131.6,126.5 L131.6,114 Z" id="Shape"></path>
            <path d="M146,125 L146.7,123.8 C146.821601,123.592371 147.078141,123.506857 147.3,123.6 L147.4,123.6 C148.160566,124.161815 149.058982,124.507359 150,124.6 C150.853833,124.675659 151.61053,124.052496 151.7,123.2 L151.7,123.2 C151.7,122.2 151.1,121.7 149.5,121.1 C147.7,120.4 145.9,119.3 145.9,117 C145.9,115.3 147.2,113.4 150.1,113.4 C151.472617,113.418579 152.803631,113.873925 153.9,114.7 C154.006288,114.75503 154.080437,114.856921 154.100114,114.974981 C154.11979,115.093041 154.082695,115.213473 154,115.3 L153.3,116.4 C153.145175,116.626399 152.851062,116.710431 152.6,116.6 L152.6,116.6 C151.891793,116.096557 151.064612,115.786364 150.2,115.7 C149.377102,115.609839 148.628595,116.182227 148.5,117 C148.5,117.9 148.9,118.3 150.5,119 C152.3,119.7 154.4,120.8 154.4,123.3 C154.4,125.2 152.7,127 150.1,127 C148.587558,127.069538 147.110485,126.529146 146,125.5 C145.93749,125.339195 145.93749,125.160805 146,125 L146,125 Z" id="Shape"></path>
            <path d="M144.2,78.8 L140.9,78.8 C140.689677,78.7961542 140.495582,78.912611 140.4,79.1 L134,89.4 L134,89.4 L127.7,79.1 C127.604418,78.912611 127.410323,78.7961542 127.2,78.8 L124,78.8 C123.864849,78.791059 123.73241,78.8408593 123.636635,78.9366347 C123.540859,79.0324101 123.491059,79.1648485 123.5,79.3 L123.5,100.1 C123.491059,100.235151 123.540859,100.36759 123.636635,100.463365 C123.73241,100.559141 123.864849,100.608941 124,100.6 L126.6,100.6 C126.735151,100.608941 126.86759,100.559141 126.963365,100.463365 C127.059141,100.36759 127.108941,100.235151 127.1,100.1 L127.1,85.2 L133.1,94.8 C133.195582,94.987389 133.389677,95.1038458 133.6,95.1 L134.1,95.1 C134.310323,95.1038458 134.504418,94.987389 134.6,94.8 C134.6,94.8 138.3,89.1 140.9,85.2 L140.9,100.2 C140.891059,100.335151 140.940859,100.46759 141.036635,100.563365 C141.13241,100.659141 141.264849,100.708941 141.4,100.7 L144,100.7 C144.135151,100.708941 144.26759,100.659141 144.363365,100.563365 C144.459141,100.46759 144.508941,100.335151 144.5,100.2 L144.5,79.3 C144.7,79 144.4,78.8 144.2,78.8 Z" id="Shape"></path>
            <path d="M89.7,79.4 C89.7315988,79.0983523 89.9975992,78.8766853 90.3,78.9 L93,78.9 C93.1351515,78.891059 93.2675899,78.9408593 93.3633653,79.0366347 C93.4591407,79.1324101 93.508941,79.2648485 93.5,79.4 L93.5,79.4 L93.5,92.3 C93.5,94.7 95.2,97.3 97.6,97.3 L99.6,97.3 C102,97.2 103.6,94.7 103.6,92.4 L103.6,79.4 C103.591059,79.2648485 103.640859,79.1324101 103.736635,79.0366347 C103.83241,78.9408593 103.964849,78.891059 104.1,78.9 L106.8,78.9 C106.935151,78.891059 107.06759,78.9408593 107.163365,79.0366347 C107.259141,79.1324101 107.308941,79.2648485 107.3,79.4 L107.3,92.5 C107.3,96.8 103.9,100.9 99.4,101 L97.4,101 C92.9,101 89.5,96.8 89.5,92.5 L89.7,79.4 L89.7,79.4 Z" id="Shape"></path>
            <path d="M115.3,11.7 C115.3,8.2 112.1,5.3 107.8,4.5 C108.071044,4.04727007 108.209629,3.52757585 108.2,3 C108.2,1.34314575 106.856854,1.11022302e-16 105.2,0 C103.560879,0.0420493086 102.242049,1.36087904 102.2,3 C102.177468,3.5290675 102.317024,4.05240128 102.6,4.5 C98.4,5.4 95.3,8.3 95.3,11.7 C95.3,15.5 99.1,18.6 104,19.1 L104,20.5 C103.481552,20.6461827 103.172053,21.1767535 103.3,21.7 C103.393371,22.0405617 103.659438,22.3066289 104,22.4 L104,23.2 C103.481552,23.3461827 103.172053,23.8767535 103.3,24.4 C103.393371,24.7405617 103.659438,25.0066289 104,25.1 L104,42.6 C103.481552,42.7461827 103.172053,43.2767535 103.3,43.8 C103.393371,44.1405617 103.659438,44.4066289 104,44.5 L104,46.3 L99.7,46.3 C99.5648485,46.291059 99.4324101,46.3408593 99.3366347,46.4366347 C99.2408593,46.5324101 99.191059,46.6648485 99.2,46.8 L99.2,46.8 L99.2,47.8 C99.191059,47.9351515 99.2408593,48.0675899 99.3366347,48.1633653 C99.4324101,48.2591407 99.5648485,48.308941 99.7,48.3 L104,48.3 L104,49.7 L103,49.7 C102.864849,49.691059 102.73241,49.7408593 102.636635,49.8366347 C102.540859,49.9324101 102.491059,50.0648485 102.5,50.2 L102.5,50.2 L102.5,53.9 L100.7,53.9 L100.7,50.3 C100.708941,50.1648485 100.659141,50.0324101 100.563365,49.9366347 C100.46759,49.8408593 100.335151,49.791059 100.2,49.8 L99.7,49.8 C99.5648485,49.791059 99.4324101,49.8408593 99.3366347,49.9366347 C99.2408593,50.0324101 99.191059,50.1648485 99.2,50.3 L99.2,50.3 L99.2,55.5 C99.191059,55.6351515 99.2408593,55.7675899 99.3366347,55.8633653 C99.4324101,55.9591407 99.5648485,56.008941 99.7,56 L104,56 L104,58.1 C104,58.8731986 104.626801,59.5 105.4,59.5 C106.173199,59.5 106.8,58.8731986 106.8,58.1 L106.8,58.1 L106.8,56 L111.1,56 C111.235151,56.008941 111.36759,55.9591407 111.463365,55.8633653 C111.559141,55.7675899 111.608941,55.6351515 111.6,55.5 L111.6,54.5 C111.608941,54.3648485 111.559141,54.2324101 111.463365,54.1366347 C111.36759,54.0408593 111.235151,53.991059 111.1,54 L109.9,54 L109.9,52.4 C109.908941,52.2648485 109.859141,52.1324101 109.763365,52.0366347 C109.66759,51.9408593 109.535151,51.891059 109.4,51.9 L108.9,51.9 C108.764849,51.891059 108.63241,51.9408593 108.536635,52.0366347 C108.440859,52.1324101 108.391059,52.2648485 108.4,52.4 L108.4,52.4 L108.4,53.9 L106.8,53.9 L106.8,48.4 L108.4,48.4 L108.4,49.9 L108.4,49.9 C108.391059,50.0351515 108.440859,50.1675899 108.536635,50.2633653 C108.63241,50.3591407 108.764849,50.408941 108.9,50.4 L109.4,50.4 C109.535151,50.408941 109.66759,50.3591407 109.763365,50.2633653 C109.859141,50.1675899 109.908941,50.0351515 109.9,49.9 L109.9,49.9 L109.9,48.4 L111.1,48.4 C111.235151,48.408941 111.36759,48.3591407 111.463365,48.2633653 C111.559141,48.1675899 111.608941,48.0351515 111.6,47.9 L111.6,46.9 C111.608941,46.7648485 111.559141,46.6324101 111.463365,46.5366347 C111.36759,46.4408593 111.235151,46.391059 111.1,46.4 L106.8,46.4 L106.8,44.6 C107.278997,44.6331669 107.713958,44.3212169 107.836151,43.856882 C107.958345,43.392547 107.733276,42.9069051 107.3,42.7 L106.8,42.7 L106.8,25.1 C107.278997,25.1331669 107.713958,24.8212169 107.836151,24.356882 C107.958345,23.892547 107.733276,23.4069051 107.3,23.2 L106.8,23.2 L106.8,22.4 C107.278997,22.4331669 107.713958,22.1212169 107.836151,21.656882 C107.958345,21.192547 107.733276,20.7069051 107.3,20.5 L106.8,20.5 L106.8,19.1 C111.5,18.5 115.2,15.4 115.3,11.7 L115.3,11.7 Z M105.1,1.7 C105.758256,1.71070547 106.289295,2.24174364 106.3,2.9 C106.256449,3.54384065 105.743841,4.05644948 105.1,4.1 C104.441744,4.08929453 103.910705,3.55825636 103.9,2.9 C103.910705,2.24174364 104.441744,1.71070547 105.1,1.7 L105.1,1.7 Z M97.8,11.7 C97.8,9.4 99.7,7.4 102.4,6.6 C103.376188,6.38760989 104.396554,6.60625981 105.2,7.2 L105.2,7.2 C106.045292,6.61498215 107.091966,6.39842894 108.1,6.6 C110.8,7.4 112.7,9.4 112.7,11.7 C112.7,14 110.8,16 108.1,16.8 C107.091958,17.0124424 106.040985,16.7949999 105.2,16.2 L105.2,16.2 C104.396554,16.7937402 103.376188,17.0123901 102.4,16.8 C99.7,15.9 97.8,14 97.8,11.7 L97.8,11.7 Z" id="Shape"></path>
            <path d="M165,121.85 L165,120.8 L165.9,120.8 C166.032744,120.786055 166.165554,120.825764 166.268858,120.910285 C166.372161,120.994806 166.437383,121.117123 166.45,121.25 L166.45,121.35 C166.45,121.626142 166.226142,121.85 165.95,121.85 L165,121.85 L165,121.85 Z M164.45,123.45 C164.454906,123.530723 164.519276,123.595094 164.6,123.6 L164.85,123.6 C164.930723,123.595094 164.995094,123.530723 165,123.45 L165,123.45 L165,122.3 L165.7,122.3 L166.2,123.45 L166.35,123.6 L166.65,123.6 C166.75,123.6 166.85,123.55 166.85,123.45 L166.85,123.35 L166.3,122.25 C166.760081,122.143658 167.076734,121.721454 167.05,121.25 C167.05693,120.969455 166.948532,120.698338 166.750097,120.499903 C166.551662,120.301467 166.280544,120.19307 166,120.2 L164.65,120.2 C164.569276,120.204906 164.504906,120.269276 164.5,120.35 L164.5,120.35 L164.45,123.45 L164.45,123.45 Z M162.85,121.85 C162.85,120.303603 164.103603,119.05 165.65,119.05 C167.196397,119.05 168.45,120.303603 168.45,121.85 C168.45,123.396397 167.196397,124.65 165.65,124.65 L165.65,124.65 C164.904523,124.659498 164.1868,124.367549 163.659625,123.840374 C163.132451,123.3132 162.840502,122.595477 162.85,121.85 L162.85,121.85 L162.85,121.85 Z M162.3,121.85 C162.3,123.700154 163.799846,125.2 165.65,125.2 C167.500154,125.2 169,123.700154 169,121.85 C169,119.999846 167.500154,118.5 165.65,118.5 C163.799846,118.5 162.3,119.999846 162.3,121.85 L162.3,121.85 L162.3,121.85 Z" id="Shape"></path>
        </g>
    </g>
</svg>